<svg width="146" height="110" viewBox="0 0 146 110" fill="none" xmlns="http://www.w3.org/2000/svg">
<path d="M114.019 80.993C114.019 80.993 109.153 71.588 107.668 69.696C106.182 67.804 98.7034 47.0983 98.6012 46.9003C98.499 46.7023 111.701 48.0957 113.289 49.3937C114.877 50.6917 116.366 62.4507 117.669 63.7487C118.972 65.0467 123.808 71.0233 123.808 71.0233L114.019 80.993Z" fill="white"/>
<path d="M114.019 81.1763H113.989C113.961 81.1708 113.934 81.159 113.911 81.1419C113.888 81.1248 113.868 81.1028 113.854 81.0773C113.807 80.9857 108.985 71.6687 107.522 69.8097C106.244 68.1817 100.755 53.262 98.9478 48.3597C98.6631 47.586 98.4587 47.0287 98.4368 46.9773C98.4207 46.9385 98.4173 46.8956 98.4272 46.8547C98.437 46.8138 98.4595 46.7771 98.4915 46.75C98.7543 46.5373 104.426 47.2743 105.459 47.421C108.602 47.861 112.533 48.521 113.405 49.2543C114.278 49.9877 115.077 53.4747 115.906 57.1707C116.552 60.0637 117.22 63.0373 117.785 63.6203C119.067 64.911 123.75 70.6677 123.95 70.9133C123.98 70.9464 123.997 70.9896 123.997 71.0343C123.997 71.0791 123.98 71.1222 123.95 71.1553L114.157 81.125C114.139 81.1434 114.118 81.1576 114.094 81.1664C114.07 81.1753 114.044 81.1787 114.019 81.1763ZM98.8602 47.0763L99.2909 48.246C104.12 61.3653 106.985 68.5483 107.81 69.597C109.182 71.3423 113.285 79.2293 114.062 80.6997L123.552 71.027C122.841 70.1543 118.68 65.0613 117.515 63.8917C116.877 63.25 116.256 60.4743 115.537 57.2623C114.807 53.9623 113.96 50.2003 113.165 49.5623C111.785 48.4 100.605 47.1093 98.8602 47.0617V47.0763Z" fill="#231F20"/>
<path d="M114.855 89.441L110.445 76.7397L122.801 68.6547L131.776 82.489L114.855 89.441Z" fill="#388CE0"/>
<path d="M114.854 89.6207C114.829 89.6259 114.803 89.6259 114.778 89.6207C114.756 89.6102 114.736 89.5954 114.72 89.5772C114.703 89.5589 114.691 89.5375 114.683 89.5143L110.274 76.8167C110.26 76.7776 110.259 76.735 110.273 76.6957C110.286 76.6564 110.312 76.6228 110.347 76.6003L122.702 68.5153C122.743 68.4892 122.792 68.4802 122.839 68.4905C122.886 68.5009 122.928 68.5295 122.954 68.5703L131.929 82.4047C131.944 82.4273 131.953 82.4527 131.957 82.4793C131.961 82.5058 131.959 82.5329 131.951 82.5587C131.942 82.584 131.928 82.6073 131.91 82.6269C131.892 82.6464 131.87 82.6619 131.845 82.6723L114.924 89.639C114.9 89.6366 114.877 89.6304 114.854 89.6207ZM110.664 76.8167L114.975 89.199L131.517 82.401L122.757 68.9077L110.664 76.8167Z" fill="#231F20"/>
<path d="M30.2329 80.993C30.2329 80.993 35.0983 71.588 36.5839 69.696C38.0694 67.804 45.5483 47.0983 45.6505 46.9003C45.7527 46.7023 32.5506 48.0957 30.9629 49.3937C29.3751 50.6917 27.8859 62.4507 26.5829 63.7487C25.2798 65.0467 20.4399 71.0233 20.4399 71.0233L30.2329 80.993Z" fill="white"/>
<path d="M30.233 81.1763C30.209 81.1766 30.1853 81.1719 30.1633 81.1624C30.1413 81.1529 30.1215 81.1389 30.1052 81.1213L20.3123 71.1517C20.2823 71.1186 20.2656 71.0754 20.2656 71.0307C20.2656 70.9859 20.2823 70.9427 20.3123 70.9097C20.5021 70.664 25.185 64.9 26.4662 63.6167C27.0319 63.0483 27.6999 60.06 28.3459 57.167C29.1745 53.471 29.9519 49.9803 30.8462 49.2507C31.7404 48.521 35.6496 47.861 38.7922 47.4173C39.8252 47.2707 45.4936 46.5337 45.7601 46.7463C45.7938 46.773 45.8173 46.8106 45.8266 46.8527C45.8359 46.8948 45.8305 46.9388 45.8112 46.9773L45.3038 48.356C43.4788 53.2583 38.0038 68.178 36.73 69.806C35.27 71.665 30.4447 80.982 30.3972 81.0737C30.3833 81.0991 30.364 81.1212 30.3407 81.1383C30.3173 81.1554 30.2905 81.1671 30.2622 81.1727L30.233 81.1763ZM20.6882 71.0123L30.1782 80.685C30.9411 79.2183 35.0583 71.3277 36.4307 69.5823C37.2556 68.5337 40.1208 61.3507 44.9498 48.2313L45.3805 47.0617C43.6358 47.1093 32.4558 48.4037 31.0652 49.5367C30.2695 50.1857 29.4336 53.9367 28.6927 57.2367C27.9627 60.4487 27.3531 63.2243 26.7144 63.866C25.55 65.0467 21.4 70.1397 20.6882 71.0123Z" fill="#231F20"/>
<path d="M27.7728 89.3017L33.8062 76.7397L21.8999 66.9057L11.5376 80.0103L27.7728 89.3017Z" fill="#388CE0"/>
<path d="M27.7729 89.485C27.7417 89.4856 27.7112 89.4766 27.6853 89.4593L11.4464 80.168C11.4234 80.1552 11.4036 80.1373 11.3885 80.1157C11.3733 80.0941 11.3632 80.0694 11.3588 80.0433C11.3537 80.0177 11.3543 79.9912 11.3606 79.9659C11.3669 79.9405 11.3788 79.9168 11.3953 79.8967L21.7577 66.792C21.7721 66.7729 21.7902 66.7569 21.8109 66.7449C21.8316 66.733 21.8544 66.7253 21.8781 66.7223C21.9266 66.7182 21.9748 66.7326 22.0132 66.7627L33.9231 76.6003C33.9548 76.6261 33.9767 76.6619 33.9854 76.7019C33.994 76.7419 33.9888 76.7837 33.9706 76.8203L27.9371 89.3823C27.9137 89.4267 27.8746 89.4607 27.8276 89.4777L27.7729 89.485ZM11.8114 79.9517L27.6962 89.0413L33.58 76.791L21.9256 67.1623L11.8114 79.9517Z" fill="#231F20"/>
<path d="M46.8404 34.9983C46.8404 34.9983 33.8245 69.6227 34.5472 70.0553C35.2699 70.488 51.4212 65.725 54.7938 64.8597L72.635 70.7043L91.9179 66.5903L109.5 72.0023L100.108 36.3L86.6035 29.3737L73.365 35.8637L60.8199 30.2353L46.8404 34.9983Z" fill="white"/>
<path d="M109.5 72.1857H109.445L91.907 66.781L72.6715 70.884C72.6403 70.8913 72.6078 70.8913 72.5766 70.884L54.7902 65.0577C53.885 65.2923 52.0928 65.791 50.0269 66.374C40.0953 69.1607 34.9634 70.521 34.456 70.2203C34.2078 70.0737 33.872 69.8537 40.2522 52.3087C43.3803 43.6957 46.6361 35.0277 46.6689 34.9397C46.6792 34.9145 46.6946 34.8918 46.7141 34.8728C46.7336 34.8539 46.7567 34.8392 46.7821 34.8297L60.7616 30.063C60.8051 30.0467 60.8531 30.0467 60.8966 30.063L73.365 35.662L86.5452 29.205C86.5707 29.1924 86.5988 29.1858 86.6273 29.1858C86.6558 29.1858 86.6839 29.1924 86.7094 29.205L100.214 36.1277C100.237 36.1397 100.258 36.1563 100.274 36.1765C100.29 36.1967 100.302 36.22 100.309 36.245L109.708 71.951C109.715 71.9781 109.716 72.0065 109.711 72.034C109.706 72.0615 109.694 72.0875 109.677 72.1098C109.66 72.1321 109.638 72.1502 109.613 72.1627C109.588 72.1753 109.561 72.1818 109.533 72.182L109.5 72.1857ZM91.9034 66.407H91.9581L109.237 71.72L99.9443 36.41L86.6109 29.5753L73.4344 36.0287C73.3852 36.0486 73.3302 36.0486 73.2811 36.0287L60.8127 30.4333L46.9828 35.145C42.0042 48.3817 34.7407 68.2697 34.7006 69.9087C35.7299 69.9967 44.9206 67.4153 49.9284 66.0147C52.0381 65.4243 53.8594 64.9147 54.75 64.6837C54.7832 64.6728 54.819 64.6728 54.8522 64.6837L72.635 70.5137L91.8705 66.4107L91.9034 66.407Z" fill="#231F20"/>
<path d="M45.917 47.3C45.8781 47.2997 45.8403 47.2871 45.8089 47.2641C45.7775 47.2411 45.754 47.2088 45.7418 47.1717C45.7124 47.0815 45.7015 46.9863 45.7096 46.8918C45.7178 46.7973 45.7449 46.7054 45.7893 46.6217C46.033 46.2648 46.3997 46.0114 46.8186 45.9103C49.766 45.0499 52.8636 44.8386 55.8998 45.2907C56.2648 45.3493 56.6626 45.419 57.0422 45.485C58.2832 45.7087 59.568 45.936 60.8163 45.771C62.1048 45.5612 63.3319 45.0706 64.4116 44.3337C67.4155 42.449 69.1858 39.7833 69.1566 37.202C69.1574 37.1539 69.1763 37.1079 69.2095 37.0733C69.2427 37.0386 69.2876 37.0178 69.3354 37.015C69.3598 37.014 69.3842 37.018 69.407 37.0268C69.4298 37.0356 69.4505 37.049 69.468 37.0662C69.4854 37.0834 69.4992 37.104 69.5084 37.1267C69.5176 37.1494 69.5221 37.1738 69.5216 37.1983C69.5617 39.908 67.7258 42.6983 64.616 44.6453C63.4906 45.4105 62.2126 45.9198 60.8711 46.1377C59.5717 46.3063 58.2577 46.0717 56.9911 45.848C56.6261 45.7783 56.2356 45.7123 55.8596 45.6537C52.8747 45.2089 49.8294 45.4165 46.9317 46.2623C46.6085 46.3353 46.3221 46.5227 46.1251 46.7903C46.1021 46.8306 46.088 46.8752 46.0836 46.9214C46.0792 46.9676 46.0846 47.0141 46.0995 47.058C46.1147 47.1037 46.1113 47.1536 46.0901 47.1968C46.0689 47.24 46.0317 47.2732 45.9864 47.289L45.917 47.3Z" fill="#D1D3D4"/>
<path d="M44.53 63.4663C44.5007 63.4663 44.4718 63.4592 44.4458 63.4456C44.4198 63.4321 44.3975 63.4124 44.3806 63.3883C44.3638 63.3642 44.353 63.3364 44.3491 63.3072C44.3453 63.278 44.3484 63.2483 44.3584 63.2207C45.9425 58.7803 47.669 54.6223 51.3336 52.4993C53.8411 51.0327 57.1261 50.6917 61.0973 51.447C62.6011 51.733 64.0976 52.1437 65.5467 52.547C67.2481 53.0442 68.9745 53.4505 70.7187 53.7643C73.1679 54.1567 74.9418 53.9587 76.3069 53.1373C77.672 52.316 78.537 50.9007 79.4203 49.4193C79.9565 48.442 80.59 47.5219 81.311 46.673C83.6507 44.1063 87.2642 43.329 91.0711 42.7167C94.3123 42.196 97.433 41.8623 99.9369 43.483C99.9776 43.5097 100.006 43.5516 100.016 43.5994C100.026 43.6472 100.017 43.697 99.9899 43.7378C99.9633 43.7787 99.9216 43.8072 99.874 43.8172C99.8264 43.8272 99.7769 43.8177 99.7362 43.791C97.3418 42.24 94.2977 42.57 91.1259 43.0797C87.3883 43.681 83.8441 44.429 81.5811 46.9187C80.8777 47.7504 80.259 48.6508 79.7342 49.6063C78.8655 51.073 77.9713 52.5653 76.4967 53.4527C75.0221 54.34 73.2117 54.5527 70.6567 54.1273C68.9003 53.811 67.1618 53.4022 65.4481 52.9027C64.0064 52.5067 62.5281 52.0997 61.0243 51.8027C57.1444 51.0693 53.9433 51.403 51.5124 52.8073C47.9537 54.8717 46.2601 58.9637 44.6979 63.3343C44.6877 63.3715 44.6659 63.4044 44.6356 63.4282C44.6054 63.452 44.5683 63.4653 44.53 63.4663Z" fill="#D1D3D4"/>
<path d="M72.635 70.8877C72.5869 70.8858 72.5414 70.8652 72.5081 70.8304C72.4747 70.7955 72.4561 70.749 72.4562 70.7007L73.1862 35.8673C73.1897 35.8196 73.2107 35.7749 73.2451 35.7417C73.2794 35.7086 73.3247 35.6893 73.3723 35.6877C73.3964 35.6876 73.4203 35.6925 73.4425 35.702C73.4647 35.7115 73.4847 35.7254 73.5014 35.7429C73.5182 35.7603 73.5312 35.781 73.5397 35.8037C73.5483 35.8263 73.5522 35.8505 73.5512 35.8747L72.8212 70.708C72.8207 70.7321 72.8155 70.7558 72.8059 70.7779C72.7963 70.7999 72.7824 70.8199 72.7652 70.8366C72.7479 70.8533 72.7275 70.8664 72.7052 70.8751C72.6828 70.8839 72.659 70.8882 72.635 70.8877Z" fill="#D1D3D4"/>
<path d="M54.7938 65.043H54.75C54.7025 65.0341 54.6602 65.0068 54.6323 64.9671C54.6044 64.9274 54.5929 64.8784 54.6004 64.8303L60.6265 30.206C60.6348 30.1574 60.6619 30.114 60.7019 30.0855C60.742 30.057 60.7916 30.0456 60.8401 30.0538C60.8885 30.0621 60.9316 30.0893 60.96 30.1296C60.9884 30.1698 60.9998 30.2197 60.9915 30.2683L54.9763 64.9C54.9664 64.941 54.943 64.9775 54.9099 65.0035C54.8768 65.0294 54.8358 65.0434 54.7938 65.043Z" fill="#D1D3D4"/>
<path d="M91.9143 66.7737C91.8704 66.774 91.8279 66.7581 91.7949 66.729C91.762 66.7 91.7408 66.6597 91.7354 66.616L86.432 29.3957C86.4252 29.347 86.4379 29.2977 86.4673 29.2585C86.4968 29.2193 86.5405 29.1935 86.5889 29.1867C86.6373 29.1799 86.6864 29.1926 86.7254 29.2222C86.7645 29.2518 86.7902 29.2957 86.797 29.3443L92.1004 66.5647C92.1067 66.6132 92.0938 66.6623 92.0644 66.7014C92.0351 66.7404 91.9916 66.7664 91.9435 66.7737H91.9143Z" fill="#D1D3D4"/>
<path d="M104.755 68.508C104.732 68.5114 104.709 68.5114 104.686 68.508L91.25 62.744L72.2079 67.2027C72.1735 67.2136 72.1365 67.2136 72.1021 67.2027L55.4982 60.731L39.4747 64.9C39.4425 64.9083 39.4087 64.9079 39.3766 64.8988C39.3446 64.8898 39.3155 64.8725 39.2922 64.8487C39.2703 64.8234 39.2554 64.7929 39.249 64.7601C39.2426 64.7273 39.2449 64.6933 39.2557 64.6617L49.1655 36.6667C49.1742 36.6418 49.1881 36.619 49.2064 36.6C49.2247 36.5811 49.2468 36.5663 49.2713 36.5567L60.3272 32.23C60.3506 32.2191 60.3761 32.2135 60.402 32.2135C60.4278 32.2135 60.4533 32.2191 60.4768 32.23L73.3212 38.5367L86.7386 31.9367C86.7641 31.924 86.7922 31.9175 86.8207 31.9175C86.8492 31.9175 86.8772 31.924 86.9028 31.9367L98.55 38.0087C98.574 38.0211 98.5949 38.0387 98.6114 38.0603C98.6278 38.0818 98.6392 38.1068 98.6449 38.1333L104.963 68.2843C104.97 68.3171 104.967 68.3511 104.956 68.3827C104.945 68.4143 104.926 68.4424 104.901 68.464C104.882 68.4821 104.858 68.4956 104.833 68.5032C104.808 68.5108 104.781 68.5125 104.755 68.508ZM91.25 62.37C91.2728 62.3645 91.2965 62.3645 91.3193 62.37L104.499 68.002L98.2689 38.28L86.797 32.3033L73.3796 38.9033C73.3542 38.9142 73.3269 38.9198 73.2993 38.9198C73.2717 38.9198 73.2443 38.9142 73.219 38.9033L60.3856 32.6003L49.4794 36.8683L39.7156 64.4527L55.48 60.3533C55.5169 60.3422 55.5562 60.3422 55.5931 60.3533L72.2006 66.825L91.25 62.3737V62.37Z" fill="#D1D3D4"/>
<path d="M112.387 54.8753C109.358 52.789 105.97 51.2747 102.507 50.0427C101.649 49.7383 100.736 49.445 99.8458 49.6357C98.9552 49.8263 98.1339 50.6733 98.3128 51.568C98.4551 52.272 99.1158 52.7267 99.7217 53.108L107.653 58.0947C107.22 59.7589 107.282 61.5141 107.832 63.1433C108.381 64.7725 109.394 66.2042 110.745 67.2613" fill="white"/>
<path d="M110.745 67.4667C110.705 67.4669 110.667 67.454 110.635 67.43C109.264 66.37 108.23 64.9301 107.663 63.2877C107.095 61.6453 107.019 59.8721 107.441 58.1863L99.6232 53.273C98.9553 52.8513 98.2873 52.3747 98.134 51.612C97.9332 50.5927 98.864 49.6613 99.8057 49.4633C100.747 49.2653 101.631 49.5477 102.569 49.8777C106.62 51.3223 109.774 52.8623 112.489 54.7287C112.509 54.7423 112.527 54.7597 112.54 54.7801C112.553 54.8004 112.562 54.8231 112.567 54.847C112.571 54.8709 112.571 54.8954 112.566 54.9192C112.56 54.9429 112.551 54.9654 112.537 54.9853C112.524 55.0053 112.507 55.0225 112.487 55.0357C112.467 55.049 112.444 55.0581 112.421 55.0626C112.398 55.067 112.373 55.0667 112.35 55.0616C112.327 55.0565 112.305 55.0468 112.285 55.033C109.595 53.1997 106.467 51.656 102.448 50.226C101.569 49.9107 100.711 49.6467 99.8933 49.819C99.0757 49.9913 98.3421 50.732 98.5027 51.5387C98.6304 52.162 99.2327 52.5837 99.8276 52.9613L107.752 57.9333C107.785 57.9543 107.811 57.9857 107.825 58.0229C107.839 58.06 107.84 58.1007 107.828 58.1387C107.407 59.7694 107.469 61.4882 108.007 63.0841C108.544 64.6799 109.534 66.0833 110.854 67.122C110.893 67.1512 110.919 67.1946 110.925 67.2427C110.932 67.2909 110.92 67.3398 110.891 67.3787C110.875 67.4039 110.854 67.4251 110.828 67.4404C110.803 67.4557 110.774 67.4647 110.745 67.4667Z" fill="#231F20"/>
<path d="M86.7568 49.2837C86.2823 48.3193 85.8261 47.3953 85.3735 46.4713C83.9135 43.483 82.4535 40.491 80.9533 37.5137C80.3807 36.4485 80.075 35.2592 80.0627 34.0487C80.0842 32.4157 80.6962 30.8464 81.7845 29.6332C82.8728 28.4201 84.3631 27.646 85.9777 27.4553C87.5922 27.2645 89.2207 27.6702 90.5594 28.5966C91.8982 29.523 92.8559 30.907 93.2538 32.4903C93.6635 34.0558 93.4828 35.7182 92.7465 37.158L89.06 44.6527L86.8919 49.0527C86.8444 49.1333 86.8079 49.1847 86.7568 49.2837ZM86.7568 37.51C87.4202 37.5122 88.0692 37.3165 88.6217 36.9478C89.1743 36.5791 89.6054 36.054 89.8606 35.4389C90.1158 34.8238 90.1835 34.1465 90.0552 33.4928C89.9268 32.839 89.6082 32.2382 89.1397 31.7665C88.6711 31.2948 88.0738 30.9734 87.4233 30.8431C86.7728 30.7127 86.0984 30.7792 85.4855 31.0342C84.8727 31.2892 84.349 31.7212 83.9808 32.2755C83.6126 32.8297 83.4164 33.4813 83.4171 34.1477C83.4209 35.0357 83.7728 35.8865 84.3965 36.5158C85.0202 37.1451 85.8656 37.5023 86.7495 37.51H86.7568Z" fill="#FF3967"/>
<path d="M58.8964 56.4997L57.513 53.6837C56.053 50.699 54.593 47.7033 53.0929 44.7297C52.5206 43.6643 52.2149 42.4751 52.2023 41.2647C52.2237 39.6317 52.8357 38.0624 53.924 36.8492C55.0123 35.6361 56.5026 34.862 58.1172 34.6712C59.7317 34.4805 61.3602 34.8862 62.699 35.8126C64.0377 36.739 64.9954 38.1229 65.3934 39.7063C65.8018 41.2695 65.6212 42.9291 64.886 44.3667L61.1849 51.8613L59.0168 56.2613L58.8964 56.4997ZM58.8964 44.726C59.5595 44.7282 60.2084 44.5326 60.7609 44.1641C61.3133 43.7955 61.7445 43.2706 61.9998 42.6557C62.2551 42.0409 62.323 41.3638 62.195 40.7101C62.0669 40.0564 61.7487 39.4556 61.2805 38.9838C60.8123 38.5119 60.2153 38.1903 59.565 38.0595C58.9148 37.9287 58.2405 37.9947 57.6276 38.2492C57.0147 38.5036 56.4907 38.935 56.1221 39.4888C55.7534 40.0426 55.5566 40.6938 55.5566 41.36C55.5575 42.2499 55.9081 43.1035 56.5322 43.7352C57.1562 44.3669 58.0032 44.7256 58.8891 44.7333L58.8964 44.726Z" fill="#FF3967"/>
<path d="M31.8645 54.8753C34.894 52.789 38.2812 51.2747 41.7451 50.0427C42.6028 49.7383 43.5153 49.445 44.4059 49.6357C45.2965 49.8263 46.1178 50.6733 45.9389 51.568C45.7966 52.272 45.1359 52.7267 44.53 53.108L36.5985 58.0947C37.0344 59.7588 36.9737 61.5149 36.424 63.1447C35.8744 64.7745 34.86 66.206 33.507 67.2613" fill="white"/>
<path d="M33.507 67.4667C33.4788 67.4664 33.4509 67.4596 33.4256 67.4469C33.4003 67.4342 33.3782 67.4159 33.361 67.3933C33.332 67.3544 33.3195 67.3055 33.3264 67.2574C33.3332 67.2093 33.3588 67.1658 33.3975 67.1367C34.718 66.098 35.7077 64.6946 36.2453 63.0987C36.7828 61.5029 36.8447 59.784 36.4234 58.1533C36.408 58.1135 36.4073 58.0695 36.4214 58.0291C36.4354 57.9888 36.4633 57.9549 36.5 57.9333L44.4351 52.9467C45.0374 52.58 45.6323 52.1473 45.7601 51.524C45.9207 50.7173 45.1578 49.973 44.3694 49.8043C43.581 49.6357 42.6831 49.896 41.8144 50.2113C37.7994 51.6413 34.6641 53.1703 31.9594 55.0183C31.9399 55.0321 31.9178 55.0418 31.8944 55.0469C31.8711 55.052 31.847 55.0523 31.8235 55.0479C31.8 55.0434 31.7777 55.0343 31.7578 55.0211C31.7378 55.0078 31.7208 54.9907 31.7076 54.9707C31.6938 54.9507 31.684 54.9282 31.6789 54.9045C31.6738 54.8808 31.6735 54.8562 31.6779 54.8324C31.6823 54.8085 31.6914 54.7857 31.7046 54.7654C31.7179 54.7451 31.735 54.7276 31.755 54.714C34.4779 52.855 37.6315 51.3333 41.683 49.8667C42.6138 49.5367 43.508 49.258 44.4461 49.4523C45.3841 49.6467 46.3185 50.5817 46.1178 51.601C45.9645 52.3637 45.2965 52.8403 44.6286 53.262L36.8103 58.1753C37.2333 59.8611 37.1563 61.6343 36.5888 63.2767C36.0214 64.9191 34.9882 66.359 33.6165 67.419C33.5865 67.447 33.5479 67.4638 33.507 67.4667Z" fill="#231F20"/>
<path d="M35.6787 38.7457C35.6391 38.7465 35.6004 38.7336 35.5692 38.709L29.0978 33.7333C29.0754 33.7203 29.0559 33.7027 29.0408 33.6815C29.0257 33.6604 29.0152 33.6363 29.0101 33.6108C29.005 33.5853 29.0053 33.5589 29.0111 33.5336C29.0169 33.5082 29.028 33.4844 29.0436 33.4636C29.0593 33.4429 29.0792 33.4258 29.102 33.4134C29.1247 33.401 29.1499 33.3936 29.1757 33.3917C29.2016 33.3898 29.2275 33.3934 29.2518 33.4024C29.2762 33.4114 29.2983 33.4254 29.3168 33.4437L35.7882 38.401C35.8189 38.4241 35.8415 38.4563 35.8529 38.493C35.8644 38.5297 35.864 38.5691 35.8519 38.6056C35.8398 38.6422 35.8165 38.6739 35.7855 38.6964C35.7544 38.7189 35.717 38.731 35.6787 38.731V38.7457Z" fill="#D1D3D4"/>
<path d="M69.934 26.8033C69.8897 26.8038 69.8468 26.788 69.8132 26.759C69.7796 26.73 69.7577 26.6897 69.7515 26.6457L69.2916 22.935C69.2853 22.8864 69.2985 22.8372 69.3283 22.7984C69.358 22.7595 69.4019 22.7342 69.4503 22.7278C69.4988 22.7215 69.5477 22.7348 69.5863 22.7647C69.625 22.7946 69.6503 22.8387 69.6566 22.8873L70.1128 26.598C70.1164 26.6219 70.1152 26.6463 70.1091 26.6697C70.1031 26.6931 70.0925 26.715 70.0778 26.7342C70.0632 26.7534 70.0448 26.7694 70.0239 26.7813C70.0029 26.7931 69.9798 26.8006 69.9559 26.8033H69.934Z" fill="#D1D3D4"/>
<path d="M112.183 41.9687C112.155 41.9684 112.127 41.9616 112.101 41.9489C112.076 41.9362 112.054 41.9179 112.037 41.8953C112.007 41.8569 111.994 41.8083 112.001 41.7602C112.007 41.7121 112.032 41.6684 112.07 41.6387L118.851 36.2707C118.89 36.2405 118.938 36.2269 118.987 36.2327C119.035 36.2386 119.079 36.2634 119.109 36.3018C119.139 36.3402 119.152 36.3891 119.147 36.4375C119.141 36.486 119.116 36.5302 119.078 36.5603L112.296 41.9283C112.263 41.9528 112.224 41.9669 112.183 41.9687Z" fill="#D1D3D4"/>
<path d="M97.9075 29.0877C97.8758 29.0878 97.8445 29.0803 97.8163 29.0657C97.7746 29.0405 97.7444 28.9999 97.7321 28.9526C97.7198 28.9053 97.7265 28.8551 97.7506 28.8127L99.3931 25.9233C99.4051 25.9024 99.421 25.884 99.4401 25.8693C99.4591 25.8545 99.4809 25.8437 99.5041 25.8374C99.5273 25.8311 99.5516 25.8295 99.5754 25.8326C99.5993 25.8357 99.6223 25.8435 99.6431 25.8555C99.664 25.8675 99.6822 25.8836 99.6969 25.9027C99.7116 25.9219 99.7224 25.9437 99.7287 25.967C99.7349 25.9904 99.7366 26.0147 99.7335 26.0387C99.7304 26.0626 99.7226 26.0857 99.7106 26.1067L98.0645 28.996C98.0486 29.0237 98.0257 29.0468 97.9982 29.0628C97.9706 29.0789 97.9394 29.0875 97.9075 29.0877Z" fill="#D1D3D4"/>
<path d="M40.7231 84.7367C40.6838 84.7357 40.6456 84.7229 40.6136 84.7C40.5746 84.6702 40.5489 84.6261 40.5421 84.5774C40.5353 84.5286 40.5478 84.4792 40.5771 84.4397L46.5375 76.5967C46.5666 76.5578 46.6098 76.5321 46.6577 76.5252C46.7056 76.5183 46.7543 76.5308 46.793 76.56C46.831 76.5898 46.8559 76.6331 46.8627 76.681C46.8696 76.7288 46.8576 76.7775 46.8295 76.8167L40.88 84.6633C40.8617 84.6874 40.8379 84.7067 40.8106 84.7195C40.7832 84.7322 40.7532 84.7381 40.7231 84.7367Z" fill="#D1D3D4"/>
<path d="M99.0975 83.083C99.0708 83.0833 99.0442 83.0779 99.0197 83.0671C98.9952 83.0564 98.9732 83.0405 98.9552 83.0207L92.3852 75.174C92.3537 75.1366 92.3383 75.0881 92.3425 75.0393C92.3466 74.9905 92.3698 74.9453 92.4071 74.9137C92.4443 74.8821 92.4926 74.8666 92.5412 74.8707C92.5898 74.8749 92.6348 74.8982 92.6662 74.9357L99.2362 82.7823C99.2671 82.82 99.2821 82.8683 99.278 82.917C99.2739 82.9656 99.2511 83.0107 99.2143 83.0427C99.1805 83.0679 99.1397 83.082 99.0975 83.083Z" fill="#D1D3D4"/>
<path d="M68.2551 82.258C68.2069 82.2507 68.1634 82.2248 68.1341 82.1857C68.1048 82.1466 68.0918 82.0975 68.0981 82.049L68.715 77.506C68.7222 77.4586 68.7476 77.4159 68.7859 77.3871C68.8241 77.3583 68.872 77.3457 68.9194 77.352C68.9433 77.3547 68.9664 77.3622 68.9873 77.3741C69.0083 77.3859 69.0267 77.4019 69.0413 77.4211C69.056 77.4403 69.0666 77.4622 69.0726 77.4856C69.0786 77.509 69.0799 77.5334 69.0763 77.5573L68.4595 82.1003C68.4531 82.1484 68.428 82.192 68.3897 82.2216C68.3514 82.2512 68.303 82.2642 68.2551 82.258Z" fill="#D1D3D4"/>
<path d="M30.6601 78.9543C30.6193 78.9551 30.5795 78.9422 30.5469 78.9177L20.3269 71.17C20.2882 71.1408 20.2626 71.0974 20.2557 71.0492C20.2489 71.0011 20.2614 70.9522 20.2904 70.9133C20.32 70.8752 20.3632 70.8501 20.4108 70.8433C20.4584 70.8364 20.5069 70.8484 20.5459 70.8767L30.7659 78.6243C30.7966 78.6474 30.8192 78.6796 30.8306 78.7163C30.842 78.7531 30.8417 78.7925 30.8295 78.829C30.8174 78.8655 30.7942 78.8972 30.7631 78.9197C30.732 78.9422 30.6947 78.9543 30.6564 78.9543H30.6601Z" fill="white"/>
<path d="M113.69 79.3687C113.651 79.3686 113.612 79.3557 113.581 79.3319C113.55 79.3082 113.527 79.2749 113.515 79.237C113.504 79.199 113.506 79.1585 113.519 79.1214C113.533 79.0844 113.558 79.0528 113.592 79.0313L123.388 72.765C123.429 72.7401 123.479 72.7323 123.526 72.7432C123.573 72.7542 123.614 72.783 123.64 72.8237C123.666 72.8645 123.675 72.9141 123.665 72.9615C123.654 73.009 123.626 73.0504 123.585 73.0767L113.789 79.3393C113.759 79.3574 113.725 79.3675 113.69 79.3687Z" fill="white"/>
</svg>
