<svg width="128" height="105" viewBox="0 0 128 105" fill="none" xmlns="http://www.w3.org/2000/svg">
<path d="M63.0588 75.8151L114.445 75.8743C115.177 75.8371 115.875 75.5579 116.43 75.0808C116.985 74.6037 117.364 73.956 117.509 73.2399L127.067 22.9495C127.151 22.6362 127.162 22.3078 127.097 21.9899C127.032 21.672 126.895 21.3735 126.694 21.1177C126.494 20.8619 126.238 20.6558 125.944 20.5157C125.651 20.3756 125.328 20.3052 125.003 20.3102L73.6171 20.251C72.8852 20.2882 72.1867 20.5674 71.6318 21.0445C71.0769 21.5216 70.6973 22.1693 70.5531 22.8854L60.9946 73.1758C60.9103 73.489 60.9001 73.8175 60.9648 74.1354C61.0295 74.4533 61.1673 74.7518 61.3673 75.0076C61.5674 75.2634 61.8243 75.4695 62.1178 75.6096C62.4113 75.7497 62.7334 75.8201 63.0588 75.8151Z" fill="white"/>
<path d="M114.43 76.1215L63.0439 76.0623C62.6979 76.0687 62.3549 75.998 62.0398 75.8555C61.7246 75.713 61.4454 75.5022 61.2223 75.2385C60.9866 74.9469 60.8196 74.6061 60.734 74.2414C60.6483 73.8768 60.646 73.4976 60.7273 73.1319L70.3105 22.8366C70.4687 22.066 70.8793 21.3697 71.4779 20.8571C72.0764 20.3445 72.829 20.0447 73.6171 20.0049L125.003 20.0641C125.345 20.0608 125.684 20.1324 125.995 20.2739C126.307 20.4154 126.583 20.6233 126.805 20.883C127.04 21.1757 127.207 21.5174 127.293 21.8828C127.379 22.2482 127.381 22.628 127.3 22.9945L117.751 73.2898C117.593 74.0627 117.18 74.7608 116.578 75.2737C115.977 75.7866 115.221 76.0849 114.43 76.1215ZM63.0439 75.569L114.43 75.6282C115.105 75.593 115.748 75.3348 116.259 74.8943C116.77 74.4539 117.119 73.8563 117.251 73.1961L126.805 22.9057C126.873 22.6109 126.874 22.3045 126.808 22.0092C126.742 21.7138 126.611 21.4369 126.424 21.1988C126.246 20.993 126.024 20.8288 125.775 20.718C125.526 20.6071 125.256 20.5523 124.983 20.5574L73.5973 20.4982C72.9227 20.5334 72.2791 20.7917 71.7681 21.2321C71.2572 21.6726 70.908 22.2701 70.7758 22.9303L61.2372 73.2207C61.1693 73.5156 61.1682 73.8218 61.2342 74.1172C61.3001 74.4125 61.4314 74.6894 61.6183 74.9277C61.7964 75.1335 62.0178 75.2976 62.2668 75.4085C62.5158 75.5193 62.7862 75.5741 63.0588 75.569H63.0439Z" fill="#231F20"/>
<path d="M126.172 27.9228L69.6575 27.8537C69.5918 27.8537 69.5289 27.8277 69.4825 27.7814C69.436 27.7352 69.41 27.6724 69.41 27.607C69.4112 27.542 69.4377 27.48 69.4839 27.434C69.53 27.388 69.5922 27.3616 69.6575 27.3604L126.177 27.4294C126.242 27.4294 126.305 27.4554 126.352 27.5017C126.398 27.5479 126.424 27.6107 126.424 27.6761C126.423 27.742 126.396 27.8047 126.348 27.8508C126.301 27.8969 126.238 27.9228 126.172 27.9228Z" fill="#231F20"/>
<path d="M122.379 24.7442C122.921 24.1713 122.977 23.3462 122.503 22.9014C122.03 22.4566 121.207 22.5605 120.665 23.1335C120.123 23.7064 120.067 24.5315 120.541 24.9763C121.014 25.4211 121.837 25.3172 122.379 24.7442Z" fill="#FF3967"/>
<path d="M117.878 24.7374C118.42 24.1644 118.476 23.3394 118.002 22.8946C117.529 22.4498 116.706 22.5537 116.164 23.1266C115.622 23.6996 115.566 24.5247 116.04 24.9695C116.513 25.4143 117.336 25.3104 117.878 24.7374Z" fill="#FF3967"/>
<path d="M113.378 24.7315C113.92 24.1586 113.976 23.3335 113.502 22.8887C113.029 22.4439 112.206 22.5478 111.664 23.1208C111.122 23.6937 111.066 24.5188 111.54 24.9636C112.013 25.4084 112.836 25.3045 113.378 24.7315Z" fill="#FF3967"/>
<path d="M99.4468 31.7998L94.5908 57.3397L115.183 57.3643L120.039 31.8245L99.4468 31.7998Z" fill="white"/>
<path d="M99.4419 31.8001H120.039L115.188 57.3399H94.5909L99.4419 31.8001ZM99.4419 31.3067C99.3254 31.3046 99.2119 31.3435 99.1214 31.4166C99.0308 31.4897 98.9691 31.5923 98.9469 31.7063L94.0959 57.2462C94.0819 57.3183 94.0842 57.3927 94.1028 57.4639C94.1213 57.535 94.1555 57.6011 94.2029 57.6574C94.2504 57.7137 94.3099 57.7586 94.377 57.7891C94.4441 57.8195 94.5172 57.8346 94.5909 57.8333H115.183C115.3 57.8352 115.414 57.7955 115.505 57.7215C115.596 57.6474 115.657 57.5436 115.678 57.4287L120.529 31.8889C120.542 31.818 120.54 31.745 120.522 31.6751C120.504 31.6052 120.471 31.5401 120.425 31.4843C120.378 31.4286 120.32 31.3838 120.254 31.3532C120.188 31.3225 120.117 31.3066 120.044 31.3067H99.4518H99.4419Z" fill="#231F20"/>
<path d="M114.089 38.4995C114.049 38.8316 114.082 39.1685 114.188 39.4861C114.282 39.6714 114.395 39.8466 114.524 40.0091C114.933 40.6307 115.168 41.349 115.208 42.0909C115.262 42.5929 115.194 43.1007 115.01 43.5709C114.861 43.9163 114.623 44.2221 114.485 44.5576C114.32 44.9655 114.294 45.4161 114.411 45.8403C114.524 46.2399 114.752 46.674 114.544 47.0292C114.462 47.1452 114.351 47.2372 114.221 47.2953C114.091 47.3535 113.948 47.3757 113.807 47.3597C113.524 47.3239 113.247 47.256 112.98 47.1575C111.47 46.7233 109.569 46.9305 107.985 46.822L102.045 46.4076C101.239 46.3484 100.239 46.1461 100.026 45.3667C99.8477 44.7105 100.491 43.6153 100.749 42.9987C101.145 41.9354 101.665 40.9221 102.298 39.9795C102.663 39.5488 102.974 39.0749 103.224 38.5685C103.335 38.2331 103.429 37.8923 103.506 37.5473C103.845 36.5551 104.433 35.6654 105.213 34.9623C105.717 34.4435 106.296 34.0028 106.931 33.6549C109.084 32.54 112.663 33.2948 113.643 35.6677C113.997 36.5681 114.149 37.5345 114.089 38.4995Z" fill="white"/>
<path d="M113.857 47.6213H113.792C113.554 47.6014 113.319 47.55 113.094 47.4684L112.911 47.4142C111.838 47.1736 110.738 47.0758 109.639 47.1231C109.05 47.1231 108.501 47.1231 107.966 47.0836L102.026 46.6692C100.714 46.5804 99.9817 46.1759 99.7837 45.4458C99.6154 44.834 100.006 44.0052 100.318 43.3392C100.393 43.1814 100.462 43.0383 100.516 42.915C100.919 41.8328 101.447 40.8013 102.09 39.8415C102.17 39.728 102.254 39.6195 102.338 39.511C102.599 39.1996 102.818 38.8544 102.986 38.4848C103.059 38.287 103.117 38.0842 103.16 37.878C103.189 37.7448 103.224 37.6166 103.259 37.4834C103.608 36.4493 104.22 35.523 105.036 34.7947C105.554 34.2539 106.154 33.7963 106.813 33.438C107.507 33.1163 108.259 32.9361 109.024 32.9081C109.789 32.8802 110.552 33.005 111.268 33.2752C111.837 33.4575 112.363 33.7567 112.809 34.1535C113.256 34.5503 113.614 35.0359 113.861 35.5791C114.223 36.5135 114.375 37.5153 114.307 38.5144V38.5588C114.262 38.7629 114.266 38.9746 114.319 39.1768C114.371 39.3791 114.47 39.5662 114.609 39.7231L114.698 39.8513C115.135 40.51 115.388 41.273 115.431 42.0615C115.49 42.6093 115.413 43.1632 115.208 43.6747C115.129 43.8446 115.04 44.0093 114.941 44.168C114.844 44.3266 114.758 44.4914 114.683 44.6613C114.543 45.0167 114.522 45.4081 114.624 45.7763C114.624 45.8552 114.673 45.9342 114.698 46.0131C114.787 46.1908 114.836 46.3859 114.841 46.5845C114.846 46.7832 114.808 46.9805 114.728 47.1626C114.633 47.3062 114.504 47.4236 114.351 47.5038C114.199 47.584 114.029 47.6245 113.857 47.6213ZM109.204 33.4134C108.463 33.4067 107.732 33.5758 107.07 33.9067C106.456 34.2407 105.897 34.6667 105.412 35.1696C104.66 35.8357 104.095 36.686 103.773 37.6363C103.734 37.7596 103.709 37.883 103.679 38.0063C103.629 38.2358 103.563 38.4616 103.481 38.6822C103.298 39.0957 103.056 39.4811 102.764 39.8267L102.521 40.1474C101.906 41.074 101.398 42.067 101.006 43.1074C100.952 43.2406 100.878 43.3886 100.803 43.5563C100.536 44.1138 100.175 44.8834 100.308 45.3126C100.442 45.7418 101.046 46.0871 102.095 46.1611L108.035 46.5755C108.555 46.61 109.1 46.615 109.674 46.615C110.821 46.5662 111.97 46.6708 113.089 46.9258L113.282 46.985C113.468 47.05 113.661 47.0931 113.857 47.1132C113.95 47.1253 114.044 47.113 114.131 47.0775C114.218 47.0421 114.294 46.9847 114.352 46.911C114.46 46.7284 114.352 46.462 114.277 46.1808C114.248 46.092 114.218 46.0032 114.193 45.9194C114.062 45.4413 114.092 44.9336 114.277 44.4739C114.359 44.2813 114.455 44.0949 114.564 43.9164C114.653 43.7635 114.738 43.6204 114.807 43.4724C114.975 43.0342 115.036 42.5624 114.985 42.096C114.953 41.3933 114.732 40.712 114.347 40.1227L114.257 40.0043C114.15 39.8657 114.058 39.715 113.985 39.5554C113.867 39.2235 113.825 38.8696 113.861 38.5194L114.119 38.4848H113.866C113.932 37.56 113.794 36.6321 113.461 35.7666C113.24 35.2876 112.922 34.8602 112.525 34.5117C112.129 34.1633 111.663 33.9017 111.159 33.7439C110.532 33.5198 109.87 33.4095 109.204 33.4183V33.4134Z" fill="#231F20"/>
<path d="M95.9915 49.9648L94.5906 57.3648H115.188L116.588 49.9895C114.891 47.9619 112.039 47.2613 109.53 47.0295C108.54 46.9407 107.649 46.916 106.872 46.916H106.688C105.961 46.916 105.119 46.916 104.213 47.0196H104.169C101.56 47.2318 98.4566 47.9421 95.9915 49.9648Z" fill="#FF3967"/>
<path d="M103.837 48.4354L104.466 55.342L104.654 57.3548H105.119L106.069 55.3371L109.312 48.4699C108.084 48.0407 105.228 48.0407 103.837 48.4354Z" fill="#231F20"/>
<path d="M109.322 48.4454C108.984 48.9172 108.539 49.302 108.022 49.568C107.506 49.834 106.933 49.9734 106.352 49.9748C105.824 50.0109 105.299 49.8826 104.848 49.6076C104.398 49.3327 104.044 48.9248 103.837 48.4405L105.243 42.4268H110.193L109.322 48.4454Z" fill="white"/>
<path d="M106.357 50.226C105.777 50.2597 105.201 50.1138 104.707 49.8082C104.213 49.5026 103.827 49.0523 103.6 48.5191C103.585 48.4742 103.585 48.4258 103.6 48.381L105.006 42.3722C105.019 42.3165 105.051 42.2668 105.095 42.231C105.14 42.1953 105.196 42.1755 105.253 42.1748H110.203C110.24 42.1744 110.276 42.1821 110.31 42.1975C110.343 42.2129 110.373 42.2355 110.396 42.2636C110.421 42.2909 110.438 42.3231 110.449 42.3581C110.459 42.3931 110.461 42.4299 110.456 42.4659L109.58 48.4796C109.575 48.5147 109.564 48.5484 109.545 48.5783C109.185 49.0877 108.708 49.5033 108.153 49.7901C107.598 50.0768 106.982 50.2264 106.357 50.226ZM104.105 48.4204C104.306 48.8361 104.628 49.1821 105.028 49.4134C105.429 49.6448 105.89 49.7508 106.352 49.7179C106.881 49.7162 107.403 49.5918 107.875 49.3546C108.348 49.1175 108.758 48.774 109.075 48.3514L109.896 42.6879H105.441L104.105 48.4204Z" fill="#231F20"/>
<path d="M109.708 45.0072C109.223 45.5717 108.626 46.0303 107.955 46.354C106.871 46.9114 105.282 47.533 104.129 47.3406L104.807 44.8C105.678 44.904 106.559 44.904 107.431 44.8C108.232 44.7672 109.025 44.6159 109.782 44.351C109.915 44.3214 109.906 44.7654 109.708 45.0072Z" fill="#231F20"/>
<path d="M104.575 47.6266C104.409 47.6266 104.244 47.6134 104.08 47.5871C104.046 47.582 104.013 47.5697 103.984 47.551C103.955 47.5323 103.931 47.5076 103.912 47.4786C103.893 47.45 103.88 47.4174 103.875 47.3833C103.87 47.3491 103.872 47.3143 103.882 47.2813L104.56 44.7406C104.576 44.6826 104.612 44.6324 104.662 44.5995C104.712 44.5667 104.773 44.5537 104.833 44.563C105.684 44.6684 106.545 44.6684 107.397 44.563C108.176 44.5329 108.947 44.3883 109.684 44.1338C109.744 44.1092 109.811 44.1056 109.874 44.1235C109.937 44.1414 109.992 44.1798 110.03 44.2325C110.093 44.3827 110.113 44.5472 110.088 44.708C110.064 44.8689 109.996 45.02 109.891 45.1451C109.387 45.7386 108.763 46.2194 108.06 46.5561C107.258 46.9853 105.808 47.6266 104.575 47.6266ZM104.442 47.1333C105.634 47.1777 107.194 46.4673 107.842 46.1466C108.485 45.8443 109.055 45.4086 109.515 44.8689C109.546 44.8227 109.571 44.773 109.59 44.7209C108.892 44.926 108.173 45.0485 107.446 45.0859C106.624 45.1762 105.794 45.1762 104.971 45.0859L104.442 47.1333Z" fill="#231F20"/>
<path d="M111.852 57.6159H111.772C111.74 57.6059 111.711 57.5895 111.685 57.5679C111.659 57.5462 111.638 57.5197 111.623 57.4898C111.608 57.46 111.599 57.4274 111.596 57.394C111.594 57.3605 111.598 57.327 111.609 57.2953L113.589 51.099C113.599 51.0666 113.616 51.0366 113.638 51.0106C113.66 50.9847 113.687 50.9633 113.718 50.9477C113.748 50.9321 113.781 50.9227 113.815 50.9198C113.849 50.917 113.883 50.9209 113.916 50.9313C113.948 50.9416 113.978 50.9583 114.004 50.9802C114.03 51.0022 114.052 51.0291 114.068 51.0593C114.083 51.0896 114.093 51.1226 114.096 51.1565C114.098 51.1904 114.094 51.2245 114.084 51.2569L112.104 57.4531C112.085 57.5037 112.05 57.5468 112.005 57.5761C111.959 57.6054 111.906 57.6194 111.852 57.6159Z" fill="#231F20"/>
<path d="M97.9224 57.5917C97.855 57.5879 97.7918 57.5578 97.7465 57.508C97.7011 57.4582 97.6772 57.3926 97.6799 57.3253L98.0561 51.1241C98.0744 51.0712 98.1096 51.0256 98.1563 50.9945C98.2031 50.9633 98.2588 50.9483 98.3149 50.9516C98.371 50.955 98.4245 50.9766 98.4671 51.0131C98.5098 51.0496 98.5393 51.099 98.5511 51.1537L98.1749 57.3549C98.1711 57.4191 98.1428 57.4793 98.0959 57.5234C98.049 57.5674 97.9869 57.5918 97.9224 57.5917Z" fill="#231F20"/>
<path d="M104.862 41.0449C104.966 39.634 103.333 39.2837 103.105 40.9462C103.002 41.4713 103.055 42.0149 103.258 42.5101C103.3 42.6081 103.361 42.6963 103.439 42.7689C103.517 42.8415 103.61 42.8968 103.711 42.9313C103.812 42.9658 103.919 42.9786 104.025 42.9689C104.131 42.9592 104.234 42.9273 104.327 42.8752" fill="white"/>
<path d="M103.961 43.2307C103.869 43.2325 103.777 43.2192 103.689 43.1912C103.546 43.1474 103.414 43.0742 103.302 42.9765C103.189 42.8788 103.098 42.7587 103.035 42.6239C102.807 42.0837 102.741 41.4887 102.847 40.912C102.986 39.9254 103.585 39.5356 104.119 39.5899C104.447 39.6566 104.735 39.8495 104.92 40.1267C105.106 40.4039 105.174 40.7429 105.109 41.0699C105.09 41.1228 105.054 41.168 105.007 41.1984C104.959 41.2289 104.903 41.2429 104.847 41.2385C104.791 41.234 104.737 41.2112 104.695 41.1736C104.653 41.136 104.625 41.0857 104.614 41.0304C104.654 40.4631 104.372 40.1326 104.07 40.103C103.768 40.0734 103.456 40.2855 103.362 40.986C103.266 41.4588 103.31 41.9493 103.491 42.397C103.525 42.4691 103.573 42.5337 103.633 42.587C103.692 42.6404 103.762 42.6814 103.837 42.7078C103.899 42.7262 103.964 42.7314 104.028 42.7229C104.092 42.7144 104.154 42.6924 104.208 42.6584C104.268 42.6262 104.339 42.6184 104.404 42.6368C104.47 42.6553 104.526 42.6984 104.56 42.7571C104.592 42.8167 104.599 42.8864 104.579 42.951C104.56 43.0157 104.515 43.0701 104.456 43.1024C104.305 43.1877 104.134 43.2319 103.961 43.2307Z" fill="#231F20"/>
<path d="M111.267 41.0549C111.698 39.6439 113.465 39.2986 113.064 40.9611C112.944 41.533 112.687 42.0677 112.316 42.5201C111.945 42.9246 111.44 43.117 111.104 42.8851" fill="white"/>
<path d="M111.46 43.241C111.284 43.246 111.11 43.1941 110.965 43.093C110.91 43.0544 110.873 42.9956 110.861 42.9294C110.85 42.8633 110.865 42.7952 110.904 42.7403C110.942 42.6853 111.001 42.648 111.068 42.6364C111.134 42.6248 111.202 42.64 111.258 42.6786C111.46 42.8167 111.837 42.6786 112.134 42.3481C112.476 41.9281 112.712 41.4324 112.822 40.9026C112.861 40.7349 112.965 40.1971 112.668 40.1133C112.371 40.0294 111.743 40.3895 111.515 41.1295C111.505 41.1619 111.488 41.192 111.467 41.2181C111.445 41.2442 111.418 41.2658 111.388 41.2816C111.327 41.3135 111.256 41.32 111.191 41.2997C111.125 41.2795 111.07 41.234 111.038 41.1734C111.006 41.1128 111 41.042 111.02 40.9766C111.327 39.9899 112.198 39.4621 112.792 39.6249C112.98 39.6742 113.574 39.9258 113.287 41.021C113.159 41.6344 112.882 42.207 112.48 42.6885C112.356 42.8441 112.202 42.9732 112.027 43.0681C111.852 43.1631 111.659 43.2219 111.46 43.241Z" fill="#231F20"/>
<path d="M104.912 37.947L104.135 42.0368C103.763 44.0101 105.011 45.5888 106.922 45.5937H107.323C108.309 45.5435 109.251 45.1678 110 44.5257C110.75 43.8836 111.263 43.0115 111.461 42.0466C111.649 41.06 112.332 39.5208 111.609 38.7808C110.456 37.5968 109.337 36.8074 108.699 35.2041C107.233 35.51 104.912 35.9145 104.912 37.947Z" fill="white"/>
<path d="M107.327 45.8456H106.921C106.467 45.8557 106.016 45.7639 105.602 45.5769C105.189 45.3899 104.822 45.1125 104.531 44.7652C104.222 44.3786 104.004 43.9279 103.894 43.4463C103.783 42.9648 103.783 42.4646 103.892 41.9828L104.664 37.9227C104.664 35.7717 106.971 35.2981 108.491 34.9873L108.654 34.9528C108.712 34.9404 108.773 34.949 108.826 34.977C108.878 35.005 108.919 35.0506 108.941 35.1057C109.409 36.1695 110.123 37.1077 111.025 37.8437C111.277 38.0855 111.52 38.3371 111.797 38.5985C112.46 39.2744 112.144 40.4337 111.891 41.3661C111.822 41.6227 111.758 41.8595 111.718 42.0864C111.509 43.1101 110.964 44.0353 110.169 44.716C109.374 45.3967 108.374 45.7942 107.327 45.8456ZM108.545 35.4856C107.105 35.7865 105.169 36.2059 105.169 37.9523C105.172 37.9686 105.172 37.9852 105.169 38.0016L104.392 42.0864C104.297 42.4947 104.296 42.9189 104.388 43.3279C104.479 43.7368 104.662 44.1201 104.922 44.4495C105.167 44.7389 105.475 44.9694 105.822 45.124C106.169 45.2786 106.546 45.3533 106.926 45.3424H107.332C108.259 45.2938 109.144 44.9393 109.846 44.3346C110.549 43.7299 111.03 42.9095 111.213 42.0025C111.258 41.7756 111.327 41.5092 111.401 41.2428C111.629 40.3943 111.896 39.4323 111.431 38.9636C111.173 38.6972 110.936 38.4703 110.674 38.2236C109.776 37.4764 109.051 36.5461 108.545 35.4955V35.4856Z" fill="#231F20"/>
<path d="M107.683 42.6294C107.5 42.6288 107.316 42.6172 107.134 42.5949C107.098 42.5957 107.061 42.5886 107.028 42.5742C106.995 42.5598 106.965 42.5384 106.941 42.5114C106.916 42.4844 106.898 42.4526 106.887 42.418C106.877 42.3833 106.873 42.3468 106.878 42.3109C106.883 42.275 106.895 42.2405 106.914 42.2097C106.934 42.179 106.96 42.1528 106.99 42.133C107.02 42.1131 107.055 42.1 107.091 42.0946C107.127 42.0891 107.163 42.0915 107.198 42.1015C107.496 42.1318 107.796 42.1318 108.094 42.1015C108.187 41.3118 108.14 40.512 107.956 39.7385C107.944 39.6718 107.959 39.6032 107.998 39.5478C108.037 39.4924 108.097 39.4545 108.163 39.4425C108.23 39.4323 108.298 39.4481 108.354 39.4867C108.409 39.5253 108.447 39.5837 108.46 39.6497C108.555 40.1775 108.847 41.9437 108.49 42.4271C108.457 42.4746 108.415 42.5146 108.365 42.5444C108.316 42.5742 108.261 42.5931 108.203 42.5998C108.031 42.6211 107.857 42.631 107.683 42.6294Z" fill="#231F20"/>
<path d="M94.0416 37.1087H72.8952C72.856 37.1139 72.8162 37.1108 72.7783 37.0994C72.7405 37.088 72.7055 37.0688 72.6758 37.0428C72.646 37.0169 72.6222 36.9849 72.6058 36.9491C72.5895 36.9132 72.5811 36.8743 72.5811 36.8349C72.5811 36.7955 72.5895 36.7565 72.6058 36.7207C72.6222 36.6848 72.646 36.6528 72.6758 36.6269C72.7055 36.601 72.7405 36.5817 72.7783 36.5703C72.8162 36.559 72.856 36.5558 72.8952 36.5611L94.0416 36.5857C94.1081 36.5946 94.1691 36.6273 94.2133 36.6777C94.2575 36.728 94.2819 36.7926 94.2819 36.8595C94.2819 36.9264 94.2575 36.991 94.2133 37.0414C94.1691 37.0917 94.1081 37.1244 94.0416 37.1333V37.1087Z" fill="#FF3967"/>
<path d="M93.3238 40.8674H72.1823C72.1431 40.8727 72.1033 40.8695 72.0655 40.8582C72.0276 40.8468 71.9926 40.8275 71.9629 40.8016C71.9331 40.7757 71.9093 40.7437 71.893 40.7078C71.8766 40.672 71.8682 40.633 71.8682 40.5936C71.8682 40.5543 71.8766 40.5153 71.893 40.4795C71.9093 40.4436 71.9331 40.4116 71.9629 40.3857C71.9926 40.3597 72.0276 40.3405 72.0655 40.3291C72.1033 40.3178 72.1431 40.3146 72.1823 40.3198L93.3287 40.3445C93.3952 40.3534 93.4563 40.3861 93.5004 40.4365C93.5446 40.4868 93.569 40.5514 93.569 40.6183C93.569 40.6852 93.5446 40.7498 93.5004 40.8002C93.4563 40.8505 93.3952 40.8832 93.3287 40.8921L93.3238 40.8674Z" fill="#FF3967"/>
<path d="M92.611 44.627L71.4646 44.6023C71.392 44.601 71.3227 44.5713 71.2718 44.5196C71.2209 44.468 71.1924 44.3984 71.1924 44.326C71.1924 44.2541 71.2211 44.185 71.2721 44.1342C71.3232 44.0833 71.3924 44.0547 71.4646 44.0547L92.611 44.0794C92.6502 44.0741 92.6901 44.0773 92.7279 44.0886C92.7658 44.1 92.8007 44.1193 92.8305 44.1452C92.8602 44.1711 92.8841 44.2031 92.9004 44.239C92.9167 44.2748 92.9252 44.3138 92.9252 44.3532C92.9252 44.3925 92.9167 44.4315 92.9004 44.4674C92.8841 44.5032 92.8602 44.5352 92.8305 44.5611C92.8007 44.587 92.7658 44.6063 92.7279 44.6177C92.6901 44.6291 92.6502 44.6322 92.611 44.627Z" fill="#FF3967"/>
<path d="M91.8982 48.3858L70.7518 48.3562C70.7158 48.3569 70.6801 48.3503 70.6468 48.3369C70.6135 48.3235 70.5832 48.3035 70.5578 48.2782C70.5324 48.2529 70.5123 48.2227 70.4989 48.1895C70.4854 48.1563 70.4789 48.1207 70.4795 48.0849C70.4789 48.0488 70.4854 48.013 70.4988 47.9795C70.5122 47.946 70.5322 47.9155 70.5575 47.8898C70.5828 47.8641 70.6131 47.8437 70.6464 47.8297C70.6798 47.8158 70.7156 47.8086 70.7518 47.8086L91.8982 47.8333C91.9717 47.8333 92.0422 47.8624 92.0942 47.9142C92.1462 47.966 92.1754 48.0363 92.1754 48.1095C92.1741 48.1824 92.1445 48.2519 92.0928 48.3035C92.0411 48.355 91.9713 48.3845 91.8982 48.3858Z" fill="#FF3967"/>
<path d="M91.1653 52.1648H76.2559C76.1893 52.1559 76.1283 52.1232 76.0842 52.0729C76.04 52.0225 76.0156 51.9579 76.0156 51.891C76.0156 51.8241 76.04 51.7595 76.0842 51.7091C76.1283 51.6588 76.1893 51.6261 76.2559 51.6172H91.1653C91.2318 51.6261 91.2928 51.6588 91.337 51.7091C91.3812 51.7595 91.4055 51.8241 91.4055 51.891C91.4055 51.9579 91.3812 52.0225 91.337 52.0729C91.2928 52.1232 91.2318 52.1559 91.1653 52.1648Z" fill="#FF3967"/>
<path d="M112.564 72.3526L66.3808 72.2983C66.3401 72.2991 66.2998 72.2906 66.2629 72.2735C66.226 72.2564 66.1935 72.2311 66.1679 72.1996C66.1416 72.1687 66.1226 72.1322 66.1123 72.0929C66.102 72.0536 66.1007 72.0126 66.1085 71.9727L68.2073 60.9368C68.2197 60.875 68.253 60.8192 68.3017 60.7788C68.3503 60.7384 68.4113 60.7159 68.4746 60.7148L114.658 60.7691C114.699 60.7687 114.739 60.7773 114.776 60.7944C114.813 60.8115 114.845 60.8365 114.871 60.8678C114.896 60.8993 114.915 60.9358 114.925 60.9749C114.935 61.014 114.937 61.0549 114.93 61.0947L112.832 72.1306C112.819 72.1924 112.786 72.2482 112.737 72.2886C112.689 72.329 112.628 72.3516 112.564 72.3526ZM66.7124 71.7507L112.337 71.805L114.317 61.3167L68.6875 61.2624L66.7124 71.7507Z" fill="#231F20"/>
<path d="M113.832 64.7694L67.7966 64.7151C67.7574 64.7204 67.7176 64.7172 67.6797 64.7058C67.6419 64.6945 67.6069 64.6752 67.5771 64.6493C67.5474 64.6233 67.5235 64.5914 67.5072 64.5555C67.4909 64.5196 67.4824 64.4807 67.4824 64.4413C67.4824 64.4019 67.4909 64.363 67.5072 64.3271C67.5235 64.2912 67.5474 64.2593 67.5771 64.2333C67.6069 64.2074 67.6419 64.1881 67.6797 64.1768C67.7176 64.1654 67.7574 64.1623 67.7966 64.1675L113.832 64.2218C113.898 64.2307 113.959 64.2634 114.003 64.3137C114.047 64.3641 114.072 64.4287 114.072 64.4956C114.072 64.5625 114.047 64.6271 114.003 64.6774C113.959 64.7278 113.898 64.7605 113.832 64.7694Z" fill="#231F20"/>
<path d="M100.076 72.3379H100.026C99.9548 72.3236 99.8921 72.2819 99.8514 72.222C99.8106 72.162 99.7951 72.0885 99.8083 72.0172L101.902 60.9814C101.916 60.9104 101.958 60.8479 102.018 60.8073C102.079 60.7667 102.152 60.7512 102.224 60.7643C102.295 60.7787 102.359 60.8201 102.4 60.8799C102.442 60.9397 102.458 61.0132 102.447 61.085L100.348 72.1208C100.334 72.1826 100.3 72.2379 100.25 72.2774C100.201 72.3169 100.139 72.3382 100.076 72.3379Z" fill="#231F20"/>
<path d="M76.7757 72.3076H76.7262C76.654 72.2944 76.5901 72.2532 76.5483 72.1931C76.5066 72.133 76.4904 72.0588 76.5034 71.9869L78.6022 60.9461C78.6045 60.9068 78.6151 60.8684 78.6335 60.8335C78.6518 60.7986 78.6774 60.7681 78.7086 60.7439C78.7398 60.7197 78.7758 60.7024 78.8142 60.6932C78.8526 60.684 78.8926 60.6831 78.9314 60.6905C78.9702 60.698 79.007 60.7136 79.0392 60.7364C79.0714 60.7592 79.0984 60.7885 79.1184 60.8225C79.1383 60.8566 79.1507 60.8944 79.1547 60.9336C79.1587 60.9728 79.1543 61.0124 79.1418 61.0497L77.0479 72.0856C77.0353 72.1483 77.0013 72.2046 76.9516 72.2451C76.902 72.2856 76.8398 72.3077 76.7757 72.3076Z" fill="#231F20"/>
<path d="M37.9433 55.7809L89.3293 55.8401C90.061 55.8048 90.7598 55.5269 91.315 55.0505C91.8701 54.5741 92.2496 53.9265 92.3933 53.2106L101.952 2.92021C102.229 1.44021 101.303 0.280881 99.8876 0.280881L48.5016 0.22168C47.7727 0.255947 47.0759 0.531017 46.5211 1.00353C45.9664 1.47605 45.5851 2.11913 45.4376 2.83141L35.8791 53.1514C35.6019 54.5969 36.5276 55.7809 37.9433 55.7809Z" fill="white"/>
<path d="M89.3284 56.1117L37.9424 56.0525C37.5967 56.0605 37.2535 55.9911 36.9383 55.8494C36.623 55.7076 36.3437 55.4972 36.1208 55.2336C35.885 54.9411 35.718 54.5994 35.6324 54.234C35.5467 53.8685 35.5445 53.4886 35.6258 53.1221L45.1942 2.83173C45.3507 2.0604 45.7609 1.36312 46.3598 0.850235C46.9587 0.337353 47.7121 0.0381586 48.5008 0L99.8867 0.0592014C100.231 0.0484346 100.573 0.114628 100.888 0.252924C101.204 0.39122 101.484 0.598106 101.708 0.858401C101.944 1.15113 102.111 1.49274 102.196 1.85814C102.282 2.22354 102.284 2.60342 102.203 2.96987L92.6498 53.2553C92.4975 54.0336 92.0873 54.7382 91.485 55.2562C90.8826 55.7742 90.1231 56.0755 89.3284 56.1117ZM37.9424 55.5592L89.3284 55.6184C90.009 55.5833 90.658 55.3209 91.1707 54.8735C91.6835 54.426 92.0301 53.8195 92.1548 53.1517L101.708 2.8712C101.776 2.57714 101.777 2.27166 101.711 1.97716C101.645 1.68266 101.514 1.4066 101.327 1.1692C101.151 0.961253 100.93 0.795597 100.68 0.684561C100.431 0.573524 100.16 0.519965 99.8867 0.527868L48.5008 0.468667C47.8264 0.504734 47.1832 0.763259 46.6725 1.20356C46.1617 1.64385 45.8123 2.24092 45.6793 2.9008L36.1208 53.1912C36.054 53.4853 36.0536 53.7906 36.1195 54.0849C36.1854 54.3792 36.316 54.6553 36.502 54.8932C36.6785 55.1009 36.8996 55.2663 37.1489 55.3774C37.3983 55.4884 37.6695 55.5421 37.9424 55.5345V55.5592Z" fill="#231F20"/>
<path d="M101.065 7.88852L44.5511 7.82439C44.4854 7.82439 44.4225 7.7984 44.3761 7.75214C44.3297 7.70588 44.3036 7.64314 44.3036 7.57772C44.3036 7.5123 44.3297 7.44956 44.3761 7.4033C44.4225 7.35704 44.4854 7.33105 44.5511 7.33105L101.065 7.39519C101.13 7.39645 101.193 7.42284 101.239 7.46883C101.285 7.51482 101.311 7.57683 101.313 7.64185C101.313 7.70727 101.287 7.77001 101.24 7.81627C101.194 7.86253 101.131 7.88852 101.065 7.88852Z" fill="#231F20"/>
<path d="M97.2641 4.71495C97.8061 4.14199 97.8616 3.31692 97.3882 2.87211C96.9147 2.42731 96.0916 2.53121 95.5496 3.10417C95.0077 3.67713 94.9522 4.50219 95.4256 4.94699C95.8991 5.3918 96.7222 5.28791 97.2641 4.71495Z" fill="#FF3967"/>
<path d="M92.7641 4.70909C93.3061 4.13613 93.3616 3.31106 92.8882 2.86626C92.4147 2.42145 91.5916 2.52535 91.0496 3.09831C90.5077 3.67127 90.4522 4.49633 90.9256 4.94113C91.3991 5.38594 92.2222 5.28205 92.7641 4.70909Z" fill="#FF3967"/>
<path d="M88.2632 4.70323C88.8051 4.13027 88.8606 3.3052 88.3872 2.8604C87.9137 2.41559 87.0906 2.51949 86.5487 3.09245C86.0067 3.66541 85.9512 4.49047 86.4246 4.93527C86.8981 5.38008 87.7212 5.27619 88.2632 4.70323Z" fill="#FF3967"/>
<path d="M74.3306 11.7705L69.4746 37.3104L90.0716 37.3301L94.9226 11.7952L74.3306 11.7705Z" fill="white"/>
<path d="M74.3352 11.7708H94.9272L90.0762 37.3106L69.4793 37.286L74.3352 11.7708ZM74.3352 11.2774C74.2187 11.2753 74.1052 11.3142 74.0147 11.3873C73.9241 11.4604 73.8623 11.563 73.8402 11.677L68.9892 37.2169C68.9758 37.2878 68.9782 37.3608 68.9961 37.4307C69.0141 37.5006 69.0472 37.5657 69.0932 37.6214C69.1397 37.6771 69.198 37.7219 69.2639 37.7526C69.3297 37.7833 69.4016 37.7991 69.4743 37.799L90.0713 37.8237C90.1878 37.8258 90.3013 37.7869 90.3918 37.7138C90.4824 37.6407 90.5442 37.5381 90.5663 37.4241L95.4173 11.8842C95.4307 11.8133 95.4283 11.7404 95.4104 11.6705C95.3924 11.6006 95.3593 11.5354 95.3133 11.4797C95.2673 11.4231 95.2092 11.3774 95.1433 11.3458C95.0774 11.3143 95.0053 11.2976 94.9322 11.2972H74.3402L74.3352 11.2774Z" fill="#231F20"/>
<path d="M70.8706 29.9305L69.4697 37.3059L90.0667 37.3305L91.4725 29.9651C89.7746 27.9325 86.9234 27.2369 84.4138 27.0051C83.4238 26.9163 82.5328 26.8916 81.7556 26.8916H81.5725C80.8448 26.8916 80.0033 26.8916 79.0975 26.9952H79.0529C76.4542 27.2172 73.3456 27.9128 70.8706 29.9305Z" fill="#FF3967"/>
<path d="M78.7207 28.4058L79.3543 35.3125L79.5375 37.3253H80.0028L80.9532 35.3075L84.1954 28.4403C82.3949 28.0306 80.5262 28.0188 78.7207 28.4058Z" fill="#231F20"/>
<path d="M84.2055 28.4161C83.8681 28.8876 83.4225 29.2719 82.9059 29.5371C82.3893 29.8022 81.8166 29.9405 81.2355 29.9405C80.7083 29.9774 80.1827 29.8494 79.7319 29.5744C79.2812 29.2993 78.9278 28.891 78.7209 28.4063L80.1317 22.3975H85.0817L84.2055 28.4161Z" fill="white"/>
<path d="M81.2655 30.1968C80.6858 30.2283 80.1103 30.0815 79.6171 29.7761C79.124 29.4708 78.7369 29.0218 78.5083 28.4898C78.4959 28.4446 78.4959 28.3969 78.5083 28.3517L79.9141 22.338C79.9284 22.2819 79.9609 22.2321 80.0066 22.1964C80.0523 22.1607 80.1085 22.1411 80.1666 22.1406H85.1166C85.1529 22.1403 85.1888 22.1475 85.2221 22.162C85.2554 22.1764 85.2852 22.1978 85.3096 22.2245C85.3335 22.253 85.3511 22.2862 85.3613 22.3219C85.3715 22.3575 85.3742 22.395 85.369 22.4317L84.4929 28.4405C84.4889 28.4756 84.477 28.5093 84.4582 28.5392C84.1 29.0519 83.6224 29.4706 83.0664 29.7593C82.5104 30.0479 81.8924 30.1981 81.2655 30.1968ZM79.0132 28.3862C79.2136 28.8029 79.535 29.1499 79.9358 29.3821C80.3365 29.6144 80.7981 29.7212 81.2605 29.6886C81.79 29.6892 82.3122 29.5659 82.7851 29.3285C83.258 29.0912 83.6683 28.7464 83.983 28.3221L84.8097 22.6586H80.3547L79.0132 28.3862Z" fill="#231F20"/>
<path d="M84.5913 24.9772C84.1078 25.5417 83.5108 25.9988 82.839 26.3191C81.755 26.8765 80.166 27.5031 79.0127 27.3057L79.6909 24.7601C80.5621 24.8668 81.4431 24.8668 82.3143 24.7601C83.1161 24.7273 83.9085 24.576 84.6656 24.3112C84.7992 24.2915 84.7943 24.7305 84.5913 24.9772Z" fill="#231F20"/>
<path d="M79.4589 27.5918C79.2932 27.5932 79.1277 27.5817 78.9639 27.5572C78.8956 27.5447 78.835 27.5057 78.7955 27.4487C78.7776 27.4194 78.7658 27.3869 78.7607 27.353C78.7556 27.3191 78.7573 27.2846 78.7658 27.2514L79.444 24.7107C79.4593 24.6514 79.4961 24.5999 79.5473 24.5662C79.5985 24.5324 79.6605 24.5189 79.7212 24.5282C80.5728 24.6316 81.4338 24.6316 82.2853 24.5282C83.0627 24.4952 83.8313 24.3506 84.5673 24.099C84.6271 24.073 84.694 24.0681 84.757 24.0852C84.82 24.1022 84.8753 24.1401 84.9137 24.1927C84.9761 24.3438 84.9962 24.509 84.9718 24.6706C84.9474 24.8322 84.8794 24.9842 84.7751 25.1103C84.2721 25.7049 83.6478 26.1859 82.9437 26.5212C81.872 27.1217 80.6838 27.4867 79.4589 27.5918ZM79.3252 27.0984C80.5182 27.1527 82.0824 26.4324 82.7308 26.1118C83.371 25.8078 83.9395 25.3724 84.399 24.834C84.4333 24.7919 84.4586 24.7432 84.4732 24.691C83.7749 24.8922 83.0558 25.013 82.3298 25.0511C81.5072 25.1386 80.6775 25.1386 79.8548 25.0511L79.3252 27.0984Z" fill="#231F20"/>
<path d="M86.7349 37.5817H86.6607C86.6281 37.5722 86.5979 37.5562 86.5717 37.5348C86.5455 37.5133 86.5239 37.4869 86.5082 37.4569C86.4925 37.427 86.483 37.3942 86.4803 37.3606C86.4776 37.3269 86.4817 37.2931 86.4924 37.261L88.4724 31.0648C88.4824 31.0328 88.4988 31.0032 88.5206 30.9776C88.5423 30.9521 88.5689 30.9311 88.5989 30.9159C88.6289 30.9008 88.6616 30.8917 88.6951 30.8893C88.7286 30.8869 88.7623 30.8912 88.7941 30.902C88.826 30.9115 88.8556 30.9273 88.8812 30.9485C88.9068 30.9696 88.9279 30.9957 88.9431 31.0252C88.9584 31.0547 88.9675 31.0869 88.97 31.12C88.9724 31.1531 88.9682 31.1863 88.9575 31.2177L86.9775 37.414C86.9598 37.4637 86.9269 37.5067 86.8833 37.5368C86.8398 37.5669 86.7879 37.5826 86.7349 37.5817Z" fill="#231F20"/>
<path d="M72.8057 37.5672C72.7719 37.5653 72.7387 37.5568 72.7082 37.5421C72.6777 37.5274 72.6504 37.5069 72.6279 37.4817C72.6054 37.4565 72.588 37.4271 72.5769 37.3952C72.5658 37.3633 72.5611 37.3295 72.5631 37.2958L72.9393 31.0996C72.931 31.0609 72.9317 31.0208 72.9415 30.9824C72.9513 30.9441 72.9698 30.9085 72.9957 30.8785C73.0215 30.8485 73.054 30.8248 73.0906 30.8094C73.1271 30.794 73.1668 30.7872 73.2064 30.7895C73.246 30.7919 73.2846 30.8034 73.319 30.823C73.3534 30.8427 73.3829 30.8701 73.4049 30.903C73.427 30.9359 73.4411 30.9734 73.4462 31.0126C73.4513 31.0519 73.4473 31.0918 73.4343 31.1292L73.0581 37.3254C73.0556 37.3904 73.0279 37.4519 72.9808 37.497C72.9337 37.5421 72.871 37.5672 72.8057 37.5672Z" fill="#231F20"/>
<path d="M79.7509 21.0156C79.8549 19.6047 78.2214 19.2544 77.9887 20.9169C77.8856 21.4403 77.9389 21.9824 78.1422 22.4759C78.1836 22.5745 78.2455 22.6632 78.3237 22.7364C78.402 22.8095 78.4948 22.8654 78.5962 22.9003C78.6976 22.9352 78.8052 22.9484 78.9121 22.939C79.019 22.9297 79.1226 22.8979 79.2163 22.8459" fill="white"/>
<path d="M78.8442 23.2014C78.7521 23.2009 78.6604 23.1877 78.572 23.1619C78.4305 23.1157 78.2999 23.0416 78.1876 22.9442C78.0754 22.8468 77.9839 22.7279 77.9186 22.5946C77.6887 22.0547 77.6249 21.4588 77.7354 20.8827C77.874 19.8961 78.468 19.5063 79.0026 19.5606C79.3301 19.6273 79.618 19.8202 79.8034 20.0974C79.9888 20.3746 80.0568 20.7136 79.9926 21.0406C80.0005 21.0793 79.9993 21.1194 79.9891 21.1575C79.9788 21.1957 79.9599 21.231 79.9338 21.2607C79.9076 21.2904 79.8749 21.3137 79.8382 21.3287C79.8016 21.3438 79.7619 21.3502 79.7224 21.3474C79.6828 21.3446 79.6444 21.3328 79.6102 21.3128C79.576 21.2928 79.5469 21.2653 79.5251 21.2322C79.5034 21.1992 79.4896 21.1616 79.4848 21.1224C79.48 21.0831 79.4844 21.0433 79.4976 21.0061C79.5422 20.4387 79.2551 20.1082 78.9531 20.0737C78.6512 20.0391 78.3443 20.2611 78.2453 20.9617C78.1498 21.4328 78.1945 21.9215 78.374 22.3677C78.4429 22.5145 78.5676 22.6281 78.7205 22.6834C78.7834 22.7002 78.849 22.7046 78.9135 22.6961C78.9781 22.6876 79.0403 22.6665 79.0967 22.6341C79.1258 22.6176 79.158 22.607 79.1913 22.603C79.2247 22.5991 79.2584 22.6017 79.2907 22.6109C79.323 22.6201 79.3531 22.6356 79.3792 22.6565C79.4054 22.6774 79.4272 22.7034 79.4432 22.7327C79.4753 22.7918 79.4829 22.861 79.4644 22.9255C79.4459 22.9901 79.4027 23.0449 79.3442 23.0781C79.1906 23.1605 79.0186 23.203 78.8442 23.2014Z" fill="#231F20"/>
<path d="M86.1505 21.0207C86.5861 19.6098 88.3483 19.2644 87.9474 20.927C87.833 21.4998 87.5779 22.0354 87.2049 22.4859C86.8386 22.8953 86.3287 23.0877 85.9971 22.8559" fill="white"/>
<path d="M86.324 23.2118C86.1474 23.2161 85.974 23.1643 85.829 23.0638C85.7975 23.0464 85.77 23.0227 85.7483 22.9941C85.7266 22.9654 85.7112 22.9326 85.703 22.8977C85.6948 22.8627 85.6941 22.8265 85.7009 22.7913C85.7076 22.756 85.7217 22.7226 85.7422 22.6931C85.7628 22.6637 85.7893 22.6388 85.82 22.6202C85.8508 22.6015 85.8851 22.5896 85.9208 22.585C85.9565 22.5804 85.9928 22.5833 86.0273 22.5936C86.0617 22.6038 86.0937 22.6212 86.121 22.6445C86.324 22.7876 86.7002 22.6445 86.9972 22.3189C87.3429 21.8974 87.5838 21.4004 87.7001 20.8685C87.7397 20.7057 87.8486 20.163 87.5466 20.0841C87.2447 20.0052 86.621 20.3604 86.3982 21.0708C86.3885 21.1031 86.3724 21.1333 86.351 21.1595C86.3295 21.1857 86.3031 21.2075 86.2732 21.2235C86.2434 21.2395 86.2106 21.2495 86.1769 21.253C86.1431 21.2564 86.109 21.2531 86.0765 21.2434C86.044 21.2337 86.0137 21.2177 85.9874 21.1963C85.9611 21.175 85.9393 21.1486 85.9232 21.1188C85.9071 21.0891 85.8971 21.0564 85.8937 21.0228C85.8902 20.9891 85.8935 20.9551 85.9032 20.9228C86.2101 19.9361 87.0813 19.4033 87.6803 19.5661C87.8634 19.6204 88.4574 19.872 88.1753 20.9622C88.0421 21.5761 87.7638 22.1495 87.3635 22.6346C87.2395 22.7971 87.0832 22.9322 86.9043 23.0315C86.7254 23.1309 86.5278 23.1922 86.324 23.2118Z" fill="#231F20"/>
<path d="M79.7806 17.9175L79.0035 22.0023C78.6273 23.9756 79.8747 25.5592 81.7854 25.5592H82.1913C83.1772 25.508 84.1181 25.1318 84.8662 24.4898C85.6144 23.8477 86.1273 22.9762 86.3245 22.0121L87.0819 18.1247C87.0819 18.1247 87.7303 14.178 84.0426 14.5727C80.3548 14.9673 79.7806 17.9175 79.7806 17.9175Z" fill="white"/>
<path d="M82.2105 25.8166H81.8046C81.35 25.827 80.8989 25.7358 80.4843 25.5497C80.0697 25.3636 79.7022 25.0873 79.4088 24.7411C79.1036 24.3529 78.8896 23.9014 78.7826 23.4199C78.6755 22.9384 78.678 22.4391 78.79 21.9587L79.5672 17.869C79.5672 17.8394 80.2008 14.7511 84.0222 14.3268C84.4775 14.238 84.9474 14.2583 85.3932 14.3861C85.8391 14.5139 86.248 14.7455 86.5863 15.0619C87.6505 16.1818 87.3486 18.0959 87.3387 18.1798L86.5962 22.0722C86.3847 23.0923 85.8392 24.0136 85.0454 24.6914C84.2516 25.3691 83.2545 25.7649 82.2105 25.8166ZM80.0473 17.9676L79.285 22.0722C79.1926 22.4806 79.1921 22.9043 79.2837 23.313C79.3753 23.7216 79.5566 24.1049 79.8147 24.4352C80.0614 24.723 80.3693 24.9524 80.7161 25.1069C81.0628 25.2613 81.4397 25.3369 81.8194 25.3282H82.2254C83.1526 25.2804 84.0375 24.9262 84.7403 24.3214C85.4431 23.7166 85.9237 22.8956 86.1061 21.9883L86.8437 18.1107C86.8437 18.1107 87.116 16.3692 86.22 15.4319C85.9353 15.1748 85.5936 14.9885 85.2228 14.8881C84.852 14.7878 84.4626 14.7764 84.0865 14.8547C80.6265 15.2148 80.0721 17.8492 80.0473 17.9676Z" fill="#231F20"/>
<path d="M82.5672 22.5951C82.3836 22.5945 82.2002 22.5846 82.0177 22.5655C81.9511 22.5557 81.8909 22.5202 81.8502 22.4667C81.8095 22.4132 81.7914 22.3459 81.7999 22.2793C81.8086 22.2129 81.8429 22.1526 81.8957 22.1111C81.9484 22.0696 82.0153 22.0503 82.0821 22.0573C82.3797 22.0918 82.6804 22.0918 82.978 22.0573C83.0968 21.8205 83.0325 20.75 82.8394 19.6943C82.8279 19.6276 82.8433 19.559 82.8822 19.5036C82.9211 19.4481 82.9805 19.4103 83.0473 19.3983C83.0802 19.3918 83.114 19.392 83.1467 19.3987C83.1795 19.4054 83.2107 19.4186 83.2383 19.4374C83.2659 19.4562 83.2895 19.4804 83.3077 19.5084C83.3259 19.5364 83.3384 19.5677 83.3443 19.6005C83.4384 20.1333 83.7304 21.8995 83.374 22.378C83.3413 22.426 83.2988 22.4666 83.2494 22.4972C83.1999 22.5278 83.1446 22.5477 83.0869 22.5556C82.9147 22.5804 82.7411 22.5935 82.5672 22.5951Z" fill="#231F20"/>
<path d="M68.9247 17.0789H47.7783C47.7118 17.0699 47.6508 17.0373 47.6066 16.9869C47.5624 16.9366 47.5381 16.8719 47.5381 16.8051C47.5381 16.7382 47.5624 16.6735 47.6066 16.6232C47.6508 16.5728 47.7118 16.5402 47.7783 16.5312H68.9247C68.9912 16.5402 69.0523 16.5728 69.0964 16.6232C69.1406 16.6735 69.165 16.7382 69.165 16.8051C69.165 16.8719 69.1406 16.9366 69.0964 16.9869C69.0523 17.0373 68.9912 17.0699 68.9247 17.0789Z" fill="#231F20"/>
<path d="M68.2117 20.8387H47.0653C46.9918 20.8387 46.9213 20.8096 46.8693 20.7578C46.8173 20.7059 46.7881 20.6357 46.7881 20.5624C46.7881 20.4891 46.8173 20.4189 46.8693 20.3671C46.9213 20.3152 46.9918 20.2861 47.0653 20.2861L68.2117 20.3157C68.2839 20.3157 68.3531 20.3443 68.4042 20.3952C68.4552 20.4461 68.4839 20.5151 68.4839 20.5871C68.4778 20.6551 68.4466 20.7185 68.3963 20.765C68.346 20.8115 68.2803 20.8377 68.2117 20.8387Z" fill="#231F20"/>
<path d="M67.4947 24.593H46.3532C46.3141 24.5983 46.2742 24.5951 46.2364 24.5838C46.1985 24.5724 46.1635 24.5531 46.1338 24.5272C46.104 24.5013 46.0802 24.4693 46.0639 24.4334C46.0475 24.3976 46.0391 24.3586 46.0391 24.3192C46.0391 24.2798 46.0475 24.2409 46.0639 24.205C46.0802 24.1692 46.104 24.1372 46.1338 24.1113C46.1635 24.0853 46.1985 24.066 46.2364 24.0547C46.2742 24.0433 46.3141 24.0402 46.3532 24.0454H67.4947C67.5682 24.0454 67.6387 24.0745 67.6907 24.1264C67.7427 24.1782 67.7719 24.2484 67.7719 24.3217C67.7719 24.3578 67.7647 24.3934 67.7507 24.4267C67.7367 24.4599 67.7162 24.4901 67.6904 24.5153C67.6646 24.5406 67.634 24.5605 67.6004 24.5738C67.5668 24.5872 67.5308 24.5937 67.4947 24.593Z" fill="#231F20"/>
<path d="M66.7812 28.3523H45.6348C45.5683 28.3434 45.5072 28.3107 45.4631 28.2603C45.4189 28.21 45.3945 28.1454 45.3945 28.0785C45.3945 28.0116 45.4189 27.947 45.4631 27.8966C45.5072 27.8463 45.5683 27.8136 45.6348 27.8047L66.7812 27.8294C66.8203 27.8241 66.8602 27.8273 66.898 27.8386C66.9359 27.85 66.9709 27.8693 67.0006 27.8952C67.0304 27.9211 67.0542 27.9531 67.0705 27.989C67.0869 28.0248 67.0953 28.0638 67.0953 28.1032C67.0953 28.1425 67.0869 28.1815 67.0705 28.2173C67.0542 28.2532 67.0304 28.2852 67.0006 28.3111C66.9709 28.337 66.9359 28.3563 66.898 28.3677C66.8602 28.379 66.8203 28.3822 66.7812 28.377V28.3523Z" fill="#231F20"/>
<path d="M66.0687 32.1111H51.1593C51.0928 32.1022 51.0318 32.0695 50.9876 32.0191C50.9434 31.9688 50.9191 31.9042 50.9191 31.8373C50.9191 31.7704 50.9434 31.7058 50.9876 31.6554C51.0318 31.6051 51.0928 31.5724 51.1593 31.5635H66.0687C66.1409 31.5635 66.2102 31.5921 66.2612 31.6429C66.3123 31.6938 66.341 31.7628 66.341 31.8348C66.341 31.9072 66.3124 31.9768 66.2615 32.0284C66.2106 32.0801 66.1414 32.1098 66.0687 32.1111Z" fill="#231F20"/>
<path d="M87.4476 52.3233L41.2641 52.2691C41.2238 52.2682 41.1842 52.2587 41.1479 52.2412C41.1116 52.2238 41.0795 52.1988 41.0537 52.168C41.0279 52.1371 41.009 52.1011 40.9984 52.0624C40.9877 52.0237 40.9855 51.9831 40.9918 51.9435L43.0906 40.9076C43.1022 40.844 43.1358 40.7865 43.1855 40.745C43.2353 40.7035 43.298 40.6808 43.3629 40.6807L89.5464 40.7349C89.5873 40.7355 89.6277 40.745 89.6645 40.7629C89.7013 40.7808 89.7336 40.8067 89.7592 40.8385C89.7858 40.8684 89.805 40.904 89.8153 40.9425C89.8256 40.9811 89.8267 41.0215 89.8186 41.0605L87.7 52.0964C87.6892 52.1568 87.6585 52.2119 87.6128 52.253C87.5671 52.2941 87.509 52.3188 87.4476 52.3233ZM41.5957 51.7215L87.2199 51.7757L89.1999 41.2825L43.5757 41.2283L41.5957 51.7215Z" fill="#231F20"/>
<path d="M88.7145 44.765L42.6795 44.7107C42.606 44.7107 42.5355 44.6816 42.4835 44.6298C42.4315 44.578 42.4023 44.5077 42.4023 44.4345C42.4023 44.3984 42.4095 44.3627 42.4235 44.3295C42.4375 44.2962 42.458 44.2661 42.4838 44.2408C42.5096 44.2156 42.5402 44.1957 42.5738 44.1823C42.6074 44.169 42.6434 44.1625 42.6795 44.1631L88.7145 44.2174C88.7811 44.2263 88.8421 44.259 88.8862 44.3093C88.9304 44.3597 88.9548 44.4243 88.9548 44.4912C88.9548 44.5581 88.9304 44.6227 88.8862 44.6731C88.8421 44.7234 88.7811 44.7561 88.7145 44.765Z" fill="#231F20"/>
<path d="M74.9437 52.3084H74.8942C74.823 52.2941 74.7603 52.2525 74.7195 52.1925C74.6788 52.1325 74.6633 52.059 74.6764 51.9878L76.7752 40.9519C76.7812 40.9165 76.7942 40.8826 76.8134 40.8523C76.8326 40.8219 76.8576 40.7956 76.8871 40.775C76.9166 40.7543 76.9499 40.7397 76.985 40.732C77.0202 40.7242 77.0566 40.7235 77.092 40.7299C77.1642 40.7431 77.2281 40.7843 77.2699 40.8444C77.3116 40.9045 77.3278 40.9786 77.3148 41.0506L75.216 52.0864C75.2034 52.1491 75.1694 52.2055 75.1197 52.246C75.0701 52.2865 75.0079 52.3085 74.9437 52.3084Z" fill="#231F20"/>
<path d="M51.6596 52.2783H51.61C51.5388 52.264 51.4761 52.2223 51.4353 52.1624C51.3946 52.1024 51.3791 52.0289 51.3922 51.9576L53.4861 40.9218C53.5075 40.8583 53.5512 40.8048 53.6092 40.7711C53.6671 40.7373 53.7354 40.7257 53.8013 40.7384C53.8673 40.751 53.9263 40.7871 53.9676 40.8399C54.0088 40.8927 54.0295 40.9586 54.0257 41.0254L51.9318 52.0612C51.9182 52.123 51.8838 52.1783 51.8342 52.2178C51.7847 52.2573 51.723 52.2786 51.6596 52.2783Z" fill="#231F20"/>
<path d="M3.43635 104.049L2.59485 88.6719L40.7692 81.7061C40.8138 82.1155 42.4572 94.8435 43.6452 104.039L3.43635 104.049Z" fill="#231F20"/>
<path d="M43.6457 104.296H3.43685C3.3737 104.296 3.3129 104.272 3.26689 104.229C3.22087 104.186 3.19313 104.127 3.18935 104.064L2.34785 88.6964C2.34551 88.6366 2.36467 88.5778 2.40187 88.5308C2.43907 88.4838 2.49187 88.4515 2.5508 88.4399L40.7252 81.474C40.7591 81.4684 40.7937 81.4699 40.8269 81.4784C40.8602 81.4869 40.8913 81.5022 40.9183 81.5233C40.9453 81.5431 40.968 81.5682 40.985 81.597C41.0021 81.6259 41.013 81.6579 41.0173 81.6911C41.0618 82.1301 43.0418 97.4777 43.8932 104.019C43.8989 104.089 43.8776 104.158 43.8338 104.212C43.8099 104.238 43.7809 104.259 43.7485 104.273C43.7162 104.288 43.6812 104.295 43.6457 104.296ZM3.6695 103.802H43.3685C42.3785 96.1753 40.8044 83.9752 40.5569 82.0068L2.85275 88.8838L3.6695 103.802Z" fill="#231F20"/>
<path d="M64.0244 57.6655L70.7663 51.8047C70.7663 51.8047 73.2413 45.6676 74.2313 44.4984C75.2213 43.3292 82.6463 39.7131 82.7305 40.5221C82.8146 41.3312 81.0425 42.4264 80.5475 42.8309C79.8001 43.4377 79.0229 44.0001 78.2557 44.5773C79.81 45.2187 81.3643 46.9897 82.0523 48.524C82.372 49.1876 82.5115 49.9231 82.4567 50.6572C82.402 51.3913 82.155 52.0982 81.7405 52.7075C81.5098 53.0485 81.1693 53.3009 80.7752 53.4228C80.5772 53.476 80.3675 53.4666 80.1751 53.3959C79.9827 53.3252 79.817 53.1967 79.7011 53.0281L79.6021 53.1515C78.8102 54.2154 77.8643 55.1564 76.7954 55.9437C75.9242 56.5259 74.8402 56.59 74.1274 57.3103C73.0879 58.3512 72.2662 59.7769 71.3752 60.9313L66.4153 67.4581L64.0244 57.6655Z" fill="white"/>
<path d="M66.4157 67.6954H66.3662C66.3197 67.685 66.2771 67.6619 66.243 67.6289C66.209 67.5958 66.1848 67.5539 66.1731 67.5079L63.807 57.7301C63.7954 57.6861 63.7962 57.6398 63.8093 57.5963C63.8224 57.5528 63.8473 57.5137 63.8813 57.4834L70.5588 51.6719C70.8261 51.0158 73.0338 45.4954 74.0238 44.3558C75.0138 43.2162 81.6567 39.8763 82.6962 40.2019C82.7659 40.222 82.828 40.2623 82.8748 40.3176C82.9215 40.3729 82.9506 40.4408 82.9586 40.5127C83.0279 41.233 82.0428 42.0273 81.0281 42.7771L80.6816 43.0337C80.1569 43.4629 79.6124 43.8723 79.0827 44.267L78.7164 44.5433C80.2624 45.4472 81.4966 46.7976 82.2557 48.4159C82.5968 49.12 82.7453 49.9014 82.6862 50.681C82.6271 51.4607 82.3624 52.2109 81.9191 52.8559C81.6557 53.2444 81.2658 53.5302 80.8152 53.665C80.6209 53.716 80.4173 53.7202 80.2211 53.6773C80.0248 53.6344 79.8416 53.5457 79.6866 53.4183C78.9006 54.4586 77.9668 55.3792 76.9146 56.1514C76.5224 56.3922 76.1039 56.5875 75.6672 56.7335C75.1578 56.8807 74.6865 57.1366 74.2862 57.4834C73.5999 58.2195 72.9788 59.0135 72.4299 59.8563C72.1379 60.2757 71.8458 60.6901 71.5538 61.0798L66.6038 67.6165C66.5796 67.6419 66.5505 67.6621 66.5181 67.6757C66.4857 67.6893 66.4508 67.696 66.4157 67.6954ZM64.3218 57.7547L66.5345 66.8814L71.1875 60.7591C71.4795 60.3793 71.7617 59.9698 72.0488 59.5554C72.6157 58.6895 73.2566 57.8742 73.9644 57.1183C74.4131 56.7172 74.9457 56.4207 75.5237 56.2501C75.924 56.1188 76.3077 55.9417 76.6671 55.7222C77.7146 54.9455 78.6419 54.0197 79.4193 52.9743L79.5183 52.851C79.5461 52.8214 79.5799 52.7982 79.6175 52.7829C79.6551 52.7676 79.6955 52.7605 79.7361 52.7622C79.7762 52.7666 79.8147 52.7806 79.8483 52.8029C79.8819 52.8252 79.9096 52.8553 79.9292 52.8905C80.0172 53.0128 80.141 53.105 80.2837 53.1544C80.4264 53.2039 80.5809 53.2082 80.7261 53.1667C81.065 53.0574 81.3565 52.8365 81.5528 52.5402C81.9442 51.9653 82.1764 51.2976 82.2259 50.6046C82.2755 49.9117 82.1406 49.2179 81.8349 48.5935C81.2162 47.2319 79.7262 45.4362 78.1719 44.7949C78.1323 44.7787 78.0977 44.7524 78.0717 44.7186C78.0456 44.6848 78.0289 44.6447 78.0234 44.6025C78.0168 44.5597 78.022 44.5159 78.0386 44.4759C78.0552 44.4359 78.0825 44.4012 78.1175 44.3755L78.8154 43.8477C79.3401 43.453 79.8797 43.0485 80.3994 42.6291C80.4885 42.5551 80.6123 42.4663 80.7608 42.3529C81.2558 41.9878 82.3844 41.1541 82.4883 40.6361C81.4983 40.6361 75.4296 43.4875 74.4297 44.6518C73.4298 45.8161 71.0439 51.8249 71.0192 51.8841C71.0036 51.9216 70.98 51.9553 70.9499 51.9827L64.3218 57.7547Z" fill="#231F20"/>
<path d="M1.04102 98.3463C1.04102 98.3463 1.53601 57.1234 6.46126 48.8748C11.3865 40.6263 24.9248 38.2731 31.6469 42.8019C38.369 47.3307 43.6457 94.8683 43.6457 94.8683C43.6457 94.8683 22.4844 99.2442 1.04102 98.3463Z" fill="#388CE0"/>
<path d="M31.6465 42.792C31.6465 42.792 37.9627 43.754 41.4425 49.0919C44.9224 54.4297 48.7784 61.7903 48.7784 61.7903L66.935 52.3429L75.4342 60.3991C75.4342 60.3991 60.1882 76.8468 52.8176 81.3016C45.8629 85.5048 40.3882 79.6983 36.5915 75.9588C34.9828 74.3752 32.4929 70.4828 32.4929 70.4828L31.6465 42.792Z" fill="#388CE0"/>
<path d="M32.6612 26.3194C32.0274 26.3205 31.4143 26.0946 30.9337 25.683C30.4639 25.284 30.1475 24.7351 30.0382 24.1298C29.929 23.5244 30.0337 22.9 30.3345 22.3629C30.6353 21.8259 31.1137 21.4094 31.6881 21.1843C32.2624 20.9593 32.8973 20.9397 33.4846 21.1288C34.0718 21.318 34.5751 21.7042 34.9088 22.2216C35.2424 22.7391 35.3857 23.3558 35.3143 23.9668C35.2429 24.5777 34.9611 25.1451 34.5171 25.5723C34.0731 25.9994 33.4942 26.26 32.879 26.3095L32.6612 26.3194ZM32.6612 21.4798H32.483C31.9066 21.5269 31.3725 21.8002 30.998 22.2395C30.8143 22.4566 30.676 22.7081 30.591 22.9791C30.506 23.2502 30.4761 23.5354 30.503 23.8182C30.5316 24.174 30.6478 24.5173 30.8413 24.8176C31.0348 25.118 31.2996 25.3662 31.6123 25.5402C31.925 25.7142 32.2759 25.8086 32.634 25.8152C32.9921 25.8218 33.3463 25.7402 33.6652 25.5778C33.9841 25.4154 34.2579 25.1771 34.4623 24.884C34.6668 24.5909 34.7956 24.2521 34.8372 23.8976C34.8789 23.5431 34.8323 23.1838 34.7014 22.8516C34.5705 22.5193 34.3594 22.2244 34.0868 21.9928C33.693 21.6563 33.1898 21.474 32.6711 21.4798H32.6612Z" fill="#231F20"/>
<path d="M31.661 25.6191C31.661 25.6191 34.8488 30.0147 34.2647 30.9767C33.6806 31.9387 31.5967 31.4059 31.5967 31.4059" fill="white"/>
<path d="M32.7948 31.8005C32.3713 31.7962 31.9496 31.7449 31.5375 31.6476C31.506 31.6395 31.4763 31.6253 31.4503 31.6059C31.4242 31.5864 31.4023 31.5619 31.3857 31.534C31.3692 31.506 31.3583 31.4751 31.3538 31.4429C31.3493 31.4108 31.3511 31.3781 31.3593 31.3466C31.3668 31.3148 31.3806 31.2849 31.4 31.2586C31.4194 31.2323 31.444 31.2101 31.4722 31.1935C31.5004 31.1769 31.5317 31.1662 31.5642 31.162C31.5967 31.1578 31.6297 31.1602 31.6613 31.169C32.1909 31.3022 33.6413 31.5094 34.0521 30.8533C34.364 30.36 32.9483 27.8144 31.4583 25.7621C31.421 25.7095 31.4058 25.6445 31.416 25.5809C31.4262 25.5172 31.4609 25.4601 31.5128 25.4217C31.5388 25.4019 31.5686 25.3875 31.6004 25.3795C31.6322 25.3715 31.6653 25.3699 31.6977 25.375C31.7301 25.3801 31.7611 25.3916 31.7888 25.409C31.8166 25.4263 31.8406 25.4491 31.8593 25.476C32.4087 26.2308 35.1114 30.0541 34.4778 31.1049C34.1462 31.6574 33.4334 31.8005 32.7948 31.8005Z" fill="#231F20"/>
<path d="M30.7751 19.6687C32.7551 21.1487 32.3294 24.4491 32.4036 26.5754C32.5092 29.5781 32.5422 32.5842 32.5026 35.5935C32.5026 37.4978 27.5526 37.7445 26.6418 37.2117L28.0674 41.8687L17.1774 41.1583L17.3408 34.9275C17.3408 34.9275 15.9597 26.3731 17.7269 22.4117C18.2424 21.2723 19.0671 20.2991 20.1078 19.6018C21.1486 18.9044 22.3641 18.5107 23.6174 18.465C23.6174 18.465 28.8396 18.2331 30.7751 19.6687Z" fill="white"/>
<path d="M28.0627 42.1256L17.1727 41.4152C17.1088 41.4114 17.0488 41.383 17.0054 41.3361C16.9621 41.2892 16.9386 41.2273 16.94 41.1636L17.1034 34.9278C17.0489 34.622 15.7322 26.3044 17.5093 22.3232C19.2863 18.342 23.5582 18.2384 23.6324 18.2384C23.8354 18.2384 28.9586 17.9966 30.9386 19.4717C32.6761 20.7692 32.6662 23.3493 32.6563 25.3917C32.6563 25.8012 32.6563 26.1958 32.6563 26.551C32.7602 29.5456 32.7949 32.5845 32.7553 35.579C32.735 35.8775 32.6316 36.1645 32.4568 36.4076C32.2819 36.6508 32.0424 36.8405 31.7653 36.9554C30.4931 37.6658 28.1617 37.8188 27.0133 37.582L28.3003 41.8049C28.3116 41.8435 28.3134 41.8843 28.3057 41.9238C28.2979 41.9632 28.2808 42.0003 28.2557 42.0318C28.2329 42.0612 28.2036 42.0849 28.1702 42.1011C28.1367 42.1174 28.0999 42.1258 28.0627 42.1256ZM17.4202 40.9416L27.7211 41.6076L26.3995 37.2958C26.3855 37.2481 26.3861 37.1973 26.401 37.1499C26.416 37.1025 26.4447 37.0606 26.4836 37.0294C26.5245 37.0019 26.5728 36.9871 26.6222 36.9871C26.6716 36.9871 26.7199 37.0019 26.7608 37.0294C27.3499 37.3797 30.1318 37.3501 31.5227 36.5706C32.0177 36.3042 32.2504 35.9836 32.2504 35.6185C32.29 32.6289 32.2504 29.5998 32.1514 26.6152C32.1514 26.2501 32.1514 25.8505 32.1514 25.4361C32.1514 23.4628 32.1514 21.0356 30.6317 19.8861C28.7953 18.5196 23.7017 18.7465 23.6324 18.7514C22.424 18.7884 21.2505 19.1639 20.2464 19.8348C19.2422 20.5058 18.448 21.4451 17.9548 22.5452C16.2322 26.3882 17.5736 34.8341 17.5885 34.918L17.4202 40.9416Z" fill="#231F20"/>
<path d="M15.1729 42.7922L15.9203 39.4375L29.2407 39.6496L30.2307 42.6096C30.2307 42.6096 23.6027 46.428 15.1729 42.7922Z" fill="white"/>
<path d="M22.5632 44.5974C19.9847 44.5914 17.4352 44.0557 15.0738 43.0236C15.0213 43.0001 14.9784 42.9594 14.9523 42.9082C14.9262 42.8571 14.9184 42.7986 14.9303 42.7424L15.6777 39.3878C15.6893 39.3325 15.7198 39.283 15.7641 39.2479C15.8084 39.2128 15.8637 39.1942 15.9203 39.1954L29.2407 39.4124C29.2911 39.412 29.3403 39.4275 29.3812 39.4568C29.4221 39.4861 29.4527 39.5275 29.4684 39.5752L30.4584 42.5352C30.4785 42.5887 30.4785 42.6476 30.4585 42.701C30.4385 42.7545 30.3998 42.799 30.3495 42.8263C27.9325 44.0258 25.2631 44.633 22.5632 44.5974ZM15.4599 42.6487C17.7482 43.6419 20.2216 44.1405 22.7173 44.1116C25.213 44.0827 27.6742 43.5269 29.9387 42.481L29.0625 39.9008L16.1183 39.6936L15.4599 42.6487Z" fill="#231F20"/>
<path d="M1.19403 93.6052C1.13219 93.6053 1.07265 93.5819 1.02757 93.5397C0.982482 93.4975 0.955265 93.4398 0.951479 93.3783C0.100079 83.0183 3.03543 61.0107 3.19383 60.3644C3.20163 60.332 3.21576 60.3015 3.2354 60.2745C3.25505 60.2476 3.27982 60.2247 3.30832 60.2073C3.33682 60.1899 3.36848 60.1783 3.40149 60.173C3.43451 60.1678 3.46823 60.1692 3.50073 60.1769C3.53323 60.1847 3.56388 60.1988 3.59092 60.2184C3.61796 60.2379 3.64087 60.2626 3.65834 60.291C3.67581 60.3194 3.68749 60.351 3.69272 60.3839C3.69795 60.4168 3.69663 60.4504 3.68883 60.4828C3.53043 61.1291 0.614878 83.0084 1.45638 93.3388C1.45908 93.3712 1.45533 93.4038 1.44534 93.4348C1.43534 93.4658 1.4193 93.4944 1.39814 93.5192C1.37698 93.544 1.35111 93.5643 1.32203 93.5791C1.29294 93.5938 1.26122 93.6027 1.22868 93.6052H1.19403Z" fill="#231F20"/>
<path d="M21.9986 34.9925C21.3551 38.8997 22.0432 42.1903 18.1426 44.8148C15.4745 46.6155 12.0194 46.9953 8.86133 46.3688C6.88133 45.9741 4.82708 45.1009 3.75788 43.3792C2.46098 41.2924 2.95598 38.5396 4.02023 36.3245C5.08448 34.1095 6.65858 32.1509 7.55948 29.8619C9.76223 24.2773 7.94558 17.9429 13.3658 13.9913C15.491 12.4592 17.9701 11.4868 20.573 11.1645C21.3205 11.0708 27.8297 11.9095 27.7357 12.0229C28.9682 10.6071 31.6016 11.4605 32.4382 13.1329C32.7742 13.8918 32.9519 14.7108 32.9604 15.5403C32.9689 16.3697 32.8081 17.1922 32.4877 17.9577C32.3936 18.1501 30.6809 20.3011 30.7205 19.6647C30.6116 21.3617 29.5721 22.2497 28.3099 23.4239C27.0476 24.598 25.5478 25.4959 24.1717 26.5368C21.4888 28.5545 22.4144 31.036 22.1372 33.9072C22.1026 34.2772 22.058 34.6373 21.9986 34.9925Z" fill="white"/>
<path d="M11.6831 46.8958C10.7207 46.8947 9.76066 46.7988 8.81709 46.6097C7.07964 46.2643 4.75314 45.4503 3.55029 43.5115C1.89204 40.8426 3.16914 37.5225 3.79779 36.2151C4.26309 35.2285 4.83234 34.3109 5.38179 33.4081C6.13549 32.255 6.78642 31.0384 7.32714 29.7722C8.00657 27.8329 8.44705 25.8185 8.63889 23.7733C9.13389 19.9845 9.62889 16.4078 13.2226 13.7931C15.3801 12.2337 17.8987 11.2442 20.5436 10.917C20.5931 10.917 26.2361 11.361 27.6419 11.7557C27.9265 11.4811 28.272 11.2772 28.6504 11.1607C29.0289 11.0441 29.4295 11.0181 29.8199 11.0847C30.4126 11.1621 30.9787 11.3775 31.4723 11.7135C31.966 12.0494 32.3733 12.4965 32.6612 13.0186C33.0115 13.8127 33.1965 14.6695 33.2051 15.5369C33.2136 16.4044 33.0454 17.2646 32.7107 18.0654C32.7107 18.0654 31.5821 19.6885 30.9386 19.9795C30.7357 21.5138 29.7605 22.4166 28.6468 23.4329L28.4785 23.5907C27.6148 24.3572 26.6984 25.0628 25.7362 25.7022C25.2412 26.0377 24.7808 26.3682 24.3205 26.7185C22.4098 28.1541 22.4246 29.8462 22.4444 31.8047C22.4609 32.5091 22.4411 33.2138 22.385 33.9162C22.3504 34.2961 22.3009 34.6661 22.2415 35.0163C22.1029 35.8501 22.0286 36.6591 21.9544 37.4386C21.6772 40.3591 21.4594 42.8653 18.2815 45.0063C16.3188 46.2745 14.0219 46.9322 11.6831 46.8958ZM20.7515 11.4005H20.603C18.0419 11.7171 15.6022 12.6723 13.5097 14.1779C10.0892 16.6446 9.62394 20.1423 9.12894 23.8226C8.9365 25.9171 8.48596 27.9799 7.78749 29.9646C7.23659 31.2576 6.57411 32.5006 5.80749 33.6794C5.2399 34.5752 4.71784 35.4989 4.24329 36.447C3.65424 37.6754 2.44149 40.8081 3.97104 43.2649C5.07984 45.0557 7.27269 45.8154 8.92104 46.141C12.2821 46.807 15.5986 46.2545 18.0142 44.6265C20.9842 42.6285 21.2069 40.2161 21.4792 37.4189C21.5534 36.6295 21.6326 35.8155 21.7712 34.9522C21.8306 34.6118 21.8752 34.2517 21.9098 33.8817C21.9662 33.1975 21.986 32.5108 21.9692 31.8245C21.9692 29.8166 21.9346 27.9271 24.0383 26.3386C24.5333 25.9883 24.9887 25.6529 25.4689 25.3125C26.4137 24.6868 27.3135 23.9961 28.1617 23.2454L28.33 23.0875C29.4833 22.017 30.3941 21.1734 30.4931 19.6342C30.4994 19.5697 30.5299 19.5099 30.5786 19.4669C30.6272 19.4238 30.6905 19.4008 30.7555 19.4023C30.8025 19.4051 30.8474 19.4224 30.8842 19.4517C31.3913 18.9605 31.852 18.4238 32.2603 17.8483C32.5623 17.1163 32.714 16.3314 32.7063 15.54C32.6987 14.7485 32.5318 13.9667 32.2157 13.2406C31.9634 12.7886 31.6079 12.4021 31.178 12.1124C30.748 11.8227 30.2556 11.638 29.7407 11.5731C29.4089 11.513 29.0672 11.537 28.7471 11.6431C28.427 11.7491 28.1389 11.9337 27.9092 12.1799C27.8698 12.226 27.8146 12.2561 27.7544 12.2642C27.6941 12.2724 27.633 12.2582 27.5825 12.2243C25.3212 11.8335 23.0412 11.5585 20.7515 11.4005Z" fill="#231F20"/>
<path d="M32.3345 33.3639C32.3345 33.3639 30.0575 34.8932 28.7111 32.54L32.3345 33.3639Z" fill="white"/>
<path d="M30.7353 34.0994C30.5504 34.1014 30.366 34.0815 30.1858 34.0402C29.8231 33.9422 29.4852 33.769 29.1943 33.5318C28.9034 33.2946 28.6661 32.9988 28.4979 32.6638C28.4816 32.6356 28.4711 32.6045 28.4669 32.5723C28.4627 32.5401 28.4649 32.5073 28.4734 32.476C28.4819 32.4446 28.4966 32.4152 28.5165 32.3894C28.5364 32.3637 28.5612 32.3421 28.5894 32.3259C28.6177 32.3097 28.6489 32.2992 28.6813 32.295C28.7136 32.2908 28.7465 32.2931 28.7779 32.3015C28.8094 32.31 28.8389 32.3246 28.8648 32.3444C28.8906 32.3643 28.9123 32.389 28.9285 32.4172C29.0625 32.6925 29.2536 32.9365 29.4891 33.1329C29.7245 33.3293 29.9991 33.4738 30.2947 33.5568C30.9553 33.6579 31.6304 33.5177 32.1955 33.1621C32.222 33.1435 32.252 33.1304 32.2837 33.1236C32.3153 33.1168 32.348 33.1163 32.3799 33.1223C32.4117 33.1283 32.442 33.1406 32.469 33.1584C32.496 33.1763 32.5192 33.1993 32.5371 33.2262C32.5558 33.253 32.569 33.2833 32.576 33.3152C32.5829 33.3472 32.5833 33.3802 32.5774 33.4123C32.5714 33.4444 32.559 33.4751 32.5411 33.5024C32.5231 33.5297 32.4999 33.5532 32.4727 33.5715C31.951 33.8984 31.3512 34.0806 30.7353 34.0994Z" fill="#231F20"/>
<path d="M19.3901 28.1994H19.3406C19.3088 28.1929 19.2785 28.1803 19.2516 28.1621C19.2246 28.144 19.2015 28.1208 19.1836 28.0937C19.1657 28.0667 19.1533 28.0364 19.1471 28.0046C19.1409 27.9728 19.1411 27.9401 19.1476 27.9083C19.4545 26.3889 19.7465 26.3396 19.8752 26.3247C20.1227 26.2803 29.899 24.2774 35.0371 23.2217C35.1027 23.2086 35.1709 23.222 35.2266 23.259C35.2823 23.2961 35.321 23.3536 35.3341 23.419C35.3472 23.4844 35.3337 23.5524 35.2966 23.6079C35.2595 23.6634 35.2017 23.7019 35.1361 23.715C34.5421 23.8334 20.9939 26.6207 20.0039 26.8082C19.8256 27.1924 19.7007 27.599 19.6327 28.0169C19.6176 28.0694 19.5858 28.1157 19.5421 28.1486C19.4983 28.1815 19.445 28.1994 19.3901 28.1994Z" fill="#231F20"/>
<path d="M25.9634 27.7849C25.8461 27.0366 25.5241 26.3351 25.0328 25.7573C24.7149 25.2645 24.3263 24.8207 23.8794 24.4401C23.6542 24.2524 23.3899 24.1169 23.1057 24.0435C22.8214 23.9701 22.5244 23.9607 22.236 24.0158C21.9863 24.0905 21.7554 24.2171 21.5583 24.3871C21.3612 24.5572 21.2025 24.7669 21.0926 25.0025C20.8791 25.4664 20.7725 25.9721 20.7807 26.4825C20.778 27.6141 21.0744 28.7266 21.6401 29.7078C22.2058 30.689 23.0208 31.5044 24.0032 32.072L23.8448 31.9388" fill="white"/>
<path d="M24.004 32.3377C23.961 32.3374 23.9187 32.3273 23.8802 32.3081C22.8642 31.7161 22.021 30.8698 21.4341 29.853C20.8472 28.8363 20.5369 27.6844 20.534 26.5115C20.5223 25.9563 20.6392 25.406 20.8756 24.9032C20.9988 24.6351 21.1791 24.397 21.4039 24.2053C21.6287 24.0137 21.8926 23.873 22.1774 23.7932C22.5041 23.7289 22.8412 23.7399 23.1629 23.8254C23.4847 23.9109 23.7825 24.0686 24.0337 24.2865C24.5008 24.6801 24.9047 25.1427 25.2316 25.658C25.7598 26.2667 26.1032 27.0128 26.2216 27.8089C26.2235 27.8413 26.219 27.8738 26.2084 27.9045C26.1978 27.9351 26.1812 27.9634 26.1596 27.9877C26.138 28.012 26.1118 28.0318 26.0825 28.046C26.0532 28.0602 26.0214 28.0685 25.9889 28.0704C25.9564 28.0723 25.9238 28.0679 25.8931 28.0573C25.8623 28.0467 25.8339 28.0301 25.8096 28.0086C25.7852 27.9871 25.7653 27.961 25.7511 27.9318C25.7368 27.9026 25.7285 27.8709 25.7266 27.8385C25.6059 27.1382 25.3001 26.4825 24.8405 25.9392C24.5381 25.467 24.1679 25.0415 23.7416 24.6763C23.5457 24.5105 23.3152 24.3905 23.0669 24.3247C22.8186 24.259 22.5587 24.2493 22.3061 24.2964C22.0899 24.3593 21.8897 24.4675 21.719 24.6139C21.5482 24.7603 21.4109 24.9413 21.3161 25.1449C21.1177 25.5851 21.0197 26.0636 21.029 26.546C21.0308 27.5676 21.284 28.5732 21.7664 29.4745C22.2488 30.3759 22.9457 31.1456 23.7961 31.7161C23.8337 31.7113 23.8719 31.7151 23.9079 31.727C23.9439 31.739 23.9767 31.7589 24.004 31.7852L24.1772 31.9579C24.2201 31.999 24.2463 32.0544 24.2509 32.1135C24.2554 32.1726 24.238 32.2314 24.202 32.2785C24.175 32.3018 24.1434 32.3191 24.1093 32.3293C24.0752 32.3395 24.0393 32.3423 24.004 32.3377Z" fill="#231F20"/>
<path d="M30.7782 24.3943C31.0122 24.3719 31.1556 23.8744 31.0985 23.2831C31.0414 22.6919 30.8053 22.2308 30.5713 22.2533C30.3373 22.2757 30.1939 22.7732 30.251 23.3645C30.3081 23.9557 30.5442 24.4168 30.7782 24.3943Z" fill="#231F20"/>
<path d="M43.1502 81.272C43.116 81.279 43.0806 81.279 43.0463 81.272C31.2999 75.7713 25.4342 55.3769 25.3748 55.1746C25.358 55.1112 25.3666 55.0437 25.399 54.9866C25.4314 54.9294 25.4849 54.8872 25.548 54.8688C25.5793 54.8598 25.6119 54.8572 25.6442 54.8611C25.6764 54.865 25.7075 54.8753 25.7357 54.8914C25.7638 54.9075 25.7885 54.9291 25.8081 54.9549C25.8277 54.9806 25.842 55.0101 25.85 55.0414C25.9094 55.2437 31.7157 75.421 43.2591 80.823C43.3096 80.8474 43.3503 80.8882 43.3745 80.9386C43.3988 80.989 43.405 81.0462 43.3924 81.1007C43.3797 81.1551 43.3489 81.2037 43.3049 81.2384C43.2609 81.2731 43.2064 81.2919 43.1502 81.2917V81.272Z" fill="#231F20"/>
<path d="M100.491 98.5137H68.91L74.9589 67.0391H106.54L100.491 98.5137Z" fill="white"/>
<path d="M100.491 98.76H68.8905C68.8539 98.7595 68.8178 98.7513 68.7846 98.736C68.7513 98.7207 68.7217 98.6986 68.6975 98.6712C68.6752 98.643 68.6593 98.6103 68.6507 98.5754C68.6422 98.5406 68.6413 98.5042 68.648 98.469L74.6969 66.9894C74.7074 66.9332 74.7375 66.8826 74.7819 66.8465C74.8263 66.8103 74.8821 66.7911 74.9394 66.792H106.52C106.557 66.7916 106.594 66.7994 106.627 66.8147C106.66 66.8301 106.69 66.8527 106.713 66.8808C106.736 66.9089 106.752 66.9416 106.761 66.9765C106.769 67.0114 106.77 67.0478 106.763 67.0831L100.734 98.538C100.729 98.5987 100.701 98.6552 100.656 98.6963C100.611 98.7375 100.552 98.7602 100.491 98.76ZM69.2073 98.2667H100.288L106.228 67.2854H75.1622L69.2073 98.2667Z" fill="#231F20"/>
<path d="M100.491 73.5066H79.2361C79.1635 73.5053 79.0942 73.4757 79.0433 73.424C78.9924 73.3723 78.9639 73.3028 78.9639 73.2304C78.9639 73.1584 78.9925 73.0894 79.0436 73.0385C79.0947 72.9876 79.1639 72.959 79.2361 72.959H100.491C100.528 72.9584 100.564 72.9649 100.597 72.9783C100.631 72.9916 100.661 73.0115 100.687 73.0367C100.713 73.062 100.733 73.0921 100.747 73.1254C100.761 73.1586 100.769 73.1943 100.769 73.2304C100.769 73.2666 100.761 73.3026 100.748 73.3361C100.734 73.3696 100.713 73.4001 100.687 73.4257C100.662 73.4514 100.631 73.4717 100.597 73.4856C100.564 73.4995 100.528 73.5066 100.491 73.5066Z" fill="#383838"/>
<path d="M99.5451 78.4353H78.2948C78.2586 78.436 78.2227 78.4294 78.1891 78.4161C78.1555 78.4027 78.1249 78.3828 78.0991 78.3576C78.0733 78.3323 78.0528 78.3022 78.0388 78.2689C78.0248 78.2357 78.0176 78.2 78.0176 78.164C78.0176 78.0907 78.0468 78.0204 78.0988 77.9686C78.1508 77.9168 78.2213 77.8877 78.2948 77.8877H99.5501C99.6227 77.889 99.692 77.9187 99.7429 77.9703C99.7938 78.022 99.8223 78.0915 99.8223 78.164C99.8223 78.2 99.8151 78.2357 99.8011 78.2689C99.7872 78.3022 99.7666 78.3323 99.7408 78.3576C99.715 78.3828 99.6844 78.4027 99.6508 78.4161C99.6172 78.4294 99.5813 78.436 99.5451 78.4353Z" fill="#383838"/>
<path d="M98.5902 83.3684H77.3399C77.2733 83.3595 77.2123 83.3268 77.1681 83.2765C77.124 83.2261 77.0996 83.1615 77.0996 83.0946C77.0996 83.0277 77.124 82.9631 77.1681 82.9128C77.2123 82.8624 77.2733 82.8297 77.3399 82.8208H98.5902C98.6294 82.8156 98.6692 82.8187 98.7071 82.8301C98.7449 82.8414 98.7799 82.8607 98.8096 82.8867C98.8394 82.9126 98.8632 82.9446 98.8796 82.9804C98.8959 83.0163 98.9044 83.0552 98.9044 83.0946C98.9044 83.134 98.8959 83.173 98.8796 83.2088C98.8632 83.2447 98.8394 83.2767 98.8096 83.3026C98.7799 83.3285 98.7449 83.3478 98.7071 83.3592C98.6692 83.3705 98.6294 83.3737 98.5902 83.3684Z" fill="#383838"/>
<path d="M97.6495 88.302H76.3942C76.3551 88.3073 76.3152 88.3041 76.2774 88.2928C76.2395 88.2814 76.2046 88.2621 76.1748 88.2362C76.145 88.2103 76.1212 88.1783 76.1049 88.1424C76.0885 88.1066 76.0801 88.0676 76.0801 88.0282C76.0801 87.9888 76.0885 87.9499 76.1049 87.914C76.1212 87.8782 76.145 87.8462 76.1748 87.8203C76.2046 87.7943 76.2395 87.775 76.2774 87.7637C76.3152 87.7523 76.3551 87.7492 76.3942 87.7544H97.6495C97.7161 87.7633 97.7771 87.796 97.8213 87.8464C97.8654 87.8967 97.8898 87.9613 97.8898 88.0282C97.8898 88.0951 97.8654 88.1597 97.8213 88.2101C97.7771 88.2604 97.7161 88.2931 97.6495 88.302Z" fill="#383838"/>
<path d="M90.3884 93.2351H75.4443C75.3778 93.2262 75.3168 93.1935 75.2726 93.1432C75.2284 93.0928 75.2041 93.0282 75.2041 92.9613C75.2041 92.8944 75.2284 92.8298 75.2726 92.7794C75.3168 92.7291 75.3778 92.6964 75.4443 92.6875H90.3884C90.4549 92.6964 90.5159 92.7291 90.5601 92.7794C90.6043 92.8298 90.6286 92.8944 90.6286 92.9613C90.6286 93.0282 90.6043 93.0928 90.5601 93.1432C90.5159 93.1935 90.4549 93.2262 90.3884 93.2351Z" fill="#383838"/>
</svg>
