<svg width="135" height="86" viewBox="0 0 135 86" fill="none" xmlns="http://www.w3.org/2000/svg">
<path d="M53.8445 23.3478C53.8445 23.3478 61.9765 -0.89505 84.3781 0.025572C106.78 0.946195 112.917 19.0525 113.684 24.8824C114.452 30.7123 114.723 29.9048 114.723 29.9048C114.723 29.9048 137.209 31.303 134.645 51.4581C132.082 71.6131 115.306 68.8211 115.306 68.8211L53.845 68.999V62.1072H115.306C115.306 62.1072 127.897 63.2187 128.345 51.4608C128.793 39.7029 121.985 36.8348 114.723 36.2069C107.462 35.579 107.822 29.9048 107.822 29.9048C107.822 29.9048 106.255 6.84454 84.3786 6.51197C62.5025 6.1794 58.039 30.6454 58.039 30.6454L53.8445 23.3478Z" fill="#388CE0"/>
<path d="M35.8899 33.2458C38.3865 33.2458 40.3238 33.9035 41.7018 35.2189C43.0799 36.5343 43.845 38.0287 43.9971 39.702H41.3931C41.0978 38.4314 40.5072 37.4247 39.6214 36.682C38.7444 35.9393 37.5095 35.5679 35.9167 35.5679C33.975 35.5679 32.4045 36.2524 31.2054 37.6215C30.0153 38.9817 29.4202 41.0711 29.4202 43.8899C29.4202 46.1985 29.9571 48.0732 31.0309 49.5139C32.1137 50.9456 33.7244 51.6615 35.8631 51.6615C37.8317 51.6615 39.3305 50.9054 40.3596 49.3931C40.9054 48.5967 41.3126 47.5497 41.581 46.2522H44.185C43.9524 48.3282 43.1828 50.0687 41.8763 51.4736C40.3104 53.1648 38.1986 54.0104 35.5409 54.0104C33.2501 54.0104 31.3262 53.3169 29.7692 51.9299C27.7201 50.0955 26.6955 47.2634 26.6955 43.4335C26.6955 40.5253 27.465 38.1405 29.0041 36.2793C30.6685 34.257 32.9638 33.2458 35.8899 33.2458Z" fill="#FF3967"/>
<path d="M47.1917 33.7827H49.6077V53.5004H47.1917V33.7827Z" fill="#FF3967"/>
<path d="M58.9498 51.9434C60.5515 51.9434 61.6477 51.3394 62.2383 50.1313C62.8378 48.9144 63.1376 47.5632 63.1376 46.0777C63.1376 44.7355 62.9228 43.6438 62.4933 42.8026C61.8133 41.4783 60.641 40.8161 58.9766 40.8161C57.5001 40.8161 56.4263 41.3798 55.7552 42.5073C55.0841 43.6348 54.7485 44.995 54.7485 46.5878C54.7485 48.1179 55.0841 49.3931 55.7552 50.4132C56.4263 51.4333 57.4912 51.9434 58.9498 51.9434ZM59.0437 38.7088C60.896 38.7088 62.462 39.3262 63.7416 40.5611C65.0212 41.7959 65.661 43.6125 65.661 46.0106C65.661 48.3282 65.0973 50.2432 63.9698 51.7555C62.8423 53.2677 61.0929 54.0239 58.7216 54.0239C56.744 54.0239 55.1736 53.3572 54.0103 52.0239C52.847 50.6817 52.2654 48.883 52.2654 46.628C52.2654 44.212 52.8783 42.2881 54.1043 40.8564C55.3302 39.4246 56.9767 38.7088 59.0437 38.7088Z" fill="#FF3967"/>
<path d="M70.9629 39.1249V48.6683C70.9629 49.402 71.0793 50.0016 71.3119 50.4669C71.7414 51.3259 72.5423 51.7555 73.7145 51.7555C75.3968 51.7555 76.5422 51.0038 77.1507 49.5005C77.4818 48.6951 77.6473 47.59 77.6473 46.1851V39.1249H80.0634V53.5004H77.7816L77.8084 51.3796C77.4952 51.9255 77.106 52.3863 76.6407 52.7621C75.719 53.5138 74.6004 53.8896 73.285 53.8896C71.2359 53.8896 69.8399 53.2051 69.0972 51.836C68.6945 51.1022 68.4932 50.1224 68.4932 48.8965V39.1249H70.9629Z" fill="#FF3967"/>
<path d="M85.3787 46.4804C85.3787 48.0195 85.7053 49.3081 86.3586 50.3461C87.0118 51.3841 88.0587 51.9031 89.4994 51.9031C90.618 51.9031 91.5352 51.4244 92.251 50.4669C92.9759 49.5005 93.3383 48.1179 93.3383 46.3193C93.3383 44.5028 92.9669 43.1606 92.2242 42.2926C91.4815 41.4156 90.5643 40.9772 89.4726 40.9772C88.2556 40.9772 87.2668 41.4425 86.5062 42.3731C85.7545 43.3037 85.3787 44.6728 85.3787 46.4804ZM89.0162 38.8698C90.1169 38.8698 91.0385 39.1025 91.7813 39.5678C92.2108 39.8363 92.6985 40.306 93.2443 40.9772V33.7156H95.5664V53.5004H93.392V51.5004C92.8282 52.3863 92.1616 53.0261 91.392 53.4198C90.6224 53.8136 89.741 54.0104 88.7478 54.0104C87.146 54.0104 85.759 53.3393 84.5868 51.9971C83.4146 50.6459 82.8284 48.8517 82.8284 46.6146C82.8284 44.5207 83.3609 42.7087 84.4257 41.1785C85.4995 39.6394 87.0297 38.8698 89.0162 38.8698Z" fill="#FF3967"/>
<path d="M70.9404 83.6847V75.4526H74.2365C74.8421 75.4526 75.3472 75.5424 75.7519 75.7219C76.1565 75.9015 76.4607 76.1507 76.6643 76.4696C76.868 76.7858 76.9698 77.1502 76.9698 77.5629C76.9698 77.8845 76.9055 78.1672 76.7769 78.411C76.6482 78.6522 76.4714 78.8505 76.2463 79.0059C76.0239 79.1587 75.7693 79.2672 75.4826 79.3315V79.4119C75.7961 79.4253 76.0895 79.5137 76.3629 79.6772C76.6389 79.8407 76.8626 80.0698 77.0341 80.3646C77.2056 80.6566 77.2914 81.005 77.2914 81.4096C77.2914 81.8464 77.1828 82.2363 76.9658 82.5793C76.7514 82.9197 76.4339 83.189 76.0132 83.3873C75.5924 83.5856 75.0739 83.6847 74.4576 83.6847H70.9404ZM72.6809 82.2618H74.0998C74.5849 82.2618 74.9386 82.1693 75.161 81.9844C75.3834 81.7969 75.4946 81.5477 75.4946 81.2368C75.4946 81.009 75.4397 80.8081 75.3298 80.6339C75.2199 80.4597 75.0632 80.323 74.8595 80.2239C74.6586 80.1247 74.4187 80.0751 74.14 80.0751H72.6809V82.2618ZM72.6809 78.8974H73.9712C74.2097 78.8974 74.4214 78.8559 74.6063 78.7728C74.7939 78.6871 74.9413 78.5665 75.0485 78.411C75.1583 78.2556 75.2133 78.0694 75.2133 77.8523C75.2133 77.5549 75.1074 77.315 74.8957 77.1328C74.6867 76.9506 74.3892 76.8595 74.0034 76.8595H72.6809V78.8974Z" fill="#394657"/>
<path d="M79.4489 86C79.2318 86 79.0282 85.9826 78.8379 85.9477C78.6503 85.9156 78.4949 85.8741 78.3716 85.8231L78.7575 84.5449C78.9585 84.6065 79.1394 84.6401 79.3002 84.6454C79.4636 84.6508 79.6043 84.6133 79.7222 84.5329C79.8428 84.4525 79.9406 84.3158 80.0156 84.1229L80.1161 83.8616L77.9013 77.5107H79.7021L80.9803 82.0447H81.0447L82.3349 77.5107H84.1478L81.7481 84.352C81.6329 84.6843 81.4761 84.9737 81.2778 85.2202C81.0822 85.4694 80.8343 85.661 80.5342 85.795C80.234 85.9317 79.8723 86 79.4489 86Z" fill="#394657"/>
<path d="M87.676 83.6847V75.4526H93.223V76.8876H89.4164V78.8492H92.9376V80.2842H89.4164V82.2497H93.239V83.6847H87.676Z" fill="#394657"/>
<path d="M96.0055 77.5107L97.139 79.6692L98.3007 77.5107H100.057L98.2685 80.5977L100.105 83.6847H98.357L97.139 81.5503L95.9412 83.6847H94.1726L96.0055 80.5977L94.2369 77.5107H96.0055Z" fill="#394657"/>
<path d="M102.802 83.8013C102.408 83.8013 102.057 83.733 101.748 83.5963C101.44 83.457 101.196 83.252 101.017 82.9813C100.84 82.708 100.752 82.3676 100.752 81.9603C100.752 81.6173 100.815 81.3293 100.941 81.0961C101.067 80.863 101.238 80.6754 101.455 80.5334C101.672 80.3914 101.919 80.2842 102.195 80.2118C102.473 80.1395 102.765 80.0885 103.071 80.0591C103.43 80.0216 103.719 79.9867 103.939 79.9546C104.159 79.9197 104.318 79.8688 104.417 79.8018C104.517 79.7348 104.566 79.6357 104.566 79.5044V79.4803C104.566 79.2257 104.486 79.0287 104.325 78.8894C104.167 78.75 103.942 78.6804 103.65 78.6804C103.342 78.6804 103.096 78.7487 102.914 78.8854C102.732 79.0193 102.611 79.1882 102.552 79.3918L100.969 79.2632C101.049 78.888 101.207 78.5638 101.443 78.2905C101.679 78.0144 101.983 77.8027 102.355 77.6554C102.731 77.5053 103.165 77.4303 103.658 77.4303C104.001 77.4303 104.329 77.4705 104.643 77.5508C104.959 77.6312 105.239 77.7559 105.483 77.9247C105.729 78.0935 105.923 78.3106 106.066 78.5758C106.208 78.8385 106.279 79.1533 106.279 79.5204V83.6847H104.655V82.8286H104.606C104.507 83.0215 104.375 83.1917 104.208 83.339C104.042 83.4837 103.843 83.5976 103.61 83.6807C103.376 83.7611 103.107 83.8013 102.802 83.8013ZM103.292 82.6195C103.544 82.6195 103.766 82.57 103.959 82.4708C104.152 82.369 104.304 82.2323 104.413 82.0608C104.523 81.8893 104.578 81.695 104.578 81.478V80.8228C104.525 80.8576 104.451 80.8898 104.357 80.9193C104.266 80.9461 104.163 80.9715 104.048 80.9956C103.932 81.0171 103.817 81.0372 103.702 81.0559C103.587 81.072 103.482 81.0867 103.388 81.1001C103.188 81.1296 103.012 81.1765 102.862 81.2408C102.712 81.3051 102.595 81.3922 102.512 81.5021C102.429 81.6093 102.388 81.7433 102.388 81.9041C102.388 82.1372 102.472 82.3154 102.641 82.4387C102.812 82.5592 103.029 82.6195 103.292 82.6195Z" fill="#394657"/>
<path d="M109.319 75.4526V83.6847H107.607V75.4526H109.319Z" fill="#394657"/>
<path d="M113.481 83.8053C112.848 83.8053 112.304 83.6713 111.849 83.4034C111.396 83.1327 111.047 82.7575 110.804 82.2779C110.562 81.7982 110.442 81.2462 110.442 80.6218C110.442 79.9894 110.564 79.4347 110.808 78.9577C111.054 78.478 111.404 78.1042 111.857 77.8362C112.31 77.5656 112.848 77.4303 113.473 77.4303C114.011 77.4303 114.483 77.5281 114.887 77.7237C115.292 77.9193 115.612 78.194 115.848 78.5477C116.084 78.9014 116.214 79.3168 116.238 79.7938H114.622C114.577 79.4856 114.456 79.2377 114.26 79.0502C114.067 78.8599 113.814 78.7648 113.501 78.7648C113.235 78.7648 113.004 78.8371 112.805 78.9818C112.61 79.1238 112.457 79.3315 112.347 79.6049C112.237 79.8782 112.182 80.2091 112.182 80.5977C112.182 80.9916 112.236 81.3266 112.343 81.6026C112.453 81.8786 112.607 82.089 112.805 82.2337C113.004 82.3784 113.235 82.4507 113.501 82.4507C113.696 82.4507 113.872 82.4105 114.027 82.3301C114.185 82.2497 114.315 82.1332 114.417 81.9804C114.522 81.825 114.59 81.6388 114.622 81.4217H116.238C116.211 81.8933 116.083 82.3087 115.852 82.6678C115.624 83.0242 115.31 83.3029 114.908 83.5038C114.506 83.7048 114.03 83.8053 113.481 83.8053Z" fill="#394657"/>
<path d="M119.095 83.8013C118.701 83.8013 118.35 83.733 118.042 83.5963C117.734 83.457 117.49 83.252 117.31 82.9813C117.133 82.708 117.045 82.3676 117.045 81.9603C117.045 81.6173 117.108 81.3293 117.234 81.0961C117.36 80.863 117.531 80.6754 117.748 80.5334C117.965 80.3914 118.212 80.2842 118.488 80.2118C118.767 80.1395 119.059 80.0885 119.364 80.0591C119.723 80.0216 120.013 79.9867 120.233 79.9546C120.452 79.9197 120.612 79.8688 120.711 79.8018C120.81 79.7348 120.86 79.6357 120.86 79.5044V79.4803C120.86 79.2257 120.779 79.0287 120.618 78.8894C120.46 78.75 120.235 78.6804 119.943 78.6804C119.635 78.6804 119.39 78.7487 119.208 78.8854C119.025 79.0193 118.905 79.1882 118.846 79.3918L117.262 79.2632C117.342 78.888 117.501 78.5638 117.736 78.2905C117.972 78.0144 118.276 77.8027 118.649 77.6554C119.024 77.5053 119.458 77.4303 119.951 77.4303C120.294 77.4303 120.622 77.4705 120.936 77.5508C121.252 77.6312 121.532 77.7559 121.776 77.9247C122.023 78.0935 122.217 78.3106 122.359 78.5758C122.501 78.8385 122.572 79.1533 122.572 79.5204V83.6847H120.948V82.8286H120.9C120.801 83.0215 120.668 83.1917 120.502 83.339C120.336 83.4837 120.136 83.5976 119.903 83.6807C119.67 83.7611 119.4 83.8013 119.095 83.8013ZM119.585 82.6195C119.837 82.6195 120.06 82.57 120.253 82.4708C120.446 82.369 120.597 82.2323 120.707 82.0608C120.817 81.8893 120.872 81.695 120.872 81.478V80.8228C120.818 80.8576 120.744 80.8898 120.651 80.9193C120.559 80.9461 120.456 80.9715 120.341 80.9956C120.226 81.0171 120.111 81.0372 119.995 81.0559C119.88 81.072 119.776 81.0867 119.682 81.1001C119.481 81.1296 119.305 81.1765 119.155 81.2408C119.005 81.3051 118.889 81.3922 118.806 81.5021C118.722 81.6093 118.681 81.7433 118.681 81.9041C118.681 82.1372 118.765 82.3154 118.934 82.4387C119.106 82.5592 119.323 82.6195 119.585 82.6195Z" fill="#394657"/>
<path d="M0 36.7912V18.9393H13.6864C14.3146 18.9393 14.8848 19.0963 15.3973 19.4104C15.9262 19.7245 16.3477 20.146 16.6618 20.6749C16.9758 21.1873 17.1329 21.7576 17.1329 22.3857V25.8817C17.1329 26.0966 17.1163 26.3032 17.0833 26.5016C17.0502 26.6999 16.9923 26.89 16.9097 27.0718C17.1907 27.452 17.4139 27.8487 17.5791 28.262C17.761 28.6752 17.8519 29.0884 17.8519 29.5017V33.3448C17.8519 33.9729 17.6949 34.5514 17.3808 35.0804C17.0667 35.5928 16.6452 36.006 16.1163 36.3201C15.5873 36.6342 15.0088 36.7912 14.3807 36.7912H0ZM3.57038 33.4935H14.2319C14.3146 33.4935 14.3889 33.4688 14.4551 33.4192C14.5212 33.353 14.5542 33.2787 14.5542 33.196V29.6504C14.5542 29.5678 14.5212 29.5017 14.4551 29.4521C14.3889 29.386 14.3146 29.3529 14.2319 29.3529H3.57038C3.48773 29.3529 3.41335 29.386 3.34723 29.4521C3.29764 29.5017 3.27285 29.5678 3.27285 29.6504V33.196C3.27285 33.2787 3.29764 33.353 3.34723 33.4192C3.41335 33.4688 3.48773 33.4935 3.57038 33.4935ZM3.57038 26.0553H13.5377C13.6203 26.0553 13.6864 26.0305 13.736 25.9809C13.7856 25.9148 13.8104 25.8404 13.8104 25.7577V22.5345C13.8104 22.4518 13.7856 22.3857 13.736 22.3361C13.6864 22.27 13.6203 22.2369 13.5377 22.2369H3.57038C3.48773 22.2369 3.41335 22.27 3.34723 22.3361C3.29764 22.3857 3.27285 22.4518 3.27285 22.5345V25.7577C3.27285 25.8404 3.29764 25.9148 3.34723 25.9809C3.41335 26.0305 3.48773 26.0553 3.57038 26.0553Z" fill="#394657"/>
<path d="M20.5552 36.7912V18.9641H34.9359C35.564 18.9641 36.1426 19.1211 36.6715 19.4352C37.2005 19.7492 37.622 20.1707 37.936 20.6997C38.2501 21.2121 38.4071 21.7824 38.4071 22.4105V27.2206C38.4071 27.8487 38.2501 28.4272 37.936 28.9562C37.622 29.4851 37.2005 29.9066 36.6715 30.2207C36.1426 30.5182 35.564 30.667 34.9359 30.667L23.8281 30.6918V36.7912H20.5552ZM24.1256 27.3694H34.7872C34.8698 27.3694 34.9442 27.3446 35.0103 27.295C35.0764 27.2454 35.1095 27.1793 35.1095 27.0966V22.5345C35.1095 22.4518 35.0764 22.3857 35.0103 22.3361C34.9442 22.27 34.8698 22.2369 34.7872 22.2369H24.1256C24.043 22.2369 23.9686 22.27 23.9025 22.3361C23.8529 22.3857 23.8281 22.4518 23.8281 22.5345V27.0966C23.8281 27.1793 23.8529 27.2454 23.9025 27.295C23.9686 27.3446 24.043 27.3694 24.1256 27.3694Z" fill="#394657"/>
</svg>
