<svg width="177" height="134" viewBox="0 0 177 134" fill="none" xmlns="http://www.w3.org/2000/svg">
<path d="M141.551 100.67H35.4487C35.39 100.67 35.3337 100.646 35.2922 100.604C35.2507 100.562 35.2274 100.506 35.2274 100.446C35.2274 100.387 35.2507 100.33 35.2922 100.288C35.3337 100.247 35.39 100.223 35.4487 100.223H141.551C141.61 100.223 141.666 100.247 141.708 100.288C141.749 100.33 141.773 100.387 141.773 100.446C141.773 100.506 141.749 100.562 141.708 100.604C141.666 100.646 141.61 100.67 141.551 100.67Z" fill="#D1D3D4"/>
<path d="M51.6353 43.9208C43.9137 49.58 42.9225 61.4033 42.6924 70.283C42.4933 78.6312 44.3429 86.5864 46.0642 94.7291C47.7502 102.693 54.1531 107.035 61.7907 108.821C73.132 111.501 85.5618 111.787 97.0889 110.505C108.616 109.223 108.921 97.7486 107.762 88.3596C107.443 85.769 105.634 84.1386 103.678 82.7316C101.266 80.9986 99.1288 79.1583 97.4341 76.6614C91.9736 68.6214 91.6506 59.1476 88.0044 50.4466C85.1149 43.559 78.6809 38.7618 71.2425 39.003C63.8041 39.2442 56.7639 40.1554 51.6353 43.9208Z" fill="white"/>
<path d="M83.9864 111.466C76.5046 111.509 69.042 110.695 61.742 109.04C50.5467 106.418 46.9182 99.8389 45.8474 94.7782L45.4845 93.063C43.8384 85.349 42.2852 78.0639 42.4711 70.283C42.5729 66.1513 42.8472 60.7779 44.1349 55.8467C45.5863 50.2812 47.9935 46.3238 51.5069 43.7465C56.9276 39.7533 64.5297 38.9984 71.2424 38.7796C78.4906 38.5294 85.1458 43.0899 88.1946 50.3616C89.6239 53.7652 90.5531 57.3386 91.4558 60.7913C92.8541 66.1513 94.2967 71.6676 97.6066 76.5318C99.0713 78.6892 100.921 80.4893 103.802 82.5529C105.775 83.9733 107.647 85.6796 107.979 88.3328C109.041 96.9177 108.169 102.863 105.324 106.512C103.448 108.911 100.686 110.327 97.1154 110.724C92.7559 111.215 88.3729 111.462 83.9864 111.466ZM51.7724 44.0994C44.3517 49.5442 43.1481 60.9566 42.9224 70.2874C42.741 78.0192 44.2853 85.282 45.927 92.9692L46.2899 94.6844C47.3474 99.6066 50.8874 106.039 61.8393 108.607C72.4593 111.09 84.6281 111.667 97.0623 110.282C100.514 109.898 103.173 108.535 104.974 106.235C107.749 102.662 108.589 96.8552 107.545 88.3685C107.235 85.8627 105.439 84.2592 103.563 82.8968C100.647 80.802 98.7615 78.9662 97.2659 76.7686C93.9161 71.8552 92.4603 66.2719 91.0709 60.8896C90.1859 57.4502 89.2478 53.8948 87.8318 50.5135C84.8228 43.4338 78.3224 38.9984 71.269 39.2262C64.6049 39.4451 57.0824 40.2 51.7724 44.0994Z" fill="#231F20"/>
<path d="M71.8797 87.9486C70.5061 87.9463 69.1337 87.8673 67.7688 87.7119C65.1483 87.4093 62.5645 86.8422 60.0561 86.019C56.6311 84.8979 54.3301 83.6204 52.6044 81.8784C49.9803 79.2297 48.9803 75.6564 48.6219 73.1282C47.7369 67.268 48.6219 60.8002 49.2591 57.4681C49.672 55.1845 50.5758 53.02 51.9068 51.127C53.2378 49.234 54.9637 47.6585 56.963 46.5114C59.7375 44.881 63.0474 43.8314 67.0785 43.2954C71.3 42.737 74.34 43.1926 76.6454 44.7292C80.4022 47.235 81.4731 52.059 82.2474 56.7892L83.5749 64.8292C83.898 66.8302 84.3405 69.5728 85.9069 70.8726C86.4574 71.2926 87.0507 71.652 87.6769 71.9446C88.7566 72.4984 89.8894 73.0746 90.5045 74.3208C91.2833 75.8663 91.6108 78.4748 90.8098 80.1722C89.9248 82.0526 88.1239 83.2988 86.8273 84.0537C82.5085 86.622 77.4109 87.9486 71.8797 87.9486ZM67.822 87.2652C74.8312 88.0648 81.3182 86.8186 86.5884 83.6606C87.8185 82.9236 89.5487 81.74 90.3806 79.9712C91.1196 78.3989 90.8231 75.9512 90.0797 74.5129C89.5133 73.3962 88.5088 72.8826 87.4247 72.3332C86.77 72.0286 86.151 71.6511 85.5795 71.2076C83.8803 69.805 83.4245 66.9642 83.0882 64.8917L81.7607 56.8517C81.004 52.2242 79.9597 47.503 76.3534 45.0954C74.1409 43.6259 71.1982 43.1926 67.0874 43.7554C63.1049 44.2825 59.8569 45.3143 57.1356 46.9134C55.1918 48.0284 53.5141 49.5603 52.2204 51.4009C50.9268 53.2415 50.0489 55.3461 49.6485 57.5664C49.0378 60.8717 48.144 67.2858 49.0113 73.0791C49.3786 75.5447 50.3388 79.0198 52.892 81.5658C54.5646 83.2586 56.8081 84.5004 60.1667 85.5858C62.6477 86.3994 65.2035 86.959 67.7954 87.2563L67.822 87.2652Z" fill="#D1D3D4"/>
<path d="M52.861 79.7925C52.8172 79.7929 52.7743 79.7799 52.738 79.7552C52.7016 79.7305 52.6736 79.6952 52.6575 79.6541C52.6355 79.5996 52.6357 79.5385 52.658 79.4841C52.6804 79.4297 52.7232 79.3865 52.777 79.3637C56.0869 77.9835 58.2861 78.3096 58.379 78.323C58.4366 78.3329 58.4882 78.365 58.5228 78.4125C58.5575 78.4599 58.5726 78.5191 58.5649 78.5776C58.5551 78.6358 58.5233 78.6878 58.4763 78.7228C58.4292 78.7578 58.3706 78.773 58.3126 78.7652C58.2905 78.7652 56.1311 78.4481 52.9451 79.7747C52.9189 79.7873 52.8901 79.7935 52.861 79.7925Z" fill="#D1D3D4"/>
<path d="M96.8676 47.6504L97.1597 62.8951L91.5399 66.1067L92.9648 48.2311L96.8676 47.6504Z" fill="white"/>
<path d="M91.54 66.33C91.5093 66.3301 91.4791 66.3238 91.451 66.3114C91.4229 66.2991 91.3977 66.2811 91.3769 66.2584C91.3561 66.2357 91.3402 66.2089 91.3302 66.1797C91.3202 66.1506 91.3163 66.1196 91.3187 66.0888L92.7436 48.2221C92.7471 48.1722 92.7675 48.1251 92.8013 48.0885C92.8351 48.0519 92.8803 48.0281 92.9294 48.0211L96.8367 47.4404C96.8679 47.4359 96.8998 47.438 96.9302 47.4464C96.9607 47.4549 96.9891 47.4696 97.0137 47.4896C97.0375 47.5099 97.0565 47.5352 97.0695 47.5638C97.0825 47.5923 97.0891 47.6234 97.0889 47.6548L97.381 62.8996C97.3825 62.9395 97.3729 62.979 97.3534 63.0138C97.3338 63.0485 97.3051 63.077 97.2703 63.0961L91.6506 66.3076C91.6166 66.3257 91.5782 66.3335 91.54 66.33ZM93.1684 48.4276L91.7922 65.7047L96.9385 62.7656L96.6508 47.9094L93.1684 48.4276Z" fill="#231F20"/>
<path d="M94.4871 99.629C94.4871 99.629 93.3233 113.007 93.81 113.9C94.2968 114.793 105.669 116.509 105.877 115.285C106.085 114.061 100.302 111.658 100.302 111.658L101.576 100.71" fill="white"/>
<path d="M104.138 115.901C100.952 115.901 94.0844 114.847 93.6109 113.989C93.1374 113.132 94.0711 101.84 94.2525 99.6067C94.2572 99.5475 94.285 99.4925 94.3298 99.454C94.3747 99.4155 94.4328 99.3965 94.4915 99.4012C94.5502 99.406 94.6046 99.434 94.6427 99.4793C94.6809 99.5245 94.6997 99.5832 94.695 99.6424C94.2525 104.77 93.664 113.141 93.9826 113.766C94.3941 114.315 101.673 115.66 104.727 115.437C105.541 115.378 105.634 115.218 105.638 115.218C105.744 114.575 102.895 112.984 100.195 111.841C100.151 111.823 100.114 111.79 100.09 111.748C100.066 111.706 100.056 111.657 100.063 111.609L101.333 100.665C101.34 100.606 101.371 100.553 101.417 100.516C101.463 100.479 101.522 100.462 101.58 100.469C101.609 100.472 101.637 100.481 101.663 100.496C101.688 100.51 101.71 100.53 101.728 100.553C101.746 100.576 101.759 100.603 101.766 100.632C101.773 100.66 101.775 100.69 101.771 100.719L100.518 111.497C102.067 112.149 106.271 114.043 106.072 115.303C106.01 115.655 105.572 115.772 105.244 115.83C104.878 115.884 104.508 115.907 104.138 115.901Z" fill="#231F20"/>
<path d="M77.6588 103.14C77.6588 103.14 76.0614 114.972 76.8888 115.311C77.7163 115.651 88.9514 116.205 88.7788 115.195C88.6062 114.186 83.0529 112.296 83.0529 112.296L85.0574 100.764" fill="white"/>
<path d="M84.3494 115.977C81.1191 115.977 77.2694 115.714 76.8048 115.53C75.9463 115.178 76.8357 107.607 77.442 103.122C77.4497 103.063 77.4801 103.01 77.5265 102.974C77.573 102.938 77.6317 102.922 77.6898 102.93C77.7482 102.939 77.8008 102.97 77.8364 103.018C77.872 103.066 77.8877 103.125 77.88 103.185C77.1366 108.674 76.6101 114.646 76.995 115.137C77.9376 115.517 87.7522 115.798 88.5354 115.204C88.3053 114.646 85.5132 113.391 82.9688 112.524C82.9194 112.506 82.8778 112.471 82.8512 112.426C82.8245 112.38 82.8145 112.326 82.8228 112.274L84.8317 100.737C84.8425 100.679 84.8754 100.627 84.9233 100.593C84.9712 100.559 85.0304 100.544 85.0884 100.554C85.1458 100.564 85.1966 100.598 85.2298 100.646C85.2629 100.695 85.2757 100.755 85.2654 100.813L83.2918 112.163C84.7963 112.685 88.8098 114.168 88.9868 115.169C88.9978 115.237 88.9895 115.307 88.9629 115.371C88.9363 115.435 88.8924 115.49 88.8363 115.53C88.4248 115.861 86.5265 115.977 84.3494 115.977Z" fill="#231F20"/>
<path d="M90.0354 79.4173C90.3098 80.3687 92.6904 105.235 92.6904 105.235H102.355C102.355 105.235 106.802 80.2615 105.341 74.0975C104.337 69.8542 99.7704 67.7816 95.1242 69.1574C88.2079 68.8849 81.0969 67.9916 81.0969 67.9916L90.0354 79.4173Z" fill="#231F20"/>
<path d="M102.372 105.458H92.7082C92.6525 105.458 92.5987 105.437 92.5577 105.399C92.5167 105.361 92.4914 105.309 92.487 105.253C91.6683 96.7659 90.0798 80.6859 89.832 79.5201L80.9422 68.1301C80.9178 68.0938 80.9048 68.0511 80.9048 68.0073C80.9048 67.9635 80.9178 67.9207 80.9422 67.8844C80.9634 67.8453 80.9959 67.8136 81.0355 67.7936C81.075 67.7737 81.1196 67.7664 81.1634 67.7728C81.2342 67.7728 88.3186 68.6661 95.1376 68.9341C96.3188 68.5577 97.5629 68.4251 98.7959 68.544C100.029 68.6629 101.226 69.0311 102.315 69.6264C103.132 70.0975 103.845 70.7331 104.409 71.4938C104.973 72.2544 105.376 73.124 105.594 74.0484C107.05 80.1856 102.793 104.252 102.611 105.27C102.602 105.326 102.572 105.376 102.528 105.411C102.484 105.445 102.428 105.462 102.372 105.458ZM92.9074 105.011H102.2C102.598 102.72 106.523 79.9221 105.156 74.1512C104.956 73.2838 104.58 72.4678 104.051 71.755C103.523 71.0422 102.853 70.4482 102.085 70.0106C101.041 69.4436 99.8954 69.0948 98.7155 68.9851C97.5355 68.8753 96.3457 69.0069 95.2172 69.3718H95.1464C89.3939 69.144 83.4157 68.4785 81.6324 68.2686L90.2258 79.27C90.2437 79.2935 90.2559 79.3211 90.2612 79.3504C90.5134 80.2794 92.664 102.474 92.9251 105.011H92.9074Z" fill="#231F20"/>
<path d="M63.9412 69.3272C63.9412 69.3272 57.1577 76.5632 61.8571 82.2805C66.5564 87.9978 79.9553 81.9857 79.9553 81.9857L76.61 104.449L86.4247 104.346C86.4247 104.346 96.6553 73.7626 95.4782 70.6002C94.3012 67.4378 85.9158 65.9772 85.9158 65.9772L63.9412 69.3272Z" fill="#231F20"/>
<path d="M76.6101 104.694C76.5784 104.694 76.5471 104.687 76.5181 104.674C76.4892 104.661 76.4633 104.642 76.4419 104.618C76.4221 104.593 76.4075 104.565 76.3992 104.534C76.3908 104.503 76.3888 104.471 76.3933 104.44L79.6766 82.3698C77.4255 83.3033 75.094 84.0255 72.7117 84.5272C67.4769 85.5813 63.667 84.8622 61.689 82.4457C56.9188 76.639 63.7112 69.2467 63.7776 69.1752C63.8113 69.1385 63.8567 69.1148 63.9059 69.1082L85.8849 65.7806C85.9083 65.7761 85.9323 65.7761 85.9557 65.7806C86.3008 65.8386 94.4738 67.2992 95.6907 70.5465C96.9076 73.7938 87.0619 103.189 86.6416 104.44C86.6289 104.484 86.6021 104.523 86.5653 104.55C86.5285 104.578 86.4838 104.592 86.438 104.591L76.6234 104.694H76.6101ZM79.9554 81.7846C80.0033 81.7843 80.05 81.8 80.0881 81.8293C80.1202 81.8529 80.145 81.8851 80.1599 81.9222C80.1747 81.9593 80.179 81.9998 80.1722 82.0392L76.8667 104.248L86.2654 104.149C89.8054 93.5543 96.1774 73.1327 95.2703 70.7028C94.1862 67.795 86.5 66.3344 85.9159 66.2362L64.0475 69.546C63.4457 70.2249 57.7197 76.907 62.0297 82.1688C66.5697 87.7164 79.7297 81.874 79.8625 81.8114C79.8912 81.796 79.9229 81.7868 79.9554 81.7846Z" fill="#231F20"/>
<path d="M97.5137 48.3115C96.9738 42.4065 94.9516 41.1916 94.9516 41.1916C93.3143 35.0767 85.3316 36.4123 85.3316 36.4123C85.3316 36.4123 74.5656 37.8148 70.6583 44.488C68.0697 48.9055 70.2822 54.8953 69.1538 60.7824C68.5786 63.7795 63.0341 69.4031 63.0341 69.4031L90.6284 67.1697C90.6284 67.1697 93.2303 56.5793 94.3719 48.5661L97.5137 48.3115Z" fill="#388CE0"/>
<path d="M91.8365 43.4294C90.9072 42.7906 90.0267 42.1563 88.854 41.9375C87.1194 41.6159 85.314 41.866 83.5795 41.4908C81.6988 41.0754 79.8492 40.1999 78.0792 39.4451C77.5614 39.2262 77.8048 40.1374 77.4906 39.664C76.3932 38.0024 77.265 35.8405 77.8712 34.1967C79.2192 30.3706 81.077 26.7476 83.3936 23.4276C84.6282 21.7169 89.2789 15.4993 91.248 19.6667C90.8055 18.7287 94.7481 18.3848 95.2614 18.4294C100.054 18.827 102.594 24.1557 102.103 28.533C101.744 31.7088 100.74 34.6256 101.125 37.8773C101.293 39.3111 101.642 40.7985 101.2 42.1698C100.664 43.8224 99.0094 44.948 97.3014 45.1579C95.5662 45.2891 93.839 44.8162 92.4073 43.8179C92.2126 43.6884 92.04 43.5589 91.8365 43.4294Z" fill="white"/>
<path d="M96.6022 45.4037C95.0622 45.3544 93.567 44.8683 92.2879 44.0011L91.7126 43.6125L91.571 43.5187C90.759 42.8759 89.8184 42.4187 88.8142 42.1787C88.0048 42.0493 87.1867 41.9822 86.3672 41.9777C85.4155 41.9785 84.4658 41.8888 83.5308 41.7097C81.9172 41.2935 80.3455 40.7268 78.8359 40.0169L77.9951 39.6551C77.9508 39.6551 77.9332 39.6551 77.9332 39.6551C77.9332 39.6551 77.9332 39.7221 77.911 39.7578C77.8889 39.7935 77.8358 40.0169 77.6632 40.0392C77.4906 40.0615 77.3668 39.8963 77.3092 39.8069C76.1897 38.1185 76.9685 36.0192 77.5924 34.3353L77.6632 34.1343C79.014 30.2867 80.8826 26.645 83.2166 23.3115C85.022 20.8102 87.5974 17.8667 89.6152 18.0587C89.9412 18.0975 90.2535 18.2137 90.5265 18.3976C90.7995 18.5816 91.0255 18.8283 91.186 19.1173C91.9604 18.3759 94.9473 18.1972 95.2792 18.224C96.2296 18.3084 97.1524 18.59 97.99 19.0512C98.8276 19.5123 99.5618 20.1431 100.147 20.904C101.841 23.0838 102.624 25.8457 102.328 28.6001C102.209 29.6363 102.023 30.6547 101.841 31.6419C101.456 33.7412 101.094 35.7244 101.346 37.8952C101.377 38.1543 101.417 38.4178 101.452 38.6813C101.62 39.8784 101.793 41.1157 101.412 42.2859C100.881 43.9297 99.2395 45.1937 97.3324 45.4126C97.089 45.4251 96.8452 45.4221 96.6022 45.4037ZM77.9332 39.1503C78.0138 39.1503 78.0937 39.167 78.1677 39.1995L79.0084 39.5657C80.4951 40.2721 82.043 40.8388 83.6326 41.2586C84.5417 41.4295 85.4646 41.5147 86.3893 41.5132C87.2324 41.5198 88.0739 41.5885 88.9072 41.7187C89.9717 41.9798 90.9689 42.467 91.8321 43.148L91.9693 43.2418C92.1551 43.3713 92.341 43.5009 92.5357 43.6259C93.6463 44.3406 95.3765 45.1491 97.2837 44.9168C99.0227 44.7069 100.518 43.5768 100.996 42.0849C101.346 41.0129 101.178 39.8516 101.018 38.6813C100.983 38.4178 100.943 38.1498 100.912 37.8863C100.651 35.6529 101.036 33.5447 101.412 31.4989C101.589 30.5252 101.775 29.5113 101.89 28.4884C102.175 25.8547 101.429 23.2129 99.8104 21.1273C99.2599 20.4193 98.5714 19.8328 97.7875 19.4041C97.0035 18.9754 96.1408 18.7136 95.2526 18.6349C94.7083 18.5858 91.8409 18.8985 91.4648 19.4479C91.4529 19.4623 91.4464 19.4805 91.4464 19.4992C91.4464 19.518 91.4529 19.5362 91.4648 19.5506C91.4775 19.5773 91.4848 19.6062 91.4863 19.6357C91.4879 19.6653 91.4835 19.6948 91.4737 19.7226C91.4638 19.7505 91.4485 19.7761 91.4288 19.7979C91.409 19.8197 91.3852 19.8374 91.3586 19.8499C91.3325 19.8626 91.3042 19.8699 91.2752 19.8714C91.2463 19.8729 91.2174 19.8685 91.1902 19.8585C91.1629 19.8485 91.138 19.8331 91.1167 19.8132C91.0955 19.7933 91.0784 19.7693 91.0666 19.7427C90.6904 18.9431 90.2081 18.5233 89.5975 18.4652C88.1859 18.3357 86.0575 20.1357 83.5972 23.5393C81.288 26.842 79.4388 30.449 78.1013 34.2593L78.0261 34.4603C77.4597 35.9969 76.7561 37.8952 77.6057 39.3737C77.6479 39.3038 77.7094 39.2479 77.7827 39.2129C77.8295 39.189 77.8808 39.1753 77.9332 39.1727V39.1503Z" fill="#231F20"/>
<path d="M99.8767 29.4799C99.8767 29.4799 99.6864 34.5273 97.5934 37.5691C97.0322 38.4295 96.2351 39.1064 95.2993 39.5173C94.3634 39.9281 93.3294 40.0551 92.3232 39.8828L89.9603 45.8145C89.9603 45.8145 88.7788 48.8608 85.283 46.8999C84.2707 46.3298 83.4191 45.5084 82.809 44.5134C82.1988 43.5184 81.8502 42.3828 81.7961 41.2139L85.7255 30.1276C85.7255 30.1276 90.8674 29.3995 92.0621 25.3304C92.0621 25.3081 96.0623 29.7479 99.8767 29.4799Z" fill="white"/>
<path d="M87.4424 47.7621C86.6411 47.7296 85.8613 47.4913 85.1768 47.0697C84.1343 46.4758 83.2574 45.6255 82.6277 44.5978C81.998 43.5701 81.6358 42.3984 81.5748 41.1916C81.5703 41.1665 81.5703 41.1408 81.5748 41.1157L85.5042 30.0294C85.5178 29.9914 85.5415 29.958 85.5728 29.9327C85.604 29.9075 85.6415 29.8915 85.6812 29.8865C85.7299 29.8865 90.6948 29.1227 91.8408 25.2456C91.852 25.2085 91.8726 25.175 91.9006 25.1484C91.9285 25.1217 91.9628 25.1029 92.0001 25.0937C92.0382 25.084 92.0782 25.0851 92.1157 25.0969C92.1532 25.1087 92.1867 25.1308 92.2125 25.1607C92.2524 25.2054 96.195 29.5113 99.8457 29.2343C99.8772 29.232 99.9088 29.2363 99.9385 29.2471C99.9683 29.2579 99.9954 29.2748 100.018 29.2969C100.041 29.3185 100.059 29.3449 100.07 29.3743C100.082 29.4036 100.087 29.4351 100.085 29.4666C100.085 29.6721 99.8678 34.6122 97.7615 37.6763C97.1889 38.5411 96.3884 39.2272 95.4501 39.6573C94.5119 40.0874 93.4734 40.2445 92.4515 40.1107L90.1549 45.8771C89.9864 46.2667 89.7433 46.6187 89.4395 46.9131C89.1358 47.2075 88.7774 47.4383 88.3849 47.5923C88.0824 47.7018 87.7638 47.7592 87.4424 47.7621ZM82.0173 41.2273C82.0827 42.3501 82.4271 43.4383 83.0187 44.3914C83.6103 45.3445 84.4301 46.132 85.4025 46.6811C86.5043 47.302 87.4734 47.4673 88.2787 47.1725C88.945 46.8998 89.4798 46.3759 89.7699 45.7119L92.1329 39.7757C92.151 39.7257 92.1868 39.6844 92.2334 39.6596C92.28 39.6349 92.3341 39.6285 92.3851 39.6417C93.3496 39.8098 94.3418 39.6876 95.238 39.2905C96.1343 38.8933 96.8949 38.2388 97.4252 37.4083C99.1952 34.8355 99.5846 30.7083 99.6377 29.6855C96.3632 29.7748 93.0887 26.6794 92.155 25.7235C90.8629 29.2567 86.7034 30.1545 85.8848 30.2974L82.0173 41.2273Z" fill="#231F20"/>
<path d="M88.0575 30.1634C88.0575 30.1634 87.8805 25.3081 84.8007 27.0769C81.7209 28.8457 83.5705 32.8836 85.4821 33.3928" fill="white"/>
<path d="M85.4909 33.6162H85.4378C84.2652 33.3124 83.1855 31.8697 82.982 30.3287C82.8697 29.6451 82.9755 28.9432 83.2841 28.3242C83.5927 27.7052 84.0881 27.2012 84.6989 26.8849C85.5219 26.4382 86.2388 26.3444 86.8273 26.675C88.1548 27.4298 88.2831 30.0518 88.2875 30.159C88.2864 30.1883 88.2795 30.2171 88.2674 30.2438C88.2552 30.2704 88.2379 30.2944 88.2165 30.3143C88.1952 30.3342 88.1701 30.3497 88.1428 30.3598C88.1155 30.37 88.0865 30.3746 88.0574 30.3734C88.0282 30.3752 87.999 30.371 87.9714 30.3611C87.9439 30.3512 87.9186 30.3358 87.8971 30.3157C87.8756 30.2957 87.8583 30.2715 87.8463 30.2445C87.8343 30.2176 87.8279 30.1885 87.8273 30.159C87.8273 30.159 87.7211 27.68 86.5928 27.0323C86.1503 26.7822 85.5794 26.8536 84.9024 27.2422C84.3698 27.5166 83.9373 27.9548 83.6677 28.4936C83.398 29.0324 83.3051 29.6438 83.4023 30.2394C83.5838 31.5794 84.5351 32.8926 85.5308 33.1516C85.5894 33.1593 85.6427 33.1902 85.6788 33.2376C85.7149 33.2849 85.7309 33.3448 85.7233 33.404C85.7156 33.4632 85.685 33.517 85.6381 33.5534C85.5912 33.5899 85.5319 33.606 85.4732 33.5983L85.4909 33.6162Z" fill="#231F20"/>
<path d="M95.319 36.6579C94.4782 36.6579 93.4516 35.8897 93.4073 35.8539C93.3604 35.8184 93.3294 35.7655 93.3211 35.7068C93.3128 35.6482 93.3279 35.5886 93.3631 35.5413C93.399 35.4948 93.4513 35.4643 93.5091 35.4559C93.5668 35.4476 93.6255 35.4622 93.6729 35.4966C93.9605 35.7155 94.8278 36.2604 95.403 36.2068C95.642 36.0371 95.4296 34.2906 94.9605 32.4727C94.953 32.4433 94.9512 32.4128 94.9554 32.3828C94.9595 32.3528 94.9694 32.3239 94.9847 32.2977C94.9999 32.2716 95.02 32.2488 95.044 32.2305C95.0679 32.2122 95.0952 32.1989 95.1243 32.1913C95.1533 32.1836 95.1836 32.1819 95.2133 32.186C95.243 32.1902 95.2717 32.2003 95.2975 32.2156C95.3234 32.231 95.3461 32.2513 95.3642 32.2755C95.3823 32.2997 95.3955 32.3272 95.403 32.3565C95.5535 32.9193 96.288 35.7557 95.8101 36.448C95.7735 36.5047 95.7246 36.5522 95.6671 36.5871C95.6096 36.6219 95.545 36.6431 95.4783 36.649L95.319 36.6579Z" fill="#231F20"/>
<path d="M93.9826 38.047C93.0888 38.0614 92.2134 37.7893 91.4825 37.2698C90.5753 36.6165 89.9338 35.6532 89.6771 34.5586C89.6759 34.5292 89.6804 34.4999 89.6905 34.4724C89.7005 34.4448 89.7158 34.4195 89.7355 34.398C89.7553 34.3764 89.779 34.359 89.8054 34.3467C89.8318 34.3344 89.8604 34.3274 89.8895 34.3263C89.9471 34.3262 90.0026 34.3483 90.0445 34.3882C90.0865 34.4281 90.1117 34.4826 90.1151 34.5407C90.3748 35.512 90.9655 36.3598 91.7834 36.9348C92.8498 37.6763 94.2038 37.7969 95.8013 37.2922C95.8303 37.2834 95.8608 37.2804 95.891 37.2835C95.9212 37.2866 95.9504 37.2957 95.9772 37.3102C96.0039 37.3247 96.0275 37.3444 96.0466 37.3681C96.0658 37.3919 96.0802 37.4192 96.0889 37.4485C96.0976 37.4778 96.1005 37.5086 96.0974 37.5391C96.0944 37.5695 96.0854 37.5991 96.071 37.626C96.0566 37.653 96.0371 37.6768 96.0136 37.6962C95.9901 37.7155 95.9631 37.73 95.934 37.7388C95.3027 37.9405 94.6448 38.0444 93.9826 38.047Z" fill="#231F20"/>
<path d="M92.3232 39.8605C92.3232 39.8605 89.0265 38.9672 87.407 37.788C87.407 37.788 87.5132 43.2641 90.5045 44.4478L92.3232 39.8605Z" fill="#231F20"/>
<path d="M90.509 44.6666C90.4826 44.6709 90.4557 44.6709 90.4294 44.6666C87.3319 43.4383 87.1903 38.0292 87.1858 37.8014C87.1837 37.7597 87.1939 37.7183 87.2152 37.6825C87.2365 37.6467 87.2678 37.6181 87.3053 37.6004C87.3394 37.5775 87.3794 37.5653 87.4204 37.5653C87.4613 37.5653 87.5013 37.5775 87.5354 37.6004C89.1019 38.7572 92.3498 39.6238 92.4029 39.6327C92.4331 39.6413 92.4612 39.656 92.4856 39.676C92.5099 39.696 92.53 39.7207 92.5445 39.7488C92.5566 39.7778 92.5628 39.8089 92.5628 39.8404C92.5628 39.8718 92.5566 39.903 92.5445 39.932L90.7126 44.5282C90.6955 44.5686 90.6672 44.6032 90.6311 44.6278C90.5949 44.6523 90.5525 44.6658 90.509 44.6666ZM87.6549 38.2212C87.7522 39.4853 88.2257 43.0899 90.3895 44.1485L92.0268 40.0034C90.5034 39.5922 89.0353 38.9953 87.6549 38.2257V38.2212Z" fill="#231F20"/>
<path d="M93.8169 31.114C93.9718 30.6539 93.8873 30.2088 93.6281 30.1199C93.369 30.031 93.0333 30.332 92.8784 30.7921C92.7235 31.2522 92.808 31.6973 93.0671 31.7862C93.3263 31.8751 93.662 31.5742 93.8169 31.114Z" fill="#231F20"/>
<path d="M98.1573 32.6043C98.3123 32.1442 98.2277 31.6991 97.9686 31.6102C97.7094 31.5213 97.3738 31.8222 97.2188 32.2823C97.0639 32.7425 97.1484 33.1875 97.4076 33.2764C97.6668 33.3654 98.0024 33.0644 98.1573 32.6043Z" fill="#231F20"/>
<path d="M89.8718 64.0296C89.7656 64.2128 86.9911 68.4159 92.2568 68.0764C97.5226 67.737 102.461 55.5698 103.868 54.337C105.275 53.1042 108.32 48.4722 108.439 47.3511C108.559 46.23 104.988 48.4186 104.988 48.4186C104.988 48.4186 91.9781 60.3268 89.8718 64.0296Z" fill="white"/>
<path d="M91.686 68.34C90.3585 68.34 89.4735 68.0005 89.0664 67.3261C88.4381 66.2719 89.1682 64.7711 89.6594 63.9716L89.8718 64.052L89.6771 63.9403C91.7789 60.2464 104.306 48.7537 104.837 48.2757C105.744 47.7174 107.842 46.5203 108.461 46.9357C108.538 46.9875 108.597 47.0609 108.633 47.1467C108.668 47.2325 108.678 47.3269 108.66 47.4181C108.532 48.6018 105.492 53.265 104.014 54.5648C103.656 54.8775 102.97 56.0969 102.178 57.5083C99.9652 61.4703 96.2172 68.1077 92.2701 68.3623C92.0666 68.3087 91.8719 68.34 91.686 68.34ZM108.107 47.2663C107.687 47.2663 106.386 47.8469 105.103 48.6331C105.005 48.7269 92.1285 60.5323 90.0576 64.1592L90.0311 64.2039C89.6771 64.7801 88.916 66.2139 89.4425 67.0938C89.8054 67.7102 90.77 67.9871 92.2391 67.8755C95.9429 67.6343 99.6023 61.1308 101.788 57.2493C102.673 55.6815 103.306 54.5469 103.722 54.1896C105.076 53.0149 108.103 48.4142 108.218 47.3511C108.218 47.3154 108.218 47.2931 108.218 47.2931C108.187 47.2647 108.148 47.2474 108.107 47.2439V47.2663Z" fill="#231F20"/>
<path d="M103.673 38.9404L110.094 38.4803L107.169 52.3091L100.271 53.1444L103.673 38.9404Z" fill="#231F20"/>
<path d="M100.271 53.3677C100.239 53.3674 100.208 53.3606 100.179 53.3475C100.15 53.3344 100.124 53.3155 100.102 53.2918C100.079 53.2649 100.062 53.2325 100.053 53.1975C100.045 53.1624 100.045 53.1258 100.054 53.0908L103.461 38.8868C103.471 38.8405 103.497 38.799 103.532 38.7684C103.568 38.7377 103.613 38.7197 103.66 38.7171L110.081 38.2704C110.115 38.2681 110.149 38.2738 110.18 38.2869C110.212 38.3001 110.24 38.3204 110.262 38.3463C110.285 38.3722 110.301 38.4031 110.309 38.4365C110.318 38.4699 110.318 38.5048 110.311 38.5384L107.386 52.3851C107.376 52.4305 107.353 52.4717 107.318 52.5029C107.284 52.5341 107.241 52.5538 107.196 52.5593L100.297 53.399L100.271 53.3677ZM103.85 39.1503L100.558 52.8853L106.988 52.1037L109.82 38.726L103.85 39.1503Z" fill="#231F20"/>
<path d="M105.921 47.4896C105.646 48.2908 105.462 49.121 105.372 49.9642C105.338 50.1653 105.357 50.3721 105.43 50.5627C105.517 50.7111 105.643 50.833 105.793 50.9156C106.472 51.2806 107.238 51.4462 108.005 51.3935C108.406 51.4163 108.803 51.3133 109.143 51.0987C109.412 50.8728 109.609 50.5712 109.709 50.2322C110.002 49.339 110.08 48.3879 109.935 47.4584C109.871 46.9973 109.748 46.5468 109.567 46.1184C109.317 45.7546 109.09 45.374 108.89 44.9794L108.523 46.3194C107.527 46.1496 106.297 46.3953 105.921 47.4896Z" fill="white"/>
<path d="M107.851 51.6168C107.093 51.6532 106.341 51.4753 105.678 51.1031C105.492 50.9987 105.339 50.844 105.235 50.6564C105.138 50.4286 105.11 50.1767 105.156 49.9328C105.243 49.0725 105.43 48.2255 105.713 47.4092C106.112 46.2434 107.355 45.9486 108.368 46.0692L108.682 44.9168C108.685 44.8875 108.693 44.8589 108.707 44.8328C108.72 44.8068 108.739 44.7836 108.761 44.7647C108.784 44.7459 108.81 44.7316 108.837 44.7229C108.865 44.7141 108.895 44.7109 108.924 44.7135C108.953 44.7162 108.981 44.7246 109.007 44.7382C109.033 44.7519 109.056 44.7706 109.074 44.7932C109.093 44.8158 109.107 44.8419 109.116 44.87C109.124 44.8981 109.128 44.9277 109.125 44.957C109.238 45.1661 109.362 45.3689 109.497 45.5644C109.602 45.7068 109.698 45.856 109.784 46.0111C109.974 46.4622 110.104 46.9369 110.169 47.4226C110.319 48.3869 110.237 49.3734 109.93 50.2991C109.814 50.6794 109.591 51.0175 109.289 51.2728C108.911 51.5123 108.469 51.6292 108.023 51.6078L107.851 51.6168ZM107.983 46.4846C107.196 46.4846 106.404 46.766 106.129 47.5655C105.86 48.3493 105.681 49.1616 105.594 49.9864C105.562 50.146 105.575 50.3113 105.629 50.4644C105.696 50.5753 105.793 50.665 105.908 50.7234C106.555 51.0737 107.287 51.2288 108.019 51.1701C108.374 51.1889 108.726 51.1019 109.032 50.92C109.264 50.718 109.433 50.4528 109.519 50.1562C109.803 49.2933 109.876 48.3737 109.731 47.4762C109.675 47.0301 109.557 46.5942 109.382 46.1808C109.36 46.1317 109.227 45.9352 109.134 45.7878L108.975 45.5466L108.753 46.3506C108.739 46.4025 108.706 46.4475 108.661 46.477C108.617 46.5066 108.563 46.5188 108.51 46.5114C108.331 46.4883 108.15 46.4793 107.97 46.4846H107.983Z" fill="#231F20"/>
<path d="M71.6364 54.2298C71.6364 54.2298 78.2739 71.0691 81.4776 70.7118C84.6813 70.3544 96.0491 59.362 98.8634 56.6641C101.678 53.9662 106.324 50.1204 107.196 48.2444C108.067 46.3684 106.899 44.814 106.081 44.9972C105.262 45.1803 101.903 46.422 101.903 46.422C101.903 46.422 102.926 43.7733 102.501 43.6527C102.076 43.5321 100.138 44.9927 99.651 49.0663L84.1635 59.898L80.3802 49.58" fill="white"/>
<path d="M81.3846 70.9396C78.0614 70.9396 72.0921 56.0298 71.4283 54.3102C71.408 54.2544 71.41 54.1929 71.434 54.1387C71.458 54.0844 71.502 54.0418 71.5566 54.0198C71.6112 53.9995 71.6716 54.0017 71.7246 54.0259C71.7776 54.0502 71.819 54.0945 71.8398 54.1494C73.6452 58.7322 78.8225 70.4929 81.3669 70.4929H81.4509C83.4732 70.2696 89.1726 65.6644 98.3987 56.807L98.7129 56.5033C99.4518 55.7931 100.306 55.0204 101.209 54.1985C103.629 51.9964 106.373 49.4996 106.996 48.1551C107.209 47.7597 107.309 47.3125 107.286 46.8632C107.263 46.4139 107.116 45.9798 106.864 45.6091C106.787 45.4831 106.677 45.3805 106.547 45.3121C106.417 45.2437 106.271 45.2121 106.125 45.2205C105.328 45.3992 102.014 46.623 101.983 46.6364C101.943 46.6514 101.9 46.6544 101.858 46.6451C101.816 46.6357 101.778 46.6144 101.748 46.5838C101.718 46.5531 101.698 46.5143 101.689 46.4722C101.681 46.43 101.684 46.3862 101.7 46.3461C102.037 45.5576 102.268 44.7267 102.386 43.876C101.979 43.9922 100.315 45.3947 99.8722 49.0976C99.8677 49.1285 99.8572 49.1583 99.8413 49.1851C99.8253 49.212 99.8043 49.2353 99.7793 49.2539L84.2918 60.0856C84.2633 60.1043 84.2311 60.1164 84.1974 60.121C84.1638 60.1256 84.1295 60.1227 84.0971 60.1124C84.0656 60.1021 84.0369 60.0847 84.0131 60.0614C83.9893 60.0382 83.9711 60.0098 83.9599 59.9784L80.181 49.6738C80.1629 49.6186 80.1669 49.5584 80.1921 49.5061C80.2173 49.4538 80.2617 49.4135 80.3158 49.3938C80.37 49.374 80.4296 49.3763 80.4821 49.4002C80.5346 49.4242 80.5758 49.4678 80.5969 49.5219L84.2741 59.554L99.4518 48.9412C99.8235 46.0022 101.001 44.2512 101.903 43.6393C102.09 43.4867 102.328 43.4145 102.567 43.4383C102.613 43.4527 102.655 43.4763 102.692 43.5078C102.728 43.5393 102.758 43.578 102.779 43.6214C102.97 44.0056 102.585 45.2294 102.288 46.0513C103.24 45.7029 105.386 44.9302 106.041 44.7828C106.268 44.7536 106.498 44.7892 106.706 44.8855C106.914 44.9818 107.091 45.135 107.218 45.3277C107.526 45.7626 107.707 46.2762 107.741 46.8099C107.775 47.3437 107.659 47.8763 107.408 48.3472C106.744 49.7676 104.085 52.1885 101.514 54.529C100.629 55.3464 99.7439 56.1236 99.027 56.8294L98.7129 57.1331C95.2437 60.4563 84.6989 70.5822 81.5085 70.9351L81.3846 70.9396Z" fill="#231F20"/>
<path d="M92.04 87.167C92.0121 87.1717 91.9837 87.1717 91.9559 87.167C91.902 87.1442 91.859 87.1012 91.8359 87.0471C91.8128 86.9929 91.8114 86.9319 91.832 86.8767C91.8851 86.7382 97.1685 73.1015 95.6331 69.9034C95.582 69.7776 95.5046 69.6646 95.406 69.572C95.3075 69.4795 95.1902 69.4096 95.0622 69.3674C95.0332 69.3592 95.006 69.3452 94.9823 69.3264C94.9586 69.3076 94.9387 69.2843 94.9239 69.2577C94.9091 69.2312 94.8997 69.202 94.8961 69.1717C94.8925 69.1415 94.8948 69.1108 94.9029 69.0815C94.9111 69.0522 94.9248 69.0247 94.9435 69.0008C94.9621 68.9768 94.9852 68.9568 95.0115 68.9419C95.0378 68.927 95.0668 68.9174 95.0967 68.9138C95.1267 68.9101 95.1571 68.9125 95.1861 68.9207C95.3736 68.9795 95.5463 69.0786 95.6922 69.2112C95.8381 69.3439 95.9538 69.5069 96.0313 69.689C97.6509 73.039 92.4648 86.4345 92.2435 87.0018C92.2302 87.0469 92.2036 87.0869 92.1672 87.1164C92.1309 87.1459 92.0865 87.1636 92.04 87.167Z" fill="white"/>
<path d="M94.08 51.8849H94.0446C94.0155 51.8806 93.9875 51.8704 93.9625 51.8549C93.9374 51.8393 93.9158 51.8188 93.8988 51.7946C93.8818 51.7704 93.8699 51.7429 93.8638 51.7139C93.8576 51.6849 93.8574 51.6549 93.8631 51.6258C94.2092 49.6776 94.2525 47.6869 93.9915 45.7253C93.9815 45.6661 93.9952 45.6053 94.0297 45.5563C94.0641 45.5073 94.1164 45.4741 94.1751 45.464C94.2338 45.454 94.294 45.4678 94.3426 45.5026C94.3911 45.5373 94.424 45.5902 94.434 45.6494C94.7089 47.6611 94.6641 49.7042 94.3012 51.7017C94.2926 51.7542 94.2655 51.8017 94.2248 51.8354C94.184 51.8691 94.1326 51.8866 94.08 51.8849Z" fill="#231F20"/>
<path d="M78.7251 32.0305C77.2118 35.4699 74.5479 41.8572 80.6765 42.3039C81.9604 42.3951 83.2293 41.9804 84.2165 41.147C85.9865 39.6283 84.1325 35.787 83.2386 34.0227" fill="white"/>
<path d="M81.0395 42.545C80.9111 42.545 80.7872 42.545 80.6589 42.545C78.942 42.4155 77.7561 41.8125 77.1189 40.7583C75.6896 38.3463 77.526 34.1879 78.5128 31.9545C78.5221 31.9246 78.5376 31.897 78.5582 31.8735C78.5788 31.85 78.6041 31.8311 78.6324 31.8182C78.6607 31.8052 78.6914 31.7984 78.7225 31.7982C78.7536 31.798 78.7844 31.8045 78.8129 31.8171C78.8413 31.8297 78.8668 31.8483 78.8877 31.8715C78.9086 31.8948 78.9244 31.9222 78.9341 31.952C78.9438 31.9818 78.9471 32.0134 78.9439 32.0446C78.9407 32.0758 78.931 32.106 78.9155 32.1332C78.0305 34.1432 76.1897 38.3151 77.495 40.5261C78.0437 41.4507 79.1146 41.9822 80.681 42.0983C81.9133 42.1864 83.1309 41.7858 84.075 40.9817C85.7919 39.5211 83.721 35.4609 83.0396 34.1298C83.0133 34.077 83.0088 34.016 83.0271 33.9599C83.0453 33.9038 83.0848 33.8573 83.1369 33.8305C83.1624 33.8166 83.1904 33.808 83.2192 33.8052C83.248 33.8025 83.2771 33.8055 83.3048 33.8143C83.3324 33.823 83.358 33.8373 83.3801 33.8562C83.4022 33.8751 83.4203 33.8982 83.4334 33.9243C84.6857 36.3765 86.1415 39.8069 84.3582 41.3211C83.4284 42.1093 82.2537 42.5425 81.0395 42.545Z" fill="#231F20"/>
<path d="M79.9553 82.2313C79.9172 82.2311 79.8798 82.2211 79.8465 82.2024C79.8132 82.1837 79.7852 82.1567 79.765 82.1241C79.7498 82.0989 79.7396 82.0709 79.7352 82.0418C79.7307 82.0126 79.732 81.9828 79.739 81.9541C79.746 81.9255 79.7585 81.8985 79.7759 81.8748C79.7933 81.851 79.8152 81.831 79.8403 81.8159C79.8712 81.8159 82.9378 79.9175 83.7298 78.6892C83.7616 78.6395 83.8115 78.6046 83.8688 78.592C83.926 78.5795 83.9859 78.5903 84.0352 78.6222C84.084 78.6558 84.1178 78.7073 84.1294 78.7658C84.141 78.8242 84.1294 78.8849 84.0971 78.9349C83.2387 80.2749 80.1987 82.1286 80.0704 82.209C80.0342 82.2251 79.9948 82.2327 79.9553 82.2313Z" fill="white"/>
<path d="M114.422 35.4966C112.209 33.7591 110.846 31.5124 110.846 29.0557C110.846 23.5706 117.554 19.1218 125.834 19.1218C134.113 19.1218 140.821 23.5885 140.821 29.0557C140.821 34.5229 134.113 38.994 125.834 38.994C122.647 39.0323 119.496 38.3148 116.634 36.8992L111.899 38.123L114.422 35.4966Z" fill="#FF3967"/>
<path d="M125.834 39.2173C122.64 39.2575 119.481 38.5448 116.608 37.1358L111.952 38.3374C111.906 38.3486 111.857 38.3445 111.814 38.3255C111.77 38.3065 111.733 38.2737 111.709 38.232C111.685 38.1904 111.675 38.142 111.681 38.0942C111.687 38.0463 111.707 38.0016 111.74 37.9666L114.09 35.5189C111.877 33.701 110.625 31.4185 110.625 29.0556C110.625 23.4544 117.448 18.8984 125.834 18.8984C134.219 18.8984 141.042 23.4544 141.042 29.0556C141.042 34.6568 134.219 39.2173 125.834 39.2173ZM116.634 36.6758C116.666 36.6696 116.699 36.6696 116.731 36.6758C119.562 38.0804 122.68 38.7905 125.834 38.7483C133.976 38.7483 140.6 34.3933 140.6 29.0333C140.6 23.6733 133.962 19.3228 125.834 19.3228C117.705 19.3228 111.067 23.7001 111.067 29.0556C111.067 31.3426 112.307 33.567 114.554 35.309C114.58 35.3275 114.601 35.3513 114.616 35.3788C114.631 35.4063 114.64 35.4367 114.643 35.4681C114.645 35.4995 114.641 35.531 114.63 35.5606C114.62 35.5902 114.603 35.6171 114.581 35.6395L112.603 37.7031L116.585 36.6713L116.634 36.6758Z" fill="#231F20"/>
<path d="M131.396 30.016C132.173 30.016 132.803 29.38 132.803 28.5956C132.803 27.8111 132.173 27.1752 131.396 27.1752C130.619 27.1752 129.989 27.8111 129.989 28.5956C129.989 29.38 130.619 30.016 131.396 30.016Z" fill="#FF3967"/>
<path d="M131.396 30.2394C131.074 30.2394 130.76 30.1432 130.492 29.963C130.225 29.7827 130.016 29.5265 129.892 29.2267C129.769 28.9269 129.736 28.5968 129.798 28.2782C129.86 27.9596 130.015 27.6667 130.241 27.4365C130.468 27.2063 130.758 27.049 131.073 26.9846C131.388 26.9202 131.715 26.9514 132.013 27.0745C132.311 27.1975 132.566 27.4068 132.746 27.6759C132.926 27.9451 133.023 28.262 133.024 28.5867C133.026 28.8033 132.984 29.018 132.903 29.2185C132.822 29.4189 132.702 29.6012 132.551 29.7548C132.399 29.9084 132.219 30.0302 132.021 30.1134C131.823 30.1966 131.611 30.2394 131.396 30.2394ZM131.396 27.3986C131.161 27.3986 130.931 27.469 130.736 27.601C130.541 27.7329 130.389 27.9204 130.3 28.1396C130.21 28.3589 130.187 28.6 130.234 28.8325C130.28 29.0649 130.394 29.2782 130.561 29.4453C130.727 29.6123 130.939 29.7256 131.17 29.7708C131.401 29.816 131.639 29.791 131.856 29.699C132.072 29.607 132.257 29.4522 132.386 29.2542C132.516 29.0561 132.584 28.8238 132.582 28.5867C132.58 28.2708 132.454 27.9686 132.231 27.746C132.009 27.5235 131.709 27.3986 131.396 27.3986Z" fill="white"/>
<path d="M125.834 30.016C126.611 30.016 127.241 29.38 127.241 28.5956C127.241 27.8111 126.611 27.1752 125.834 27.1752C125.057 27.1752 124.427 27.8111 124.427 28.5956C124.427 29.38 125.057 30.016 125.834 30.016Z" fill="#FF3967"/>
<path d="M125.834 30.2394C125.512 30.2394 125.198 30.1432 124.93 29.963C124.662 29.7827 124.454 29.5265 124.33 29.2267C124.207 28.9269 124.174 28.5968 124.236 28.2782C124.298 27.9596 124.452 27.6667 124.679 27.4365C124.906 27.2063 125.195 27.049 125.511 26.9846C125.826 26.9202 126.153 26.9514 126.451 27.0745C126.748 27.1975 127.003 27.4068 127.183 27.6759C127.363 27.9451 127.46 28.262 127.462 28.5867C127.464 28.8035 127.423 29.0185 127.342 29.2192C127.261 29.4199 127.141 29.6024 126.99 29.7561C126.838 29.9098 126.658 30.0317 126.46 30.1146C126.261 30.1976 126.048 30.24 125.834 30.2394ZM125.834 27.3986C125.599 27.3986 125.369 27.469 125.174 27.601C124.979 27.7329 124.827 27.9204 124.737 28.1396C124.648 28.3589 124.625 28.6 124.671 28.8325C124.718 29.0649 124.832 29.2782 124.998 29.4453C125.165 29.6123 125.377 29.7256 125.608 29.7708C125.838 29.816 126.077 29.791 126.294 29.699C126.51 29.607 126.695 29.4522 126.824 29.2542C126.953 29.0561 127.021 28.8238 127.02 28.5867C127.017 28.2708 126.891 27.9686 126.669 27.746C126.447 27.5235 126.147 27.3986 125.834 27.3986Z" fill="white"/>
<path d="M120.271 30.016C121.049 30.016 121.679 29.38 121.679 28.5956C121.679 27.8111 121.049 27.1752 120.271 27.1752C119.494 27.1752 118.864 27.8111 118.864 28.5956C118.864 29.38 119.494 30.016 120.271 30.016Z" fill="#FF3967"/>
<path d="M120.271 30.2394C119.95 30.2402 119.635 30.1448 119.367 29.9651C119.098 29.7854 118.889 29.5296 118.765 29.2298C118.641 28.9301 118.607 28.5999 118.669 28.281C118.73 27.9621 118.884 27.6688 119.111 27.4381C119.338 27.2074 119.627 27.0497 119.942 26.9849C120.258 26.9201 120.585 26.9511 120.883 27.0741C121.181 27.197 121.436 27.4062 121.616 27.6755C121.797 27.9447 121.894 28.2618 121.895 28.5867C121.897 28.8029 121.856 29.0173 121.774 29.2174C121.693 29.4176 121.574 29.5997 121.423 29.7532C121.272 29.9067 121.093 30.0287 120.895 30.1121C120.698 30.1955 120.486 30.2388 120.271 30.2394ZM120.271 27.3986C120.036 27.3977 119.806 27.4674 119.611 27.5988C119.415 27.7302 119.262 27.9173 119.172 28.1365C119.082 28.3557 119.058 28.597 119.104 28.8297C119.15 29.0625 119.264 29.2762 119.43 29.4437C119.597 29.6112 119.809 29.7249 120.04 29.7704C120.27 29.816 120.509 29.7913 120.726 29.6994C120.943 29.6076 121.128 29.4528 121.257 29.2546C121.387 29.0565 121.455 28.824 121.453 28.5867C121.451 28.2715 121.325 27.97 121.104 27.7476C120.883 27.5251 120.584 27.3997 120.271 27.3986Z" fill="white"/>
<path d="M125.228 80.8914C125.173 80.0784 125.344 79.266 125.723 78.5464C126.096 78.0714 126.443 77.5763 126.763 77.0635C127.206 76.1076 126.896 74.9909 127.002 73.9368C127.09 73.0605 127.473 72.241 128.086 71.6141C128.626 71.0603 129.325 70.6806 129.856 70.1044C130.706 69.1575 130.949 67.8309 131.431 66.6472C132.119 64.9824 133.306 63.5767 134.825 62.6272C133.896 64.5077 136.007 66.8973 135.051 68.7599C134.75 69.3495 134.166 69.7828 133.949 70.4081C133.414 71.9179 135.197 73.5348 134.626 75.0535C134.343 75.8039 133.547 76.2371 133.179 76.9473C132.679 77.9032 133.069 79.0645 133.029 80.1455C132.976 81.6373 132.073 82.9729 131.007 84.0002C130.343 84.6479 129.604 85.2017 128.883 85.7869C128.024 86.4837 127.661 87.2117 126.905 86.0951C125.858 84.5614 125.275 82.7534 125.228 80.8914Z" fill="#FF3967"/>
<path d="M124.289 81.74C124.564 80.5876 124.763 79.3369 124.289 78.247C123.763 77.0142 122.453 76.1477 122.298 74.8122C122.196 73.9412 122.634 73.0568 122.462 72.1947C122.289 71.3326 121.577 70.7475 121.019 70.1132C119.704 68.6403 118.924 66.7596 118.807 64.78C117.92 65.843 117.203 67.0397 116.683 68.3266C116.24 69.6398 116.24 71.1808 116.993 72.3466C117.213 72.6169 117.393 72.9177 117.528 73.2399C117.789 74.0886 117.086 74.8836 116.696 75.6876C116.476 76.1481 116.385 76.6601 116.431 77.1691C116.477 77.678 116.659 78.1648 116.957 78.5776C117.714 79.529 119.17 79.9176 119.541 81.0566C119.633 81.488 119.676 81.9285 119.67 82.3698C119.748 83.1359 120.053 83.8606 120.543 84.4506C121.034 85.0405 121.688 85.4686 122.422 85.6796C123.307 85.8984 123.307 85.5411 123.458 84.7862C123.657 83.7455 124.046 82.7628 124.289 81.74Z" fill="#FF3967"/>
<path d="M127.13 73.4498C127.763 71.2165 128.015 68.9162 128.688 66.7141C129.257 64.9896 129.953 63.31 130.768 61.6891L128.042 62.846C127.157 63.2212 126.223 63.6589 125.829 64.521C125.113 66.0173 126.4 67.9424 125.648 69.4343C125.321 69.9168 124.96 70.3751 124.568 70.8056C123.767 71.9401 123.891 73.4856 124.329 74.8256C124.52 75.3928 125.347 78.3319 126.099 77.5056C126.396 77.175 126.422 75.9556 126.542 75.509C126.701 74.8166 126.936 74.1466 127.13 73.4498Z" fill="#FF3967"/>
<path d="M125.643 102.89C126.188 99.2671 127.887 86.5014 127.904 86.3629L127.435 86.3004C127.435 86.4299 125.719 99.1912 125.179 102.827L125.643 102.89Z" fill="#FF3967"/>
<path d="M125.002 106.307H125.475C125.444 102.005 123.665 85.568 122.643 84.42L122.294 84.7416C122.975 85.5099 124.962 100.42 125.002 106.307Z" fill="#FF3967"/>
<path d="M124.081 105.489H124.551C124.148 96.2165 126.095 76.7463 126.113 76.5497L125.644 76.5006C125.626 76.6748 123.674 96.1807 124.081 105.489Z" fill="#FF3967"/>
<path d="M130.307 94.1573H120.17L120.882 104.52C120.94 105.384 121.321 106.193 121.948 106.784C122.575 107.376 123.401 107.704 124.258 107.705H126.219C127.077 107.704 127.902 107.374 128.529 106.783C129.157 106.193 129.539 105.384 129.599 104.52L130.307 94.1573Z" fill="white"/>
<path d="M126.219 107.924H124.258C123.346 107.92 122.468 107.569 121.801 106.941C121.134 106.312 120.727 105.452 120.661 104.533L119.953 94.1752C119.95 94.1444 119.953 94.1132 119.963 94.0839C119.973 94.0546 119.989 94.0278 120.01 94.0054C120.031 93.9832 120.055 93.9655 120.083 93.9532C120.11 93.9409 120.14 93.9344 120.17 93.934H130.307C130.338 93.9339 130.368 93.9402 130.396 93.9525C130.424 93.9648 130.45 93.9829 130.47 94.0056C130.491 94.0282 130.507 94.055 130.517 94.0842C130.527 94.1134 130.531 94.1444 130.529 94.1752L129.821 104.52C129.757 105.442 129.35 106.305 128.682 106.936C128.014 107.567 127.134 107.92 126.219 107.924ZM120.409 94.3806L121.103 104.52C121.16 105.326 121.517 106.081 122.102 106.633C122.687 107.184 123.458 107.492 124.258 107.495H126.219C127.02 107.492 127.79 107.185 128.376 106.633C128.962 106.081 129.32 105.327 129.378 104.52L130.095 94.3806H120.409Z" fill="#D1D3D4"/>
</svg>
