<svg width="32" height="32" viewBox="0 0 32 32" fill="none" xmlns="http://www.w3.org/2000/svg">
<rect x="0.5" y="0.5" width="31" height="31" rx="15.5" stroke="#D1D3D4"/>
<path d="M10.6667 12H21.3334M18.6667 12L18.4863 11.4587C18.3114 10.9342 18.224 10.6719 18.0618 10.478C17.9186 10.3068 17.7347 10.1742 17.527 10.0925C17.2918 10 17.0153 10 16.4624 10H15.5376C14.9847 10 14.7083 10 14.473 10.0925C14.2653 10.1742 14.0814 10.3068 13.9382 10.478C13.7761 10.6719 13.6886 10.9342 13.5138 11.4587L13.3334 12M20 12V18.8C20 19.9201 20 20.4802 19.782 20.908C19.5903 21.2843 19.2843 21.5903 18.908 21.782C18.4802 22 17.9201 22 16.8 22H15.2C14.0799 22 13.5199 22 13.092 21.782C12.7157 21.5903 12.4098 21.2843 12.218 20.908C12 20.4802 12 19.9201 12 18.8V12M17.3334 14.6667V19.3333M14.6667 14.6667V19.3333" stroke="#394657" stroke-width="2" stroke-linecap="round" stroke-linejoin="round"/>
</svg>
