<svg width="444" height="444" viewBox="0 0 444 444" fill="none" xmlns="http://www.w3.org/2000/svg">
<path d="M153.85 326.91C129.625 315.01 107.525 304.47 81.09 296.055C94.775 286.96 95.54 263.67 97.835 247.435C105.23 195.16 157.08 161.84 197.37 134.3C200.77 131.92 204.255 129.71 207.91 127.67C212.16 125.375 224.06 118.235 227.205 124.865C230.18 131.155 222.785 142.715 219.045 147.305C221.51 143.65 224.23 140.165 227.205 136.935C228.225 135.83 229.33 134.64 230.86 134.3C233.58 133.705 236.13 136.255 236.555 138.975C236.98 141.695 235.79 144.415 234.6 146.88C231.625 152.83 227.8 158.355 223.465 163.37C226.44 160.055 237.405 147.475 237.15 160.14C236.98 168.13 233.58 175.78 227.885 181.305C230.435 179.095 233.155 177.055 236.045 175.355C236.895 174.675 237.915 174.42 238.935 174.59C240.04 174.93 240.635 176.205 240.89 177.395C242.675 185.555 238.17 191.335 235.11 198.305C232.73 203.745 231.285 208.845 228.225 214.115C217.09 233.07 205.275 251.6 192.525 269.535C189.125 274.125 154.02 326.995 153.85 326.91Z" fill="white"/>
<path d="M153.935 327.59C153.85 327.59 153.68 327.505 153.595 327.505C128.18 315.095 106.675 304.895 80.92 296.65L79.645 296.225L80.75 295.46C92.31 287.81 94.52 269.28 96.305 254.49C96.645 251.94 96.9 249.56 97.24 247.265C104.38 196.775 153.17 163.54 192.355 136.935L197.03 133.705C200.43 131.325 204 129.115 207.655 127.075L208.59 126.565C212.585 124.355 220.065 120.275 224.74 121.805C226.1 122.23 227.205 123.25 227.8 124.525C229.415 128.01 228.225 132.685 226.27 136.935L226.695 136.425C227.8 135.235 228.99 133.96 230.605 133.62C231.88 133.365 233.24 133.62 234.345 134.385C235.79 135.405 236.81 137.02 237.15 138.805C237.575 141.695 236.385 144.5 235.11 147.135C233.58 150.195 231.795 153.17 229.925 155.975C232.05 154.36 234.005 153.51 235.45 154.105C236.895 154.7 237.745 156.74 237.66 160.14C237.49 166.175 235.62 171.955 232.22 176.97C233.24 176.205 234.345 175.525 235.45 174.845C236.555 174.165 237.66 173.655 238.85 173.995C240.04 174.335 240.805 175.44 241.23 177.31C242.76 184.025 240.125 189.04 237.405 194.395C236.725 195.755 235.96 197.2 235.365 198.645C234.515 200.515 233.75 202.385 233.07 204.255C231.795 207.74 230.265 211.225 228.395 214.455C216.325 235.025 204.595 253.13 192.695 269.96C191.08 272.17 181.9 286.025 172.89 299.455C168.215 306.51 163.54 313.48 160.055 318.665L155.805 324.955C154.53 327.165 154.19 327.59 153.935 327.59ZM82.45 295.8C107.61 303.96 128.775 313.905 153.68 326.06C155.38 323.68 163.795 311.015 172.04 298.69C180.965 285.26 190.23 271.405 191.845 269.195C203.745 252.45 215.39 234.345 227.46 213.86C229.245 210.63 230.775 207.315 232.05 203.83C232.73 201.96 233.495 200.09 234.345 198.135C235.025 196.69 235.705 195.245 236.47 193.8C239.105 188.615 241.57 183.77 240.125 177.565C239.955 176.63 239.445 175.525 238.595 175.185C237.745 175.1 236.895 175.355 236.215 175.865C233.325 177.565 230.69 179.52 228.14 181.73L227.29 180.795C232.985 175.355 236.215 167.875 236.385 160.055C236.47 157.25 235.96 155.635 234.94 155.21C233.155 154.53 229.415 157.335 223.89 163.54L223.805 163.625V163.71L222.87 162.86V162.775C227.205 157.845 230.945 152.405 233.92 146.54C235.11 144.075 236.215 141.525 235.875 138.975C235.62 137.53 234.855 136.255 233.665 135.405C232.9 134.81 231.88 134.64 230.945 134.81C229.67 135.065 228.65 136.17 227.63 137.19C225.93 139.06 224.23 141.1 222.7 143.14C221.085 145.69 219.725 147.39 219.555 147.56L218.535 146.795C219.64 145.18 220.745 143.65 221.935 142.205C225.42 136.765 228.82 129.455 226.695 125.035C226.27 124.015 225.42 123.25 224.315 122.91C220.235 121.55 212.755 125.63 209.185 127.585L208.25 128.095C204.68 130.135 201.11 132.345 197.795 134.725L193.035 137.955C154.02 164.475 105.57 197.455 98.515 247.435C98.175 249.73 97.92 252.11 97.58 254.575C95.795 269.365 93.585 287.47 82.45 295.8Z" fill="#231F20"/>
<path d="M41.82 329.375L82.535 279.99L166.515 317.05L141.78 371.62L41.82 329.375Z" fill="#394657"/>
<path d="M147.22 335.24C147.135 335.24 147.05 335.24 146.965 335.155L75.905 301.92C75.565 301.75 75.48 301.41 75.565 301.07C75.735 300.73 76.075 300.645 76.415 300.73L147.475 333.88C147.815 334.05 147.9 334.39 147.815 334.73C147.645 335.155 147.475 335.24 147.22 335.24Z" fill="white"/>
<path d="M339.15 73.95H256.785V134.725H339.15V73.95Z" fill="white"/>
<path d="M339.83 135.32H256.19V73.27H339.83V135.32ZM257.465 134.13H338.555V74.63H257.465V134.13Z" fill="#D1D3D4"/>
<path d="M326.23 93.245C325.975 93.67 325.72 94.01 325.465 94.35C316.03 103.785 306.51 113.305 296.99 122.74C296.055 123.675 295.29 123.675 294.27 122.74C288.915 117.215 283.56 111.775 278.29 106.25C277.61 105.74 277.44 104.72 278.035 104.04C278.12 103.87 278.29 103.785 278.46 103.7L282.455 100.13C282.965 99.45 283.985 99.365 284.58 99.96C284.665 100.045 284.75 100.13 284.835 100.215L294.27 109.82C295.29 110.84 295.97 110.84 296.99 109.82L319.09 87.805C320.025 86.87 320.79 86.87 321.725 87.805C323 89.08 324.19 90.27 325.465 91.545C325.72 91.885 325.975 92.225 326.23 92.565V93.245Z" fill="#FF3967"/>
<path d="M256.02 168.725C255.68 168.725 255.34 168.47 255.34 168.045C255.34 167.62 255.595 167.365 256.02 167.365C263.245 166.685 268.855 163.795 272.85 158.695C281.945 147.05 279.14 128.35 279.055 127.5C278.97 127.16 279.225 126.82 279.565 126.82C279.905 126.735 280.245 126.99 280.33 127.33C280.415 128.18 283.305 147.39 273.87 159.46C269.705 164.815 263.755 167.875 256.19 168.64L256.02 168.725Z" fill="#D1D3D4"/>
<path d="M101.065 65.45L197.965 41.565C200.26 40.97 202.64 42.415 203.235 44.71L252.875 246.245C253.47 248.54 252.025 250.92 249.73 251.515L152.83 275.4C150.535 275.995 148.155 274.55 147.56 272.255L97.92 70.635C97.325 68.34 98.77 65.96 101.065 65.45Z" fill="white"/>
<path d="M151.725 276.165C149.43 276.165 147.475 274.635 146.88 272.425L97.325 70.805C96.645 68.17 98.26 65.45 100.98 64.77L197.88 40.885C200.515 40.205 203.235 41.82 203.915 44.54L253.555 246.075C253.895 247.35 253.64 248.71 252.96 249.815C252.28 250.92 251.175 251.77 249.9 252.025L153 275.91C152.49 276.08 152.15 276.165 151.725 276.165ZM199.07 42.075C198.815 42.075 198.475 42.075 198.22 42.16L101.32 66.045C99.365 66.555 98.09 68.51 98.6 70.465L148.155 272C148.665 273.955 150.62 275.145 152.66 274.72L249.56 250.835C251.515 250.325 252.79 248.37 252.28 246.415L202.64 44.88C202.215 43.265 200.77 42.075 199.07 42.075Z" fill="#231F20"/>
<path d="M201.31 60.8672L107.055 84.067L146.832 245.671L241.087 222.471L201.31 60.8672Z" fill="#388CE0"/>
<path d="M170.68 140.675H170.51L169.915 140.505C158.78 138.465 149.6 133.62 142.63 126.225C139.145 122.57 136.34 118.32 134.3 113.645C133.195 111.18 132.345 108.545 131.75 105.825L131.665 105.74V105.4C131.665 105.145 131.92 104.89 132.175 104.805C132.855 104.55 133.45 104.21 134.13 103.87C137.445 102 139.655 99.62 140.675 96.56C141.525 94.18 141.525 91.63 140.76 89.25L140.59 88.655L141.1 88.4L145.095 86.7C146.795 85.935 148.495 85.255 150.11 84.49C153.595 82.96 157.25 81.94 160.99 81.515C163.71 81.26 166.515 81.005 169.065 80.835H169.235C170.595 80.75 171.955 80.665 173.4 80.495H173.91L174.165 81.515C174.335 82.195 174.59 82.96 174.845 83.555C176.12 86.445 178.5 88.74 181.475 89.845C183.77 90.695 186.235 91.035 188.7 90.865H188.785C188.955 90.865 189.21 90.865 189.38 90.95L189.89 91.205L189.805 91.46C189.805 91.545 189.805 91.63 189.89 91.63C191.08 95.965 191.505 100.385 191.25 104.89C190.57 117.045 185.47 127.67 176.035 136.595C175.015 137.53 173.995 138.465 172.975 139.315L171.955 140.165L171.53 140.505L170.68 140.675ZM132.94 105.825C133.535 108.375 134.3 110.84 135.405 113.22C137.445 117.725 140.165 121.805 143.565 125.375C150.365 132.6 159.375 137.275 170.17 139.315C170.34 139.315 170.51 139.4 170.68 139.4L170.935 139.23L171.955 138.38C172.975 137.53 173.995 136.68 175.015 135.745C184.195 127.075 189.125 116.705 189.805 104.89C190.06 100.64 189.635 96.305 188.53 92.225C188.02 92.225 187.595 92.225 187.17 92.225C185.045 92.225 182.92 91.885 180.88 91.12C177.65 89.845 175.015 87.38 173.57 84.15C173.23 83.385 172.975 82.705 172.805 81.855C171.615 81.94 170.425 82.025 169.235 82.11H169.15C166.6 82.28 163.795 82.535 161.16 82.79C157.505 83.215 154.02 84.235 150.62 85.68C148.92 86.36 147.305 87.125 145.69 87.805L142.12 89.335C142.8 91.8 142.715 94.435 141.78 96.9C140.59 100.3 138.295 102.85 134.64 104.89C134.045 105.23 133.45 105.57 132.94 105.825Z" fill="white"/>
<path d="M185.385 244.46L206.38 239.275C207.825 238.935 209.27 239.785 209.61 241.23L212.075 251.175C212.415 252.62 211.565 254.065 210.12 254.405L189.125 259.59C187.68 259.93 186.235 259.08 185.895 257.635L183.43 247.69C183.09 246.33 184.025 244.885 185.385 244.46Z" fill="white"/>
<path d="M188.53 260.355C187 260.355 185.64 259.335 185.3 257.805L182.835 247.86C182.41 246.075 183.515 244.29 185.215 243.865L206.21 238.68C207.995 238.255 209.78 239.36 210.205 241.06L212.67 251.005C213.095 252.79 212.075 254.575 210.29 255L189.295 260.185C189.04 260.27 188.785 260.355 188.53 260.355ZM207.06 239.87C206.89 239.87 206.72 239.87 206.55 239.955L185.555 245.14C185.045 245.225 184.62 245.565 184.28 246.075C184.025 246.5 183.94 247.095 184.025 247.605L186.49 257.55C186.745 258.655 187.85 259.335 188.955 259.08L209.95 253.895C211.055 253.64 211.735 252.535 211.48 251.43L209.015 241.485C208.845 240.55 207.995 239.87 207.06 239.87Z" fill="#D1D3D4"/>
<path d="M153.34 202.385L215.9 187C218.96 186.235 222.105 188.105 222.87 191.25L225.505 201.96C226.27 205.02 224.4 208.165 221.255 208.93L158.695 224.315C155.635 225.08 152.49 223.21 151.725 220.065L149.09 209.355C148.325 206.295 150.195 203.15 153.34 202.385Z" fill="white"/>
<path d="M210.36 140.626L136.574 158.788L139.845 172.076L213.631 153.914L210.36 140.626Z" fill="white"/>
<path d="M146.71 166.09C147.978 166.09 149.005 165.062 149.005 163.795C149.005 162.528 147.978 161.5 146.71 161.5C145.443 161.5 144.415 162.528 144.415 163.795C144.415 165.062 145.443 166.09 146.71 166.09Z" fill="#68E1FD"/>
<path d="M155.04 163.965C156.308 163.965 157.335 162.937 157.335 161.67C157.335 160.403 156.308 159.375 155.04 159.375C153.773 159.375 152.745 160.403 152.745 161.67C152.745 162.937 153.773 163.965 155.04 163.965Z" fill="#68E1FD"/>
<path d="M163.54 161.925C164.808 161.925 165.835 160.897 165.835 159.63C165.835 158.362 164.808 157.335 163.54 157.335C162.273 157.335 161.245 158.362 161.245 159.63C161.245 160.897 162.273 161.925 163.54 161.925Z" fill="#68E1FD"/>
<path d="M171.87 159.885C173.138 159.885 174.165 158.858 174.165 157.59C174.165 156.323 173.138 155.295 171.87 155.295C170.603 155.295 169.575 156.323 169.575 157.59C169.575 158.858 170.603 159.885 171.87 159.885Z" fill="#68E1FD"/>
<path d="M215.627 162.228L141.841 180.39L145.111 193.678L218.898 175.516L215.627 162.228Z" fill="white"/>
<path d="M151.98 187.68C153.248 187.68 154.275 186.652 154.275 185.385C154.275 184.117 153.248 183.09 151.98 183.09C150.713 183.09 149.685 184.117 149.685 185.385C149.685 186.652 150.713 187.68 151.98 187.68Z" fill="#68E1FD"/>
<path d="M160.395 185.64C161.663 185.64 162.69 184.613 162.69 183.345C162.69 182.078 161.663 181.05 160.395 181.05C159.128 181.05 158.1 182.078 158.1 183.345C158.1 184.613 159.128 185.64 160.395 185.64Z" fill="#68E1FD"/>
<path d="M168.81 183.515C170.078 183.515 171.105 182.488 171.105 181.22C171.105 179.953 170.078 178.925 168.81 178.925C167.543 178.925 166.515 179.953 166.515 181.22C166.515 182.488 167.543 183.515 168.81 183.515Z" fill="#68E1FD"/>
<path d="M177.225 181.475C178.493 181.475 179.52 180.448 179.52 179.18C179.52 177.913 178.493 176.885 177.225 176.885C175.958 176.885 174.93 177.913 174.93 179.18C174.93 180.448 175.958 181.475 177.225 181.475Z" fill="#68E1FD"/>
<path d="M178.394 99.9786L145.546 108.064L150.706 129.028L183.554 120.942L178.394 99.9786Z" fill="white"/>
<path d="M153.17 106.845C152.915 106.845 152.66 106.675 152.575 106.335L151.385 101.49C150.11 96.305 153.255 91.035 158.44 89.76C163.625 88.485 168.895 91.63 170.17 96.815L171.36 101.66C171.445 102 171.275 102.34 170.85 102.425C170.425 102.51 170.17 102.34 170.085 101.915L168.895 97.07C167.79 92.565 163.2 89.76 158.695 90.95C154.19 92.055 151.385 96.56 152.49 101.065C152.49 101.065 152.49 101.065 152.49 101.15L153.68 105.995C153.765 106.335 153.595 106.675 153.255 106.76L153.17 106.845Z" fill="white"/>
<path d="M163.795 114.58C165.626 114.58 167.11 113.096 167.11 111.265C167.11 109.434 165.626 107.95 163.795 107.95C161.964 107.95 160.48 109.434 160.48 111.265C160.48 113.096 161.964 114.58 163.795 114.58Z" fill="#68E1FD"/>
<path d="M165.75 119.765C165.495 119.765 165.24 119.595 165.155 119.255L163.37 111.945C163.285 111.605 163.455 111.265 163.88 111.18C164.305 111.095 164.56 111.265 164.645 111.69L166.43 119C166.515 119.34 166.345 119.68 165.92 119.765H165.75Z" fill="#68E1FD"/>
<path d="M133.79 67.66C133.45 67.66 133.11 67.405 133.11 67.065C133.11 66.725 133.28 66.47 133.62 66.47L161.755 59.585C162.095 59.5 162.435 59.67 162.52 60.095C162.605 60.435 162.435 60.775 162.01 60.86L133.875 67.83C133.875 67.66 133.875 67.66 133.79 67.66Z" fill="#D1D3D4"/>
<path d="M164.39 60.095C164.05 60.095 163.71 59.84 163.71 59.5C163.71 59.16 163.88 58.905 164.22 58.905L169.15 57.715C169.49 57.63 169.83 57.8 170 58.14C170.085 58.48 169.915 58.82 169.575 58.99H169.49L164.56 60.18L164.39 60.095Z" fill="#D1D3D4"/>
<path d="M94.52 270.045C94.52 270.045 105.145 181.305 115.6 171.615C127.925 160.055 139.23 152.235 141.27 158.865C143.31 165.495 145.265 176.46 128.35 188.785L130.815 210.8C130.815 210.8 147.475 222.275 138.805 258.485" fill="white"/>
<path d="M94.52 270.725C94.095 270.725 93.84 270.385 93.84 270.045C94.265 266.39 104.635 180.965 115.005 171.275C126.99 160.14 135.065 155.04 139.145 156.06C140.42 156.4 141.44 157.42 141.78 158.78C143.31 163.03 143.48 167.62 142.46 171.955C140.845 177.99 136.34 183.77 128.945 189.21L131.325 210.545C133.45 212.16 147.475 224.485 139.315 258.74C139.23 259.08 138.89 259.335 138.55 259.25C138.21 259.165 137.955 258.825 138.04 258.485C142.46 239.955 140.08 228.225 137.36 221.51C134.385 214.37 130.39 211.48 130.305 211.395L130.05 211.225V210.97L127.5 188.615L127.84 188.36C143.565 176.885 142.885 166.685 140.505 159.12C140.335 158.27 139.655 157.505 138.805 157.25C135.32 156.315 127.16 161.585 115.94 172.125C105.825 181.56 95.285 269.28 95.115 270.13C95.2 270.47 94.86 270.725 94.52 270.725Z" fill="#231F20"/>
<path d="M354.365 311.95C354.365 311.95 322.745 249.73 298.945 221.68C295.715 217.855 291.55 217.175 288.66 219.215C285.175 221.595 285.09 229.415 285.09 229.415C285.09 229.415 276.08 224.145 271.745 225.25C267.41 226.355 266.9 233.24 266.9 233.24C266.9 233.24 257.21 230.095 253.3 233.495C249.39 236.895 249.05 243.1 249.05 243.1C249.05 243.1 198.22 202.215 192.61 198.73C187 195.245 176.97 201.45 181.9 208.675C184.96 213.18 210.715 238.765 218.96 246.925C227.205 255.085 246.585 277.1 248.795 283.645C251.005 290.19 252.79 297.585 239.615 298.435C226.44 299.285 214.625 301.665 208.845 306.595C203.065 311.525 199.24 318.92 202.13 320.365C205.02 321.81 251.685 316.455 269.365 323.68C287.045 330.905 310.165 357.34 310.165 357.34L354.365 311.95Z" fill="white"/>
<path d="M310.165 358.275L309.74 357.765C309.485 357.51 286.535 331.415 269.195 324.275C257.04 319.345 230.86 320.365 215.135 320.96C206.635 321.3 202.895 321.385 201.875 320.96C201.11 320.535 200.6 319.855 200.515 318.92C200.175 315.86 203.66 310.08 208.42 306.085C213.69 301.665 224.145 298.86 239.53 297.84C244.29 297.5 247.265 296.31 248.71 294.27C250.495 291.635 249.39 287.64 248.2 283.9C246.075 277.61 227.205 255.935 218.535 247.435C209.695 238.765 184.45 213.605 181.39 209.1C179.265 206.04 179.52 202.725 181.9 200.175C184.28 197.625 189.38 196.095 192.95 198.305C198.135 201.535 241.4 236.215 248.54 241.91C248.795 239.87 249.645 235.62 252.79 232.985C256.36 229.925 263.925 231.71 266.305 232.39C266.56 230.435 267.665 225.59 271.49 224.655C275.315 223.72 282.03 227.035 284.41 228.395C284.58 226.1 285.26 220.745 288.235 218.705C291.635 216.41 296.14 217.43 299.37 221.34C323 249.135 354.535 311.1 354.875 311.695L355.045 312.12L354.705 312.46L310.165 358.275ZM236.215 319.175C248.88 319.175 261.97 319.94 269.705 323.085C285.94 329.715 306.935 352.665 310.25 356.405L353.515 311.865C350.71 306.425 320.875 248.625 298.35 222.19C295.545 218.875 291.72 217.94 288.83 219.81C285.685 221.935 285.515 229.33 285.515 229.415V230.52L284.58 230.01C284.495 229.925 275.74 224.91 271.66 225.93C267.835 226.865 267.325 233.24 267.325 233.325L267.24 234.175L266.475 233.92C266.39 233.92 257.125 230.86 253.47 234.09C249.815 237.32 249.645 243.27 249.645 243.27V244.545L248.625 243.695C248.115 243.27 197.71 202.81 192.185 199.41C189.125 197.54 184.875 198.815 182.75 201.11C180.71 203.235 180.625 205.87 182.325 208.42C185.385 212.84 210.885 238.255 219.3 246.585C227.035 254.235 247.01 276.59 249.305 283.56C250.665 287.64 251.855 291.89 249.73 295.035C248.115 297.5 244.8 298.86 239.53 299.2C224.4 300.22 214.2 302.94 209.185 307.19C204.425 311.185 201.45 316.54 201.705 318.835C201.705 319.26 201.96 319.685 202.3 319.855C203.065 320.195 208.845 320.025 214.965 319.77C221.085 319.43 228.565 319.09 236.215 319.175Z" fill="#231F20"/>
<path d="M349.775 293.93L285.515 346.375L317.39 393.465L391.51 331.925L349.775 293.93Z" fill="#394657"/>
<path d="M298.435 355.3C298.095 355.3 297.84 355.045 297.84 354.62C297.84 354.45 297.925 354.28 298.095 354.11L354.45 310.93C354.705 310.675 355.13 310.76 355.385 311.015C355.64 311.27 355.555 311.695 355.3 311.95L298.945 355.045C298.775 355.215 298.605 355.3 298.435 355.3Z" fill="white"/>
</svg>
