<svg width="120" height="119" viewBox="0 0 120 119" fill="none" xmlns="http://www.w3.org/2000/svg">
<path d="M107.037 5.67302L106.417 10.072L92.2028 110.29H23.1067L37.3213 10.072L37.9467 5.67302C38.1791 4.23706 38.9048 2.92702 39.9988 1.96837C41.0929 1.00973 42.4869 0.462446 43.941 0.420725H102.532C103.195 0.401977 103.854 0.531577 104.461 0.800055C105.067 1.06853 105.606 1.46911 106.038 1.9725C106.469 2.4759 106.783 3.0694 106.956 3.70964C107.129 4.34988 107.157 5.02068 107.037 5.67302Z" fill="white"/>
<path d="M92.2027 110.555H23.1066C23.0686 110.555 23.0309 110.548 22.9961 110.532C22.9614 110.516 22.9304 110.494 22.9052 110.465C22.8806 110.436 22.8622 110.402 22.8512 110.366C22.8403 110.329 22.837 110.291 22.8416 110.253L37.6816 5.63632C37.9236 4.13554 38.6809 2.76593 39.8232 1.76292C40.9654 0.7599 42.4215 0.186125 43.9409 0.140219H102.532C103.224 0.122598 103.911 0.255686 104.547 0.530246C105.182 0.804807 105.75 1.21427 106.211 1.73022C106.668 2.2686 107.003 2.90031 107.192 3.58133C107.38 4.26235 107.418 4.9763 107.302 5.67342L106.682 10.0724L92.4624 110.327C92.4536 110.39 92.4225 110.447 92.3748 110.489C92.3272 110.531 92.2661 110.554 92.2027 110.555ZM23.4087 110.025H91.9695L106.778 5.61512C106.882 4.99367 106.85 4.35688 106.684 3.74909C106.517 3.14131 106.22 2.57715 105.813 2.09592C105.404 1.63262 104.898 1.26447 104.331 1.01728C103.764 0.770079 103.151 0.649819 102.532 0.66492H43.9409C42.5506 0.706959 41.2181 1.23123 40.1719 2.14789C39.1256 3.06456 38.4308 4.31655 38.2063 5.68932L37.5862 10.0883L23.4087 110.025Z" fill="#231F20"/>
<path d="M67.526 52.4198H37.21C37.1338 52.4168 37.0616 52.3845 37.0086 52.3297C36.9848 52.3002 36.9674 52.2662 36.9574 52.2298C36.9473 52.1933 36.9449 52.1551 36.9503 52.1177L41.45 20.6039C41.46 20.5407 41.4922 20.4831 41.5407 20.4413C41.5892 20.3996 41.651 20.3765 41.715 20.376H72.0204C72.0585 20.3756 72.0963 20.3835 72.1312 20.3991C72.166 20.4146 72.1971 20.4375 72.2222 20.4662C72.2474 20.4949 72.266 20.5287 72.2769 20.5653C72.2878 20.6018 72.2907 20.6403 72.2854 20.6781L67.8175 52.1919C67.807 52.2598 67.771 52.3212 67.7168 52.3635C67.6627 52.4059 67.5944 52.426 67.526 52.4198ZM37.5227 51.8898H67.2981L71.6918 20.906H41.9164L37.5227 51.8898Z" fill="#D1D3D4"/>
<path d="M96.3156 20.906H80.14C80.0697 20.906 80.0023 20.8781 79.9526 20.8284C79.9029 20.7787 79.875 20.7113 79.875 20.641C79.875 20.5707 79.9029 20.5033 79.9526 20.4536C80.0023 20.4039 80.0697 20.376 80.14 20.376H96.3209C96.3912 20.376 96.4586 20.4039 96.5083 20.4536C96.558 20.5033 96.5859 20.5707 96.5859 20.641C96.5859 20.6762 96.5789 20.7111 96.5652 20.7436C96.5516 20.7761 96.5316 20.8056 96.5064 20.8303C96.4812 20.8549 96.4514 20.8743 96.4186 20.8873C96.3859 20.9003 96.3508 20.9067 96.3156 20.906Z" fill="#D1D3D4"/>
<path d="M95.722 25.0984H79.5411C79.4708 25.0984 79.4034 25.0704 79.3537 25.0207C79.304 24.971 79.2761 24.9036 79.2761 24.8334C79.2761 24.7631 79.304 24.6957 79.3537 24.646C79.4034 24.5963 79.4708 24.5684 79.5411 24.5684H95.722C95.7923 24.5684 95.8597 24.5963 95.9094 24.646C95.9591 24.6957 95.987 24.7631 95.987 24.8334C95.987 24.9036 95.9591 24.971 95.9094 25.0207C95.8597 25.0704 95.7923 25.0984 95.722 25.0984Z" fill="#D1D3D4"/>
<path d="M95.1284 29.2898H78.9422C78.8724 29.2884 78.8058 29.2601 78.7564 29.2106C78.707 29.1612 78.6786 29.0946 78.6772 29.0248C78.6772 28.9545 78.7052 28.8871 78.7549 28.8374C78.8046 28.7877 78.872 28.7598 78.9422 28.7598H95.1284C95.1987 28.7598 95.2661 28.7877 95.3158 28.8374C95.3655 28.8871 95.3934 28.9545 95.3934 29.0248C95.3934 29.095 95.3655 29.1625 95.3158 29.2121C95.2661 29.2618 95.1987 29.2898 95.1284 29.2898Z" fill="#D1D3D4"/>
<path d="M94.5347 33.488H78.3485C78.2782 33.488 78.2108 33.4601 78.1611 33.4104C78.1114 33.3607 78.0835 33.2933 78.0835 33.223C78.0835 33.1527 78.1114 33.0853 78.1611 33.0356C78.2108 32.9859 78.2782 32.958 78.3485 32.958H94.5347C94.605 32.958 94.6724 32.9859 94.7221 33.0356C94.7718 33.0853 94.7997 33.1527 94.7997 33.223C94.7997 33.2933 94.7718 33.3607 94.7221 33.4104C94.6724 33.4601 94.605 33.488 94.5347 33.488Z" fill="#D1D3D4"/>
<path d="M93.92 37.6804H77.755C77.6847 37.6804 77.6173 37.6525 77.5676 37.6028C77.5179 37.5531 77.49 37.4857 77.49 37.4154C77.49 37.3451 77.5179 37.2777 77.5676 37.228C77.6173 37.1783 77.6847 37.1504 77.755 37.1504H93.92C93.9903 37.1504 94.0577 37.1783 94.1074 37.228C94.1571 37.2777 94.185 37.3451 94.185 37.4154C94.185 37.4857 94.1571 37.5531 94.1074 37.6028C94.0577 37.6525 93.9903 37.6804 93.92 37.6804Z" fill="#D1D3D4"/>
<path d="M88.6624 41.8777H77.1561C77.0863 41.8763 77.0196 41.8479 76.9702 41.7985C76.9208 41.7491 76.8925 41.6825 76.8911 41.6127C76.8911 41.5424 76.919 41.475 76.9687 41.4253C77.0184 41.3756 77.0858 41.3477 77.1561 41.3477H88.6624C88.7327 41.3477 88.8001 41.3756 88.8498 41.4253C88.8995 41.475 88.9274 41.5424 88.9274 41.6127C88.9274 41.6829 88.8995 41.7503 88.8498 41.8C88.8001 41.8497 88.7327 41.8777 88.6624 41.8777Z" fill="#D1D3D4"/>
<path d="M90.9203 52.1547H76.6103C76.2352 52.1647 75.8626 52.0909 75.5197 51.9387C75.1767 51.7865 74.8721 51.5597 74.6279 51.2749C74.3836 50.99 74.206 50.6543 74.108 50.2921C74.0099 49.93 73.9938 49.5505 74.061 49.1814C74.1935 48.3691 74.6043 47.6283 75.2232 47.0858C75.8421 46.5433 76.6304 46.233 77.453 46.2081H91.763C92.1385 46.1973 92.5117 46.2705 92.8553 46.4223C93.1989 46.5742 93.5042 46.8008 93.749 47.0858C93.9938 47.3707 94.1719 47.7067 94.2703 48.0693C94.3687 48.4318 94.3848 48.8118 94.3176 49.1814C94.1849 49.9945 93.7733 50.736 93.1533 51.2786C92.5333 51.8212 91.7438 52.1309 90.9203 52.1547Z" fill="#D1D3D4"/>
<path d="M50.5925 93.5951H36.2825C35.9072 93.6061 35.5341 93.533 35.1907 93.3811C34.8472 93.2292 34.5421 93.0024 34.2977 92.7174C34.0533 92.4323 33.8757 92.0961 33.7781 91.7336C33.6804 91.371 33.6651 90.9911 33.7332 90.6218C33.8657 89.8096 34.2766 89.0687 34.8954 88.5263C35.5143 87.9838 36.3026 87.6735 37.1252 87.6485H51.4352C51.8106 87.6376 52.1836 87.7107 52.527 87.8626C52.8705 88.0145 53.1756 88.2412 53.42 88.5263C53.6644 88.8114 53.842 89.1475 53.9397 89.5101C54.0373 89.8727 54.0527 90.2526 53.9845 90.6218C53.853 91.4345 53.4424 92.1759 52.8233 92.7186C52.2042 93.2613 51.4154 93.5712 50.5925 93.5951Z" fill="#D1D3D4"/>
<path d="M83.092 93.5951H68.782C68.4067 93.6061 68.0336 93.533 67.6902 93.3811C67.3468 93.2292 67.0417 93.0024 66.7972 92.7174C66.5528 92.4323 66.3753 92.0961 66.2776 91.7336C66.1799 91.371 66.1646 90.9911 66.2327 90.6218C66.3642 89.8092 66.7749 89.0677 67.3939 88.5251C68.013 87.9824 68.8018 87.6725 69.6247 87.6485H83.9347C84.3101 87.6376 84.6831 87.7107 85.0266 87.8626C85.37 88.0145 85.6751 88.2412 85.9195 88.5263C86.1639 88.8114 86.3415 89.1475 86.4392 89.5101C86.5368 89.8727 86.5522 90.2526 86.484 90.6218C86.3525 91.4345 85.9419 92.1759 85.3228 92.7186C84.7038 93.2613 83.9149 93.5712 83.092 93.5951Z" fill="#D1D3D4"/>
<path d="M56.9367 83.8481H32.7581C32.7198 83.8468 32.6821 83.8377 32.6475 83.8213C32.6129 83.8049 32.582 83.7815 32.5567 83.7527C32.5318 83.725 32.5136 83.692 32.5035 83.6562C32.4934 83.6203 32.4917 83.5827 32.4984 83.546L35.6784 60.9945C35.6884 60.9313 35.7206 60.8737 35.7691 60.832C35.8176 60.7903 35.8794 60.7671 35.9434 60.7666H60.1167C60.1548 60.766 60.1926 60.7737 60.2274 60.7892C60.2622 60.8048 60.2932 60.8279 60.3181 60.8567C60.3436 60.8852 60.3626 60.919 60.3736 60.9556C60.3846 60.9923 60.3873 61.0309 60.3817 61.0687L57.2017 83.6202C57.1916 83.6835 57.1595 83.7411 57.111 83.7828C57.0624 83.8245 57.0007 83.8477 56.9367 83.8481ZM33.0867 83.3181H56.73L59.8517 61.2966H36.1872L33.0867 83.3181Z" fill="#D1D3D4"/>
<path d="M89.4363 83.8481H65.2577C65.2193 83.8475 65.1814 83.8386 65.1467 83.8222C65.112 83.8057 65.0811 83.782 65.0563 83.7527C65.0317 83.7247 65.0134 83.6918 65.0024 83.6562C64.9915 83.6206 64.9882 83.583 64.9927 83.546L68.1727 60.9945C68.1816 60.9318 68.2126 60.8743 68.2603 60.8324C68.3079 60.7906 68.369 60.7673 68.4324 60.7666H92.611C92.6491 60.766 92.6869 60.7737 92.7217 60.7892C92.7565 60.8048 92.7875 60.8279 92.8124 60.8567C92.838 60.8852 92.8569 60.919 92.8679 60.9556C92.8789 60.9923 92.8817 61.0309 92.876 61.0687L89.696 83.6202C89.6871 83.683 89.656 83.7405 89.6084 83.7823C89.5607 83.8242 89.4997 83.8475 89.4363 83.8481ZM65.5863 83.3181H89.2243L92.3513 61.2966H68.6868L65.5863 83.3181Z" fill="#D1D3D4"/>
<path d="M51.5465 102.69C51.3863 102.693 51.2274 102.66 51.081 102.595C50.9345 102.53 50.804 102.434 50.6985 102.314C50.5928 102.19 50.5152 102.045 50.4713 101.889C50.4274 101.732 50.4181 101.568 50.4441 101.407C50.4964 101.076 50.6637 100.774 50.9167 100.554C51.1697 100.334 51.4922 100.21 51.8274 100.204C51.987 100.202 52.1453 100.234 52.2916 100.298C52.4379 100.362 52.5687 100.456 52.6754 100.575C52.7811 100.699 52.8583 100.844 52.9014 101C52.9444 101.157 52.9523 101.321 52.9245 101.482C52.8745 101.813 52.7087 102.117 52.4565 102.338C52.2043 102.559 51.8819 102.684 51.5465 102.69ZM51.8274 100.734C51.6207 100.743 51.4232 100.822 51.2671 100.957C51.1111 101.093 51.0059 101.278 50.9688 101.482C50.954 101.568 50.9582 101.656 50.9811 101.74C51.004 101.824 51.045 101.902 51.1013 101.969C51.1573 102.031 51.2261 102.08 51.3029 102.113C51.3798 102.146 51.4629 102.162 51.5465 102.16C51.7536 102.152 51.9515 102.072 52.107 101.935C52.2624 101.798 52.3658 101.612 52.3998 101.407C52.4152 101.323 52.4118 101.235 52.3899 101.152C52.3679 101.069 52.3278 100.991 52.2726 100.925C52.2166 100.863 52.1478 100.814 52.071 100.781C51.9941 100.748 51.911 100.732 51.8274 100.734Z" fill="#D1D3D4"/>
<path d="M57.3265 102.119C57.7506 101.724 57.8162 101.105 57.473 100.736C57.1298 100.368 56.5078 100.39 56.0838 100.785C55.6597 101.18 55.5941 101.799 55.9373 102.167C56.2804 102.535 56.9024 102.514 57.3265 102.119Z" fill="#D1D3D4"/>
<path d="M61.9726 102.082C62.3957 101.688 62.4612 101.071 62.1188 100.703C61.7765 100.336 61.1559 100.357 60.7329 100.751C60.3098 101.145 60.2443 101.763 60.5867 102.13C60.929 102.498 61.5496 102.476 61.9726 102.082Z" fill="#D1D3D4"/>
<path d="M67.377 102.117C67.8011 101.722 67.8667 101.103 67.5235 100.735C67.1804 100.366 66.5584 100.388 66.1343 100.783C65.7102 101.178 65.6446 101.797 65.9878 102.165C66.331 102.533 66.953 102.512 67.377 102.117Z" fill="#D1D3D4"/>
<path d="M47.9213 13.2263H43.9198C43.8495 13.2263 43.7821 13.1984 43.7324 13.1487C43.6827 13.099 43.6548 13.0316 43.6548 12.9613C43.6548 12.891 43.6827 12.8236 43.7324 12.7739C43.7821 12.7242 43.8495 12.6963 43.9198 12.6963H47.9213C47.9916 12.6963 48.059 12.7242 48.1087 12.7739C48.1584 12.8236 48.1863 12.891 48.1863 12.9613C48.1863 13.0316 48.1584 13.099 48.1087 13.1487C48.059 13.1984 47.9916 13.2263 47.9213 13.2263Z" fill="#D1D3D4"/>
<path d="M47.6668 15.028H43.66C43.5902 15.0267 43.5235 14.9983 43.4741 14.9489C43.4247 14.8995 43.3964 14.8329 43.395 14.763C43.395 14.6928 43.4229 14.6254 43.4726 14.5757C43.5223 14.526 43.5897 14.498 43.66 14.498H47.6668C47.7371 14.498 47.8045 14.526 47.8542 14.5757C47.9039 14.6254 47.9318 14.6928 47.9318 14.763C47.9305 14.8329 47.9021 14.8995 47.8527 14.9489C47.8033 14.9983 47.7367 15.0267 47.6668 15.028Z" fill="#D1D3D4"/>
<path d="M47.4071 16.8249H43.4056C43.3353 16.8249 43.2679 16.797 43.2182 16.7473C43.1685 16.6976 43.1406 16.6302 43.1406 16.5599C43.142 16.4901 43.1703 16.4234 43.2197 16.374C43.2691 16.3246 43.3358 16.2963 43.4056 16.2949H47.4071C47.4774 16.2949 47.5448 16.3228 47.5945 16.3725C47.6442 16.4222 47.6721 16.4896 47.6721 16.5599C47.6721 16.6302 47.6442 16.6976 47.5945 16.7473C47.5448 16.797 47.4774 16.8249 47.4071 16.8249Z" fill="#D1D3D4"/>
<path d="M107.037 5.67302L106.417 10.072H37.3213L37.9467 5.67302C38.1791 4.23706 38.9048 2.92702 39.9988 1.96837C41.0929 1.00973 42.4869 0.462446 43.941 0.420725H102.532C103.195 0.401977 103.854 0.531577 104.461 0.800055C105.067 1.06853 105.606 1.46911 106.038 1.9725C106.469 2.4759 106.783 3.0694 106.956 3.70964C107.129 4.34988 107.157 5.02068 107.037 5.67302Z" fill="#231F20"/>
<path d="M74.1456 5.51437H66.5348C66.4645 5.51437 66.3971 5.48646 66.3474 5.43676C66.2977 5.38706 66.2698 5.31966 66.2698 5.24937C66.2698 5.17909 66.2977 5.11169 66.3474 5.06199C66.3971 5.01229 66.4645 4.98438 66.5348 4.98438H74.1456C74.2159 4.98438 74.2833 5.01229 74.333 5.06199C74.3827 5.11169 74.4106 5.17909 74.4106 5.24937C74.4106 5.31966 74.3827 5.38706 74.333 5.43676C74.2833 5.48646 74.2159 5.51437 74.1456 5.51437Z" fill="#D1D3D4"/>
<path d="M78.0199 5.51437H76.6737C76.6038 5.51302 76.5372 5.48466 76.4878 5.43526C76.4384 5.38585 76.41 5.31923 76.4087 5.24937C76.4087 5.17909 76.4366 5.11169 76.4863 5.06199C76.536 5.01229 76.6034 4.98438 76.6737 4.98438H78.0199C78.0902 4.98438 78.1576 5.01229 78.2073 5.06199C78.257 5.11169 78.2849 5.17909 78.2849 5.24937C78.2849 5.31966 78.257 5.38706 78.2073 5.43676C78.1576 5.48646 78.0902 5.51437 78.0199 5.51437Z" fill="#D1D3D4"/>
<path d="M36.521 40.1343L41.4606 45.2329C41.4606 45.2329 50.3752 35.4968 50.4706 34.2778C50.7483 32.0899 51.3596 29.9575 52.2832 27.9549C52.3233 27.827 52.4104 27.719 52.527 27.6528C52.8079 27.5468 53.0093 27.939 53.057 28.2358C53.1462 28.9598 53.1373 29.6925 53.0305 30.4141C53.9156 29.1898 54.8166 27.9814 55.7441 26.7889C55.7777 26.7288 55.8241 26.6767 55.8799 26.6364C55.9358 26.5961 55.9998 26.5686 56.0674 26.5557C56.1709 26.5621 56.2686 26.6054 56.343 26.6776C56.9275 27.1766 57.3653 27.8251 57.6097 28.5538C57.7681 28.94 57.8595 29.3505 57.88 29.7675C57.9171 32.1101 55.8183 35.9155 53.64 36.8748C53.64 36.8748 43.4958 54.2588 41.6726 54.0574C39.8494 53.856 32.6626 45.7417 32.6626 45.7417L36.521 40.1343Z" fill="white"/>
<path d="M41.6778 54.3226H41.6354C39.7645 54.1106 33.1872 46.7542 32.4399 45.9168C32.4029 45.87 32.3828 45.8121 32.3828 45.7525C32.3828 45.6929 32.4029 45.635 32.4399 45.5882L36.3195 39.9861C36.3422 39.9545 36.3715 39.9282 36.4054 39.909C36.4392 39.8898 36.4768 39.8781 36.5156 39.8748C36.5546 39.8712 36.594 39.8764 36.6307 39.8902C36.6674 39.904 36.7005 39.9259 36.7276 39.9543L41.4711 44.8462C44.9002 41.0885 50.1631 35.0624 50.2373 34.2462C50.5141 32.0343 51.1253 29.8774 52.0499 27.8491C52.0828 27.7534 52.1345 27.6653 52.2018 27.5897C52.2691 27.5142 52.3508 27.4528 52.4421 27.4092C52.5168 27.3801 52.597 27.3683 52.6769 27.3748C52.7568 27.3812 52.8341 27.4056 52.9032 27.4463C53.0256 27.5389 53.1265 27.657 53.1988 27.7925C53.2711 27.9279 53.3131 28.0774 53.3219 28.2307C53.3705 28.6564 53.39 29.0849 53.3802 29.5133C54.0851 28.5487 54.8059 27.5894 55.5373 26.6513C55.5945 26.5591 55.672 26.4811 55.7638 26.4233C55.8556 26.3654 55.9594 26.3292 56.0673 26.3174C56.2336 26.3244 56.3925 26.388 56.5178 26.4976C57.139 27.0177 57.6093 27.6949 57.8799 28.4586C58.0474 28.8742 58.1442 29.3149 58.1661 29.7624C58.2032 32.1103 56.1839 35.9846 53.8413 37.0817C52.0499 40.1504 43.6441 54.3226 41.6778 54.3226ZM32.9699 45.7207C35.8478 48.9484 40.4429 53.6707 41.6884 53.7926C42.7802 53.7926 48.4671 45.1536 53.3802 36.7372C53.4085 36.6885 53.451 36.6497 53.5021 36.6259C55.6486 35.6825 57.6255 31.9619 57.5884 29.7677C57.5712 29.3798 57.4869 28.9979 57.3393 28.6388C57.1074 27.9585 56.6974 27.3527 56.1521 26.8845C56.0832 26.8262 56.0567 26.8156 56.0461 26.8156C56.0024 26.8533 55.9633 26.896 55.9295 26.9428C55.0073 28.13 54.0957 29.349 53.2159 30.568C53.1811 30.6165 53.131 30.6518 53.0736 30.6682C53.0163 30.6846 52.955 30.6812 52.8999 30.6585C52.8447 30.6359 52.7988 30.5952 52.7695 30.5432C52.7403 30.4912 52.7295 30.4308 52.7389 30.3719C52.844 29.6697 52.8529 28.9565 52.7654 28.2519C52.7575 28.1139 52.699 27.9837 52.6011 27.8862C52.5602 27.9343 52.5296 27.9902 52.511 28.0505C51.599 30.0263 50.9949 32.13 50.7196 34.2886C50.6083 35.5341 43.13 43.7597 41.6301 45.4186C41.5801 45.4708 41.5115 45.5012 41.4393 45.5034C41.3671 45.4985 41.2984 45.4706 41.2432 45.4239L36.5315 40.5585L32.9699 45.7207Z" fill="#231F20"/>
<path d="M1.70002 113.227C1.70002 113.227 -0.0224758 117.944 0.740724 118.399C1.50392 118.855 16.7149 118.399 15.798 117.488C14.8811 116.576 10.8319 113.534 10.8319 113.534" fill="white"/>
<path d="M4.22807 118.829C2.28297 118.829 0.820175 118.76 0.597575 118.627C-0.229225 118.134 0.777775 114.976 1.44557 113.136C1.47171 113.071 1.52201 113.018 1.58611 112.988C1.65021 112.959 1.72322 112.955 1.79008 112.977C1.85516 113.002 1.90778 113.052 1.93655 113.116C1.96532 113.179 1.96792 113.251 1.94378 113.317C1.09578 115.654 0.592276 117.922 0.883776 118.177C1.94378 118.648 13.8423 118.092 15.4641 117.53C14.3458 116.497 10.6941 113.772 10.6941 113.746C10.6662 113.725 10.6428 113.699 10.625 113.669C10.6073 113.639 10.5957 113.606 10.5907 113.571C10.5808 113.502 10.5989 113.431 10.6411 113.375C10.6832 113.319 10.746 113.282 10.8156 113.272C10.8852 113.262 10.9559 113.28 11.0121 113.322C11.1764 113.444 15.0931 116.385 16.01 117.302C16.0763 117.364 16.117 117.448 16.1239 117.539C16.1308 117.629 16.1033 117.719 16.0471 117.79C15.48 118.484 8.62177 118.829 4.22807 118.829Z" fill="#231F20"/>
<path d="M17.0701 23.1691C16.3493 23.1373 15.6285 23.0154 14.7964 22.9412C13.9643 22.867 13.0209 22.5861 13.005 21.8123C13.005 21.1445 13.7894 20.5933 13.6145 19.952C13.553 19.7789 13.4595 19.6189 13.3389 19.4803C12.23 17.992 11.7399 16.1325 11.971 14.2911C12.2022 12.4496 13.1368 10.769 14.5791 9.60106C14.3618 9.67526 14.1286 9.45796 14.1074 9.23006C14.106 8.99713 14.1953 8.7728 14.3565 8.60466C14.941 7.96234 15.6997 7.50383 16.5401 7.28496C19.1696 6.47403 21.9825 6.47403 24.612 7.28496C26.626 7.87326 29.0481 9.47916 28.7831 11.9119C28.7507 12.353 28.5676 12.7696 28.2647 13.0918C27.9617 13.4141 27.5572 13.6225 27.1189 13.6821C26.6684 16.2897 25.301 18.0705 23.5838 19.9573C22.4297 21.2531 20.9732 22.2436 19.3438 22.8405C18.6159 23.1024 17.8424 23.2142 17.0701 23.1691Z" fill="white"/>
<path d="M17.3986 23.4597H17.07C16.6407 23.4597 16.222 23.3908 15.7715 23.3378C15.4588 23.3007 15.1355 23.2636 14.7857 23.2318C13.5296 23.1258 12.7717 22.6064 12.7558 21.8432C12.7758 21.4781 12.901 21.1266 13.1162 20.8309C13.2911 20.5394 13.4395 20.3009 13.3759 20.0465C13.3278 19.9204 13.2578 19.8038 13.1692 19.702C12.0427 18.2195 11.5111 16.3695 11.6788 14.5151C11.8465 12.6608 12.7013 10.9361 14.0755 9.67973C13.9542 9.56061 13.8775 9.40345 13.8582 9.23453C13.852 9.08402 13.876 8.93379 13.9288 8.79271C13.9816 8.65162 14.0621 8.52253 14.1656 8.41303C14.7798 7.74385 15.5723 7.26394 16.4499 7.02973C19.1297 6.20493 21.9956 6.20493 24.6755 7.02973C27.0393 7.71873 29.3024 9.50483 29.0321 11.9428C28.9907 12.4086 28.8052 12.8499 28.5011 13.2052C28.1971 13.5605 27.7899 13.8122 27.3361 13.925C26.8061 16.6068 25.2903 18.4618 23.7692 20.1366C22.5889 21.4648 21.0974 22.4792 19.4285 23.0887C18.7784 23.329 18.0916 23.4546 17.3986 23.4597ZM14.5525 9.34053C14.6037 9.33992 14.6542 9.35283 14.6989 9.37795C14.7435 9.40307 14.7808 9.43952 14.8069 9.48363C14.8393 9.53698 14.8523 9.59992 14.8436 9.66175C14.8349 9.72359 14.8051 9.78051 14.7592 9.82283C13.373 10.9495 12.4752 12.5678 12.253 14.3402C12.0309 16.1126 12.5015 17.9024 13.5667 19.3363C13.71 19.4999 13.8182 19.6911 13.8847 19.8981C13.9193 20.1077 13.9094 20.3223 13.8555 20.5277C13.8016 20.7332 13.705 20.925 13.572 21.0906C13.4148 21.3055 13.3162 21.5576 13.2858 21.822C13.2858 22.5269 14.579 22.67 14.8334 22.6965C15.1832 22.6965 15.5171 22.7654 15.8351 22.8025C16.2697 22.8555 16.6831 22.9032 17.0965 22.9191C17.8289 22.964 18.5628 22.8594 19.2536 22.6117C20.8395 22.034 22.2566 21.0704 23.377 19.808C25.2638 17.7357 26.4351 16.0662 26.8485 13.6653C26.8581 13.6053 26.8882 13.5504 26.9335 13.5098C26.9789 13.4693 27.0368 13.4456 27.0976 13.4427C27.4709 13.3839 27.8134 13.2006 28.0693 12.9225C28.3253 12.6444 28.4797 12.288 28.5074 11.911C28.7724 9.47833 26.1277 8.03143 24.5271 7.56503C21.949 6.77233 19.1922 6.77233 16.6142 7.56503C15.8292 7.76498 15.1211 8.19283 14.579 8.79463C14.4611 8.90954 14.391 9.0648 14.3829 9.22923C14.3874 9.25588 14.3972 9.28134 14.4118 9.3041C14.4264 9.32687 14.4454 9.34647 14.4677 9.36173L14.5525 9.34053Z" fill="#231F20"/>
<path d="M6.24736 38.8299C6.24736 38.8299 0.639955 50.2461 1.07455 53.7441C1.50915 57.2421 13.095 55.8641 13.095 55.8641L12.4855 38.5225L6.24736 38.8299Z" fill="white"/>
<path d="M8.31447 56.4049C7.96467 56.4049 7.60427 56.4049 7.25447 56.4049C3.19467 56.2776 1.02697 55.3979 0.820267 53.7973C0.359167 50.2622 5.78637 39.2064 6.01427 38.74C6.03618 38.6976 6.06869 38.6617 6.10864 38.6357C6.14858 38.6097 6.19459 38.5945 6.24217 38.5916L12.4803 38.2895C12.5151 38.2875 12.5499 38.2927 12.5827 38.3045C12.6155 38.3163 12.6455 38.3347 12.6711 38.3583C12.6978 38.3813 12.7192 38.4098 12.7338 38.4418C12.7484 38.4738 12.756 38.5086 12.7559 38.5438L13.3601 55.8642C13.362 55.9309 13.3393 55.9958 13.2962 56.0467C13.2532 56.0976 13.1929 56.1307 13.1269 56.1399C11.5282 56.3092 9.92204 56.3977 8.31447 56.4049ZM6.41707 39.095C5.78107 40.4041 0.926268 50.5378 1.33967 53.7125C1.70007 56.32 9.51757 56.0021 12.8301 55.6364L12.2312 38.83L6.41707 39.095Z" fill="#231F20"/>
<path d="M28.6133 110.995L28.9154 118.415C28.9154 118.415 42.812 118.515 42.0011 117.503C41.1902 116.491 34.8991 112.028 34.8991 112.028L33.8868 106.548L28.6133 110.995Z" fill="white"/>
<path d="M30.7015 118.675H28.9154C28.847 118.675 28.7811 118.648 28.7317 118.601C28.6823 118.554 28.6532 118.489 28.6504 118.42L28.3483 111C28.3468 110.961 28.3541 110.921 28.3697 110.884C28.3853 110.848 28.4087 110.815 28.4384 110.788L33.7384 106.326C33.774 106.296 33.8166 106.276 33.8621 106.268C33.9075 106.26 33.9544 106.263 33.9981 106.278C34.041 106.295 34.0789 106.322 34.1086 106.357C34.1382 106.392 34.1585 106.434 34.1677 106.48L35.1641 111.854C35.9591 112.421 41.4446 116.338 42.229 117.318C42.2754 117.374 42.3049 117.442 42.3143 117.514C42.3237 117.587 42.3125 117.66 42.282 117.726C41.8792 118.521 35.4927 118.675 30.7015 118.675ZM29.1698 118.145C34.7507 118.177 40.6973 117.965 41.6937 117.546C40.8033 116.613 36.8177 113.703 34.7454 112.246C34.7176 112.227 34.6939 112.203 34.6756 112.175C34.6574 112.146 34.6451 112.115 34.6394 112.082L33.7066 107.052L28.8836 111.138L29.1698 118.145Z" fill="#231F20"/>
<path d="M31.1308 58.9707L36.5209 113.031L27.5957 113.232L17.4568 75.0403L11.8388 113.561L1.49316 113.031C1.49316 113.031 3.29516 91.5286 4.23326 83.3507C5.17136 75.1728 6.62356 61.0165 6.62356 61.0165L31.1308 58.9707Z" fill="#231F20"/>
<path d="M27.8078 17.4814C27.8078 17.4814 29.6681 20.5501 29.2335 21.1543C28.7989 21.7585 27.458 21.2921 27.458 21.2921" fill="white"/>
<path d="M28.4278 21.7271C28.067 21.7205 27.7094 21.658 27.3678 21.5416C27.3093 21.5136 27.2631 21.4651 27.238 21.4053C27.2129 21.3455 27.2105 21.2786 27.2314 21.2172C27.2523 21.1558 27.295 21.1042 27.3514 21.0722C27.4078 21.0401 27.474 21.0299 27.5374 21.0434C27.919 21.1706 28.7723 21.3296 29.0108 20.9957C29.2493 20.6618 28.5073 19.1566 27.5745 17.6196C27.551 17.5901 27.534 17.5558 27.5248 17.5192C27.5156 17.4826 27.5143 17.4445 27.521 17.4073C27.5277 17.3702 27.5423 17.3349 27.5637 17.3038C27.5852 17.2728 27.6131 17.2466 27.6454 17.2272C27.6778 17.2078 27.7139 17.1955 27.7515 17.1912C27.789 17.1869 27.827 17.1906 27.8629 17.2022C27.8988 17.2137 27.9319 17.2328 27.9598 17.2582C27.9878 17.2836 28.01 17.3146 28.025 17.3493C28.6133 18.3139 29.9277 20.6353 29.4454 21.3084C29.321 21.4537 29.1639 21.5675 28.987 21.6403C28.8101 21.7131 28.6185 21.7428 28.4278 21.7271Z" fill="#231F20"/>
<path d="M27.5375 13.5177C28.7565 14.5777 28.306 16.7507 28.2424 18.1605C28.147 20.1427 28.0092 22.1249 27.829 24.1071C27.7124 25.3579 24.4529 25.2625 23.8911 24.865L24.2144 29.8523L17.4675 26.9638L17.9074 21.2345C17.9074 21.2345 20.0592 21.3299 21.4319 18.8177C22.8046 16.3055 22.9 12.3623 22.9 12.3623C22.9 12.3623 26.3503 12.4683 27.5375 13.5177Z" fill="white"/>
<path d="M24.2143 30.1169C24.1795 30.1249 24.1432 30.1249 24.1083 30.1169L17.3667 27.2284C17.3158 27.206 17.2728 27.1687 17.2435 27.1214C17.2142 27.0741 17.1999 27.019 17.2024 26.9635L17.6423 21.2342C17.6478 21.1657 17.6795 21.1021 17.7309 21.0566C17.7823 21.0111 17.8494 20.9874 17.9179 20.9903C17.9974 20.9903 19.9266 21.038 21.1986 18.7113C22.5236 16.2839 22.6349 12.4149 22.6349 12.3513C22.6355 12.3163 22.6433 12.2817 22.6579 12.2497C22.6725 12.2178 22.6936 12.1892 22.7197 12.1658C22.7443 12.1407 22.7742 12.1215 22.8073 12.1096C22.8403 12.0976 22.8756 12.0933 22.9105 12.0969C23.0536 12.0969 26.4668 12.2188 27.7123 13.3212C28.8253 14.3017 28.6769 16.0242 28.5603 17.4128C28.5603 17.6778 28.5179 17.9428 28.5073 18.1707C28.4119 20.1476 28.2741 22.1511 28.0939 24.128C28.0617 24.3386 27.9719 24.5362 27.8344 24.6989C27.6969 24.8616 27.5171 24.9832 27.3148 25.0501C26.3109 25.4141 25.2232 25.4804 24.1825 25.2409L24.4899 29.8202C24.4921 29.8558 24.487 29.8916 24.475 29.9252C24.463 29.9589 24.4443 29.9897 24.42 30.016C24.3957 30.0422 24.3664 30.0633 24.3338 30.0779C24.3012 30.0925 24.266 30.1004 24.2302 30.101L24.2143 30.1169ZM17.7483 26.7938L23.9175 29.4439L23.6313 24.8859C23.6257 24.8358 23.6353 24.7852 23.6589 24.7407C23.6826 24.6963 23.7192 24.66 23.7638 24.6368C23.8057 24.6098 23.8545 24.5955 23.9043 24.5955C23.9541 24.5955 24.0029 24.6098 24.0447 24.6368C25.0406 24.9463 26.1101 24.924 27.0922 24.5731C27.389 24.4406 27.548 24.271 27.5639 24.0431C27.7494 22.0768 27.8872 20.0788 27.9773 18.1125C27.9773 17.8687 28.0091 17.5824 28.0303 17.328C28.1416 16.0613 28.2741 14.4872 27.3625 13.6816C26.4403 12.8654 23.9652 12.6534 23.1543 12.6216C23.1066 13.5703 22.8575 16.7397 21.665 18.9286C20.4725 21.1175 18.7977 21.4196 18.1511 21.4726L17.7483 26.7938Z" fill="#231F20"/>
<path d="M37.8885 40.5739C37.8885 40.5739 29.912 32.1469 26.7585 28.9775C23.8276 26.0413 15.3052 23.3701 11.4256 27.5783C11.4256 27.5783 5.06557 36.477 3.82007 41.6498L7.53007 43.9341C6.71792 50.0639 6.24021 56.2334 6.09907 62.4152C13.1375 67.9802 31.131 58.9702 31.131 58.9702L29.5039 46.2502L32.4136 49.1652L37.8885 40.5739Z" fill="#388CE0"/>
<path d="M27.8396 22.6224C27.8396 22.6224 26.2496 23.5075 25.5076 21.8857L27.8396 22.6224Z" fill="white"/>
<path d="M26.8908 23.1316C26.7113 23.1304 26.5328 23.1036 26.3608 23.0521C26.1132 22.9633 25.8874 22.8229 25.6982 22.6401C25.5091 22.4574 25.361 22.2365 25.2637 21.9921C25.2491 21.9605 25.2409 21.9262 25.2395 21.8914C25.2381 21.8565 25.2436 21.8217 25.2556 21.789C25.2677 21.7563 25.2861 21.7263 25.3097 21.7006C25.3334 21.675 25.3619 21.6543 25.3936 21.6397C25.4252 21.6251 25.4595 21.6168 25.4943 21.6154C25.5292 21.6141 25.5639 21.6196 25.5967 21.6316C25.6294 21.6437 25.6594 21.6621 25.6851 21.6857C25.7107 21.7094 25.7314 21.7379 25.746 21.7695C25.8145 21.9444 25.9187 22.103 26.0519 22.2353C26.1852 22.3676 26.3445 22.4707 26.5198 22.538C26.921 22.6348 27.3437 22.5801 27.707 22.3843C27.7691 22.3518 27.8414 22.3447 27.9086 22.3645C27.9759 22.3843 28.0328 22.4294 28.0674 22.4903C28.085 22.52 28.0964 22.553 28.1009 22.5873C28.1053 22.6215 28.1028 22.6563 28.0933 22.6895C28.0839 22.7227 28.0678 22.7537 28.0461 22.7805C28.0243 22.8073 27.9973 22.8294 27.9667 22.8454C27.6364 23.0261 27.2673 23.1243 26.8908 23.1316Z" fill="#231F20"/>
<path d="M23.9599 18.6106C23.9233 18.1118 23.749 17.633 23.4564 17.2273C23.2782 16.8844 23.0475 16.5715 22.7727 16.2998C22.635 16.1626 22.4683 16.058 22.2849 15.9938C22.1014 15.9296 21.9059 15.9074 21.7127 15.9288C21.5447 15.9652 21.3863 16.0363 21.2475 16.1376C21.1088 16.2389 20.9928 16.3682 20.9071 16.5171C20.7429 16.8179 20.6453 17.1505 20.6209 17.4923C20.5617 18.2366 20.6984 18.9833 21.0173 19.6584C21.3362 20.3334 21.8263 20.9132 22.4388 21.3401L22.3328 21.2182" fill="white"/>
<path d="M22.4389 21.6107C22.3856 21.6111 22.3336 21.5944 22.2905 21.563C21.6381 21.1088 21.1161 20.4915 20.7767 19.7726C20.4372 19.0538 20.2922 18.2585 20.356 17.4661C20.3847 17.0933 20.4951 16.7314 20.6793 16.4061C20.7814 16.2237 20.922 16.0657 21.0914 15.9431C21.2607 15.8204 21.4546 15.7361 21.6598 15.6959C21.8925 15.6664 22.1289 15.6902 22.3511 15.7655C22.5733 15.8407 22.7755 15.9656 22.9424 16.1305C23.2346 16.4143 23.4813 16.7414 23.6738 17.1004C23.9913 17.5488 24.175 18.0781 24.2038 18.6268C24.2038 18.6971 24.1759 18.7645 24.1262 18.8142C24.0765 18.8639 24.0091 18.8918 23.9388 18.8918C23.8685 18.8918 23.8011 18.8639 23.7514 18.8142C23.7017 18.7645 23.6738 18.6971 23.6738 18.6268C23.6376 18.1762 23.476 17.7448 23.2074 17.3813C23.042 17.0631 22.8293 16.7719 22.5767 16.5174C22.4673 16.4093 22.3358 16.3263 22.1912 16.2742C22.0466 16.222 21.8924 16.2019 21.7393 16.2153C21.6091 16.2437 21.4865 16.2995 21.3795 16.379C21.2726 16.4585 21.1839 16.5599 21.1192 16.6764C20.9735 16.9406 20.8884 17.2339 20.8701 17.535C20.8188 18.1861 20.9266 18.8399 21.1842 19.44C21.4418 20.0402 21.8415 20.5687 22.3488 20.98C22.4163 20.987 22.4788 21.0192 22.5237 21.0701L22.6297 21.192C22.6722 21.2404 22.6956 21.3025 22.6956 21.3669C22.6956 21.4313 22.6722 21.4934 22.6297 21.5418C22.604 21.5652 22.5739 21.5834 22.5411 21.5952C22.5084 21.607 22.4736 21.6123 22.4389 21.6107Z" fill="#231F20"/>
<path d="M23.8911 24.8648C22.9345 24.5147 22.0991 23.8965 21.4849 23.084C21.4849 23.084 21.4849 26.1103 24.0342 27.0855L23.8911 24.8648Z" fill="#231F20"/>
<path d="M24.0341 27.3508H23.9387C21.2463 26.3226 21.2198 23.1108 21.2198 23.1108C21.2189 23.0532 21.2371 22.997 21.2717 22.951C21.3062 22.9049 21.3551 22.8716 21.4106 22.8564C21.466 22.841 21.5249 22.844 21.5785 22.865C21.632 22.8861 21.6772 22.924 21.7074 22.973C22.2883 23.7208 23.0693 24.2887 23.9599 24.6107C24.0086 24.6282 24.0512 24.6596 24.0822 24.7011C24.1133 24.7425 24.1316 24.7922 24.1348 24.8439L24.2779 27.0699C24.28 27.1136 24.2714 27.1572 24.253 27.1969C24.2345 27.2366 24.2067 27.2712 24.1719 27.2978C24.1323 27.329 24.0843 27.3474 24.0341 27.3508ZM21.8399 23.927C21.9344 24.4926 22.1544 25.0299 22.4836 25.4995C22.8128 25.969 23.243 26.3589 23.7426 26.6406L23.6419 25.0506C22.9807 24.7832 22.3709 24.403 21.8399 23.927Z" fill="#231F20"/>
<path d="M29.7263 47.1457C29.6547 47.1455 29.5861 47.1169 29.5355 47.0662C27.5123 44.9764 25.6033 42.779 23.8168 40.4836C23.776 40.4269 23.7587 40.3566 23.7686 40.2874C23.7785 40.2182 23.8148 40.1556 23.8698 40.1126C23.926 40.0704 23.9967 40.0523 24.0663 40.0622C24.1359 40.0722 24.1987 40.1093 24.2408 40.1656C26.0138 42.4446 27.9086 44.6261 29.9171 46.7005C29.9418 46.7247 29.9614 46.7535 29.9748 46.7854C29.9882 46.8172 29.9951 46.8514 29.9951 46.886C29.9951 46.9205 29.9882 46.9547 29.9748 46.9866C29.9614 47.0184 29.9418 47.0473 29.9171 47.0715C29.8924 47.0967 29.8626 47.1163 29.8297 47.1291C29.7968 47.1419 29.7616 47.1475 29.7263 47.1457Z" fill="#231F20"/>
<path d="M17.3086 74.2338C17.2467 74.2366 17.1861 74.2157 17.139 74.1755C17.0012 74.0642 13.8477 71.3771 13.8318 67.1371C13.8318 67.0677 13.859 67.0011 13.9075 66.9515C13.9561 66.902 14.0221 66.8735 14.0915 66.8721C14.126 66.8721 14.1603 66.8789 14.1921 66.8923C14.224 66.9057 14.2528 66.9253 14.277 66.95C14.3012 66.9747 14.3202 67.0039 14.333 67.0361C14.3457 67.0682 14.3519 67.1025 14.3512 67.1371C14.3512 71.128 17.4411 73.7462 17.4729 73.7674C17.5263 73.8135 17.5595 73.8787 17.5654 73.949C17.5713 74.0194 17.5496 74.0892 17.5047 74.1437C17.4797 74.1711 17.4495 74.1932 17.4158 74.2087C17.3821 74.2242 17.3457 74.2327 17.3086 74.2338Z" fill="white"/>
<path d="M27.0036 16.1259C27.0839 15.7419 27.0259 15.405 26.874 15.3732C26.7222 15.3415 26.534 15.627 26.4537 16.0109C26.3734 16.3948 26.4315 16.7318 26.5833 16.7635C26.7352 16.7953 26.9233 16.5098 27.0036 16.1259Z" fill="#231F20"/>
<path d="M7.46631 42.3702H7.42391C7.35484 42.3573 7.29351 42.318 7.25295 42.2606C7.21238 42.2032 7.19576 42.1323 7.20661 42.0628C7.26491 41.6759 8.75421 32.5493 10.429 29.5018C10.4456 29.4711 10.4682 29.444 10.4955 29.4221C10.5227 29.4003 10.5541 29.3842 10.5878 29.3748C10.6214 29.3654 10.6566 29.3629 10.6913 29.3674C10.7259 29.3719 10.7593 29.3834 10.7894 29.4011C10.82 29.4172 10.847 29.4393 10.8688 29.4661C10.8905 29.4929 10.9066 29.5238 10.9161 29.557C10.9255 29.5903 10.928 29.6251 10.9236 29.6593C10.9191 29.6935 10.9077 29.7265 10.8901 29.7562C9.26301 32.7242 7.74191 42.0522 7.71011 42.1476C7.70158 42.2072 7.67261 42.262 7.62813 42.3027C7.58366 42.3433 7.52645 42.3671 7.46631 42.3702Z" fill="#231F20"/>
<path d="M107.255 83.3501C107.322 82.3488 107.109 81.3487 106.64 80.4616C106.253 79.8203 105.659 79.3115 105.341 78.6331C104.811 77.4565 105.177 76.0732 105.05 74.7853C104.935 73.7046 104.459 72.6944 103.698 71.918C103.025 71.2396 102.156 70.7679 101.51 70.0577C100.45 68.8917 100.153 67.254 99.5538 65.8177C98.6946 63.7596 97.2117 62.0228 95.3138 60.8516C96.4639 63.1677 93.8405 66.1145 95.033 68.4094C95.4093 69.1408 96.1247 69.6708 96.4056 70.4446C97.0681 72.3049 94.8474 74.3242 95.5576 76.1739C95.9127 77.0961 96.9038 77.6314 97.3649 78.5059C97.985 79.6825 97.4974 81.1188 97.5451 82.4491C97.614 84.2882 98.7323 85.9312 100.063 87.2191C100.889 88.0088 101.812 88.6978 102.713 89.4133C103.773 90.2719 104.234 91.1676 105.172 89.7949C106.479 87.8952 107.203 85.6553 107.255 83.3501Z" fill="#FF3967"/>
<path d="M108.447 84.4103C108.103 82.9899 107.859 81.4423 108.447 80.1014C109.099 78.5856 110.737 77.5097 110.928 75.8614C111.055 74.8014 110.509 73.6937 110.721 72.6337C110.933 71.5737 111.781 70.8476 112.518 70.0632C114.165 68.2526 115.145 65.9342 115.295 63.4912C116.4 64.8022 117.294 66.2774 117.945 67.8637C118.507 69.4802 118.517 71.3776 117.558 72.798C117.284 73.1281 117.059 73.4958 116.89 73.8898C116.567 74.9498 117.463 75.9144 117.924 76.9108C118.198 77.4779 118.313 78.109 118.256 78.7364C118.199 79.3639 117.972 79.964 117.6 80.4724C116.657 81.6437 114.85 82.0995 114.383 83.5252C114.269 84.0581 114.216 84.6021 114.224 85.147C114.124 86.0907 113.745 86.983 113.135 87.71C112.525 88.437 111.712 88.9655 110.801 89.228C109.693 89.4983 109.714 89.0584 109.513 88.1203C109.232 86.8695 108.76 85.6558 108.447 84.4103Z" fill="#FF3967"/>
<path d="M104.907 74.1762C104.117 71.4467 103.804 68.59 102.972 65.8711C102.264 63.7467 101.399 61.6776 100.386 59.6807L103.773 61.1064C104.859 61.5675 106.036 62.1081 106.55 63.1681C107.44 65.0178 105.84 67.4081 106.778 69.2154C107.184 69.8087 107.632 70.3719 108.119 70.9008C109.115 72.3 108.961 74.2292 108.415 75.8563C108.177 76.5559 107.154 80.1811 106.237 79.1741C105.866 78.7713 105.834 77.2714 105.681 76.7202C105.442 75.8669 105.156 75.0295 104.907 74.1762Z" fill="#FF3967"/>
<path d="M106.788 110.465C106.11 105.997 103.99 90.2399 103.99 90.1021L104.52 90.0332C104.52 90.1922 106.64 105.933 107.334 110.385L106.788 110.465Z" fill="#231F20"/>
<path d="M107.525 114.684H106.995C107.038 109.384 109.242 89.1376 110.514 87.749L110.907 88.1094C110.059 89.0263 107.578 107.423 107.525 114.684Z" fill="#231F20"/>
<path d="M108.675 113.671H108.145C108.675 102.239 106.227 78.2304 106.2 77.9919L106.73 77.9336C106.757 78.1562 109.184 102.202 108.675 113.671Z" fill="#231F20"/>
<path d="M100.953 97.6602H113.567L112.687 111.97C112.534 114.451 110.695 116.374 108.479 116.374H106.041C103.826 116.374 101.992 114.451 101.838 111.97L100.953 97.6602Z" fill="white"/>
<path d="M108.479 116.671H106.041C103.693 116.671 101.727 114.626 101.563 112.013L100.683 97.7026C100.68 97.6654 100.685 97.628 100.697 97.5927C100.709 97.5574 100.729 97.525 100.754 97.4976C100.779 97.4703 100.81 97.4484 100.844 97.4335C100.879 97.4186 100.916 97.411 100.953 97.4111H113.567C113.643 97.4122 113.715 97.4426 113.768 97.4959C113.818 97.5531 113.845 97.6269 113.843 97.7026L112.958 112.013C112.799 114.62 110.832 116.671 108.479 116.671ZM101.245 97.9464L102.108 111.97C102.252 114.297 103.979 116.115 106.041 116.115H108.479C110.541 116.115 112.269 114.297 112.412 111.97L113.276 97.9358L101.245 97.9464Z" fill="#231F20"/>
<path d="M113.615 48.0896H87.6873L93.5331 4.49707H119.461L113.615 48.0896Z" fill="white"/>
<path d="M113.615 48.3705H87.6872C87.6499 48.3708 87.613 48.3629 87.5791 48.3473C87.5452 48.3318 87.5152 48.3089 87.4911 48.2804C87.4653 48.2532 87.4461 48.2204 87.4351 48.1845C87.4241 48.1487 87.4215 48.1108 87.4275 48.0737L93.2575 4.47595C93.2675 4.41273 93.2996 4.35514 93.3482 4.3134C93.3967 4.27167 93.4585 4.24851 93.5225 4.24805H119.45C119.488 4.24838 119.526 4.25656 119.56 4.27206C119.595 4.28757 119.626 4.31007 119.651 4.33815C119.699 4.39797 119.722 4.47392 119.715 4.55015L113.885 48.1427C113.875 48.2068 113.842 48.2651 113.792 48.3069C113.743 48.3488 113.68 48.3714 113.615 48.3705ZM87.9893 47.8405H113.382L119.159 4.77805H93.7663L87.9893 47.8405Z" fill="#231F20"/>
<path d="M109.232 41.6177H94.3388C94.0917 41.6236 93.8465 41.5747 93.6206 41.4746C93.3946 41.3745 93.1937 41.2256 93.0321 41.0387C92.8705 40.8518 92.7522 40.6314 92.6859 40.3934C92.6195 40.1553 92.6066 39.9056 92.6481 39.662L92.8495 38.1409C92.9333 37.607 93.2012 37.1193 93.6068 36.7622C94.0123 36.405 94.53 36.2009 95.0702 36.1852H109.958C110.205 36.1784 110.451 36.2266 110.677 36.3264C110.904 36.4262 111.105 36.5751 111.267 36.7622C111.429 36.9494 111.547 37.1702 111.613 37.4086C111.679 37.647 111.691 37.8972 111.649 38.1409L111.447 39.662C111.365 40.1958 111.099 40.6841 110.694 41.0415C110.289 41.3989 109.772 41.6028 109.232 41.6177Z" fill="#FF3967"/>
<path d="M110.302 33.6097H95.4145C95.1672 33.6165 94.9215 33.5683 94.6951 33.4685C94.4687 33.3687 94.2673 33.2199 94.1055 33.0327C93.9437 32.8455 93.8255 32.6248 93.7595 32.3863C93.6935 32.1479 93.6813 31.8978 93.7238 31.654L93.9252 30.1329C94.0071 29.5982 94.2744 29.1093 94.6804 28.7518C95.0864 28.3943 95.6051 28.1909 96.1459 28.1772H111.034C111.281 28.1714 111.526 28.2202 111.752 28.3204C111.978 28.4205 112.179 28.5693 112.34 28.7562C112.502 28.9432 112.62 29.1636 112.687 29.4016C112.753 29.6396 112.766 29.8893 112.724 30.1329L112.523 31.654C112.439 32.1879 112.171 32.6756 111.766 33.0328C111.36 33.3899 110.842 33.594 110.302 33.6097Z" fill="white"/>
<path d="M110.302 33.8751H95.4145C95.1319 33.8801 94.8516 33.824 94.5927 33.7105C94.3338 33.5971 94.1025 33.429 93.9146 33.2179C93.7289 33.0011 93.5921 32.7469 93.5135 32.4725C93.4348 32.1982 93.4162 31.9101 93.4588 31.6279L93.6655 30.1068C93.7583 29.5101 94.0573 28.9649 94.5105 28.566C94.9637 28.167 95.5424 27.9395 96.1459 27.9232H111.034C111.316 27.9181 111.597 27.9743 111.855 28.0877C112.114 28.2011 112.346 28.3692 112.534 28.5804C112.719 28.7975 112.855 29.0517 112.934 29.326C113.012 29.6002 113.031 29.8882 112.989 30.1704L112.783 31.6915C112.69 32.2881 112.391 32.8333 111.938 33.2323C111.485 33.6312 110.906 33.8587 110.302 33.8751ZM96.1459 28.4426C95.6699 28.4555 95.2136 28.635 94.8562 28.9497C94.4989 29.2645 94.2632 29.6945 94.1902 30.1651L93.9835 31.6862C93.9509 31.8952 93.9633 32.1088 94.02 32.3127C94.0767 32.5165 94.1763 32.7059 94.3121 32.8681C94.4508 33.0222 94.621 33.1445 94.8113 33.2268C95.0015 33.3092 95.2073 33.3495 95.4145 33.3451H110.302C110.779 33.3319 111.236 33.1517 111.593 32.8359C111.951 32.5201 112.186 32.0888 112.258 31.6173L112.465 30.0962C112.498 29.8867 112.485 29.6726 112.427 29.4686C112.37 29.2646 112.268 29.0755 112.131 28.9143C111.992 28.7615 111.823 28.6404 111.634 28.559C111.444 28.4776 111.24 28.4379 111.034 28.4426H96.1459Z" fill="#D1D3D4"/>
<path d="M111.378 25.5806H96.4906C96.2431 25.5872 95.9972 25.5389 95.7707 25.4392C95.5441 25.3394 95.3425 25.1907 95.1803 25.0036C95.0181 24.8166 94.8994 24.596 94.8327 24.3575C94.766 24.1191 94.753 23.8689 94.7946 23.6249L95.0013 22.1038C95.082 21.5695 95.3483 21.0807 95.7534 20.7231C96.1585 20.3655 96.6765 20.1619 97.2167 20.1481H112.104C112.352 20.1414 112.598 20.1897 112.824 20.2895C113.051 20.3892 113.253 20.538 113.415 20.725C113.577 20.912 113.696 21.1327 113.762 21.3711C113.829 21.6095 113.842 21.8597 113.8 22.1038L113.594 23.6249C113.513 24.1591 113.247 24.6479 112.842 25.0055C112.437 25.3631 111.918 25.5667 111.378 25.5806Z" fill="white"/>
<path d="M111.378 25.8615H96.4906C96.2051 25.8687 95.9216 25.8126 95.6604 25.6972C95.3992 25.5818 95.1668 25.4101 94.9799 25.1942C94.7929 24.9784 94.656 24.7238 94.5791 24.4489C94.5022 24.1739 94.4871 23.8853 94.5349 23.6037L94.7363 22.0826C94.83 21.4865 95.1293 20.9418 95.5823 20.5431C96.0352 20.1443 96.6134 19.9165 97.2167 19.899H112.104C112.39 19.8919 112.673 19.948 112.935 20.0634C113.196 20.1788 113.428 20.3505 113.615 20.5664C113.802 20.7822 113.939 21.0367 114.016 21.3117C114.093 21.5867 114.108 21.8753 114.06 22.1568L113.859 23.6779C113.765 24.2741 113.466 24.8188 113.013 25.2175C112.56 25.6163 111.982 25.8441 111.378 25.8615ZM97.2167 20.429C96.7402 20.4433 96.2838 20.6238 95.9265 20.9394C95.5693 21.255 95.3338 21.6858 95.261 22.1568L95.0596 23.6779C95.0274 23.8862 95.04 24.0988 95.0967 24.3018C95.1534 24.5047 95.2527 24.6932 95.3882 24.8545C95.5268 25.0086 95.6971 25.131 95.8873 25.2133C96.0776 25.2956 96.2833 25.336 96.4906 25.3315H111.378C111.855 25.3173 112.311 25.1368 112.668 24.8211C113.026 24.5055 113.261 24.0748 113.334 23.6037L113.53 22.0826C113.567 21.8763 113.558 21.6641 113.503 21.4618C113.447 21.2595 113.347 21.0722 113.21 20.9136C113.073 20.755 112.902 20.6292 112.71 20.5453C112.517 20.4615 112.309 20.4217 112.099 20.429H97.2167Z" fill="#D1D3D4"/>
<path d="M112.47 17.5826H97.5771C97.33 17.5884 97.0848 17.5395 96.8588 17.4394C96.6329 17.3393 96.432 17.1905 96.2704 17.0035C96.1088 16.8166 95.9905 16.5962 95.9241 16.3582C95.8577 16.1202 95.8448 15.8704 95.8864 15.6268L96.0878 14.1057C96.1706 13.5715 96.4383 13.0832 96.844 12.7258C97.2498 12.3685 97.768 12.1647 98.3085 12.15H113.196C113.443 12.1432 113.689 12.1915 113.916 12.2913C114.142 12.391 114.343 12.5399 114.505 12.7271C114.667 12.9142 114.785 13.135 114.851 13.3735C114.917 13.6119 114.929 13.862 114.887 14.1057L114.685 15.6268C114.604 16.1607 114.337 16.6489 113.932 17.0063C113.527 17.3637 113.01 17.5677 112.47 17.5826Z" fill="white"/>
<path d="M112.47 17.8473H97.577C97.2882 17.8577 97.0006 17.8042 96.7349 17.6906C96.4692 17.577 96.2319 17.4061 96.04 17.19C95.8552 16.9727 95.7189 16.7185 95.6403 16.4443C95.5617 16.1701 95.5426 15.8822 95.5842 15.6L95.7909 14.079C95.8825 13.4814 96.181 12.9349 96.6343 12.5349C97.0876 12.1349 97.6669 11.9067 98.2713 11.89H113.159C113.442 11.8843 113.722 11.9401 113.981 12.0536C114.24 12.1671 114.471 12.3355 114.659 12.5472C114.845 12.764 114.981 13.0182 115.06 13.2926C115.139 13.5669 115.157 13.855 115.115 14.1373L114.913 15.6583C114.822 16.2494 114.529 16.7906 114.083 17.1897C113.638 17.5888 113.068 17.8212 112.47 17.8473ZM98.2925 12.4147C97.816 12.429 97.3595 12.6095 97.0023 12.9251C96.6451 13.2408 96.4096 13.6715 96.3368 14.1425L96.1354 15.6637C96.0981 15.8696 96.1074 16.0812 96.1625 16.2831C96.2176 16.485 96.3171 16.672 96.4537 16.8305C96.5904 16.989 96.7607 17.115 96.9523 17.1992C97.1439 17.2834 97.3519 17.3237 97.5611 17.3173H112.47C112.945 17.3031 113.4 17.123 113.756 16.8084C114.113 16.4938 114.348 16.0644 114.42 15.5948L114.627 14.0737C114.66 13.8646 114.647 13.651 114.591 13.4472C114.534 13.2433 114.434 13.0539 114.298 12.8918C114.16 12.7377 113.99 12.6153 113.799 12.533C113.609 12.4506 113.403 12.4103 113.196 12.4147H98.2925Z" fill="#D1D3D4"/>
<path d="M111.85 8.84836H100.434C100.363 8.84836 100.296 8.82044 100.246 8.77074C100.197 8.72105 100.169 8.65364 100.169 8.58336C100.17 8.5135 100.198 8.44688 100.248 8.39748C100.297 8.34807 100.364 8.31972 100.434 8.31836H111.85C111.92 8.31836 111.988 8.34628 112.037 8.39598C112.087 8.44567 112.115 8.51308 112.115 8.58336C112.115 8.61816 112.108 8.65262 112.095 8.68477C112.081 8.71692 112.062 8.74614 112.037 8.77074C112.013 8.79535 111.983 8.81487 111.951 8.82819C111.919 8.84151 111.885 8.84836 111.85 8.84836Z" fill="#D1D3D4"/>
</svg>
