<svg width="40" height="40" viewBox="0 0 40 40" fill="none" xmlns="http://www.w3.org/2000/svg">
<rect x="0.5" y="0.5" width="39" height="39" rx="9.5" fill="white" stroke="#DEE2E6"/>
<path d="M23 26C23 27.6569 21.6569 29 20 29C18.3431 29 17 27.6569 17 26M26 16.6C26 15.1148 25.3679 13.6904 24.2426 12.6402C23.1174 11.59 21.5913 11 20 11C18.4087 11 16.8826 11.59 15.7574 12.6402C14.6321 13.6904 14 15.1148 14 16.6C14 19.2862 13.3238 21.1835 12.5275 22.4866C11.7562 23.7486 11.3705 24.3797 11.3848 24.5436C11.401 24.7277 11.4373 24.7925 11.586 24.9023C11.7184 25 12.3476 25 13.6061 25H26.3939C27.6524 25 28.2816 25 28.414 24.9023C28.5627 24.7925 28.599 24.7277 28.6152 24.5436C28.6295 24.3797 28.2438 23.7486 27.4725 22.4866C26.6762 21.1835 26 19.2862 26 16.6Z" stroke="#959EA2" stroke-width="2" stroke-linecap="round" stroke-linejoin="round"/>
</svg>
