<svg width="185" height="139" viewBox="0 0 185 139" fill="none" xmlns="http://www.w3.org/2000/svg">
<path d="M62.8623 105.397C61.9729 113.374 59.4751 124.019 58.3277 128.006H69.996L77.1527 127.139C77.1527 127.139 78.8117 111.586 79.8532 108.181C80.8947 104.775 80.0882 72.2817 80.1205 71.9545C80.1527 71.6273 62.5858 79.6043 60.8346 87.1989C60.1572 90.1574 63.1618 102.706 62.8623 105.397Z" fill="white"/>
<path d="M58.3277 128.236C58.2918 128.237 58.2562 128.229 58.2241 128.213C58.192 128.197 58.1643 128.173 58.1433 128.144C58.1225 128.115 58.1084 128.082 58.102 128.047C58.0956 128.012 58.0971 127.976 58.1065 127.941C59.2493 123.96 61.7563 113.25 62.6318 105.36C62.7609 104.199 62.2401 101.052 61.7102 97.7243C60.9867 93.351 60.2401 88.8302 60.6318 87.1251C62.3139 79.8071 79.0237 71.6918 80.1389 71.6918C80.1987 71.702 80.2526 71.734 80.2901 71.7817C80.3276 71.8294 80.346 71.8894 80.3417 71.9499C80.3417 72.019 80.3417 72.8992 80.3785 74.1158C80.5214 81.8302 80.9546 105.3 80.0652 108.217C79.0467 111.563 77.3923 126.973 77.3785 127.112C77.3726 127.163 77.3493 127.212 77.3125 127.248C77.2757 127.285 77.2275 127.308 77.1757 127.314L70.0466 128.236H58.3277ZM58.6318 127.775H69.996L76.9591 126.932C77.1573 125.089 78.6642 111.342 79.6504 108.111C80.2265 106.222 80.3232 94.798 79.9407 74.1527C79.9407 73.1066 79.9131 72.5444 79.9085 72.2448C77.7933 73.0329 62.701 80.2172 61.0788 87.2542C60.7102 88.8533 61.4844 93.5307 62.1664 97.6552C62.7194 101.019 63.2447 104.199 63.0881 105.42C62.2125 113.144 59.8162 123.568 58.6318 127.775Z" fill="#231F20"/>
<path d="M58.0189 116.112L59.0558 109.204L80.1896 112.923L79.337 120.388L58.0189 116.112Z" fill="white"/>
<path d="M79.3417 120.618H79.2956L57.9728 116.342C57.9151 116.329 57.8642 116.295 57.8302 116.246C57.7961 116.198 57.7813 116.138 57.7885 116.079L58.83 109.167C58.8345 109.137 58.845 109.108 58.8608 109.081C58.8766 109.055 58.8975 109.033 58.9221 109.015C58.9472 108.997 58.9755 108.984 59.0056 108.977C59.0356 108.969 59.0668 108.968 59.0973 108.973L80.2265 112.697C80.284 112.706 80.3357 112.737 80.3709 112.783C80.4061 112.83 80.4221 112.888 80.4154 112.946L79.5675 120.416C79.5639 120.447 79.5538 120.478 79.538 120.506C79.5222 120.534 79.5008 120.558 79.4753 120.577C79.4359 120.604 79.3893 120.618 79.3417 120.618ZM58.277 115.927L79.1389 120.116L79.9361 113.112L59.2493 109.471L58.277 115.927Z" fill="#231F20"/>
<path d="M80.7288 128.006L81.1804 117.425L57.0604 112.697L53.8438 128.006H80.7288Z" fill="#FF3967"/>
<path d="M80.7288 128.236H53.8437C53.8095 128.236 53.7756 128.229 53.7445 128.215C53.7134 128.201 53.6859 128.179 53.664 128.153C53.6432 128.126 53.6283 128.095 53.6204 128.061C53.6124 128.028 53.6116 127.993 53.6179 127.96L56.8438 112.651C56.8487 112.621 56.8596 112.592 56.8759 112.567C56.8922 112.542 56.9136 112.52 56.9386 112.503C56.9636 112.486 56.9919 112.475 57.0215 112.469C57.0512 112.464 57.0816 112.464 57.1111 112.471L81.2357 117.199C81.2902 117.208 81.3394 117.237 81.3735 117.281C81.4076 117.324 81.4242 117.379 81.42 117.434L80.9592 128.033C80.9514 128.089 80.9239 128.14 80.8816 128.178C80.8394 128.215 80.7851 128.236 80.7288 128.236ZM54.1295 127.775H80.5076L80.9684 117.609L57.2631 112.964L54.1295 127.775Z" fill="#231F20"/>
<path d="M117.626 12.0599L55.462 34.6978L85.5288 117.261L147.692 94.6227L117.626 12.0599Z" fill="white"/>
<path d="M85.5307 117.485C85.4833 117.485 85.4371 117.47 85.3984 117.443C85.3596 117.416 85.3302 117.377 85.3141 117.333L55.2447 34.7745C55.2239 34.717 55.2268 34.6537 55.2528 34.5984C55.2787 34.5431 55.3255 34.5003 55.3829 34.4795L117.545 11.8388C117.573 11.8277 117.604 11.8223 117.634 11.8231C117.665 11.8238 117.695 11.8306 117.722 11.843C117.75 11.8554 117.775 11.8733 117.796 11.8955C117.817 11.9177 117.834 11.9439 117.844 11.9724L147.927 94.5353C147.951 94.5914 147.951 94.6544 147.927 94.7105C147.915 94.7382 147.898 94.7631 147.875 94.7838C147.853 94.8044 147.827 94.8202 147.798 94.8303L85.632 117.471C85.5998 117.484 85.5651 117.488 85.5307 117.485ZM55.7608 34.8298L85.6689 116.959L147.421 94.4754L117.512 12.3503L55.7608 34.8298Z" fill="#231F20"/>
<path d="M115.758 11.7101L53.5947 34.3481L83.6614 116.911L145.825 94.2729L115.758 11.7101Z" fill="white"/>
<path d="M83.6643 117.135C83.6173 117.136 83.5712 117.122 83.5324 117.096C83.4936 117.069 83.464 117.031 83.4477 116.987L53.3783 34.4242C53.3674 34.3959 53.3623 34.3655 53.3634 34.3351C53.3645 34.3047 53.3717 34.2749 53.3846 34.2473C53.3975 34.2198 53.4159 34.1951 53.4385 34.1748C53.4612 34.1546 53.4877 34.1391 53.5166 34.1293L115.669 11.4886C115.698 11.4776 115.728 11.4726 115.758 11.4737C115.789 11.4747 115.819 11.4819 115.846 11.4949C115.874 11.5078 115.898 11.5261 115.919 11.5488C115.939 11.5715 115.954 11.598 115.964 11.6268L146.033 94.1851C146.044 94.2135 146.049 94.2438 146.048 94.2742C146.047 94.3046 146.04 94.3345 146.027 94.362C146.014 94.3896 145.996 94.4142 145.973 94.4345C145.951 94.4548 145.924 94.4703 145.895 94.48L83.7426 117.121L83.6643 117.135ZM53.8898 34.4842L83.8025 116.591L145.554 94.1068L115.618 11.9817L53.8898 34.4842Z" fill="#231F20"/>
<path d="M113.829 10.546L51.6411 33.0394L81.5159 115.634L143.704 93.141L113.829 10.546Z" fill="white"/>
<path d="M81.7288 115.669C81.6821 115.669 81.6366 115.655 81.598 115.628C81.5595 115.602 81.5296 115.565 81.5122 115.522L51.4428 32.9634C51.4221 32.906 51.425 32.8426 51.4509 32.7873C51.4768 32.732 51.5236 32.6893 51.5811 32.6685L113.747 10.0277C113.804 10.0047 113.867 10.0047 113.923 10.0277C113.978 10.0554 114.021 10.1032 114.042 10.1614L144.112 92.7197C144.133 92.7771 144.13 92.8404 144.104 92.8957C144.078 92.951 144.031 92.9938 143.974 93.0146L81.8071 115.669C81.7812 115.674 81.7547 115.674 81.7288 115.669ZM51.9543 33.0233L81.867 115.148L143.619 92.6644L113.688 10.5392L51.9543 33.0233Z" fill="#231F20"/>
<path d="M79.9065 30.7814L62.8521 36.95L70.3008 57.5435L87.3553 51.3749L79.9065 30.7814Z" fill="white"/>
<path d="M79.9453 30.5809L87.4431 51.1525L70.3923 57.3599L62.8991 36.7883L79.95 30.5809M79.95 30.1201C79.8965 30.1201 79.8435 30.1295 79.7933 30.1477L62.7424 36.3551C62.685 36.3757 62.6322 36.4075 62.5871 36.4486C62.542 36.4897 62.5055 36.5394 62.4798 36.5948C62.4563 36.651 62.4442 36.7113 62.4442 36.7722C62.4442 36.8331 62.4563 36.8934 62.4798 36.9496L69.9775 57.535C70.0105 57.6232 70.0697 57.6992 70.1471 57.7528C70.2246 57.8063 70.3165 57.8349 70.4107 57.8346C70.4641 57.8345 70.5172 57.8252 70.5674 57.8069L87.6182 51.5995C87.7331 51.5579 87.8267 51.4724 87.8786 51.3618C87.9304 51.2512 87.9362 51.1245 87.8947 51.0096L80.3785 30.415C80.3463 30.3259 80.2875 30.2489 80.21 30.1945C80.1325 30.1401 80.0401 30.1109 79.9453 30.1108L79.95 30.1201Z" fill="#231F20"/>
<path d="M87.9777 31.3367C87.9166 31.3477 87.8536 31.3339 87.8026 31.2985C87.7516 31.2631 87.7168 31.2088 87.7058 31.1477C87.6948 31.0866 87.7085 31.0236 87.7439 30.9726C87.7794 30.9216 87.8336 30.8868 87.8947 30.8758L100.6 26.2675C100.628 26.2569 100.659 26.252 100.689 26.2531C100.719 26.2542 100.749 26.2613 100.777 26.2739C100.804 26.2865 100.829 26.3045 100.85 26.3267C100.87 26.3489 100.887 26.375 100.897 26.4034C100.908 26.4319 100.913 26.4621 100.912 26.4925C100.91 26.5228 100.903 26.5526 100.891 26.5802C100.878 26.6078 100.86 26.6327 100.838 26.6533C100.816 26.674 100.79 26.6901 100.761 26.7007L88.056 31.3367H87.9777Z" fill="#231F20"/>
<path d="M89.7334 36.1754C89.6863 36.1747 89.6403 36.1599 89.6017 36.1327C89.5631 36.1056 89.5335 36.0675 89.5169 36.0233C89.5059 35.9949 89.5009 35.9646 89.5019 35.9342C89.503 35.9038 89.5102 35.8739 89.5231 35.8464C89.5361 35.8188 89.5544 35.7942 89.5771 35.7739C89.5998 35.7536 89.6263 35.7381 89.6551 35.7284L107.835 29.1062C107.892 29.0855 107.956 29.0884 108.011 29.1143C108.066 29.1402 108.109 29.187 108.13 29.2445C108.151 29.3013 108.149 29.3641 108.124 29.4194C108.099 29.4746 108.053 29.5177 107.996 29.5394L89.8118 36.1616C89.7867 36.1706 89.7602 36.1753 89.7334 36.1754Z" fill="#231F20"/>
<path d="M91.4892 41.0141C91.4422 41.0129 91.3966 40.9978 91.358 40.9707C91.3195 40.9437 91.2898 40.9059 91.2726 40.8621C91.2519 40.8046 91.2548 40.7413 91.2807 40.686C91.3066 40.6307 91.3535 40.5879 91.4109 40.5671L99.6137 37.5763C99.6712 37.5556 99.7345 37.5585 99.7898 37.5844C99.8451 37.6103 99.8879 37.6571 99.9087 37.7146C99.9196 37.743 99.9246 37.7733 99.9236 37.8037C99.9225 37.8341 99.9153 37.864 99.9024 37.8915C99.8894 37.919 99.8711 37.9437 99.8484 37.964C99.8257 37.9843 99.7992 37.9997 99.7704 38.0095L91.5676 41.0003C91.5425 41.0097 91.516 41.0144 91.4892 41.0141Z" fill="#231F20"/>
<path d="M102.909 36.839C102.861 36.8397 102.815 36.8253 102.776 36.798C102.737 36.7707 102.708 36.7319 102.692 36.6869C102.671 36.6295 102.674 36.5662 102.7 36.5109C102.726 36.4556 102.773 36.4128 102.83 36.392L111.033 33.4058C111.09 33.387 111.152 33.3912 111.206 33.4174C111.26 33.4436 111.302 33.4898 111.322 33.5462C111.342 33.6026 111.34 33.6648 111.315 33.7194C111.291 33.7741 111.246 33.817 111.19 33.839L102.987 36.8252C102.962 36.8342 102.935 36.8389 102.909 36.839Z" fill="#231F20"/>
<path d="M93.2496 45.8252C93.1885 45.8362 93.1255 45.8225 93.0745 45.7871C93.0235 45.7517 92.9887 45.6974 92.9777 45.6363C92.9667 45.5752 92.9804 45.5122 93.0159 45.4612C93.0513 45.4102 93.1056 45.3754 93.1667 45.3644L105.872 40.7561C105.929 40.7353 105.993 40.7382 106.048 40.7642C106.103 40.7901 106.146 40.8369 106.167 40.8943C106.178 40.9224 106.183 40.9525 106.182 40.9826C106.182 41.0128 106.175 41.0425 106.162 41.07C106.15 41.0975 106.132 41.1222 106.11 41.1427C106.088 41.1632 106.062 41.179 106.033 41.1893L93.328 45.7976L93.2496 45.8252Z" fill="#D1D3D4"/>
<path d="M80.8855 60.8899C80.8378 60.8913 80.7909 60.8772 80.7519 60.8498C80.7129 60.8224 80.6837 60.7831 80.6689 60.7378C80.6481 60.6804 80.651 60.617 80.6769 60.5617C80.7029 60.5064 80.7497 60.4637 80.8071 60.4429L93.351 55.876C93.408 55.8572 93.47 55.8614 93.5239 55.8876C93.5779 55.9138 93.6195 55.96 93.6399 56.0165C93.6603 56.0729 93.6579 56.135 93.6332 56.1897C93.6085 56.2443 93.5635 56.2872 93.5077 56.3092L80.9638 60.8761L80.8855 60.8899Z" fill="#D1D3D4"/>
<path d="M80.2399 66.91L74.6107 68.96L76.2507 73.4633L81.8799 71.4133L80.2399 66.91Z" fill="white"/>
<path d="M76.2541 73.6872C76.2222 73.6938 76.1892 73.6938 76.1573 73.6872C76.1032 73.6599 76.0607 73.6141 76.0375 73.5582L74.3969 69.0512C74.3762 68.9938 74.3791 68.9305 74.405 68.8752C74.4309 68.8199 74.4777 68.7771 74.5352 68.7563L80.185 66.6872C80.2411 66.6641 80.304 66.6641 80.3601 66.6872C80.4142 66.7145 80.4567 66.7603 80.4799 66.8162L82.1205 71.3185C82.1412 71.376 82.1383 71.4393 82.1124 71.4946C82.0865 71.5499 82.0397 71.5927 81.9822 71.6135L76.3508 73.6642C76.3208 73.6793 76.2877 73.6872 76.2541 73.6872ZM74.9084 69.0789L76.3923 73.1481L81.5905 71.2586L80.1066 67.1849L74.9084 69.0789Z" fill="#231F20"/>
<path d="M77.1638 58.8418L71.5347 60.8918L73.1746 65.3952L78.8038 63.3452L77.1638 58.8418Z" fill="white"/>
<path d="M73.1757 65.6226C73.1287 65.6214 73.083 65.6063 73.0445 65.5792C73.006 65.5522 72.9763 65.5144 72.9591 65.4706L71.3185 60.9682C71.2978 60.9108 71.3007 60.8475 71.3266 60.7922C71.3525 60.7369 71.3994 60.6941 71.4568 60.6733L77.0882 58.6226C77.1456 58.6018 77.209 58.6047 77.2643 58.6307C77.3196 58.6566 77.3623 58.7034 77.3831 58.7608L79.0237 63.2632C79.0444 63.3206 79.0415 63.384 79.0156 63.4393C78.9897 63.4946 78.9429 63.5373 78.8854 63.5581L73.2725 65.6088C73.2417 65.6207 73.2086 65.6255 73.1757 65.6226ZM71.8301 61.0143L73.314 65.0881L78.5122 63.1941L77.0283 59.1249L71.8301 61.0143Z" fill="#231F20"/>
<path d="M83.6366 68.4522C83.5896 68.4509 83.5439 68.4358 83.5054 68.4087C83.4669 68.3817 83.4372 68.3439 83.42 68.3001C83.3993 68.2426 83.4022 68.1793 83.4281 68.124C83.454 68.0687 83.5009 68.026 83.5583 68.0052L96.1022 63.4337C96.1596 63.4129 96.2229 63.4158 96.2783 63.4418C96.3336 63.4677 96.3763 63.5145 96.3971 63.5719C96.408 63.6003 96.4131 63.6306 96.412 63.661C96.4109 63.6914 96.4037 63.7213 96.3908 63.7489C96.3779 63.7764 96.3596 63.8011 96.3369 63.8213C96.3142 63.8416 96.2877 63.8571 96.2589 63.8669L83.715 68.4383C83.6899 68.4477 83.6634 68.4524 83.6366 68.4522Z" fill="#D1D3D4"/>
<path d="M103.785 49.7727L98.1563 51.8226L99.7962 56.326L105.425 54.276L103.785 49.7727Z" fill="white"/>
<path d="M99.7981 56.5534C99.7507 56.5534 99.7045 56.5388 99.6658 56.5116C99.627 56.4844 99.5976 56.4459 99.5815 56.4014L97.9409 51.899C97.9284 51.8715 97.922 51.8417 97.922 51.8115C97.922 51.7813 97.9284 51.7514 97.9409 51.7239C97.9523 51.6957 97.9698 51.6703 97.9921 51.6496C98.0144 51.6289 98.0409 51.6134 98.0699 51.6041L103.687 49.5534C103.745 49.5326 103.808 49.5355 103.864 49.5615C103.919 49.5874 103.962 49.6342 103.982 49.6916L105.623 54.194C105.634 54.2224 105.639 54.2527 105.638 54.2831C105.637 54.3135 105.63 54.3433 105.617 54.3709C105.604 54.3984 105.585 54.4231 105.563 54.4434C105.54 54.4637 105.514 54.4791 105.485 54.4889L99.858 56.5396L99.7981 56.5534ZM98.4524 51.9451L99.9363 56.0143L105.13 54.1202L103.646 50.0511L98.4524 51.9451Z" fill="#231F20"/>
<path d="M107.181 51.3138C107.133 51.3152 107.086 51.3011 107.047 51.2737C107.008 51.2463 106.979 51.207 106.964 51.1617C106.943 51.1043 106.946 51.0409 106.972 50.9856C106.998 50.9303 107.045 50.8876 107.102 50.8668L119.646 46.2999C119.703 46.2811 119.765 46.2853 119.819 46.3115C119.873 46.3377 119.915 46.3839 119.935 46.4403C119.955 46.4967 119.953 46.5589 119.928 46.6136C119.904 46.6682 119.859 46.7111 119.803 46.7331L107.259 51.2999L107.181 51.3138Z" fill="#D1D3D4"/>
<path d="M106.537 57.3336L100.908 59.3836L102.548 63.8869L108.177 61.837L106.537 57.3336Z" fill="white"/>
<path d="M102.549 64.1111C102.502 64.1111 102.456 64.0965 102.417 64.0693C102.378 64.0421 102.349 64.0036 102.333 63.959L100.692 59.4475C100.671 59.39 100.674 59.3267 100.7 59.2714C100.726 59.2161 100.773 59.1733 100.83 59.1525L106.452 57.111C106.51 57.0915 106.573 57.095 106.628 57.1208C106.683 57.1466 106.726 57.1926 106.747 57.2493L108.388 61.7516C108.411 61.8077 108.411 61.8707 108.388 61.9268C108.362 61.9819 108.316 62.0249 108.259 62.0466L102.628 64.0973C102.603 64.1067 102.576 64.1114 102.549 64.1111ZM101.204 59.5028L102.687 63.5719L107.881 61.6825L106.402 57.6041L101.204 59.5028Z" fill="#231F20"/>
<path d="M109.932 58.8715C109.884 58.8721 109.838 58.8578 109.799 58.8305C109.76 58.8032 109.731 58.7643 109.715 58.7194C109.696 58.6619 109.699 58.5991 109.725 58.5441C109.751 58.4891 109.797 58.4462 109.853 58.4244L122.397 53.8576C122.454 53.8388 122.516 53.8429 122.57 53.8692C122.624 53.8954 122.666 53.9416 122.686 53.998C122.707 54.0544 122.704 54.1166 122.68 54.1712C122.655 54.2259 122.61 54.2688 122.554 54.2908L110.01 58.8576C109.985 58.867 109.959 58.8717 109.932 58.8715Z" fill="#D1D3D4"/>
<path d="M125.522 62.4411L78.4795 79.5725L83.6628 93.8057L130.705 76.6743L125.522 62.4411Z" fill="white"/>
<path d="M83.6643 94.033C83.6305 94.0341 83.5971 94.0262 83.5675 94.01C83.5398 93.9978 83.5148 93.9801 83.4942 93.9579C83.4736 93.9357 83.4578 93.9095 83.4477 93.8809L78.2633 79.6504C78.2405 79.5927 78.2405 79.5284 78.2633 79.4707C78.2762 79.4439 78.2942 79.42 78.3164 79.4002C78.3385 79.3805 78.3643 79.3653 78.3924 79.3555L125.443 62.2125C125.472 62.2016 125.502 62.1965 125.533 62.1976C125.563 62.1986 125.593 62.2058 125.62 62.2188C125.648 62.2317 125.673 62.25 125.693 62.2727C125.713 62.2954 125.729 62.3219 125.738 62.3507L130.923 76.5905C130.946 76.6466 130.946 76.7095 130.923 76.7656C130.911 76.7938 130.894 76.8192 130.872 76.8399C130.849 76.8606 130.823 76.8761 130.794 76.8854L83.7426 94.01C83.7182 94.0226 83.6916 94.0304 83.6643 94.033ZM78.7748 79.7241L83.8025 93.5261L130.416 76.5306L125.388 62.7332L78.7748 79.7241Z" fill="#231F20"/>
<path d="M79.5951 82.8578C79.534 82.8682 79.4713 82.8539 79.4207 82.818C79.3702 82.7821 79.3359 82.7277 79.3255 82.6666C79.3151 82.6054 79.3295 82.5427 79.3653 82.4922C79.4012 82.4416 79.4557 82.4074 79.5168 82.397L126.554 65.2632C126.582 65.2526 126.613 65.2477 126.643 65.2488C126.673 65.2499 126.703 65.257 126.731 65.2696C126.758 65.2822 126.783 65.3002 126.804 65.3224C126.825 65.3446 126.841 65.3707 126.851 65.3991C126.862 65.4276 126.867 65.4578 126.866 65.4882C126.865 65.5185 126.857 65.5483 126.845 65.5759C126.832 65.6035 126.814 65.6284 126.792 65.649C126.77 65.6697 126.744 65.6858 126.715 65.6964L79.6735 82.844L79.5951 82.8578Z" fill="#231F20"/>
<path d="M96.692 89.2865C96.6452 89.2868 96.5994 89.2729 96.5607 89.2465C96.522 89.2202 96.4923 89.1827 96.4754 89.139L91.2911 74.9038C91.2798 74.8752 91.2743 74.8446 91.2751 74.8138C91.2758 74.783 91.2828 74.7526 91.2954 74.7245C91.3081 74.6965 91.3263 74.6712 91.3489 74.6503C91.3715 74.6294 91.3981 74.6132 91.4271 74.6027C91.456 74.5922 91.4868 74.5877 91.5176 74.5893C91.5483 74.5909 91.5785 74.5987 91.6062 74.6121C91.6339 74.6256 91.6586 74.6445 91.6789 74.6677C91.6992 74.6909 91.7146 74.7179 91.7242 74.7472L96.9086 88.9777C96.9294 89.0351 96.9265 89.0985 96.9005 89.1538C96.8746 89.2091 96.8278 89.2518 96.7704 89.2726C96.7459 89.2839 96.7189 89.2887 96.692 89.2865Z" fill="#231F20"/>
<path d="M116.328 96.4386C116.267 96.449 116.204 96.4347 116.154 96.3988C116.103 96.3629 116.069 96.3085 116.059 96.2473C116.048 96.1862 116.062 96.1235 116.098 96.0729C116.134 96.0224 116.189 95.9881 116.25 95.9778L135.227 89.0653C135.284 89.0465 135.346 89.0506 135.4 89.0768C135.454 89.1031 135.495 89.1493 135.516 89.2057C135.536 89.2621 135.534 89.3242 135.509 89.3789C135.484 89.4336 135.439 89.4765 135.384 89.4984L116.407 96.4109L116.328 96.4386Z" fill="#D1D3D4"/>
<path d="M85.2772 98.457C85.2161 98.4674 85.1534 98.4531 85.1028 98.4172C85.0522 98.3814 85.018 98.3269 85.0076 98.2658C84.9972 98.2047 85.0115 98.1419 85.0474 98.0914C85.0833 98.0408 85.1377 98.0066 85.1989 97.9962L132.259 80.8762C132.288 80.8656 132.318 80.8607 132.348 80.8618C132.379 80.8629 132.408 80.87 132.436 80.8826C132.464 80.8953 132.488 80.9132 132.509 80.9354C132.53 80.9576 132.546 80.9837 132.556 81.0122C132.567 81.0406 132.572 81.0709 132.571 81.1012C132.57 81.1315 132.563 81.1613 132.55 81.1889C132.537 81.2165 132.519 81.2414 132.497 81.2621C132.475 81.2827 132.449 81.2988 132.42 81.3094L85.3555 98.4432L85.2772 98.457Z" fill="#D1D3D4"/>
<path d="M85.2772 45.2215L87.4431 51.1663L70.3923 57.3737L68.2263 51.4336C69.3554 49.1709 71.6227 47.7147 73.6688 46.7561C74.4522 46.3875 75.208 46.0971 75.8531 45.8621L76.0052 45.8068C76.6043 45.5902 77.3048 45.346 78.0651 45.1524H78.1066C80.291 44.558 82.95 44.24 85.2772 45.2215Z" fill="#388CE0"/>
<path d="M78.5767 46.2631L78.9914 52.4014L79.1112 54.1986L78.7287 54.3369L77.6642 52.8806L74.0467 47.9267C75.4208 47.0555 76.9653 46.4883 78.5767 46.2631Z" fill="#231F20"/>
<path d="M76.678 39.816C76.42 38.4842 78.4016 37.4104 78.8393 38.9358C79.0189 39.4623 79.0058 40.0355 78.8025 40.5533C78.695 40.8045 78.5156 41.0182 78.2867 41.1675C78.0579 41.3168 77.79 41.3949 77.5168 41.392" fill="white"/>
<path d="M77.5767 41.6132H77.4845C77.4536 41.6109 77.4235 41.6025 77.3958 41.5885C77.3682 41.5745 77.3436 41.5551 77.3235 41.5316C77.3033 41.508 77.2881 41.4807 77.2785 41.4512C77.269 41.4217 77.2654 41.3907 77.2679 41.3598C77.2726 41.297 77.3019 41.2386 77.3493 41.1972C77.3967 41.1558 77.4585 41.1348 77.5214 41.1386C77.7461 41.1386 77.9658 41.0721 78.1528 40.9474C78.3397 40.8228 78.4856 40.6455 78.5721 40.4381C78.75 39.9791 78.7631 39.4725 78.6089 39.0049C78.4338 38.3966 78.0237 38.4012 77.7933 38.4519C77.5091 38.5269 77.2622 38.7032 77.0992 38.9477C76.9362 39.1923 76.8683 39.488 76.9085 39.7791C76.9151 39.8094 76.9156 39.8408 76.9099 39.8713C76.9042 39.9018 76.8924 39.9308 76.8752 39.9566C76.858 39.9824 76.8357 40.0045 76.8098 40.0215C76.7838 40.0385 76.7547 40.0501 76.7241 40.0556C76.6618 40.0678 76.5972 40.0547 76.5445 40.0193C76.4918 39.9839 76.4553 39.929 76.443 39.8667C76.3787 39.4558 76.4701 39.0357 76.6994 38.6887C76.9287 38.3417 77.2794 38.0929 77.6827 37.9911C77.8318 37.9532 77.9871 37.9463 78.139 37.9709C78.2909 37.9954 78.4361 38.0509 78.5657 38.1338C78.6953 38.2167 78.8065 38.3254 78.8924 38.453C78.9783 38.5807 79.0371 38.7246 79.0652 38.8759C79.2534 39.4514 79.2322 40.0749 79.0052 40.6363C78.8827 40.9167 78.6838 41.1571 78.4312 41.3298C78.1786 41.5026 77.8824 41.6008 77.5767 41.6132Z" fill="#231F20"/>
<path d="M71.4614 41.7192C70.8024 40.5303 68.595 40.9819 69.2402 42.4289C69.4429 42.94 69.82 43.3629 70.3047 43.6225C70.5487 43.7461 70.8239 43.7945 71.0954 43.7617C71.3669 43.7289 71.6226 43.6163 71.8301 43.4381" fill="white"/>
<path d="M70.9683 44.0096C70.7083 44.0097 70.4516 43.9514 70.2171 43.8391C69.681 43.5545 69.263 43.0892 69.0374 42.5257C68.9609 42.3924 68.9128 42.2447 68.8961 42.0919C68.8794 41.9391 68.8944 41.7845 68.9403 41.6378C68.9862 41.4912 69.0619 41.3555 69.1627 41.2395C69.2634 41.1234 69.3871 41.0295 69.5259 40.9635C69.9003 40.7808 70.3296 40.7453 70.7289 40.8639C71.1283 40.9825 71.4686 41.2466 71.6826 41.604C71.7132 41.659 71.7206 41.7239 71.7033 41.7844C71.686 41.8449 71.6454 41.8961 71.5904 41.9266C71.5354 41.9572 71.4705 41.9646 71.4101 41.9473C71.3496 41.9301 71.2984 41.8894 71.2678 41.8344C71.1142 41.5829 70.8732 41.3968 70.5909 41.3118C70.3086 41.2267 70.0049 41.2488 69.7379 41.3736C69.6559 41.4124 69.583 41.4682 69.5242 41.5373C69.4654 41.6063 69.4219 41.6871 69.3966 41.7742C69.3713 41.8614 69.3649 41.9529 69.3776 42.0427C69.3904 42.1325 69.4221 42.2186 69.4706 42.2953C69.6539 42.7531 69.9891 43.1338 70.4199 43.3736C70.6205 43.4759 70.8467 43.5168 71.0704 43.4914C71.2941 43.466 71.5054 43.3754 71.678 43.2308C71.7228 43.1866 71.7832 43.1618 71.8462 43.1618C71.9091 43.1618 71.9696 43.1866 72.0144 43.2308C72.0583 43.2748 72.0829 43.3345 72.0829 43.3967C72.0829 43.4589 72.0583 43.5185 72.0144 43.5626C71.7384 43.8438 71.3623 44.0045 70.9683 44.0096Z" fill="#231F20"/>
<path d="M74.0329 47.9266C74.3944 48.2397 74.8364 48.4454 75.3087 48.5203C75.7811 48.5952 76.265 48.5364 76.7057 48.3506C77.1704 48.1951 77.587 47.922 77.9149 47.5578C78.2427 47.1936 78.4707 46.7507 78.5767 46.2723L76.5905 41.498L72.4891 42.9911L74.0329 47.9266Z" fill="white"/>
<path d="M75.678 48.77C75.0092 48.7783 74.3621 48.5329 73.867 48.0833C73.8402 48.0558 73.8197 48.0228 73.8071 47.9865L72.2633 43.0602C72.2456 43.0022 72.2511 42.9395 72.2786 42.8854C72.3061 42.8313 72.3534 42.7899 72.4107 42.7699L76.4983 41.2768C76.5559 41.2552 76.6196 41.2565 76.6762 41.2805C76.7328 41.3046 76.778 41.3494 76.8025 41.4058L78.8025 46.1709C78.8119 46.2134 78.8119 46.2574 78.8025 46.2999C78.6907 46.8214 78.4448 47.3048 78.0893 47.7024C77.7337 48.1 77.2807 48.3981 76.7748 48.5672C76.4238 48.698 76.0526 48.7666 75.678 48.77ZM74.2448 47.7838C74.5732 48.0507 74.9681 48.2231 75.387 48.2824C75.806 48.3417 76.2333 48.2856 76.6227 48.1202C77.0387 47.9805 77.4128 47.7384 77.7108 47.4163C78.0087 47.0942 78.2209 46.7024 78.3278 46.2769L76.4568 41.7883L72.7702 43.1294L74.2448 47.7838Z" fill="#231F20"/>
<path d="M73.2448 45.0649C73.7289 45.4095 74.2911 45.628 74.8808 45.7008C75.8578 45.8529 77.2541 45.9174 78.185 45.4059L77.2633 43.4151C76.5826 43.774 75.8618 44.0509 75.1158 44.24C74.468 44.4494 73.792 44.5582 73.1112 44.5626C72.9822 44.5349 73.0467 44.9128 73.2448 45.0649Z" fill="#231F20"/>
<path d="M76.2218 46.0372C75.7589 46.035 75.2967 45.998 74.8393 45.9266C74.2118 45.8499 73.6141 45.6152 73.102 45.2446C72.9918 45.1578 72.9083 45.0418 72.861 44.9097C72.8138 44.7777 72.8046 44.635 72.8347 44.498C72.8539 44.4411 72.8915 44.3921 72.9415 44.3587C72.9915 44.3254 73.0512 44.3095 73.1112 44.3137C73.7672 44.3097 74.4185 44.204 75.0421 44.0004C75.7793 43.824 76.4926 43.5594 77.1665 43.2123C77.2243 43.1895 77.2885 43.1895 77.3463 43.2123C77.3761 43.2224 77.4035 43.2386 77.4265 43.2601C77.4496 43.2816 77.4678 43.3077 77.4799 43.3367L78.4016 45.3229C78.4264 45.3758 78.4303 45.4362 78.4123 45.4918C78.3943 45.5474 78.3559 45.5941 78.3048 45.6225C77.6546 45.9282 76.9395 46.0705 76.2218 46.0372ZM73.3094 44.7746C73.3273 44.8165 73.354 44.8542 73.3877 44.8851C73.8411 45.2051 74.3668 45.4078 74.9177 45.475C75.4983 45.5626 76.9039 45.7193 77.8854 45.2999L77.1665 43.7285C76.5267 44.0359 75.8564 44.2753 75.1665 44.4428C74.5644 44.633 73.9401 44.7445 73.3094 44.7746Z" fill="#231F20"/>
<path d="M75.3048 44.7008L75.6412 44.5764C76.0211 44.439 76.3702 44.228 76.6685 43.9555C76.9668 43.683 77.2085 43.3544 77.3797 42.9885C77.5509 42.6225 77.6482 42.2264 77.6662 41.8228C77.6842 41.4192 77.6225 41.016 77.4845 40.6363L75.8163 36.0602C74.7114 35.5607 73.4557 35.5097 72.314 35.9181C71.1723 36.3265 70.2338 37.1622 69.6964 38.2491L71.36 42.8575C71.4979 43.2376 71.7094 43.5868 71.9823 43.8851C72.2552 44.1835 72.5842 44.4251 72.9505 44.5963C73.3168 44.7675 73.7133 44.8648 74.1172 44.8828C74.5212 44.9007 74.9247 44.8389 75.3048 44.7008Z" fill="white"/>
<path d="M73.9683 35.6132C74.6088 35.6006 75.2424 35.7479 75.8117 36.0418L77.4799 40.6178C77.6179 40.9976 77.6796 41.4008 77.6616 41.8044C77.6436 42.208 77.5462 42.6041 77.375 42.97C77.2038 43.336 76.9622 43.6646 76.6639 43.9371C76.3656 44.2095 76.0165 44.4205 75.6365 44.558L75.3001 44.6824C74.9615 44.8038 74.6046 44.8661 74.2448 44.8667C73.6164 44.8663 73.0031 44.6736 72.4874 44.3144C71.9717 43.9552 71.5783 43.4468 71.36 42.8575L69.6964 38.2492C69.9406 37.6955 70.2993 37.1998 70.7489 36.7947C71.1984 36.3896 71.7287 36.0843 72.3047 35.8989C72.8369 35.6999 73.4002 35.5969 73.9683 35.5948M73.9683 35.1339C73.3391 35.1345 72.7149 35.2468 72.125 35.4657C71.4822 35.6753 70.8915 36.0197 70.3924 36.4759C69.8933 36.932 69.4974 37.4895 69.231 38.1109C69.1932 38.2135 69.1932 38.3262 69.231 38.4289L70.8946 43.005C71.0535 43.4437 71.2975 43.8467 71.6126 44.1909C71.9277 44.5351 72.3077 44.8137 72.7307 45.0107C73.1538 45.2076 73.6116 45.3191 74.0778 45.3387C74.544 45.3583 75.0095 45.2856 75.4476 45.1248L75.784 45.0004C76.6694 44.6782 77.3907 44.0176 77.7891 43.1638C78.1875 42.3099 78.2304 41.3328 77.9085 40.4473L76.2402 35.8759C76.2047 35.7713 76.1327 35.683 76.0375 35.627C75.3936 35.2912 74.676 35.1217 73.9499 35.1339H73.9683Z" fill="#231F20"/>
<path d="M77.2218 49.6041L76.2218 49.2861L76.784 48.4013L77.7794 48.7193L77.2218 49.6041Z" fill="white"/>
<path d="M78.9914 52.406L79.1112 54.2032L78.7287 54.3414L77.6642 52.8852L76.867 49.4889L76.8393 49.3737L76.8209 49.2999L77.3324 49.1156L77.3647 49.1847L77.42 49.2861V49.2907L78.9914 52.406Z" fill="white"/>
<path d="M72.5213 56.8392C72.477 56.8392 72.4336 56.8266 72.396 56.803C72.3585 56.7793 72.3285 56.7455 72.3093 56.7055L69.9775 51.8991C69.9582 51.8435 69.9599 51.7828 69.9823 51.7285C70.0048 51.6742 70.0465 51.63 70.0994 51.6044C70.1523 51.5788 70.2128 51.5735 70.2694 51.5896C70.3259 51.6057 70.3746 51.642 70.4061 51.6917L72.7333 56.4982C72.7473 56.5262 72.7556 56.5568 72.7576 56.5881C72.7597 56.6194 72.7554 56.6508 72.7451 56.6805C72.7348 56.7101 72.7186 56.7374 72.6976 56.7607C72.6766 56.784 72.6511 56.8028 72.6227 56.8161C72.5909 56.8309 72.5564 56.8387 72.5213 56.8392Z" fill="#231F20"/>
<path d="M85.3233 52.1756C85.27 52.1769 85.218 52.1597 85.1759 52.1269C85.1339 52.0941 85.1046 52.0478 85.0929 51.9958L83.7841 46.8161C83.7776 46.7584 83.7923 46.7003 83.8254 46.6526C83.8585 46.605 83.9078 46.5709 83.9641 46.5569C84.0204 46.5428 84.0799 46.5496 84.1316 46.5761C84.1832 46.6026 84.2235 46.6469 84.2449 46.7008L85.5537 51.8806C85.5613 51.9112 85.5628 51.9429 85.5581 51.9741C85.5534 52.0052 85.5426 52.0351 85.5263 52.0621C85.51 52.089 85.4886 52.1125 85.4633 52.1312C85.4379 52.1499 85.4092 52.1634 85.3786 52.1709L85.3233 52.1756Z" fill="#231F20"/>
<path d="M71.0559 42.2354C70.6181 40.8022 69.8762 39.0602 70.1112 38.6869C70.3462 38.3137 70.6319 38.6869 70.8669 38.263C71.102 37.839 70.9038 37.8021 70.9038 37.8021C71.3768 37.4211 71.9092 37.1207 72.4799 36.9127C73.0236 36.8206 74.3232 36.7376 74.8117 36.0464C74.8117 36.0464 76.0559 36.7975 76.3094 37.392C76.5628 37.9865 77.0053 39.6962 77.1205 39.627C77.2357 39.5579 77.4661 38.0049 77.42 37.3229C77.3625 36.6818 77.093 36.0781 76.654 35.6074C76.215 35.1367 75.6316 34.8258 74.996 34.7238C74.996 34.7238 74.8163 33.968 72.9407 34.1523C71.0651 34.3367 69.4568 35.5948 69.1066 36.3321C68.7144 37.395 68.6533 38.5518 68.9314 39.6501C69.2033 40.4704 69.5167 40.4612 69.5167 40.4612L71.0559 42.2354Z" fill="white"/>
<path d="M71.0559 42.4704C71.0216 42.4708 70.9877 42.4635 70.9566 42.4492C70.9256 42.4348 70.8981 42.4137 70.8761 42.3874L69.383 40.6409C69.2125 40.581 68.9222 40.369 68.7056 39.6869C68.4098 38.531 68.4741 37.3122 68.89 36.1938C69.2817 35.3689 70.9407 34.074 72.9176 33.8897C74.4983 33.7376 75.0052 34.2169 75.1619 34.4841C75.8245 34.618 76.426 34.9629 76.8762 35.4671C77.3265 35.9714 77.6013 36.6079 77.6596 37.2814C77.6596 37.6501 77.5674 39.6316 77.2403 39.8206C77.2064 39.8366 77.1694 39.8449 77.132 39.8449C77.0945 39.8449 77.0575 39.8366 77.0237 39.8206C76.8578 39.7561 76.7932 39.6132 76.4522 38.521C76.3232 38.1109 76.1896 37.6869 76.0882 37.4565C75.7642 36.9959 75.3444 36.6108 74.8577 36.3275C74.3186 36.862 73.3693 36.9957 72.7794 37.0786L72.5167 37.1201C72.0447 37.2847 71.6038 37.5278 71.2126 37.839C71.225 38.026 71.1765 38.2119 71.0743 38.369C71.0223 38.48 70.9384 38.573 70.8334 38.6362C70.7284 38.6994 70.6069 38.7299 70.4844 38.7238C70.3738 38.7238 70.3554 38.7238 70.3093 38.8021C70.2172 39.0141 70.6089 40.157 70.8715 40.9128C71.0144 41.3275 71.1619 41.7515 71.2817 42.157C71.298 42.2088 71.2959 42.2646 71.2758 42.315C71.2556 42.3654 71.2186 42.4073 71.1711 42.4335C71.1363 42.4551 71.0967 42.4678 71.0559 42.4704ZM69.5489 40.1662C69.5784 40.1673 69.6071 40.1753 69.6328 40.1898C69.6584 40.2042 69.6802 40.2246 69.6964 40.2492L70.4476 41.1294L70.4199 41.051C69.936 39.6409 69.6918 38.8897 69.9084 38.5395C69.9635 38.4416 70.045 38.3612 70.1436 38.3074C70.2422 38.2536 70.3539 38.2287 70.466 38.2353C70.5812 38.2353 70.5997 38.2353 70.655 38.1247C70.6909 38.0641 70.7188 37.999 70.7379 37.9312C70.7042 37.8966 70.6804 37.8536 70.6688 37.8067C70.6617 37.7633 70.6661 37.7189 70.6814 37.6776C70.6968 37.6364 70.7226 37.5999 70.7563 37.5717C71.2603 37.1707 71.8292 36.859 72.4384 36.6501L72.7149 36.6086C73.2863 36.5302 74.2448 36.392 74.6181 35.8805C74.6526 35.8321 74.704 35.7986 74.7621 35.7867C74.8202 35.7747 74.8808 35.7852 74.9315 35.8159C75.0697 35.8943 76.2495 36.6224 76.526 37.2676C76.632 37.521 76.7702 37.9588 76.9038 38.3782C76.9545 38.5349 77.0098 38.71 77.0651 38.8759C77.1499 38.3534 77.19 37.8246 77.185 37.2952C77.1318 36.7059 76.8836 36.1511 76.4796 35.7187C76.0756 35.2863 75.5389 35.0011 74.9545 34.9081C74.9088 34.9001 74.8665 34.8788 74.8328 34.8469C74.7992 34.8149 74.7758 34.7736 74.7656 34.7284C74.7656 34.7284 74.5536 34.1846 72.9637 34.3413C71.1204 34.521 69.6135 35.7699 69.3231 36.392C68.9546 37.3961 68.8952 38.4875 69.1526 39.5257C69.3508 40.1155 69.5443 40.18 69.5443 40.18L69.5489 40.1662Z" fill="#231F20"/>
<path d="M105.287 23.7191C105.017 23.7184 104.754 23.635 104.533 23.4801C104.312 23.3251 104.144 23.1062 104.052 22.8527L101.964 17.1153C101.953 17.0872 101.948 17.0572 101.948 17.027C101.949 16.9969 101.956 16.9671 101.968 16.9396C101.981 16.9121 101.999 16.8874 102.021 16.8669C102.043 16.8465 102.069 16.8306 102.098 16.8204C102.156 16.8007 102.219 16.8041 102.275 16.8298C102.331 16.8555 102.374 16.9016 102.397 16.9587L104.485 22.696C104.567 22.9012 104.725 23.0664 104.927 23.1571C105.128 23.2477 105.357 23.2567 105.565 23.182C105.772 23.1073 105.943 22.9549 106.041 22.7568C106.139 22.5587 106.156 22.3304 106.088 22.12L103.061 13.825C102.915 13.4287 102.619 13.1061 102.237 12.9274C101.854 12.7487 101.417 12.7284 101.019 12.8711C100.822 12.9421 100.64 13.0515 100.485 13.1929C100.33 13.3344 100.205 13.5052 100.116 13.6954C100.027 13.8856 99.9773 14.0915 99.9686 14.3012C99.9598 14.5109 99.9927 14.7202 100.065 14.9172L100.181 15.2351C100.201 15.2926 100.198 15.3559 100.172 15.4112C100.147 15.4665 100.1 15.5093 100.042 15.5301C100.014 15.541 99.9836 15.5461 99.9532 15.545C99.9228 15.5439 99.8929 15.5367 99.8654 15.5238C99.8378 15.5109 99.8132 15.4925 99.7929 15.4699C99.7726 15.4472 99.7571 15.4206 99.7474 15.3918L99.6321 15.0739C99.4932 14.6921 99.4706 14.2778 99.567 13.8832C99.6634 13.4885 99.8746 13.1313 100.174 12.8567C100.473 12.582 100.847 12.4022 101.249 12.34C101.65 12.2778 102.061 12.3359 102.429 12.507C102.675 12.6206 102.895 12.7818 103.078 12.9811C103.261 13.1804 103.402 13.414 103.494 13.6683L106.522 21.9633C106.592 22.1619 106.614 22.3745 106.586 22.5834C106.558 22.7923 106.48 22.9913 106.359 23.164C106.238 23.3367 106.078 23.478 105.891 23.5762C105.705 23.6743 105.497 23.7265 105.287 23.7283V23.7191Z" fill="#231F20"/>
<path d="M63.7563 91.0653C66.277 86.9178 69.5259 80.5444 71.6411 76.1942C72.678 74.0605 76.4983 75.2449 76.7748 77.0559C77.1573 79.5905 72.6965 92.6413 72.6688 92.6091C74.3787 94.7153 75.4311 97.278 75.695 99.9781C75.9588 102.678 75.4225 105.396 74.1527 107.794" fill="white"/>
<path d="M74.1527 108.029C74.1135 108.029 74.0751 108.018 74.0421 107.996C74.0153 107.982 73.9918 107.962 73.9728 107.939C73.9538 107.915 73.9398 107.887 73.9317 107.858C73.9235 107.829 73.9213 107.798 73.9252 107.768C73.9291 107.738 73.9391 107.709 73.9545 107.683C75.1901 105.322 75.7096 102.653 75.4492 100.001C75.1889 97.3495 74.1601 94.8316 72.4891 92.7565C72.463 92.7249 72.4458 92.6868 72.4393 92.6463C72.4328 92.6058 72.4373 92.5643 72.4522 92.5261V92.4938C72.7057 91.8948 76.8946 79.4753 76.5306 77.0928C76.4062 76.2817 75.3693 75.5029 74.1619 75.3186C73.0836 75.1573 72.2126 75.5214 71.8347 76.2956C70.7425 78.5352 66.9499 86.2403 63.9406 91.1851C63.9246 91.2108 63.9037 91.2332 63.879 91.2508C63.8544 91.2685 63.8265 91.2811 63.7969 91.288C63.7674 91.2948 63.7368 91.2958 63.7069 91.2908C63.677 91.2858 63.6484 91.2749 63.6226 91.2588C63.5967 91.2436 63.574 91.2234 63.5559 91.1993C63.5379 91.1753 63.5248 91.1478 63.5175 91.1186C63.5102 91.0894 63.5088 91.0591 63.5134 91.0293C63.518 90.9996 63.5285 90.9711 63.5443 90.9454C66.5443 86.0191 70.3324 78.3324 71.4199 76.0928C71.8808 75.125 72.9407 74.6642 74.231 74.8624C75.4338 75.0467 76.8117 75.867 76.996 77.0237C77.3278 79.208 73.7702 90.6597 72.9177 92.5538C74.6364 94.6904 75.6888 97.2854 75.9436 100.016C76.1985 102.746 75.6445 105.491 74.3508 107.909C74.331 107.944 74.3023 107.974 74.2675 107.995C74.2328 108.016 74.1933 108.027 74.1527 108.029Z" fill="#231F20"/>
<path d="M77.3002 115.305C77.8525 115.305 78.3002 114.857 78.3002 114.305C78.3002 113.753 77.8525 113.305 77.3002 113.305C76.7479 113.305 76.3002 113.753 76.3002 114.305C76.3002 114.857 76.7479 115.305 77.3002 115.305Z" fill="#231F20"/>
</svg>
