<svg width="166" height="125" viewBox="0 0 166 125" fill="none" xmlns="http://www.w3.org/2000/svg">
<path d="M79.9165 109.808C115.532 109.808 144.403 107.666 144.403 105.025C144.403 102.383 115.532 100.241 79.9165 100.241C44.3014 100.241 15.4297 102.383 15.4297 105.025C15.4297 107.666 44.3014 109.808 79.9165 109.808Z" fill="#E6E6E6"/>
<path d="M122.55 40.5625C123.499 40.5465 124.443 40.7186 125.326 41.069C126.209 41.4193 127.015 41.9411 127.697 42.6044C128.379 43.2677 128.925 44.0595 129.302 44.9346C129.679 45.8096 129.881 46.7508 129.895 47.7041V97.5416C129.867 99.1949 129.187 100.77 128.005 101.921C126.823 103.072 125.234 103.706 123.587 103.683H53.6557C52.0089 103.706 50.4204 103.072 49.2381 101.921C48.0558 100.77 47.3761 99.1949 47.3477 97.5416V39.1666C47.3761 37.5134 48.0558 35.9388 49.2381 34.7876C50.4204 33.6365 52.0089 33.0027 53.6557 33.025H80.6307C84.9093 33.025 88.3746 36.4041 88.3746 40.5666H122.55V40.5625Z" fill="#231F20"/>
<path d="M123.575 103.892H53.6553C51.9532 103.915 50.3114 103.26 49.0899 102.07C47.8684 100.879 47.1671 99.2509 47.1398 97.542V39.167C47.1671 37.4581 47.8684 35.8299 49.0899 34.6394C50.3114 33.449 51.9532 32.7936 53.6553 32.817H80.6303C84.9422 32.817 88.4655 36.1837 88.5776 40.3628H122.549C126.699 40.3628 130.086 43.6587 130.086 47.7087V97.542C130.059 99.2502 129.358 100.878 128.137 102.068C126.917 103.258 125.276 103.914 123.575 103.892ZM53.6553 33.2295C52.0626 33.2061 50.5256 33.8182 49.3819 34.9314C48.2381 36.0446 47.581 37.5679 47.5548 39.167V97.542C47.5821 99.1404 48.2397 100.663 49.3833 101.775C50.527 102.887 52.0633 103.499 53.6553 103.475H123.575C125.167 103.499 126.703 102.887 127.847 101.775C128.99 100.663 129.648 99.1404 129.675 97.542V47.7045C129.675 43.8837 126.48 40.7712 122.549 40.7712H88.395C88.34 40.7712 88.2872 40.7492 88.2483 40.7102C88.2093 40.6711 88.1875 40.6181 88.1875 40.5628C88.1875 36.5212 84.8052 33.2295 80.6511 33.2295H53.6553Z" fill="#231F20"/>
<path d="M58.7225 95.5085V17.9043H110.253L122.296 30.0001V94.1626L58.7225 95.5085Z" fill="#388CE0"/>
<path d="M115.918 34.0124H64.0013C63.9743 34.0124 63.9475 34.007 63.9225 33.9964C63.8976 33.9859 63.875 33.9705 63.856 33.9511C63.8371 33.9317 63.8222 33.9087 63.8122 33.8834C63.8023 33.8582 63.7974 33.8312 63.798 33.804C63.7979 33.7495 63.8192 33.6971 63.8573 33.6582C63.8953 33.6192 63.947 33.5968 64.0013 33.5957H115.918C115.972 33.5968 116.024 33.6192 116.062 33.6582C116.1 33.6971 116.121 33.7495 116.121 33.804C116.122 33.8312 116.117 33.8582 116.107 33.8834C116.097 33.9087 116.082 33.9317 116.063 33.9511C116.044 33.9705 116.022 33.9859 115.997 33.9964C115.972 34.007 115.945 34.0124 115.918 34.0124Z" fill="white"/>
<path d="M115.918 42.3376H64.0013C63.9462 42.3376 63.8934 42.3156 63.8545 42.2765C63.8156 42.2375 63.7938 42.1845 63.7938 42.1292C63.7938 42.074 63.8156 42.021 63.8545 41.9819C63.8934 41.9428 63.9462 41.9209 64.0013 41.9209H115.918C115.973 41.9209 116.026 41.9428 116.064 41.9819C116.103 42.021 116.125 42.074 116.125 42.1292C116.125 42.1845 116.103 42.2375 116.064 42.2765C116.026 42.3156 115.973 42.3376 115.918 42.3376Z" fill="white"/>
<path d="M115.918 50.6628H64.0013C63.947 50.6617 63.8953 50.6392 63.8573 50.6003C63.8192 50.5613 63.7979 50.509 63.798 50.4544C63.7974 50.4273 63.8023 50.4003 63.8122 50.375C63.8222 50.3498 63.8371 50.3268 63.856 50.3074C63.875 50.288 63.8976 50.2725 63.9225 50.262C63.9475 50.2515 63.9743 50.2461 64.0013 50.2461H115.918C115.945 50.2461 115.972 50.2515 115.997 50.262C116.022 50.2725 116.044 50.288 116.063 50.3074C116.082 50.3268 116.097 50.3498 116.107 50.375C116.117 50.4003 116.122 50.4273 116.121 50.4544C116.121 50.509 116.1 50.5613 116.062 50.6003C116.024 50.6392 115.972 50.6617 115.918 50.6628Z" fill="white"/>
<path d="M115.918 58.9831H64.0013C63.9462 58.9831 63.8934 58.9611 63.8545 58.9221C63.8156 58.883 63.7938 58.83 63.7938 58.7747C63.7938 58.7195 63.8156 58.6665 63.8545 58.6274C63.8934 58.5884 63.9462 58.5664 64.0013 58.5664H115.918C115.973 58.5664 116.026 58.5884 116.064 58.6274C116.103 58.6665 116.125 58.7195 116.125 58.7747C116.125 58.83 116.103 58.883 116.064 58.9221C116.026 58.9611 115.973 58.9831 115.918 58.9831Z" fill="white"/>
<path d="M70.994 24.0085H64.1507C64.0956 24.0085 64.0429 23.9865 64.0039 23.9474C63.965 23.9084 63.9432 23.8554 63.9432 23.8001C63.9442 23.7452 63.9664 23.6928 64.0051 23.654C64.0438 23.6152 64.096 23.5929 64.1507 23.5918H70.994C71.0483 23.5929 71.1001 23.6153 71.1381 23.6543C71.1761 23.6932 71.1974 23.7456 71.1974 23.8001C71.1979 23.8273 71.1931 23.8543 71.1831 23.8795C71.1731 23.9048 71.1582 23.9278 71.1393 23.9472C71.1204 23.9666 71.0978 23.982 71.0728 23.9925C71.0479 24.0031 71.0211 24.0085 70.994 24.0085Z" fill="white"/>
<path d="M40.5538 55.1746C39.6864 55.5079 38.2547 55.8204 37.8853 54.6079C37.8259 54.3924 37.8076 54.1677 37.8314 53.9454C37.8621 53.6188 37.9205 53.2954 38.0057 52.9787C38.2366 52.0873 38.5434 51.2174 38.9228 50.3787C39.0141 50.1662 39.1926 49.9121 39.4084 49.9871C39.6242 50.0621 39.6242 50.2954 39.62 50.4871C39.62 51.0371 39.5287 51.5912 39.5412 52.1537C40.6949 51.8579 41.4211 50.6329 42.5167 50.3704C42.828 50.2954 43.2015 50.2746 43.2347 50.6746C43.2762 51.1704 42.3839 51.5621 42.0851 51.8204C42.4183 51.5305 42.8025 51.3058 43.2181 51.1579C43.3338 51.1056 43.4613 51.0855 43.5874 51.0996C43.6501 51.1072 43.7085 51.1355 43.7536 51.18C43.7986 51.2244 43.8277 51.2826 43.8364 51.3454C43.8284 51.4506 43.781 51.5489 43.7036 51.6204C43.534 51.8144 43.3448 51.9904 43.1392 52.1454C43.345 51.9036 43.6255 51.7378 43.936 51.6746C44.0127 51.6489 44.0952 51.6462 44.1733 51.667C44.2514 51.6877 44.3219 51.7309 44.3759 51.7912C44.5004 52.0037 44.2556 52.2371 44.0439 52.3579C44.2132 52.2075 44.4196 52.1053 44.6415 52.0621C44.7523 52.0433 44.8661 52.0678 44.9594 52.1305C45.0528 52.1933 45.1187 52.2896 45.1437 52.3996C45.1384 52.4871 45.1146 52.5726 45.0738 52.6502C45.033 52.7278 44.9762 52.7958 44.9071 52.8496C43.77 53.9621 42.0146 54.6079 40.5538 55.1746Z" fill="white"/>
<path d="M39.1636 55.6831C38.8946 55.6893 38.6277 55.6337 38.3834 55.5206C38.2155 55.4385 38.0666 55.3219 37.9465 55.1784C37.8264 55.0348 37.7377 54.8675 37.6862 54.6873C37.619 54.4462 37.5979 54.1946 37.6239 53.9456C37.6577 53.6082 37.7174 53.2739 37.8024 52.9456C38.0385 52.0433 38.3494 51.1625 38.732 50.3123C38.9063 49.8956 39.1926 49.7123 39.4748 49.8081C39.6408 49.8623 39.84 50.0331 39.8276 50.5123C39.8276 50.7456 39.8276 50.9831 39.7902 51.2206C39.7529 51.4581 39.757 51.6373 39.7487 51.8706C40.1776 51.6688 40.5748 51.4049 40.9273 51.0873C41.3651 50.67 41.8916 50.358 42.467 50.1748C42.5907 50.1305 42.7224 50.1131 42.8534 50.1239C42.9843 50.1347 43.1115 50.1733 43.2264 50.2373C43.2902 50.287 43.3424 50.35 43.3797 50.4219C43.4169 50.4938 43.4383 50.573 43.4422 50.6539C43.4488 50.7326 43.4403 50.8118 43.4173 50.8873C43.4861 50.8769 43.556 50.8769 43.6248 50.8873C43.733 50.9043 43.8324 50.9569 43.9075 51.0369C43.9826 51.1168 44.0292 51.2196 44.0398 51.3289C44.0422 51.3664 44.0422 51.404 44.0398 51.4414C44.1392 51.4294 44.24 51.4448 44.3314 51.4859C44.4228 51.527 44.5013 51.5923 44.5586 51.6748C44.5877 51.7279 44.6073 51.7857 44.6167 51.8456C44.8056 51.8262 44.9947 51.8815 45.1437 51.9998C45.2002 52.0457 45.2469 52.1026 45.2812 52.167C45.3154 52.2314 45.3364 52.3021 45.3429 52.3748C45.3428 52.4931 45.3163 52.61 45.2653 52.7167C45.2143 52.8234 45.1402 52.9173 45.0483 52.9914C43.9319 54.0956 42.2802 54.7331 40.8194 55.2956L40.6244 55.3706C40.1594 55.5599 39.665 55.6657 39.1636 55.6831ZM39.3337 50.1831C39.2839 50.1831 39.1843 50.2956 39.1138 50.4581C38.7401 51.2868 38.4361 52.1453 38.2049 53.0248C38.1258 53.3328 38.0689 53.6461 38.0348 53.9623C38.0148 54.1581 38.0317 54.356 38.0846 54.5456C38.1158 54.6751 38.1752 54.7959 38.2584 54.8997C38.3416 55.0034 38.4467 55.0874 38.566 55.1456C39.1345 55.4248 40.0102 55.1456 40.4791 54.9789L40.6742 54.9039C42.0976 54.3539 43.7078 53.7331 44.7619 52.6914C44.8408 52.6123 44.9445 52.4998 44.9362 52.4081C44.9339 52.3905 44.9279 52.3736 44.9186 52.3585C44.9093 52.3434 44.8969 52.3305 44.8823 52.3206C44.8518 52.2955 44.8167 52.2766 44.7789 52.2652C44.7412 52.2538 44.7015 52.2499 44.6623 52.2539C44.5497 52.2738 44.4432 52.3194 44.3511 52.3873C44.2865 52.4389 44.2185 52.4863 44.1477 52.5289C44.1015 52.5547 44.0473 52.5622 43.9958 52.5499C43.9443 52.5375 43.8993 52.5063 43.8697 52.4623C43.8411 52.4174 43.8303 52.3633 43.8395 52.3109C43.8488 52.2584 43.8773 52.2113 43.9195 52.1789L44.0979 52.0498C44.145 52.015 44.181 51.9672 44.2017 51.9123C44.1809 51.8623 44.0979 51.8414 43.9776 51.8664C43.8489 51.8909 43.7253 51.9374 43.6124 52.0039C43.5003 52.1081 43.3841 52.2081 43.2638 52.2998C43.2234 52.3332 43.1719 52.3501 43.1196 52.3471C43.0673 52.344 43.0181 52.3212 42.9819 52.2832C42.9457 52.2453 42.9251 52.195 42.9242 52.1424C42.9234 52.0898 42.9424 52.0389 42.9774 51.9998C43.0875 51.8715 43.2163 51.7605 43.3592 51.6706C43.4256 51.6081 43.4879 51.5414 43.5501 51.4706C43.6124 51.3998 43.629 51.3539 43.629 51.3456C43.629 51.3373 43.5958 51.2998 43.5501 51.2914C43.4589 51.2875 43.3681 51.3046 43.2845 51.3414C43.1422 51.3931 43.0036 51.4544 42.8695 51.5248C42.7575 51.6081 42.6413 51.6831 42.5292 51.7539C42.4245 51.8177 42.3233 51.8873 42.2263 51.9623C42.1832 51.9966 42.1288 52.0131 42.074 52.0084C42.0193 52.0038 41.9683 51.9783 41.9316 51.9373C41.8936 51.8983 41.8723 51.846 41.8723 51.7914C41.8723 51.7369 41.8936 51.6846 41.9316 51.6456C42.1437 51.4611 42.3763 51.3017 42.6247 51.1706C42.8405 51.0123 43.0397 50.8331 43.0106 50.6748C43.0106 50.5831 42.9733 50.5581 42.965 50.5539C42.9567 50.5498 42.8363 50.4873 42.55 50.5539C42.0358 50.7251 41.5664 51.0099 41.1763 51.3873C40.7205 51.8169 40.1766 52.1412 39.5827 52.3373C39.5521 52.3448 39.5201 52.3453 39.4893 52.3388C39.4584 52.3323 39.4293 52.319 39.4043 52.2998C39.3798 52.281 39.3597 52.2572 39.3454 52.2298C39.331 52.2025 39.3228 52.1723 39.3213 52.1414C39.3182 51.8159 39.3321 51.4905 39.3628 51.1664C39.3628 50.9373 39.396 50.7081 39.4001 50.4789C39.4043 50.2498 39.3669 50.1914 39.3296 50.1831C39.2922 50.1748 39.3379 50.1831 39.3337 50.1831Z" fill="#231F20"/>
<path d="M39.5947 52.1914C39.8575 52.5101 40.0039 52.9094 40.01 53.323C40.016 53.7367 39.8812 54.1401 39.6279 54.4664H39.7441" fill="white"/>
<path d="M39.6283 54.6747C39.5891 54.6754 39.5505 54.6647 39.5171 54.6439C39.4838 54.6231 39.4572 54.593 39.4405 54.5573C39.4238 54.5216 39.4178 54.4818 39.4232 54.4428C39.4285 54.4037 39.445 54.3671 39.4706 54.3372C39.6921 54.0482 39.8097 53.6926 39.8044 53.328C39.7992 52.9634 39.6713 52.6113 39.4416 52.3289C39.4033 52.2892 39.3819 52.2362 39.3819 52.181C39.3819 52.1257 39.4033 52.0727 39.4416 52.033C39.4619 52.0149 39.4856 52.0011 39.5113 51.9923C39.537 51.9835 39.5641 51.98 39.5912 51.982C39.6183 51.9839 39.6447 51.9913 39.6689 52.0036C39.6931 52.016 39.7146 52.0331 39.7321 52.0539C40.0003 52.3762 40.1624 52.7741 40.1958 53.1928C40.2293 53.6115 40.1325 54.0303 39.9188 54.3914C39.9231 54.4106 39.9231 54.4305 39.9188 54.4497C39.9212 54.5047 39.9021 54.5585 39.8657 54.5997C39.8293 54.6409 39.7785 54.6663 39.7238 54.6706H39.5951L39.6283 54.6747Z" fill="#231F20"/>
<path d="M97.3885 42.9019L41.6113 37.5293L37.7357 78.0889L93.5129 83.4615L97.3885 42.9019Z" fill="#FF3967"/>
<path d="M93.5202 83.6794L37.7193 78.3086C37.6627 78.3023 37.6109 78.2738 37.5751 78.2293C37.5394 78.1848 37.5226 78.128 37.5284 78.0711L41.4004 37.5003C41.4056 37.4435 41.433 37.3911 41.4765 37.3544C41.52 37.3178 41.5762 37.2998 41.6328 37.3044L97.4129 42.6753C97.441 42.6773 97.4683 42.6851 97.4933 42.698C97.5183 42.711 97.5404 42.729 97.5582 42.7508C97.5761 42.7726 97.5893 42.7979 97.5972 42.825C97.605 42.8521 97.6073 42.8806 97.6038 42.9086L93.7319 83.4711C93.7296 83.4996 93.7214 83.5273 93.7079 83.5524C93.6943 83.5775 93.6756 83.5995 93.653 83.6169C93.6172 83.6524 93.5703 83.6745 93.5202 83.6794ZM37.9725 77.9169L93.3252 83.2461L97.1598 43.1086L41.8071 37.7669L37.9725 77.9169Z" fill="#231F20"/>
<path d="M89.1542 79.8126H89.1334L42.7447 75.346C42.7169 75.3433 42.6898 75.3352 42.6651 75.3221C42.6404 75.3089 42.6186 75.2909 42.6008 75.2693C42.5831 75.2476 42.5698 75.2225 42.5617 75.1957C42.5537 75.1688 42.551 75.1406 42.5538 75.1126L45.7742 41.3626C45.7765 41.3341 45.7847 41.3064 45.7982 41.2813C45.8118 41.2562 45.8305 41.2342 45.8531 41.2168C45.8741 41.1986 45.8985 41.1848 45.9248 41.1762C45.9512 41.1676 45.979 41.1644 46.0066 41.1668L92.4036 45.6334C92.4315 45.6361 92.4585 45.6442 92.4832 45.6573C92.5079 45.6705 92.5298 45.6885 92.5476 45.7102C92.5653 45.7318 92.5786 45.7569 92.5867 45.7837C92.5947 45.8106 92.5974 45.8389 92.5945 45.8668L89.3741 79.6168C89.3722 79.6453 89.3641 79.6731 89.3505 79.6983C89.3369 79.7235 89.3181 79.7454 89.2953 79.7626C89.2563 79.7967 89.2058 79.8146 89.1542 79.8126ZM42.9937 74.9376L88.9591 79.3626L92.1297 46.0543L46.1726 41.6293L42.9937 74.9376Z" fill="white"/>
<path d="M20.5588 102.642L20.2061 105.233C20.2061 105.233 27.3939 105.983 27.12 105.358C26.5902 104.459 26.0111 103.589 25.3853 102.754" fill="white"/>
<path d="M25.5931 105.833C24.041 105.833 21.7626 105.629 20.1981 105.462C20.1702 105.46 20.1431 105.452 20.1187 105.438C20.0944 105.425 20.0733 105.406 20.057 105.383C20.0392 105.362 20.0262 105.337 20.019 105.311C20.0119 105.284 20.0106 105.256 20.0155 105.229L20.3682 102.633C20.3754 102.578 20.404 102.529 20.4475 102.495C20.4911 102.462 20.5461 102.447 20.6006 102.454C20.6551 102.461 20.7044 102.49 20.7379 102.534C20.7713 102.577 20.7861 102.633 20.7791 102.687L20.4554 105.071C23.2566 105.354 26.2654 105.525 26.8879 105.35C26.5185 104.654 25.2279 102.921 25.2279 102.9C25.2081 102.878 25.1931 102.853 25.1838 102.825C25.1745 102.797 25.1711 102.768 25.1739 102.739C25.1766 102.71 25.1855 102.681 25.1999 102.656C25.2142 102.63 25.2338 102.608 25.2573 102.591C25.2807 102.573 25.3076 102.561 25.3361 102.555C25.3645 102.549 25.394 102.549 25.4226 102.555C25.4511 102.56 25.4781 102.572 25.5018 102.59C25.5254 102.607 25.5452 102.629 25.5599 102.654C26.1963 103.499 26.7825 104.381 27.3153 105.296C27.3376 105.341 27.3468 105.391 27.3416 105.441C27.3365 105.492 27.3173 105.539 27.2863 105.579C27.1452 105.741 26.4936 105.833 25.5931 105.833Z" fill="#231F20"/>
<path d="M38.2882 55.5127C38.2882 55.5127 42.9487 58.6294 44.7581 57.6961C45.8288 57.1419 46.6837 56.3502 47.6631 55.6711C48.5936 55.058 49.4861 54.3888 50.3357 53.6669C50.4329 53.5852 50.5194 53.4914 50.593 53.3877C50.6554 53.2769 50.7055 53.1595 50.7424 53.0377C50.9009 52.5626 51.098 52.1013 51.3317 51.6586C51.4124 51.4803 51.5495 51.3338 51.7218 51.2419C52.6804 50.8627 52.0787 52.8586 51.8836 53.2127C52.6223 52.5169 53.3859 51.8169 54.191 51.1877C54.2298 51.1484 54.2766 51.118 54.3282 51.0986C54.3797 51.0792 54.4349 51.0712 54.4898 51.0752C54.5468 51.0985 54.5933 51.1418 54.6208 51.197C54.6483 51.2522 54.6549 51.3155 54.6392 51.3752C54.6064 51.4935 54.5434 51.6012 54.4566 51.6877L53.1701 53.2086C53.5371 52.7614 53.9381 52.3434 54.3695 51.9586C54.523 51.8169 54.9588 51.4002 55.1995 51.5669C55.5854 51.8586 54.2076 53.4252 53.9545 53.6836C54.3188 53.1822 54.7471 52.7311 55.2285 52.3419C55.3561 52.2144 55.5261 52.1388 55.7058 52.1294C55.8012 52.2252 55.7058 52.3877 55.6269 52.4919L54.7305 53.5294C55.1829 53.0294 55.685 52.5002 56.3449 52.3752C56.3781 52.4836 56.2992 52.5919 56.2245 52.6794C54.9048 54.2252 53.581 55.7502 52.1907 57.2294C50.3398 59.1961 48.3312 61.4669 45.696 62.2294C42.571 63.1461 39.7739 61.2877 37.2051 59.6919" fill="white"/>
<path d="M44.011 62.6544C41.604 62.6544 39.3921 61.2753 37.3959 60.0336L37.093 59.8461C37.0462 59.8168 37.0129 59.7701 37.0005 59.7162C36.988 59.6623 36.9974 59.6056 37.0266 59.5586C37.0558 59.5117 37.1023 59.4782 37.156 59.4657C37.2097 59.4532 37.2662 59.4627 37.3129 59.492L37.6159 59.6794C40.1059 61.2419 42.7204 62.8586 45.6337 62.0044C48.0614 61.2878 50.0036 59.217 51.7134 57.392L52.0371 57.0461C53.4066 55.592 54.7263 54.067 55.8593 52.742C55.4918 52.9886 55.1618 53.2876 54.8799 53.6295C54.8606 53.649 54.8377 53.6645 54.8124 53.6751C54.7871 53.6856 54.76 53.6911 54.7326 53.6911C54.7052 53.6911 54.6781 53.6856 54.6528 53.6751C54.6275 53.6645 54.6045 53.649 54.5852 53.6295C54.5472 53.5905 54.5259 53.5381 54.5259 53.4836C54.5259 53.4291 54.5472 53.3767 54.5852 53.3378L55.3032 52.5045C55.116 52.6584 54.9372 52.8226 54.7678 52.9961C54.5313 53.3045 54.2823 53.5878 54.1204 53.7669C54.0819 53.8039 54.0306 53.8245 53.9773 53.8245C53.924 53.8245 53.8727 53.8039 53.8341 53.7669C53.7939 53.7328 53.7678 53.6849 53.7609 53.6325C53.754 53.5801 53.7668 53.5271 53.7967 53.4836C53.9941 53.2141 54.2089 52.958 54.44 52.7169C54.7311 52.4126 54.9422 52.0403 55.0542 51.6336C54.8652 51.7322 54.6929 51.8601 54.5437 52.0128C54.2327 52.2931 53.9376 52.5908 53.6598 52.9045L53.3402 53.2836C53.323 53.3047 53.3018 53.3222 53.2777 53.3349C53.2537 53.3476 53.2273 53.3554 53.2003 53.3577C53.1732 53.36 53.1459 53.3569 53.12 53.3485C53.0942 53.34 53.0703 53.3265 53.0497 53.3086C53.0076 53.2736 52.9809 53.2234 52.9755 53.1688C52.97 53.1142 52.9863 53.0596 53.0207 53.0169C53.1286 52.8878 53.2365 52.7544 53.3485 52.6294L54.3113 51.4961C54.373 51.4338 54.4198 51.3583 54.4483 51.2753C54.4556 51.2551 54.4556 51.233 54.4483 51.2128C54.4483 51.2128 54.4234 51.2128 54.3404 51.2919C53.5104 51.9461 52.7136 52.6753 52.0454 53.3045C52.0094 53.3372 51.963 53.3563 51.9145 53.3583C51.8659 53.3602 51.8181 53.345 51.7796 53.3152C51.741 53.2855 51.7141 53.243 51.7035 53.1954C51.693 53.1477 51.6994 53.0978 51.7217 53.0545C51.896 52.7378 52.199 51.5878 52.0039 51.3628C51.9707 51.3253 51.8504 51.3628 51.8172 51.3628C51.6898 51.4393 51.5918 51.5568 51.5391 51.6961C51.3108 52.1302 51.1165 52.5816 50.9581 53.0461C50.9213 53.1924 50.864 53.3326 50.788 53.4628C50.7059 53.5836 50.6067 53.6917 50.4933 53.7836C49.7123 54.4551 48.8904 55.0771 48.0324 55.6461L47.8041 55.8044C47.4763 56.0336 47.1567 56.2794 46.8455 56.517C46.2303 57.0164 45.572 57.4598 44.8784 57.842C42.9818 58.8211 38.3919 55.7795 38.201 55.6461C38.1781 55.6314 38.1583 55.6121 38.1429 55.5896C38.1275 55.567 38.1168 55.5415 38.1113 55.5147C38.1059 55.4879 38.1059 55.4603 38.1113 55.4334C38.1168 55.4066 38.1275 55.3812 38.1429 55.3586C38.1734 55.3129 38.2205 55.2812 38.2742 55.2703C38.3278 55.2593 38.3835 55.2701 38.4293 55.3003C39.6992 56.1336 43.2931 58.1919 44.6916 57.4711C45.3639 57.1003 46.0014 56.6694 46.5965 56.1836C46.9077 55.9419 47.2314 55.6961 47.5676 55.4628L47.7958 55.3044C48.6393 54.7442 49.4474 54.1319 50.2153 53.4711C50.3004 53.4042 50.3759 53.3257 50.4394 53.2378C50.4899 53.1481 50.5303 53.0531 50.5597 52.9544C50.725 52.4625 50.929 51.9846 51.1698 51.5253C51.2664 51.2941 51.4434 51.106 51.6678 50.9961C51.7707 50.9365 51.8906 50.9135 52.0081 50.9309C52.1256 50.9483 52.2338 51.0051 52.3152 51.092C52.5517 51.3628 52.4895 51.9461 52.365 52.442C52.8962 51.9545 53.4772 51.4419 54.0872 50.9669C54.1488 50.9065 54.2239 50.8617 54.3062 50.8364C54.3885 50.811 54.4756 50.8058 54.5603 50.8211C54.658 50.8512 54.7425 50.9138 54.7999 50.9987C54.8572 51.0836 54.884 51.1856 54.8757 51.2878C54.9477 51.2535 55.0275 51.2389 55.1069 51.2454C55.1864 51.252 55.2627 51.2796 55.3281 51.3253C55.3717 51.3572 55.4077 51.3984 55.4335 51.446C55.4593 51.4935 55.4744 51.5462 55.4775 51.6003C55.4835 51.7041 55.4665 51.808 55.4277 51.9044C55.5267 51.8601 55.6348 51.8401 55.7431 51.8461C55.7935 51.85 55.8407 51.8722 55.8759 51.9086C55.9138 51.9454 55.9425 51.9905 55.9598 52.0405C55.9771 52.0904 55.9825 52.1437 55.9755 52.1961C56.0895 52.1502 56.2076 52.1153 56.3282 52.0919C56.3791 52.0838 56.4312 52.0945 56.4747 52.1221C56.5183 52.1497 56.5503 52.1923 56.5648 52.2419C56.5812 52.3316 56.575 52.4239 56.5467 52.5105C56.5184 52.5972 56.469 52.6753 56.4029 52.7378C55.2243 54.1211 53.8216 55.7461 52.3608 57.2961L52.0413 57.6378C50.2941 59.5045 48.3063 61.6211 45.7748 62.3669C45.2037 62.5474 44.6097 62.6443 44.011 62.6544Z" fill="#231F20"/>
<path d="M36.6401 67.5122L41.2134 103.1L36.3039 102.971L30.1993 77.8163L25.8501 103.033L20.3389 102.641L23.4348 65.833L36.6401 67.5122Z" fill="#231F20"/>
<path d="M28.6345 54.0795C28.7714 51.1087 28.1738 45.0837 28.1738 45.0837C28.1738 45.0837 31.942 45.3003 33.2119 43.4795C34.764 44.7003 35.0836 48.142 34.8014 49.1712C34.237 51.2003 31.61 50.7545 31.61 50.7545L31.9462 54.4712L28.6345 54.0795Z" fill="white"/>
<path d="M31.9546 54.6794H31.9297L28.6097 54.2836C28.5576 54.2773 28.5098 54.2515 28.4759 54.2113C28.4421 54.1711 28.4246 54.1195 28.4271 54.0669C28.564 51.1503 27.9747 45.1628 27.9664 45.1044C27.9642 45.0741 27.9682 45.0437 27.9782 45.015C27.9882 44.9863 28.0039 44.96 28.0245 44.9378C28.0457 44.9167 28.0711 44.9002 28.0989 44.8895C28.1268 44.8787 28.1566 44.8739 28.1864 44.8753C28.2237 44.8753 31.855 45.0628 33.0419 43.3628C33.0578 43.3389 33.0786 43.3187 33.1029 43.3036C33.1273 43.2885 33.1546 43.2788 33.183 43.2753C33.239 43.2679 33.2956 43.2829 33.3407 43.3169C34.9675 44.5961 35.2995 48.1378 35.0007 49.2253C34.5068 51.0128 32.5563 51.0419 31.8384 50.9878L32.1538 54.4503C32.1561 54.4815 32.1517 54.513 32.141 54.5424C32.1303 54.5719 32.1134 54.5987 32.0915 54.6211C32.0546 54.6569 32.0058 54.6777 31.9546 54.6794ZM28.8587 53.8961L31.7263 54.2336L31.4109 50.7753C31.4086 50.7436 31.4133 50.7119 31.4248 50.6823C31.4363 50.6527 31.4543 50.6261 31.4773 50.6044C31.4998 50.5818 31.5274 50.5651 31.5578 50.5556C31.5882 50.5462 31.6204 50.5443 31.6516 50.5503C31.7512 50.5503 34.1043 50.9378 34.6064 49.1169C34.8471 48.2461 34.6064 45.0753 33.2494 43.7836C32.0044 45.2461 29.2488 45.3128 28.4105 45.3003C28.5142 46.4169 28.9458 51.2503 28.8545 53.8961H28.8587Z" fill="#231F20"/>
<path d="M31.6147 50.7541C31.0224 50.6827 30.4611 50.4492 29.9921 50.0791C29.9921 50.0791 30.7059 51.8791 31.8139 52.1624L31.6147 50.7541Z" fill="#231F20"/>
<path d="M31.8136 52.3376H31.7679C30.581 52.0501 29.8465 50.2292 29.8133 50.1542C29.7969 50.1133 29.7954 50.0679 29.8091 50.026C29.8227 49.9841 29.8507 49.9483 29.888 49.9251C29.9239 49.9002 29.9675 49.889 30.0109 49.8936C30.0543 49.8982 30.0946 49.9182 30.1245 49.9501C30.5647 50.29 31.0879 50.5045 31.6393 50.5709C31.6804 50.5761 31.7186 50.5949 31.7479 50.6243C31.7772 50.6537 31.7959 50.6921 31.8011 50.7334L32.0003 52.1251C32.0047 52.1555 32.0016 52.1865 31.9915 52.2155C31.9814 52.2445 31.9645 52.2707 31.9422 52.2917C31.9062 52.3221 31.8606 52.3383 31.8136 52.3376ZM30.4731 50.6251C30.7252 51.1333 31.1077 51.5648 31.5812 51.8751L31.4484 50.9376C31.1122 50.8722 30.7849 50.7673 30.4731 50.6251Z" fill="#231F20"/>
<path d="M34.4453 52.5498L43.0524 57.2873L40.9774 63.3331C40.9774 63.3331 30.1625 57.5831 30.0878 56.029C30.0131 54.4748 34.4453 52.5498 34.4453 52.5498Z" fill="#388CE0"/>
<path d="M37.1923 70.8002C37.1923 70.8002 37.5451 62.996 36.7773 58.3002C36.4495 56.3002 36.5781 54.896 35.9183 53.8127C33.7022 50.1794 25.0702 51.2627 23.8169 53.7835C22.5636 56.3044 21.58 70.8752 21.58 70.8752L37.1923 70.8002Z" fill="#388CE0"/>
<path d="M28.7927 47.1958C28.7454 46.9623 28.6347 46.7464 28.4728 46.5721C28.311 46.3979 28.1042 46.2719 27.8755 46.2083C27.773 46.1743 27.6644 46.1627 27.5571 46.1742C27.4498 46.1857 27.3461 46.2201 27.253 46.275C27.1451 46.3681 27.0628 46.4875 27.0141 46.6218C26.9655 46.756 26.952 46.9006 26.975 47.0416C27.0106 47.4923 27.2135 47.9131 27.5435 48.2208C27.876 48.5237 28.3105 48.689 28.7595 48.6833" fill="white"/>
<path d="M28.7301 48.8916C28.2319 48.8929 27.7519 48.7044 27.3867 48.3641C27.0216 48.0238 26.7987 47.5572 26.763 47.0583C26.7368 46.8803 26.7575 46.6986 26.823 46.5312C26.8885 46.3638 26.9966 46.2165 27.1365 46.1041C27.2535 46.0307 27.385 45.9837 27.5218 45.9664C27.6587 45.9492 27.7977 45.962 27.9291 46.0041C28.1948 46.0793 28.4348 46.2263 28.6228 46.4291C28.8109 46.6319 28.9399 46.8827 28.9957 47.1541C29.0012 47.1809 29.0013 47.2086 28.9961 47.2354C28.9909 47.2623 28.9805 47.2879 28.9655 47.3107C28.9505 47.3335 28.9311 47.3532 28.9085 47.3685C28.8859 47.3838 28.8606 47.3945 28.8338 47.3999C28.7794 47.4098 28.7234 47.3978 28.6776 47.3667C28.6318 47.3355 28.6 47.2877 28.589 47.2333C28.5486 47.0374 28.4557 46.8563 28.3205 46.7095C28.1852 46.5627 28.0126 46.4556 27.8212 46.3999C27.748 46.3738 27.67 46.364 27.5926 46.3712C27.5152 46.3784 27.4403 46.4024 27.373 46.4416C27.2974 46.5159 27.2404 46.6071 27.2065 46.7078C27.1726 46.8084 27.1628 46.9156 27.178 47.0208C27.2091 47.4178 27.3884 47.7884 27.6801 48.0583C27.9731 48.3259 28.3548 48.4745 28.7508 48.4749C28.8055 48.476 28.8577 48.4983 28.8964 48.5371C28.9351 48.576 28.9573 48.6284 28.9583 48.6833C28.9583 48.7385 28.9365 48.7915 28.8976 48.8306C28.8587 48.8697 28.8059 48.8916 28.7508 48.8916H28.7301Z" fill="#231F20"/>
<path d="M33.438 45.7401C33.5343 45.71 33.5675 45.5413 33.5122 45.3633C33.4569 45.1854 33.3341 45.0656 33.2378 45.0958C33.1415 45.1259 33.1083 45.2946 33.1636 45.4726C33.2189 45.6505 33.3418 45.7703 33.438 45.7401Z" fill="#231F20"/>
<path d="M36.3042 102.97C36.3042 102.97 36.1672 105.12 36.4453 105.47C36.7233 105.82 43.6165 106.249 43.272 105.416C42.9276 104.583 40.782 102.82 40.782 102.82" fill="white"/>
<path d="M40.7528 106.108C38.8189 106.108 36.499 105.87 36.2832 105.595C35.9803 105.216 36.0633 103.483 36.0965 102.958C36.1017 102.903 36.1279 102.851 36.1696 102.815C36.2113 102.779 36.2653 102.76 36.3206 102.762C36.3478 102.764 36.3744 102.772 36.3988 102.784C36.4232 102.796 36.4449 102.814 36.4626 102.835C36.4804 102.855 36.4938 102.88 36.5022 102.906C36.5106 102.932 36.5137 102.96 36.5115 102.987C36.4492 103.983 36.47 105.166 36.6069 105.337C37.6813 105.551 38.7736 105.661 39.8688 105.666C41.8982 105.737 42.861 105.587 43.0602 105.454C42.7489 104.795 41.2383 103.454 40.6698 102.983C40.6483 102.965 40.6305 102.944 40.6174 102.92C40.6043 102.895 40.5961 102.868 40.5934 102.841C40.5907 102.813 40.5935 102.786 40.6016 102.759C40.6098 102.733 40.623 102.708 40.6407 102.687C40.6755 102.645 40.7256 102.618 40.78 102.612C40.8344 102.607 40.8887 102.623 40.9312 102.658C41.0225 102.733 43.1017 104.466 43.4627 105.337C43.4979 105.426 43.4976 105.524 43.4621 105.613C43.4265 105.701 43.3584 105.773 43.2718 105.812C42.9149 106.024 41.9148 106.108 40.7528 106.108Z" fill="#231F20"/>
<path d="M34.1586 45.5078C34.1586 45.5078 35.6734 47.2411 35.2999 47.6161C34.9264 47.9911 34.0549 47.8036 34.0549 47.8036" fill="white"/>
<path d="M34.5367 48.0578C34.3598 48.0573 34.1834 48.0405 34.0096 48.0078C33.9829 48.0019 33.9575 47.9907 33.9351 47.9749C33.9126 47.9591 33.8935 47.939 33.8789 47.9158C33.8642 47.8925 33.8543 47.8666 33.8497 47.8395C33.845 47.8124 33.8458 47.7846 33.8519 47.7578C33.8573 47.7311 33.868 47.7057 33.8833 47.6832C33.8986 47.6607 33.9183 47.6415 33.9411 47.6268C33.9639 47.612 33.9894 47.602 34.0162 47.5973C34.0429 47.5926 34.0703 47.5933 34.0968 47.5994C34.296 47.6411 34.9268 47.7078 35.155 47.4703C35.2256 47.2911 34.6778 46.4203 34.0055 45.6453C33.9856 45.6266 33.9698 45.604 33.959 45.5789C33.9482 45.5538 33.9426 45.5268 33.9426 45.4994C33.9426 45.4721 33.9482 45.4451 33.959 45.42C33.9698 45.3949 33.9856 45.3723 34.0055 45.3536C34.0248 45.3341 34.0477 45.3186 34.073 45.308C34.0983 45.2974 34.1254 45.292 34.1528 45.292C34.1802 45.292 34.2073 45.2974 34.2326 45.308C34.2579 45.3186 34.2808 45.3341 34.3001 45.3536C34.9143 46.0578 35.8771 47.2994 35.4331 47.7453C35.1846 47.96 34.8642 48.0717 34.5367 48.0578Z" fill="#231F20"/>
<path d="M40.9809 63.542C40.9475 63.5422 40.9146 63.5335 40.8855 63.517C40.8232 63.4878 34.8721 60.2961 32.7058 59.1128C32.6814 59.1001 32.6598 59.0826 32.6423 59.0613C32.6248 59.0401 32.6117 59.0154 32.604 58.989C32.5962 58.9625 32.5939 58.9347 32.5971 58.9073C32.6004 58.8799 32.6091 58.8534 32.6228 58.8295C32.6355 58.8055 32.6527 58.7843 32.6736 58.7671C32.6945 58.7498 32.7186 58.737 32.7444 58.7292C32.7703 58.7215 32.7975 58.719 32.8244 58.7219C32.8512 58.7248 32.8772 58.733 32.9009 58.7461C35.0713 59.9295 41.0183 63.117 41.0805 63.1503C41.1046 63.1634 41.1258 63.1811 41.143 63.2024C41.1601 63.2238 41.173 63.2483 41.1807 63.2746C41.1884 63.301 41.1908 63.3286 41.1879 63.3559C41.185 63.3831 41.1767 63.4096 41.1635 63.4336C41.146 63.4668 41.1196 63.4945 41.0874 63.5136C41.0552 63.5327 41.0183 63.5425 40.9809 63.542Z" fill="#231F20"/>
<path d="M30.1999 78.0248C30.1747 78.0253 30.1496 78.0208 30.1261 78.0115C30.1025 78.0022 30.0811 77.9883 30.063 77.9707C30.0256 77.9373 29.1541 77.1123 28.2536 74.0707C28.2391 74.0171 28.2457 73.96 28.272 73.9112C28.2982 73.8623 28.3422 73.8254 28.3947 73.8082C28.4475 73.7938 28.5038 73.8005 28.5518 73.827C28.5997 73.8534 28.6357 73.8974 28.652 73.9498C29.511 76.8665 30.312 77.6582 30.341 77.6623C30.3605 77.6817 30.3759 77.7047 30.3865 77.7301C30.397 77.7555 30.4024 77.7827 30.4024 77.8102C30.4024 77.8377 30.397 77.865 30.3865 77.8904C30.3759 77.9158 30.3605 77.9388 30.341 77.9582C30.323 77.9781 30.3013 77.9942 30.2771 78.0056C30.2529 78.0171 30.2267 78.0236 30.1999 78.0248Z" fill="white"/>
<path d="M79.0993 66.571C79.0684 66.5714 79.0379 66.5648 79.0099 66.5518C78.9819 66.5389 78.9571 66.5198 78.9374 66.496C78.7714 66.3085 62.5698 47.6835 60.5322 46.2252C59.7478 45.6585 54.8882 47.5793 44.7248 55.1793C44.6789 55.2078 44.6241 55.218 44.571 55.2079C44.518 55.1978 44.4707 55.1681 44.4384 55.1247C44.4061 55.0813 44.3912 55.0273 44.3966 54.9734C44.402 54.9195 44.4273 54.8696 44.4675 54.8335C44.5049 54.8085 48.0116 52.1877 51.73 49.7877C59.3619 44.8543 60.445 45.621 60.7812 45.8752C62.8562 47.3627 78.5888 65.4585 79.257 66.2127C79.2968 66.2532 79.3191 66.3078 79.3191 66.3648C79.3191 66.4217 79.2968 66.4763 79.257 66.5168C79.2131 66.5542 79.1568 66.5736 79.0993 66.571Z" fill="white"/>
<path d="M90.8472 63.4336C90.8098 63.4336 90.7731 63.424 90.7404 63.4058C90.7077 63.3876 90.6802 63.3613 90.6605 63.3294C87.2782 57.7378 83.3689 51.8919 82.68 51.7878C81.9828 51.8878 76.2724 56.4836 72.8404 59.3544C72.7959 59.386 72.7412 59.3995 72.6872 59.3923C72.6332 59.385 72.584 59.3576 72.5493 59.3154C72.5147 59.2732 72.4972 59.2194 72.5004 59.1649C72.5035 59.1103 72.5271 59.0589 72.5665 59.0211C73.4836 58.2544 81.5637 51.5211 82.6343 51.3586C82.9871 51.3003 84.5185 52.3544 91.0298 63.1086C91.0587 63.1578 91.0671 63.2166 91.0531 63.272C91.0391 63.3274 91.0039 63.375 90.9551 63.4044C90.9226 63.4243 90.8852 63.4344 90.8472 63.4336Z" fill="#FF3967"/>
<path d="M73.9655 51.4876C73.614 51.4876 73.2704 51.3829 72.9782 51.1867C72.686 50.9906 72.4584 50.7118 72.3241 50.3857C72.1898 50.0596 72.1548 49.7008 72.2237 49.3548C72.2926 49.0087 72.4622 48.691 72.711 48.4418C72.9598 48.1925 73.2767 48.023 73.6215 47.9547C73.9663 47.8863 74.3236 47.9222 74.6481 48.0578C74.9726 48.1935 75.2497 48.4227 75.4443 48.7165C75.639 49.0103 75.7425 49.3555 75.7417 49.7084C75.7406 50.1806 75.5529 50.6332 75.22 50.9667C74.887 51.3003 74.4358 51.4876 73.9655 51.4876ZM73.9655 48.3542C73.6987 48.3542 73.4379 48.4337 73.2161 48.5824C72.9943 48.7312 72.8215 48.9427 72.7194 49.1902C72.6173 49.4376 72.5906 49.7099 72.6426 49.9726C72.6947 50.2353 72.8231 50.4766 73.0118 50.6659C73.2004 50.8553 73.4407 50.9843 73.7023 51.0365C73.964 51.0888 74.2352 51.062 74.4816 50.9595C74.7281 50.857 74.9387 50.6834 75.0869 50.4607C75.2351 50.238 75.3142 49.9762 75.3142 49.7084C75.3142 49.3493 75.1721 49.0048 74.9192 48.7509C74.6662 48.4969 74.3232 48.3542 73.9655 48.3542Z" fill="white"/>
<path d="M31.872 48.2871C31.9635 48.5158 32.1162 48.7146 32.3132 48.8617C32.5102 49.0088 32.7439 49.0983 32.9884 49.1204C33.2301 49.1353 33.4721 49.0958 33.6968 49.005C33.9215 48.9142 34.1232 48.7743 34.2873 48.5954" fill="white"/>
<path d="M33.1087 49.3123H32.9676C32.6872 49.2891 32.4185 49.189 32.1909 49.023C31.9633 48.8569 31.7855 48.6313 31.677 48.3706C31.6572 48.3187 31.6587 48.261 31.6813 48.2102C31.7038 48.1594 31.7456 48.1197 31.7973 48.0998C31.849 48.0799 31.9065 48.0815 31.9571 48.1041C32.0077 48.1268 32.0472 48.1687 32.0671 48.2206C32.1463 48.4093 32.2758 48.5724 32.4412 48.6922C32.6066 48.812 32.8016 48.8838 33.005 48.8998C33.2157 48.9114 33.4265 48.8764 33.6222 48.7972C33.818 48.718 33.9941 48.5966 34.1379 48.4415C34.1572 48.4219 34.1802 48.4064 34.2054 48.3959C34.2307 48.3853 34.2578 48.3798 34.2852 48.3798C34.3126 48.3798 34.3398 48.3853 34.365 48.3959C34.3903 48.4064 34.4133 48.4219 34.4326 48.4415C34.4519 48.4605 34.4672 48.4832 34.4777 48.5082C34.4882 48.5333 34.4936 48.5601 34.4936 48.5873C34.4936 48.6145 34.4882 48.6414 34.4777 48.6664C34.4672 48.6914 34.4519 48.7141 34.4326 48.7331C34.2615 48.9134 34.0563 49.0576 33.8289 49.157C33.6016 49.2565 33.3567 49.3093 33.1087 49.3123Z" fill="#231F20"/>
<path d="M27.141 50.529C26.3062 50.5292 25.4831 50.3323 24.7382 49.954C24.3677 49.7889 24.0564 49.5142 23.8459 49.1665C23.7321 48.9551 23.6871 48.7132 23.7173 48.4748C23.3828 48.5237 23.0415 48.4654 22.742 48.3082C22.3078 48.0632 21.9357 47.721 21.6547 47.3082C21.5542 47.1926 21.4983 47.0448 21.497 46.8915C21.5137 46.7442 21.583 46.608 21.6921 46.5082L21.9701 46.204C22.4819 45.6866 22.9292 45.1088 23.3023 44.4832C23.5277 44.0321 23.7138 43.5623 23.8584 43.079C23.9787 42.7165 24.1032 42.3415 24.2734 41.9832C25.3939 39.4415 27.4647 39.029 29.3488 38.9582C30.5357 38.9165 32.1169 39.2915 32.8348 40.479C32.8817 40.4439 32.9334 40.4158 32.9884 40.3957C33.2137 40.3121 33.4627 40.3211 33.6814 40.4207C33.9912 40.5965 34.2391 40.8643 34.3911 41.1873C35.0917 42.4576 35.4062 43.9062 35.2958 45.354C35.2942 45.3816 35.2871 45.4086 35.2749 45.4333C35.2627 45.4581 35.2455 45.4801 35.2246 45.498C35.2036 45.5159 35.1793 45.5294 35.153 45.5376C35.1267 45.5458 35.099 45.5485 35.0717 45.5457C35.0173 45.5414 34.9669 45.5158 34.9311 45.4745C34.8954 45.4332 34.8773 45.3794 34.8808 45.3248C34.9828 43.964 34.6871 42.6028 34.03 41.4082C33.9126 41.1659 33.7244 40.9653 33.4905 40.8332C33.3734 40.7854 33.2424 40.7854 33.1253 40.8332C33.0909 40.8449 33.0591 40.8635 33.032 40.8878C33.0049 40.9122 32.983 40.9418 32.9676 40.9748C32.9517 41.0114 32.9256 41.0427 32.8925 41.0649C32.8594 41.087 32.8206 41.0992 32.7809 41.0998C32.7406 41.0989 32.7014 41.0868 32.6676 41.0647C32.6339 41.0426 32.607 41.0115 32.59 40.9748C32.0505 39.7623 30.515 39.3748 29.353 39.4248C26.8381 39.5165 25.4727 40.3207 24.6469 42.1998C24.4991 42.5458 24.3689 42.899 24.2568 43.2582C24.0979 43.7552 23.8966 44.2376 23.655 44.6998C23.2672 45.3561 22.7987 45.9609 22.2606 46.4998L21.9867 46.804C21.9488 46.8396 21.9178 46.882 21.8954 46.929C21.9157 46.9877 21.9499 47.0406 21.995 47.0832C22.2364 47.4456 22.5573 47.7477 22.9329 47.9665C23.1034 48.0608 23.2957 48.1081 23.4903 48.1037C23.6849 48.0993 23.8749 48.0434 24.041 47.9415C24.0847 47.9117 24.1381 47.8998 24.1902 47.9082C24.2424 47.9166 24.2894 47.9446 24.3216 47.9866C24.3539 48.0286 24.3691 48.0813 24.3639 48.1341C24.3588 48.1869 24.3338 48.2357 24.2941 48.2707C24.2035 48.366 24.1466 48.4887 24.1324 48.6197C24.1181 48.7508 24.1473 48.8829 24.2153 48.9957C24.3931 49.2553 24.6406 49.459 24.9291 49.5832C25.6986 49.9749 26.5578 50.1546 27.4191 50.104C27.4464 50.1017 27.474 50.105 27.5001 50.1138C27.5261 50.1225 27.5502 50.1364 27.5707 50.1547C27.5913 50.173 27.6079 50.1953 27.6197 50.2202C27.6314 50.2452 27.638 50.2723 27.639 50.2998C27.6407 50.3272 27.637 50.3546 27.6281 50.3806C27.6192 50.4065 27.6053 50.4304 27.5872 50.4509C27.569 50.4714 27.5471 50.4881 27.5225 50.5001C27.4979 50.5121 27.4712 50.5191 27.444 50.5207L27.141 50.529Z" fill="#231F20"/>
<path d="M75.2686 54.5586H146.57C149.67 54.5586 151.317 56.7211 150.242 59.3878L134.207 99.2253C133.136 101.892 129.75 104.054 126.65 104.054H55.3444C52.2444 104.054 50.601 101.892 51.6758 99.2253L67.7073 59.3878C68.7821 56.7211 72.1644 54.5586 75.2686 54.5586Z" fill="white"/>
<path d="M126.65 104.27H55.3444C53.7134 104.27 52.373 103.67 51.6675 102.604C51.045 101.666 50.9578 100.416 51.46 99.1662L67.4914 59.3287C68.5953 56.5912 72.0564 54.3662 75.2519 54.3662H146.57C148.205 54.3662 149.545 54.9662 150.247 56.012C150.89 56.9662 150.96 58.2037 150.442 59.4912L134.406 99.3245C133.306 102.041 129.824 104.27 126.65 104.27ZM75.2685 54.7745C72.2515 54.7745 68.9481 56.8579 67.9064 59.4704L51.875 99.3037C51.4143 100.454 51.46 101.55 52.0285 102.383C52.651 103.308 53.8587 103.841 55.3485 103.841H126.65C129.667 103.841 132.966 101.733 134.012 99.1454L150.043 59.3079C150.508 58.1579 150.458 57.0662 149.894 56.2329C149.271 55.3037 148.06 54.7745 146.574 54.7745H75.2685Z" fill="#231F20"/>
<path d="M122.296 30.2001H110.261C110.233 30.2007 110.205 30.1956 110.179 30.1852C110.153 30.1747 110.129 30.1592 110.109 30.1394C110.089 30.1196 110.073 30.096 110.062 30.0699C110.051 30.0439 110.046 30.0159 110.046 29.9876V17.9168C110.036 17.8846 110.035 17.8506 110.041 17.8176C110.047 17.7847 110.061 17.7536 110.081 17.7268C110.101 17.7 110.127 17.6783 110.157 17.6634C110.187 17.6484 110.22 17.6406 110.253 17.6406C110.286 17.6406 110.319 17.6484 110.349 17.6634C110.379 17.6783 110.405 17.7 110.425 17.7268C110.445 17.7536 110.459 17.7847 110.465 17.8176C110.471 17.8506 110.47 17.8846 110.461 17.9168V29.771H122.292C122.324 29.7618 122.358 29.7602 122.391 29.7663C122.424 29.7724 122.455 29.7861 122.481 29.8063C122.508 29.8265 122.53 29.8527 122.545 29.8827C122.559 29.9127 122.567 29.9458 122.567 29.9793C122.567 30.0128 122.559 30.0459 122.545 30.0759C122.53 30.1059 122.508 30.1321 122.481 30.1523C122.455 30.1725 122.424 30.1862 122.391 30.1923C122.358 30.1984 122.324 30.1968 122.292 30.1876L122.296 30.2001Z" fill="#231F20"/>
<path d="M79.9539 25.8332C79.6249 25.8238 79.3047 25.7241 79.0281 25.5449C78.7515 25.3657 78.5292 25.1137 78.3852 24.8165C77.8997 23.879 76.5509 18.9832 76.3102 17.0332C76.2359 16.5957 76.335 16.1464 76.5862 15.7813C76.8375 15.4161 77.221 15.1641 77.6548 15.079C78.5969 14.8165 79.8875 15.079 80.232 15.8582C80.5142 16.4999 81.0122 17.7082 81.0122 17.7082L80.6179 17.8749C80.6179 17.8749 80.095 16.6665 79.8294 16.029C79.6095 15.5207 78.5844 15.2582 77.7544 15.4915C77.4208 15.5515 77.1244 15.7416 76.93 16.0204C76.7356 16.2991 76.659 16.6438 76.7169 16.979C76.9825 19.0624 78.3271 23.7832 78.7587 24.6165C78.8807 24.8826 79.0867 25.1008 79.3449 25.2372C79.6031 25.3735 79.8988 25.4205 80.1863 25.3707C80.397 25.3018 80.5759 25.159 80.6902 24.9685C80.8045 24.7779 80.8467 24.5524 80.8088 24.3332C80.7549 22.7582 78.6384 16.9999 78.6176 16.9415C78.6078 16.915 78.6033 16.8868 78.6044 16.8585C78.6056 16.8302 78.6123 16.8025 78.6243 16.7769C78.6363 16.7513 78.6533 16.7283 78.6742 16.7093C78.6952 16.6904 78.7196 16.6758 78.7463 16.6665C78.7991 16.6475 78.8573 16.6499 78.9085 16.6732C78.9596 16.6966 78.9997 16.739 79.0202 16.7915C79.1073 17.0332 81.1782 22.6749 81.2363 24.3165C81.2803 24.6343 81.2095 24.9574 81.0367 25.2272C80.8639 25.4971 80.6005 25.6958 80.2942 25.7874C80.1831 25.8167 80.0688 25.8321 79.9539 25.8332Z" fill="#231F20"/>
<path d="M138.324 67.7254H113.901C113.646 67.7416 113.392 67.6923 113.162 67.5822C112.932 67.4721 112.733 67.3048 112.585 67.0962C112.442 66.8437 112.362 66.5597 112.353 66.2691C112.345 65.9785 112.407 65.6902 112.536 65.4295L113.366 63.417C113.634 62.8168 114.058 62.3002 114.594 61.9219C115.13 61.5435 115.758 61.3173 116.412 61.267H140.839C141.093 61.2528 141.346 61.3029 141.576 61.4129C141.806 61.5228 142.005 61.689 142.154 61.8962C142.298 62.1487 142.377 62.4327 142.386 62.7233C142.395 63.0139 142.332 63.3022 142.204 63.5629L141.374 65.5795C141.105 66.1799 140.68 66.6962 140.143 67.0739C139.606 67.4516 138.977 67.6767 138.324 67.7254ZM116.42 61.667C115.85 61.7134 115.304 61.9127 114.837 62.2441C114.371 62.5754 114.001 63.0266 113.768 63.5504L112.938 65.567C112.834 65.764 112.779 65.9836 112.779 66.2066C112.779 66.4296 112.834 66.6493 112.938 66.8462C113.052 66.99 113.199 67.1034 113.367 67.1761C113.535 67.2488 113.719 67.2786 113.901 67.2629H138.324C138.89 67.2208 139.434 67.0275 139.9 66.7029C140.366 66.3783 140.738 65.9343 140.976 65.417L141.806 63.4045C141.91 63.207 141.965 62.9866 141.965 62.7629C141.965 62.5391 141.91 62.3188 141.806 62.1212C141.695 61.9733 141.549 61.8557 141.382 61.7792C141.214 61.7028 141.03 61.6699 140.847 61.6837L116.42 61.667Z" fill="#FF3967"/>
</svg>
