<svg width="202" height="153" viewBox="0 0 202 153" fill="none" xmlns="http://www.w3.org/2000/svg">
<path d="M112.888 101.25C114.347 101.352 115.493 99.8274 116.423 98.4453C115.221 100.276 116.771 102.882 118.104 104.111C119.256 105.099 120.58 105.862 122.008 106.36C124.232 107.26 126.612 107.701 129.007 107.656C131.414 107.603 133.745 106.795 135.678 105.346C137.892 103.524 139.354 100.935 139.779 98.0832C140.184 95.2469 139.87 92.3531 138.865 89.6733C138.597 88.813 138.17 88.0118 137.607 87.312C136.779 86.4638 135.742 85.8546 134.603 85.5474C133.073 85.0525 131.477 84.803 129.871 84.8079C127.639 84.8079 126.043 84.66 124.038 83.7267C122.476 82.9787 120.845 82.3843 119.17 81.9519C116.044 81.1818 112.155 81.2226 110.812 84.7722C109.469 88.3218 108.025 100.914 112.888 101.25Z" fill="white"/>
<path d="M128.452 107.911C126.202 107.877 123.977 107.43 121.887 106.59C120.428 106.086 119.077 105.305 117.907 104.29C116.867 103.331 115.64 101.51 115.711 99.8066C114.893 100.827 113.973 101.571 112.857 101.495C112.379 101.457 111.917 101.3 111.511 101.04C111.106 100.779 110.771 100.422 110.534 100C108.287 96.4304 109.444 87.6227 110.534 84.7004C112.049 80.6204 116.594 81.0947 119.175 81.7271C120.866 82.1619 122.512 82.7614 124.089 83.5172C126.023 84.4199 127.533 84.5678 129.82 84.578H129.861C131.479 84.5766 133.087 84.8295 134.628 85.3277C135.811 85.6417 136.887 86.2766 137.739 87.1637C138.323 87.887 138.765 88.7161 139.042 89.6066C140.062 92.3254 140.38 95.2617 139.966 98.1389C139.528 101.05 138.034 103.694 135.774 105.554C133.802 107.034 131.423 107.859 128.967 107.916L128.452 107.911ZM116.604 98.5775C115.524 100.23 116.918 102.698 118.251 103.927C119.375 104.9 120.672 105.648 122.074 106.131C124.266 107.021 126.614 107.456 128.977 107.411C131.332 107.357 133.613 106.567 135.507 105.151C137.671 103.367 139.101 100.833 139.516 98.042C139.915 95.2485 139.604 92.3984 138.612 89.7596C138.355 88.93 137.946 88.1566 137.405 87.4799C136.61 86.6592 135.608 86.0737 134.507 85.7867C133.015 85.3028 131.458 85.0567 129.891 85.0574H129.74C127.497 85.0574 125.891 84.8738 123.917 83.9558C122.369 83.2142 120.754 82.625 119.094 82.1963C116.675 81.6047 112.418 81.1763 111.014 84.8636C109.964 87.6482 108.822 96.3794 110.954 99.7403C111.151 100.096 111.432 100.398 111.772 100.62C112.112 100.841 112.5 100.975 112.903 101.01C114.196 101.097 115.241 99.7658 116.195 98.3123C116.231 98.2582 116.287 98.2204 116.35 98.2071C116.413 98.1937 116.479 98.2059 116.534 98.2409C116.56 98.2589 116.583 98.282 116.601 98.309C116.619 98.3359 116.631 98.3662 116.637 98.3979C116.643 98.4297 116.643 98.4624 116.637 98.4941C116.63 98.5258 116.618 98.5559 116.599 98.5826L116.604 98.5775Z" fill="#231F20"/>
<path d="M111.993 127.628H146.172C150.02 116.153 156.918 95.3906 156.822 94.1309C156.686 92.3867 144.051 67.667 138.597 63.7706C133.143 59.8742 123.033 66.8612 123.033 66.8612L124.366 76.9337L132.613 76.2656L134.259 91.3361C134.259 91.3361 126.361 91.4432 122.366 94.1309C118.372 96.8186 112.66 105.57 111.993 111.328C111.327 117.086 111.993 123.956 111.993 123.956V127.628Z" fill="white"/>
<path d="M146.172 127.872H111.993C111.929 127.872 111.867 127.847 111.822 127.801C111.777 127.755 111.751 127.693 111.751 127.628V123.956C111.751 123.91 111.089 117.035 111.751 111.297C112.433 105.381 118.18 96.6553 122.235 93.9268C125.871 91.4788 132.547 91.1422 133.986 91.0963L132.395 76.5307L124.381 77.1835C124.319 77.1867 124.259 77.1664 124.211 77.1268C124.163 77.0872 124.132 77.031 124.123 76.9693L122.79 66.8917C122.785 66.8465 122.792 66.8008 122.811 66.7595C122.83 66.7182 122.859 66.6828 122.896 66.6571C124.72 65.4532 126.659 64.4383 128.684 63.6277C132.961 61.9447 136.435 61.9294 138.738 63.5716C144.167 67.4476 156.918 92.2183 157.065 94.1104C157.156 95.3395 151.318 113.057 146.404 127.704C146.388 127.753 146.357 127.796 146.315 127.826C146.273 127.857 146.223 127.873 146.172 127.872ZM112.236 127.378H145.995C152.787 107.136 156.646 95.0284 156.6 94.1512C156.454 92.2795 143.844 67.8046 138.476 63.9745C133.542 60.4453 124.482 66.2083 123.326 66.9784L124.603 76.6684L132.623 76.0156C132.686 76.0112 132.748 76.0315 132.797 76.0723C132.846 76.1131 132.878 76.1713 132.885 76.2349L134.501 91.2901C134.505 91.3241 134.502 91.3586 134.492 91.3912C134.481 91.4238 134.464 91.4537 134.441 91.4788C134.418 91.504 134.391 91.5242 134.361 91.5383C134.33 91.5523 134.297 91.5598 134.264 91.5604C134.183 91.5604 126.386 91.6981 122.502 94.3144C118.619 96.9307 112.882 105.692 112.236 111.333C111.589 116.974 112.236 123.843 112.236 123.91V127.378Z" fill="#231F20"/>
<path d="M142.663 42.3856L137.567 94.6402C137.528 95.0503 137.409 95.4486 137.217 95.8122C137.025 96.1758 136.764 96.4976 136.449 96.7591C136.134 97.0206 135.77 97.2168 135.38 97.3362C134.989 97.4557 134.579 97.4962 134.173 97.4554L122.917 96.3334L48.48 88.9333C47.6604 88.852 46.9062 88.4453 46.3835 87.8026C45.8607 87.1599 45.6121 86.3339 45.6924 85.5061L50.7828 33.2515C50.8214 32.8416 50.9397 32.4434 51.1311 32.0798C51.3225 31.7163 51.583 31.3945 51.8979 31.1329C52.2128 30.8713 52.5757 30.6751 52.9658 30.5556C53.356 30.436 53.7657 30.3955 54.1714 30.4363L95.2582 34.5163L139.885 38.9584C140.702 39.0434 141.453 39.4516 141.973 40.0937C142.494 40.7358 142.742 41.5597 142.663 42.3856Z" fill="#388CE0"/>
<path d="M134.487 97.6954H134.148L48.4447 89.158C47.5669 89.0704 46.7595 88.6344 46.1999 87.9458C45.6403 87.2573 45.3742 86.3726 45.4601 85.486L50.5606 33.2314C50.603 32.792 50.7307 32.3654 50.9363 31.9759C51.142 31.5863 51.4216 31.2415 51.7593 30.9611C52.097 30.6808 52.486 30.4703 52.9042 30.3418C53.3224 30.2133 53.7616 30.1693 54.1966 30.2122L139.885 38.7598C140.761 38.8488 141.567 39.2845 142.126 39.9715C142.685 40.6586 142.953 41.5413 142.87 42.4267L137.789 94.666C137.707 95.4939 137.324 96.2617 136.714 96.8211C136.104 97.3806 135.31 97.692 134.487 97.6954ZM53.8583 30.6457C53.1456 30.651 52.46 30.922 51.9333 31.4069C51.4066 31.8917 51.076 32.5561 51.005 33.2722L45.9045 85.5268C45.8284 86.2937 46.0569 87.0598 46.5399 87.6565C47.0228 88.2533 47.7207 88.632 48.48 88.7092L134.184 97.2313C134.945 97.3068 135.705 97.0743 136.296 96.5847C136.888 96.0952 137.263 95.3887 137.34 94.6201L142.44 42.3655C142.514 41.5976 142.283 40.8316 141.798 40.2352C141.314 39.6388 140.615 39.2605 139.855 39.1831L54.1512 30.661C54.0539 30.6507 53.9561 30.6456 53.8583 30.6457Z" fill="#231F20"/>
<path d="M151.611 41.6516L140.466 92.9372C140.378 93.3398 140.213 93.7211 139.98 94.0593C139.747 94.3974 139.45 94.6858 139.106 94.908C138.762 95.1301 138.378 95.2816 137.976 95.3539C137.575 95.4262 137.163 95.4177 136.764 95.3291L125.745 92.876L52.6513 76.6835C52.2507 76.596 51.8713 76.4292 51.535 76.1927C51.1986 75.9562 50.912 75.6547 50.6918 75.3057C50.4715 74.9566 50.322 74.5669 50.2518 74.1591C50.1816 73.7514 50.1922 73.3336 50.2829 72.9299L61.4333 21.6647C61.5199 21.2607 61.6849 20.878 61.9188 20.5387C62.1526 20.1995 62.4507 19.9103 62.7958 19.6879C63.1408 19.4656 63.5261 19.3144 63.9293 19.2431C64.3325 19.1719 64.7457 19.182 65.145 19.2728L105.469 28.2131L149.258 37.9031C149.656 37.993 150.033 38.1612 150.367 38.3983C150.701 38.6354 150.985 38.9366 151.204 39.2847C151.422 39.6329 151.571 40.0211 151.641 40.4272C151.711 40.8334 151.701 41.2494 151.611 41.6516Z" fill="white"/>
<path d="M137.441 95.7522C137.19 95.7529 136.939 95.7255 136.694 95.6706L52.5759 77.0097C52.1331 76.9118 51.7137 76.7268 51.3418 76.4651C50.9699 76.2034 50.6526 75.8703 50.4083 75.4848C50.1639 75.0992 49.9972 74.6688 49.9177 74.2181C49.8382 73.7675 49.8474 73.3054 49.9448 72.8583L61.1053 21.588C61.2016 21.141 61.3843 20.7176 61.6429 20.3421C61.9015 19.9665 62.231 19.6461 62.6123 19.3993C62.9937 19.1525 63.4195 18.9841 63.8654 18.9037C64.3114 18.8233 64.7686 18.8326 65.211 18.9309L149.319 37.5714C150.21 37.774 150.987 38.3236 151.479 39.1009C151.972 39.8782 152.141 40.8204 151.95 41.7228L140.804 93.0135C140.636 93.7882 140.21 94.4816 139.599 94.9794C138.988 95.4773 138.226 95.7499 137.441 95.7522ZM64.4535 19.548C63.8263 19.5488 63.2184 19.7663 62.7306 20.1643C62.2428 20.5623 61.9045 21.1169 61.7719 21.7359L50.6215 73.0266C50.4666 73.7474 50.6007 74.5008 50.9944 75.122C51.3881 75.7433 52.0093 76.1818 52.7223 76.3416L136.855 94.9872C137.57 95.145 138.318 95.0097 138.935 94.6109C139.551 94.2121 139.986 93.5826 140.143 92.8605L151.273 41.5749C151.428 40.8534 151.293 40.0994 150.898 39.478C150.504 38.8567 149.881 38.4186 149.167 38.2599L65.0544 19.6143C64.8572 19.5696 64.6556 19.5474 64.4535 19.548Z" fill="#231F20"/>
<path d="M78.4106 44.4681L70.9033 42.804C69.5766 42.5099 68.265 43.3576 67.9738 44.6974L66.7179 50.4759C66.4267 51.8157 67.2661 53.1402 68.5928 53.4343L76.1002 55.0985C77.4268 55.3926 78.7384 54.5448 79.0296 53.205L80.2855 47.4266C80.5767 46.0868 79.7373 44.7622 78.4106 44.4681Z" fill="white"/>
<path d="M70.3771 42.7475C70.547 42.7478 70.7163 42.7666 70.8821 42.8036L78.3915 44.4662C78.71 44.5329 79.0123 44.6626 79.2809 44.848C79.5494 45.0334 79.7788 45.2708 79.9559 45.5464C80.133 45.822 80.2542 46.1303 80.3124 46.4535C80.3707 46.7767 80.3649 47.1084 80.2953 47.4293L79.0429 53.2025C78.9222 53.7558 78.6182 54.2509 78.1812 54.6061C77.7441 54.9613 77.2001 55.1552 76.6391 55.1558C76.461 55.1546 76.2834 55.1358 76.1089 55.0997L68.6046 53.432C68.2888 53.3625 67.9898 53.2309 67.7244 53.0445C67.4591 52.8582 67.2327 52.6209 67.0583 52.3462C66.8838 52.0715 66.7647 51.7648 66.7076 51.4435C66.6506 51.1223 66.6569 50.7929 66.726 50.474L67.9834 44.7008C68.1041 44.1476 68.4081 43.6525 68.8452 43.2973C69.2823 42.9421 69.8263 42.7482 70.3872 42.7475M70.3872 42.3701C69.7421 42.3739 69.1173 42.5983 68.6147 43.0067C68.1121 43.4152 67.7614 43.9836 67.6198 44.6192L66.3624 50.3924C66.2017 51.1337 66.3391 51.909 66.7445 52.5479C67.1498 53.1868 67.7898 53.6369 68.5238 53.7992L76.0281 55.4669C76.2291 55.5092 76.4338 55.5314 76.6391 55.5332C77.2842 55.5295 77.9091 55.3051 78.4117 54.8967C78.9143 54.4882 79.265 53.9198 79.4065 53.2841L80.6589 47.5109C80.8197 46.7691 80.6824 45.9931 80.2772 45.3534C79.8719 44.7137 79.2319 44.2625 78.4975 44.099L70.9932 42.4364C70.7943 42.3915 70.5911 42.3692 70.3872 42.3701Z" fill="#231F20"/>
<path d="M72.3944 43.1372L70.0839 53.7676L70.5772 53.8769L72.8876 43.2466L72.3944 43.1372Z" fill="#388CE0"/>
<path d="M76.9187 44.1392L76.4255 44.0298L75.2702 49.345L74.115 54.6602L74.6082 54.7695L76.9187 44.1392Z" fill="#388CE0"/>
<path d="M68.0272 44.453L67.9189 44.9512L80.2306 47.6803L80.3389 47.1822L68.0272 44.453Z" fill="#388CE0"/>
<path d="M66.7712 50.2401L66.6629 50.7383L78.9746 53.4674L79.0829 52.9693L66.7712 50.2401Z" fill="#388CE0"/>
<path d="M67.6326 46.2802L67.5244 46.7783L71.426 47.6432L71.5343 47.1451L67.6326 46.2802Z" fill="#388CE0"/>
<path d="M67.1707 48.4022L67.0624 48.9004L70.9641 49.7653L71.0724 49.2671L67.1707 48.4022Z" fill="#388CE0"/>
<path d="M75.8057 48.0816L75.6942 48.5947L79.8326 49.5121L79.9442 48.999L75.8057 48.0816Z" fill="#388CE0"/>
<path d="M75.3449 50.2037L75.2333 50.7168L79.3718 51.6342L79.4833 51.1211L75.3449 50.2037Z" fill="#388CE0"/>
<path d="M75.4907 59.3689L66.9869 57.4839C66.0416 57.2744 65.1071 57.8784 64.8996 58.833L64.7979 59.3013C64.5904 60.2559 65.1885 61.1997 66.1338 61.4093L74.6375 63.2943C75.5828 63.5038 76.5173 62.8998 76.7248 61.9452L76.8266 61.4769C77.0341 60.5223 76.436 59.5785 75.4907 59.3689Z" fill="#FF3967"/>
<path d="M91.5433 62.9246L83.0395 61.0396C82.0943 60.83 81.1597 61.4341 80.9522 62.3887L80.8505 62.857C80.643 63.8116 81.2411 64.7554 82.1864 64.9649L90.6901 66.85C91.6354 67.0595 92.57 66.4555 92.7774 65.5008L92.8792 65.0326C93.0867 64.0779 92.4886 63.1342 91.5433 62.9246Z" fill="#FF3967"/>
<path d="M107.594 66.4861L99.0906 64.6011C98.1453 64.3915 97.2108 64.9956 97.0033 65.9502L96.9016 66.4185C96.6941 67.3731 97.2922 68.3169 98.2375 68.5264L106.741 70.4115C107.687 70.621 108.621 70.017 108.829 69.0624L108.93 68.5941C109.138 67.6394 108.54 66.6957 107.594 66.4861Z" fill="#FF3967"/>
<path d="M123.651 70.0477L115.147 68.1626C114.202 67.9531 113.267 68.5571 113.06 69.5118L112.958 69.98C112.751 70.9347 113.349 71.8784 114.294 72.088L122.798 73.973C123.743 74.1826 124.677 73.5785 124.885 72.6239L124.987 72.1556C125.194 71.201 124.596 70.2572 123.651 70.0477Z" fill="#FF3967"/>
<path d="M86.8095 74.0211C86.7862 74.0258 86.7622 74.0258 86.7388 74.0211L62.7564 68.6967C62.6743 68.6693 62.6053 68.612 62.5627 68.5361C62.5201 68.4601 62.507 68.3709 62.5259 68.2858C62.5448 68.2006 62.5943 68.1256 62.6649 68.0752C62.7355 68.0249 62.8221 68.0028 62.9079 68.0133L86.8853 73.3275C86.9301 73.3372 86.9725 73.3557 87.0102 73.382C87.0479 73.4082 87.0801 73.4417 87.1049 73.4806C87.1298 73.5194 87.1468 73.5628 87.1551 73.6083C87.1633 73.6538 87.1626 73.7005 87.1529 73.7457C87.1347 73.8239 87.0909 73.8937 87.0286 73.9437C86.9663 73.9937 86.8891 74.0209 86.8095 74.0211Z" fill="#231F20"/>
<path d="M96.9048 76.2605H96.8291L93.1274 75.4394C93.0786 75.4345 93.0313 75.4192 92.9887 75.3946C92.946 75.3699 92.9091 75.3364 92.8802 75.2963C92.8513 75.2562 92.8311 75.2104 92.8209 75.1619C92.8108 75.1134 92.8109 75.0632 92.8213 75.0148C92.8317 74.9663 92.8521 74.9206 92.8812 74.8806C92.9103 74.8407 92.9474 74.8074 92.9902 74.783C93.0329 74.7586 93.0803 74.7435 93.1292 74.7389C93.1781 74.7342 93.2274 74.74 93.2739 74.756L96.9806 75.5771C97.0627 75.5974 97.1347 75.6472 97.1832 75.7172C97.2316 75.7872 97.2532 75.8726 97.2439 75.9574C97.2347 76.0423 97.1952 76.1209 97.1328 76.1785C97.0704 76.2362 96.9894 76.2689 96.9048 76.2707V76.2605Z" fill="#231F20"/>
<path d="M104.605 77.9638H104.535L100.833 77.1427C100.744 77.122 100.666 77.0665 100.617 76.9882C100.567 76.9099 100.551 76.8151 100.57 76.7245C100.58 76.6794 100.598 76.6367 100.624 76.5989C100.651 76.561 100.684 76.5288 100.722 76.5041C100.761 76.4794 100.804 76.4627 100.849 76.4551C100.894 76.4474 100.94 76.4488 100.985 76.4593L104.686 77.2804C104.773 77.2947 104.851 77.3421 104.905 77.4129C104.958 77.4838 104.982 77.5726 104.973 77.6611C104.963 77.7495 104.92 77.8308 104.852 77.8881C104.785 77.9454 104.698 77.9743 104.61 77.9689L104.605 77.9638Z" fill="#231F20"/>
<path d="M97.2125 78.7541C97.1229 78.7518 97.037 78.7174 96.9701 78.6572C96.9365 78.6239 96.9098 78.5843 96.8916 78.5405C96.8734 78.4967 96.864 78.4497 96.864 78.4022C96.864 78.3547 96.8734 78.3077 96.8916 78.2639C96.9098 78.2201 96.9365 78.1804 96.9701 78.1472L100.47 74.4395C100.502 74.4049 100.541 74.3774 100.585 74.3586C100.628 74.3398 100.675 74.3301 100.722 74.3301C100.769 74.3301 100.816 74.3398 100.86 74.3586C100.903 74.3774 100.942 74.4049 100.975 74.4395C101.01 74.472 101.038 74.5114 101.057 74.5553C101.076 74.5992 101.085 74.6466 101.085 74.6945C101.085 74.7424 101.076 74.7898 101.057 74.8337C101.038 74.8776 101.01 74.917 100.975 74.9495L97.465 78.6419C97.4329 78.6772 97.3939 78.7054 97.3504 78.7247C97.307 78.744 97.26 78.754 97.2125 78.7541Z" fill="#231F20"/>
<path d="M112.413 109.242C112.413 109.242 119.044 87.5462 118.645 83.1143C118.246 78.6824 115.852 65.6519 119.842 62.0258C123.831 58.3997 126.755 58.1396 129.28 63.9026C131.805 69.6656 132.608 98.1593 132.608 98.1593" fill="white"/>
<path d="M112.413 109.486H112.342C112.312 109.477 112.283 109.461 112.258 109.441C112.234 109.421 112.213 109.395 112.198 109.367C112.183 109.338 112.174 109.307 112.171 109.275C112.168 109.243 112.171 109.211 112.18 109.18C112.246 108.961 118.791 87.4795 118.402 83.17C118.341 82.4968 118.235 81.64 118.109 80.62C117.397 74.7907 116.2 65.0395 119.68 61.8826C122.008 59.7661 123.831 58.9399 125.411 59.2816C126.992 59.6233 128.31 61.1125 129.507 63.8716C132.032 69.6244 132.82 97.0573 132.855 98.2201C132.857 98.2525 132.851 98.2847 132.84 98.315C132.829 98.3453 132.812 98.3729 132.789 98.3963C132.767 98.4196 132.741 98.4382 132.711 98.4509C132.682 98.4635 132.65 98.4701 132.618 98.47C132.586 98.4729 132.553 98.4689 132.523 98.4584C132.492 98.4479 132.464 98.431 132.44 98.409C132.417 98.3869 132.398 98.3601 132.385 98.3302C132.372 98.3003 132.365 98.268 132.365 98.2354C132.365 97.9498 131.542 69.7366 129.063 64.0654C127.936 61.4848 126.709 60.0823 125.31 59.7814C123.912 59.4805 122.205 60.2914 120.003 62.2702C116.715 65.2537 117.937 75.2242 118.594 80.5792C118.72 81.5992 118.826 82.4713 118.887 83.1547C119.286 87.5866 112.918 108.486 112.645 109.374C112.621 109.413 112.587 109.445 112.545 109.465C112.504 109.484 112.458 109.492 112.413 109.486Z" fill="#231F20"/>
</svg>
