<svg width="120" height="118" viewBox="0 0 120 118" fill="none" xmlns="http://www.w3.org/2000/svg">
<path d="M23.3936 97.8819C23.3936 97.8819 28.7594 85.2575 30.1602 80.3242C31.5611 75.3909 31.1502 60.7487 31.1502 60.7487L35.031 50.6354C35.031 50.6354 62.256 28.5933 70.176 23.8277C78.096 19.0621 87.6693 11.6522 90.471 13.2999C93.2727 14.9477 92.7827 18.5638 89.481 22.1799C88.1247 23.6599 86.2883 25.2189 85.1646 26.8419C84.2489 28.169 83.1054 32.3377 84.2043 33.8177C85.521 35.5887 88.9266 33.0185 90.7581 34.7599C91.7234 35.6775 91.664 37.2907 91.0205 38.4501C90.377 39.6094 89.283 40.4234 88.2782 41.3163C85.6002 43.6251 83.3282 46.5259 81.1997 49.3034C79.0217 52.1598 80.2691 56.2101 80.4423 59.5006C80.6502 63.5015 81.2096 68.2721 80.076 72.1842C78.2594 78.4298 67.6119 86.1603 62.9936 90.1119C58.3752 94.0635 54.4944 107.216 54.4944 107.216L23.3936 97.8819Z" fill="white"/>
<path d="M54.5043 107.462H54.4301L23.3243 98.1285C23.2905 98.1187 23.2593 98.1017 23.2328 98.0787C23.2063 98.0557 23.1852 98.0272 23.1708 97.9953C23.1573 97.9632 23.1504 97.9289 23.1504 97.8941C23.1504 97.8594 23.1573 97.825 23.1708 97.793C23.2253 97.6697 28.5465 85.1291 29.9276 80.2649C31.3086 75.4006 30.9176 60.9114 30.9176 60.7683C30.9124 60.7373 30.9124 60.7056 30.9176 60.6746L34.7984 50.5563C34.8138 50.516 34.8394 50.4804 34.8726 50.4527C35.1449 50.2307 62.2065 28.3465 70.0523 23.6253C72.0323 22.4265 74.1558 21.0501 76.2002 19.7181C82.7342 15.4606 88.3722 11.7902 90.6047 13.0975C91.1071 13.3711 91.54 13.7556 91.8704 14.2216C92.2007 14.6877 92.4196 15.2228 92.5104 15.7862C92.7975 17.6905 91.7926 20.0141 89.674 22.3377C89.179 22.831 88.6841 23.3687 88.1346 23.9114C87.1283 24.8494 86.2058 25.8728 85.3775 26.9701C84.4617 28.2971 83.3975 32.3178 84.4122 33.6597C84.9765 34.4194 86.0259 34.2467 87.2337 34.0494C88.4415 33.8521 89.9314 33.6103 90.9412 34.5723C91.951 35.5343 91.9313 37.3547 91.2432 38.5585C90.606 39.5662 89.789 40.449 88.8326 41.1633L88.4465 41.4938C85.7982 43.7779 83.4965 46.6738 81.4076 49.4414C79.7889 51.5578 80.1305 54.3747 80.4621 57.093C80.5611 57.9267 80.6552 58.7111 80.6997 59.4807C80.7294 60.0974 80.769 60.7338 80.8136 61.385C81.0363 64.9025 81.3086 68.8935 80.3186 72.2383C78.7841 77.5466 71.0225 83.8662 65.8547 88.0743C64.8647 88.8834 63.9192 89.653 63.1619 90.2993C58.6524 94.1522 54.7815 107.156 54.7469 107.285C54.7277 107.347 54.6852 107.4 54.6281 107.433C54.5899 107.453 54.5474 107.463 54.5043 107.462ZM23.7302 97.7239L54.336 106.91C54.9003 105.055 58.5039 93.6243 62.8401 89.9243C63.6024 89.2731 64.5479 88.5035 65.5428 87.6895C70.6413 83.5406 78.3485 77.2654 79.8434 72.115C80.7938 68.8491 80.5413 64.9074 80.3384 61.4245C80.2988 60.7733 80.2542 60.1369 80.2245 59.5153C80.1849 58.7654 80.0909 57.9859 79.9919 57.1621C79.6652 54.4734 79.2939 51.4295 81.0314 49.1553C83.1599 46.363 85.4566 43.4474 88.1445 41.1337L88.5306 40.7982C89.4398 40.1199 90.2194 39.2844 90.8323 38.3315C91.4065 37.2906 91.5204 35.7958 90.6195 34.9374C89.7186 34.079 88.5405 34.3503 87.3376 34.5477C86.1348 34.745 84.7785 34.9621 84.036 33.9606C82.8183 32.3277 84.0756 28.0406 84.9914 26.7037C85.833 25.5766 86.7758 24.528 87.8079 23.571C88.3475 23.0333 88.8623 22.5251 89.3276 22.0121C91.3076 19.8365 92.2975 17.5721 92.0401 15.8701C91.9661 15.3752 91.7772 14.9043 91.4884 14.4949C91.1997 14.0856 90.8191 13.749 90.377 13.5119C88.397 12.3575 82.3481 16.3042 76.4873 20.1226C74.4429 21.4546 72.3243 22.8359 70.3295 24.0347C62.6768 28.6425 36.5952 49.6881 35.2587 50.7833L31.4225 60.793C31.4522 61.8833 31.7937 75.593 30.4325 80.3931C29.1158 84.8973 24.4925 95.9134 23.7302 97.7239Z" fill="#231F20"/>
<path d="M84.3436 0.22168H49.6886C48.2917 0.22168 47.1592 1.35034 47.1592 2.74261V76.5946C47.1592 77.9869 48.2917 79.1155 49.6886 79.1155H84.3436C85.7406 79.1155 86.873 77.9869 86.873 76.5946V2.74261C86.873 1.35034 85.7406 0.22168 84.3436 0.22168Z" fill="white"/>
<path d="M84.3433 79.3675H49.6933C48.9555 79.3675 48.2479 79.0754 47.7262 78.5554C47.2045 78.0355 46.9114 77.3303 46.9114 76.5949V2.74787C46.9179 2.01683 47.2139 1.31794 47.7349 0.803315C48.2559 0.288687 48.9597 -2.89315e-05 49.6933 2.17448e-09H84.3433C85.0802 0.00130688 85.7865 0.293988 86.3072 0.813798C86.8278 1.33361 87.1202 2.03807 87.1202 2.77253V76.5949C87.1202 77.3294 86.8278 78.0339 86.3072 78.5537C85.7865 79.0735 85.0802 79.3662 84.3433 79.3675ZM49.6933 0.493333C49.0868 0.493333 48.5051 0.733464 48.0762 1.1609C47.6473 1.58833 47.4064 2.16805 47.4064 2.77253V76.5949C47.4064 77.1994 47.6473 77.7791 48.0762 78.2066C48.5051 78.634 49.0868 78.8741 49.6933 78.8741H84.3433C84.9489 78.8728 85.5294 78.6321 85.9572 78.2048C86.385 77.7775 86.6252 77.1986 86.6252 76.5949V2.74787C86.6187 2.14852 86.3756 1.57586 85.9485 1.15388C85.5214 0.731909 84.9447 0.494596 84.3433 0.493333H49.6933Z" fill="#231F20"/>
<path d="M84.868 7.36035H49.327V68.0798H84.868V7.36035Z" fill="#388CE0"/>
<path d="M70.8096 76.9597H64.0479C63.57 76.9597 63.1117 76.7705 62.7738 76.4337C62.4359 76.097 62.2461 75.6402 62.2461 75.164V72.5887C62.2461 72.112 62.4358 71.6548 62.7735 71.3172C63.1113 70.9797 63.5696 70.7894 64.0479 70.7881H70.8096C71.2879 70.7894 71.7462 70.9797 72.084 71.3172C72.4217 71.6548 72.6114 72.112 72.6114 72.5887V75.164C72.6114 75.6402 72.4216 76.097 72.0837 76.4337C71.7458 76.7705 71.2875 76.9597 70.8096 76.9597ZM64.0479 71.2814C63.7009 71.2827 63.3685 71.421 63.1235 71.6661C62.8786 71.9111 62.7411 72.2429 62.7411 72.5887V75.164C62.7411 75.5094 62.8788 75.8406 63.1238 76.0849C63.3689 76.3291 63.7013 76.4664 64.0479 76.4664H70.8096C71.1562 76.4664 71.4886 76.3291 71.7336 76.0849C71.9787 75.8406 72.1164 75.5094 72.1164 75.164V72.5887C72.1164 72.2429 71.9789 71.9111 71.7339 71.6661C71.489 71.421 71.1566 71.2827 70.8096 71.2814H64.0479Z" fill="#FF3967"/>
<path d="M69.9783 4.00603H59.8605C59.7949 4.00603 59.7319 3.98004 59.6855 3.93378C59.6391 3.88752 59.613 3.82478 59.613 3.75936C59.613 3.69394 59.6391 3.6312 59.6855 3.58494C59.7319 3.53868 59.7949 3.5127 59.8605 3.5127H69.9783C70.044 3.5127 70.1069 3.53868 70.1534 3.58494C70.1998 3.6312 70.2258 3.69394 70.2258 3.75936C70.2258 3.82478 70.1998 3.88752 70.1534 3.93378C70.1069 3.98004 70.044 4.00603 69.9783 4.00603Z" fill="#FF3967"/>
<path d="M72.7552 3.88786H71.3989C71.3332 3.88786 71.2703 3.86188 71.2239 3.81562C71.1774 3.76936 71.1514 3.70662 71.1514 3.6412C71.1514 3.57578 71.1774 3.51304 71.2239 3.46678C71.2703 3.42052 71.3332 3.39453 71.3989 3.39453H72.7552C72.8208 3.39453 72.8838 3.42052 72.9302 3.46678C72.9766 3.51304 73.0027 3.57578 73.0027 3.6412C73.0027 3.70662 72.9766 3.76936 72.9302 3.81562C72.8838 3.86188 72.8208 3.88786 72.7552 3.88786Z" fill="#FF3967"/>
<path d="M83.0658 34.7654C82.917 35.4477 82.9362 36.1557 83.1218 36.8289C83.3075 37.5021 83.654 38.1204 84.1318 38.631C84.6096 39.1416 85.2043 39.5292 85.8652 39.7607C86.5261 39.9922 87.2334 40.0607 87.9267 39.9602C88.721 39.8366 89.4725 39.5198 90.1146 39.0377C90.7057 38.6096 91.1967 38.0589 91.5539 37.4236C91.9111 36.7883 92.126 36.0834 92.1837 35.3574C92.3223 32.9845 90.3126 30.9174 87.9762 30.6313C85.7883 30.36 83.4964 32.7773 83.0658 34.7654Z" fill="white"/>
<path d="M87.3278 40.2465C86.6422 40.2491 85.9648 40.0985 85.3452 39.8059C84.7257 39.5133 84.1798 39.0861 83.7477 38.5556C83.3157 38.0251 83.0083 37.4048 82.8484 36.7404C82.6884 36.076 82.6798 35.3843 82.8233 34.7162C83.3183 32.5209 85.7141 30.0986 88.0059 30.3798C90.5849 30.6955 92.5748 32.9353 92.4312 35.3674C92.3723 36.1294 92.1478 36.8695 91.7735 37.5364C91.3991 38.2034 90.8838 38.7813 90.2631 39.2302C89.5884 39.7418 88.7981 40.0805 87.9614 40.2169C87.7512 40.2416 87.5394 40.2515 87.3278 40.2465ZM87.6397 30.8731C85.7389 30.8731 83.7143 32.9599 83.3084 34.8198C83.1701 35.4626 83.1897 36.1293 83.3656 36.7629C83.5415 37.3966 83.8685 37.9785 84.3186 38.4591C84.7687 38.9397 85.3288 39.3047 85.951 39.5232C86.5731 39.7416 87.2391 39.807 87.8921 39.7137C88.6469 39.5953 89.3609 39.2937 89.9711 38.8355C90.5359 38.4305 91.0056 37.9079 91.3475 37.3039C91.6894 36.6999 91.8954 36.029 91.9511 35.3378C92.0748 33.1967 90.2483 31.1494 87.9614 30.8682C87.8525 30.8583 87.7436 30.8534 87.6397 30.8534V30.8731Z" fill="#231F20"/>
<path d="M81.5219 50.1478C81.2387 50.5494 81.0506 51.0098 80.9717 51.4943C80.8929 51.9788 80.9252 52.4748 81.0665 52.945C81.2952 53.4969 81.6493 53.9883 82.101 54.3806C83.294 55.5054 84.9225 56.2997 86.556 56.058C87.5477 55.854 88.4801 55.429 89.2835 54.8148C90.719 53.8281 92.0951 52.5849 92.5703 50.9224C93.2583 48.51 91.506 45.0024 88.6697 45.3378C86.3234 45.6289 82.7643 48.2288 81.5219 50.1478Z" fill="white"/>
<path d="M85.9517 56.349C84.426 56.289 82.981 55.6502 81.9125 54.5631C81.4304 54.1448 81.0539 53.6192 80.8136 53.0289C80.6609 52.522 80.6261 51.9871 80.7119 51.4648C80.7977 50.9425 81.0017 50.4465 81.3086 50.0146C82.5808 48.0413 86.2042 45.397 88.6148 45.0813C89.1938 45.0145 89.7804 45.0959 90.3191 45.3177C90.8578 45.5395 91.3309 45.8945 91.6937 46.3491C92.2257 46.9809 92.6018 47.7281 92.7918 48.5309C92.9818 49.3336 92.9804 50.1695 92.7877 50.9717C92.3719 52.4517 91.3027 53.7097 89.4068 55.0022C88.5707 55.6377 87.601 56.0762 86.5705 56.2849C86.366 56.3209 86.1592 56.3423 85.9517 56.349ZM81.7294 50.281C81.4661 50.6504 81.2905 51.0746 81.2159 51.5216C81.1413 51.9686 81.1696 52.4266 81.2987 52.8611C81.5182 53.3798 81.8574 53.8396 82.2887 54.203C83.5906 55.4314 85.13 56.0185 86.521 55.8113C87.4738 55.6103 88.3699 55.2008 89.1445 54.6125C90.9364 53.3841 91.9511 52.1902 92.3323 50.8533C92.5044 50.1296 92.5045 49.3758 92.3326 48.6521C92.1607 47.9283 91.8216 47.2546 91.3423 46.6846C91.0309 46.2947 90.6259 45.9895 90.1647 45.7972C89.7035 45.6049 89.2011 45.5317 88.7039 45.5845C86.4517 45.8657 82.9421 48.4458 81.7492 50.281H81.7294Z" fill="#231F20"/>
<path d="M82.9623 60.2167C82.4107 60.5957 81.9494 61.0908 81.611 61.6671C81.2788 62.3371 81.1443 63.0874 81.2231 63.8306C81.302 64.5738 81.591 65.2794 82.0565 65.8653C82.5329 66.4409 83.1198 66.9158 83.7828 67.2623C84.4458 67.6088 85.1715 67.8198 85.9175 67.8831C86.796 67.9893 87.6872 67.9093 88.5326 67.6483C89.378 67.3872 90.1584 66.9512 90.8229 66.3685C91.4782 65.7739 91.9669 65.0196 92.2411 64.1797C92.5154 63.3399 92.5657 62.4434 92.3871 61.5783C91.3179 57.0495 85.7937 58.1644 82.9623 60.2167Z" fill="white"/>
<path d="M86.6352 68.1685C86.3877 68.1685 86.1402 68.1686 85.8878 68.1291C85.1082 68.0633 84.3498 67.842 83.6576 67.4784C82.9654 67.1149 82.3536 66.6164 81.8585 66.0127C81.3674 65.3874 81.0636 64.6365 80.9821 63.8465C80.9007 63.0566 81.0449 62.2598 81.3981 61.548C81.7527 60.94 82.2378 60.4178 82.8188 60.0187C84.7295 58.6324 87.8381 57.6605 90.0755 58.4893C90.726 58.7343 91.3024 59.1421 91.7489 59.6735C92.1954 60.2049 92.497 60.842 92.6247 61.5234C92.8181 62.4305 92.769 63.3723 92.4824 64.2545C92.1957 65.1368 91.6815 65.9285 90.9912 66.5504C89.7908 67.6094 88.2383 68.1861 86.6352 68.1685ZM83.1108 60.4183C82.589 60.7756 82.1515 61.242 81.8288 61.7848C81.5179 62.4151 81.3924 63.1203 81.4669 63.8187C81.5413 64.5172 81.8127 65.1803 82.2495 65.7315C82.705 66.2816 83.2664 66.7352 83.9006 67.0657C84.5348 67.3961 85.229 67.5967 85.9422 67.6555C86.7866 67.7576 87.6432 67.6812 88.456 67.4313C89.2688 67.1814 90.0196 66.7636 90.6596 66.2051C91.2853 65.6431 91.7519 64.9271 92.0125 64.1288C92.2731 63.3305 92.3187 62.4779 92.1446 61.6565C92.0375 61.0535 91.7749 60.4887 91.3827 60.0173C90.9904 59.5459 90.482 59.1843 89.9072 58.9679C87.8282 58.2032 84.9126 59.1307 83.1108 60.4479V60.4183Z" fill="#231F20"/>
<path d="M24.9631 86.0374L28.5122 79.0518L62.093 92.4556L58.3013 98.5384L24.9631 86.0374Z" fill="#388CE0"/>
<path d="M61.0242 96.5253L24.6318 82.707L12.2568 102.075L52.1093 117.127L61.0242 96.5253Z" fill="#231F20"/>
<path d="M52.1091 117.374C52.0812 117.378 52.0529 117.378 52.025 117.374L12.1676 102.328C12.1337 102.314 12.1032 102.294 12.0783 102.267C12.0535 102.241 12.0349 102.209 12.024 102.175C12.0082 102.141 12 102.105 12 102.069C12 102.032 12.0082 101.996 12.024 101.962L24.399 82.5991C24.4296 82.5511 24.4758 82.515 24.5299 82.497C24.584 82.4791 24.6427 82.4803 24.6961 82.5004L61.0835 96.3138C61.1463 96.3389 61.1975 96.3863 61.2271 96.447C61.2404 96.4782 61.2473 96.5117 61.2473 96.5456C61.2473 96.5796 61.2404 96.6131 61.2271 96.6443L52.3171 117.241C52.2971 117.279 52.2675 117.312 52.231 117.335C52.1945 117.359 52.1525 117.372 52.1091 117.374ZM12.6131 101.953L51.9656 116.812L60.6776 96.664L24.7158 83.0086L12.6131 101.953Z" fill="#231F20"/>
<path d="M31.2197 61.1738C31.2197 61.1738 31.4672 40.0196 33.9422 35.8214C36.4172 31.6231 44.2283 13.9864 46.3172 13.8631C48.4061 13.7398 50.5841 20.1235 48.7477 25.8018C47.6709 29.1477 46.0849 32.309 44.0452 35.1751C44.0452 35.1751 50.1931 41.7118 46.8469 53.4284" fill="white"/>
<path d="M31.2201 61.43C31.1876 61.4293 31.1556 61.4223 31.1258 61.4093C31.096 61.3963 31.0691 61.3776 31.0466 61.3542C31.024 61.3309 31.0064 61.3033 30.9945 61.2731C30.9827 61.243 30.9769 61.2108 30.9776 61.1784C30.9776 60.315 31.2548 39.9108 33.7347 35.7076C34.4871 34.4249 35.7444 31.8892 37.1997 28.944C41.6052 20.0344 44.8376 13.7148 46.3275 13.6506C46.872 13.6112 47.4314 13.9417 47.9363 14.5929C49.5351 16.655 50.4113 21.5686 48.9659 25.8952C47.889 29.1994 46.3331 32.329 44.3475 35.1846C45.2385 36.2552 50.1341 42.7869 47.075 53.5169C47.0662 53.5493 47.0511 53.5796 47.0306 53.6062C47.01 53.6328 46.9844 53.6551 46.9552 53.6718C46.9261 53.6885 46.8938 53.6994 46.8605 53.7037C46.8271 53.708 46.7932 53.7057 46.7607 53.697C46.7282 53.6882 46.6977 53.6732 46.671 53.6527C46.6444 53.6322 46.622 53.6067 46.6052 53.5776C46.5885 53.5485 46.5776 53.5164 46.5733 53.4832C46.5689 53.4499 46.5712 53.4161 46.58 53.3837C48.2877 47.4045 47.4512 42.8264 46.4463 40.0637C45.8715 38.3577 44.9855 36.7721 43.8327 35.3869C43.7957 35.3426 43.7754 35.2867 43.7754 35.229C43.7754 35.1713 43.7957 35.1155 43.8327 35.0712C45.8518 32.2235 47.4241 29.0862 48.4956 25.7669C49.8618 21.5933 49.0649 16.8869 47.5452 14.9136C47.4183 14.7046 47.2445 14.5277 47.0376 14.3967C46.8306 14.2658 46.5961 14.1843 46.3523 14.1588C45.0405 14.2377 40.4123 23.6061 37.6403 29.2054C36.185 32.1654 34.9227 34.7012 34.1753 35.9986C31.7597 40.0884 31.4874 61.0156 31.4874 61.2228C31.4766 61.2842 31.4432 61.3394 31.3938 61.3777C31.3444 61.4159 31.2825 61.4346 31.2201 61.43Z" fill="#231F20"/>
<path d="M24.755 99.3626C26.1903 99.3626 27.3538 98.203 27.3538 96.7726C27.3538 95.3422 26.1903 94.1826 24.755 94.1826C23.3198 94.1826 22.1562 95.3422 22.1562 96.7726C22.1562 98.203 23.3198 99.3626 24.755 99.3626Z" fill="white"/>
<path d="M23.9978 35.1056C23.9502 35.107 23.9033 35.0932 23.8642 35.0661L10.8407 26.5857C10.7856 26.5497 10.747 26.4934 10.7336 26.4291C10.7201 26.3648 10.7328 26.2978 10.7689 26.2429C10.805 26.1879 10.8616 26.1495 10.9261 26.1361C10.9906 26.1227 11.0578 26.1353 11.113 26.1713L24.1414 34.6517C24.1968 34.688 24.2356 34.7446 24.2495 34.8092C24.2634 34.8738 24.2512 34.9413 24.2156 34.9971C24.1911 35.0317 24.1584 35.0597 24.1204 35.0786C24.0824 35.0976 24.0403 35.1068 23.9978 35.1056Z" fill="#FF3967"/>
<path d="M18.5231 51.3408L0.237807 50.4972C0.205297 50.496 0.173355 50.4883 0.143813 50.4747C0.11427 50.4612 0.0877063 50.4419 0.0656382 50.4181C0.04357 50.3942 0.0264334 50.3663 0.0152061 50.3359C0.00397889 50.3055 -0.00112072 50.2731 0.000205663 50.2407C0.00520315 50.1761 0.034514 50.1159 0.082255 50.0719C0.129996 50.028 0.192637 50.0037 0.257608 50.0039L18.5528 50.8475C18.6185 50.8525 18.6797 50.8824 18.7239 50.9311C18.768 50.9797 18.7919 51.0434 18.7904 51.109C18.7853 51.1749 18.7545 51.2361 18.7044 51.2795C18.6544 51.3229 18.5893 51.3449 18.5231 51.3408Z" fill="#FF3967"/>
<path d="M106.801 33.2162C106.751 33.2149 106.702 33.1987 106.66 33.1698C106.619 33.1408 106.587 33.1003 106.568 33.0534C106.546 32.9919 106.549 32.9241 106.577 32.8649C106.605 32.8057 106.655 32.76 106.717 32.7377L117.463 28.791C117.525 28.7688 117.593 28.7719 117.653 28.7997C117.712 28.8274 117.758 28.8776 117.78 28.939C117.792 28.9691 117.798 29.0013 117.797 29.0336C117.796 29.0659 117.789 29.0977 117.775 29.1271C117.762 29.1566 117.743 29.183 117.719 29.205C117.695 29.2269 117.667 29.2438 117.637 29.2548L106.885 33.2014C106.858 33.2115 106.83 33.2165 106.801 33.2162Z" fill="#FF3967"/>
<path d="M119.736 60.8624H119.676L107.767 57.9715C107.703 57.9563 107.648 57.9166 107.614 57.8611C107.58 57.8057 107.569 57.7389 107.584 57.6755C107.591 57.6436 107.605 57.6135 107.624 57.587C107.644 57.5605 107.668 57.5381 107.696 57.5211C107.724 57.5041 107.755 57.4929 107.788 57.4881C107.82 57.4832 107.854 57.4849 107.885 57.493L119.795 60.3839C119.859 60.3991 119.914 60.4388 119.948 60.4943C119.982 60.5497 119.993 60.6165 119.978 60.6799C119.964 60.7329 119.932 60.7796 119.888 60.8126C119.845 60.8457 119.791 60.8632 119.736 60.8624Z" fill="#FF3967"/>
<path d="M100.861 95.6769C100.826 95.6766 100.791 95.6689 100.759 95.6545C100.726 95.6401 100.697 95.6191 100.673 95.593L93.7086 87.4925C93.6871 87.4684 93.6707 87.4402 93.6603 87.4096C93.6498 87.3791 93.6456 87.3468 93.648 87.3146C93.6503 87.2824 93.659 87.251 93.6737 87.2223C93.6884 87.1935 93.7087 87.1679 93.7334 87.1471C93.7805 87.1016 93.8435 87.0762 93.9091 87.0762C93.9747 87.0762 94.0377 87.1016 94.0848 87.1471L101.049 95.2477C101.071 95.2718 101.087 95.2999 101.098 95.3305C101.108 95.361 101.112 95.3933 101.11 95.4255C101.108 95.4577 101.099 95.4891 101.084 95.5179C101.07 95.5466 101.049 95.5722 101.025 95.593C100.982 95.64 100.924 95.6699 100.861 95.6769Z" fill="#FF3967"/>
<path d="M13.8354 73.0135C13.7806 73.0134 13.7273 72.9956 13.6835 72.9627C13.6398 72.9297 13.608 72.8835 13.5929 72.8309C13.5847 72.7995 13.5828 72.7668 13.5874 72.7346C13.5919 72.7025 13.6028 72.6716 13.6193 72.6436C13.6359 72.6156 13.6578 72.5912 13.6838 72.5717C13.7099 72.5522 13.7395 72.5381 13.7711 72.53L20.4932 70.754C20.5247 70.7458 20.5576 70.744 20.5898 70.7485C20.6221 70.753 20.6531 70.7638 20.6812 70.7803C20.7092 70.7968 20.7337 70.8187 20.7533 70.8446C20.7728 70.8706 20.7871 70.9002 20.7951 70.9316C20.8118 70.9944 20.803 71.0612 20.7706 71.1176C20.7381 71.1739 20.6847 71.2152 20.6219 71.2325L13.8998 73.0085L13.8354 73.0135Z" fill="#FF3967"/>
</svg>
