<svg width="101" height="91" viewBox="0 0 101 91" fill="none" xmlns="http://www.w3.org/2000/svg">
<path d="M77.5394 42.1799L86.771 38.8598C86.3785 38.3005 81.2053 26.1665 76.3383 23.7468C72.0875 20.9067 64.1944 21.4303 55.2728 22.061C52.4111 22.205 49.5892 22.7992 46.9087 23.8222C36.8528 27.8602 35.4163 41.2477 35.4163 41.2477L44.6675 44.4726C44.6675 44.4726 43.1642 62.6598 41.7473 72.1679C41.7473 72.1679 53.3378 79.0659 78.6069 74.8375C78.6069 74.8533 77.5825 44.8693 77.5394 42.1799Z" fill="#388CE0"/>
<path d="M54.7626 29.6849L58.9702 50.2997L66.0234 26.4997L54.7626 29.6849Z" fill="#231F20"/>
<path d="M58.9701 50.498C58.9265 50.4956 58.8848 50.4787 58.8515 50.4501C58.8181 50.4214 58.795 50.3825 58.7857 50.3393L54.5781 29.7127C54.5682 29.6639 54.5769 29.6132 54.6023 29.5705C54.6278 29.5279 54.6681 29.4965 54.7154 29.4826L65.9763 26.3093C66.0099 26.2993 66.0456 26.2989 66.0795 26.308C66.1134 26.317 66.1442 26.3353 66.1686 26.3608C66.1939 26.3854 66.2118 26.4167 66.2201 26.4511C66.2285 26.4855 66.2269 26.5216 66.2157 26.5552L59.1507 50.3552C59.1392 50.3951 59.1156 50.4304 59.0832 50.456C59.0508 50.4816 59.0112 50.4963 58.9701 50.498ZM54.9902 29.8277L59.0055 49.4944L65.7329 26.7853L54.9902 29.8277Z" fill="#231F20"/>
<path d="M63.9392 1.47C63.1542 1.35893 62.6244 1.65247 61.9139 1.827C60.9798 2.05707 61.2428 2.08087 60.4107 1.53743C58.4482 0.268099 55.8969 0.8393 53.7107 1.61677C51.5245 2.39423 49.1969 3.34227 46.9715 2.69967C47.7379 3.55046 48.8024 4.06561 49.9388 4.1356C48.1097 5.21453 45.4486 4.38153 43.9257 5.873C45.3786 7.72514 46.9973 9.43805 48.7613 10.99C47.4469 10.7818 46.1696 10.381 44.9697 9.8C47.1932 12.2529 49.9134 14.193 52.9453 15.4882C55.159 16.4719 57.5572 17.178 59.9711 17.0154C63.8529 16.7496 67.8211 13.6675 68.1272 9.61753C68.3352 6.85277 67.2951 1.94203 63.9392 1.47Z" fill="white"/>
<path d="M59.2645 17.2494C57.3334 17.2494 55.2335 16.7337 52.8667 15.6627C49.8083 14.3588 47.0648 12.4022 44.8244 9.92693C44.7939 9.89306 44.776 9.84959 44.7737 9.8039C44.7713 9.7582 44.7847 9.71309 44.8115 9.6762C44.8383 9.63932 44.8768 9.61293 44.9207 9.60151C44.9645 9.5901 45.0109 9.59436 45.052 9.61356C46.0286 10.0774 47.0564 10.4223 48.1135 10.6409C46.5413 9.20572 45.0894 7.64148 43.7725 5.96423C43.7399 5.92779 43.7219 5.88044 43.7219 5.83135C43.7219 5.78226 43.7399 5.73491 43.7725 5.69846C44.6595 4.82976 45.9038 4.7068 47.1087 4.5878C47.827 4.54046 48.5371 4.40731 49.2243 4.19113C48.2927 3.9911 47.4478 3.49816 46.8104 2.78297C46.7847 2.74952 46.7707 2.70834 46.7707 2.66595C46.7707 2.62355 46.7847 2.58237 46.8104 2.54893C46.8323 2.51176 46.8657 2.48299 46.9055 2.46719C46.9453 2.45138 46.9892 2.44944 47.0302 2.46166C49.032 3.03683 51.1319 2.28316 53.165 1.5533L53.6517 1.38273C55.5828 0.692531 58.401 -0.0571684 60.5205 1.32323L60.8345 1.53346C61.172 1.7675 61.1681 1.76353 61.6195 1.65246L61.8864 1.58503C62.0708 1.5414 62.2435 1.48983 62.4123 1.4343C62.9123 1.24142 63.4499 1.16943 63.9823 1.22407C67.3343 1.74767 68.5549 6.5513 68.3194 9.6453C67.9897 14.0086 63.735 16.9678 59.9827 17.2256C59.7472 17.2415 59.5039 17.2494 59.2645 17.2494ZM45.7507 10.3672C47.839 12.4728 50.308 14.1534 53.0237 15.3176C55.6299 16.4759 57.8986 16.9678 59.9553 16.8289C64.5671 16.5116 67.6836 12.8385 67.9309 9.61753C68.1546 6.6703 67.032 2.10466 63.9117 1.65246C63.4343 1.60541 62.9528 1.67338 62.5065 1.8508C62.3338 1.90633 62.1493 1.96186 61.957 2.00946L61.698 2.07293C61.1249 2.2197 61.066 2.21177 60.6107 1.8984L60.3046 1.69213C58.3421 0.406932 55.6338 1.13283 53.7773 1.7913L53.2906 1.96583C51.4341 2.63223 49.5148 3.31846 47.6229 3.03286C48.2898 3.56459 49.1024 3.87617 49.9504 3.92536C49.9926 3.92754 50.0329 3.94338 50.0654 3.97053C50.0979 3.99768 50.1209 4.0347 50.131 4.0761C50.1414 4.11787 50.1378 4.16197 50.1208 4.20146C50.1037 4.24095 50.0742 4.27359 50.0368 4.29426C49.1772 4.802 48.1528 4.90513 47.1598 5.00033C46.0372 5.11537 44.9735 5.2185 44.1925 5.88093C45.6139 7.66911 47.1901 9.32578 48.9025 10.8313C48.9347 10.8587 48.9572 10.8961 48.9664 10.9377C48.9757 10.9792 48.9711 11.0227 48.9535 11.0614C48.936 11.1009 48.9062 11.1335 48.8686 11.1543C48.831 11.175 48.7878 11.1828 48.7455 11.1764C47.7207 11.0194 46.7163 10.748 45.7507 10.3672Z" fill="#231F20"/>
<path d="M55.0413 22.8464L54.7626 29.6849C54.7626 29.6849 57.4865 33.5524 61.6627 31.7634C65.8389 29.9745 66.0234 26.4997 66.0234 26.4997L64.6811 13.4652C64.6811 13.4652 61.1721 12.2752 60.9641 5.03207C57.6605 7.17089 53.848 8.37118 49.927 8.50687C49.927 8.50687 49.2048 16.5116 50.2881 19.8277C51.3714 23.1439 55.0413 22.8464 55.0413 22.8464Z" fill="white"/>
<path d="M59.4883 32.4298C56.4974 32.4298 54.6252 29.8317 54.6017 29.7999C54.5765 29.7642 54.564 29.7208 54.5663 29.677L54.8372 23.0526C54.0051 23.0526 51.0613 22.8345 50.0997 19.8793C49.0203 16.5632 49.7072 8.80833 49.7307 8.48307C49.7346 8.4346 49.7559 8.38924 49.7906 8.3556C49.8253 8.32196 49.8711 8.30239 49.9191 8.3006C53.8005 8.15974 57.5743 6.97383 60.8503 4.86547C60.8788 4.84316 60.9129 4.82939 60.9488 4.82575C60.9847 4.82211 61.0208 4.82873 61.0532 4.84486C61.0855 4.86099 61.1127 4.88598 61.1316 4.91697C61.1506 4.94797 61.1605 4.98373 61.1603 5.02017C61.2663 8.6814 62.2397 10.7282 63.0365 11.8071C63.4651 12.4412 64.0549 12.9469 64.7439 13.2708C64.7796 13.2828 64.8111 13.3048 64.8348 13.3343C64.8584 13.3639 64.8732 13.3997 64.8773 13.4374L66.2 26.4798C66.2 26.5473 65.9645 30.1292 61.7255 31.9459C61.0196 32.2578 60.2587 32.4224 59.4883 32.4298ZM54.9628 29.6333C55.3121 30.1014 57.8241 33.2033 61.5882 31.5889C65.6034 29.8674 65.8232 26.5314 65.8272 26.4957L64.5005 13.612C63.8686 13.3303 61.0622 11.7278 60.7796 5.40097C57.5513 7.38509 53.8818 8.51849 50.1075 8.69727C50.0094 9.88727 49.507 16.7932 50.4726 19.7643C51.4931 22.89 54.8803 22.6599 55.0295 22.648C55.0568 22.6463 55.0842 22.6503 55.1099 22.6599C55.1356 22.6694 55.159 22.6843 55.1786 22.7036C55.1984 22.7231 55.2139 22.7466 55.224 22.7726C55.2342 22.7986 55.2388 22.8264 55.2375 22.8543L54.9628 29.6333Z" fill="#231F20"/>
<path d="M62.8638 16.9083C63.7691 17.137 64.7272 16.9944 65.5288 16.5116C66.074 16.1583 66.52 15.6691 66.8239 15.0911C67.1277 14.513 67.2792 13.8657 67.2637 13.2113C67.2906 12.7275 67.2101 12.2436 67.0282 11.7952C66.9342 11.5725 66.7942 11.3727 66.6175 11.2092C66.4408 11.0457 66.2315 10.9223 66.0038 10.8472C65.4305 10.7528 64.8424 10.8489 64.3278 11.1209C63.5428 11.4382 63.4839 11.8785 62.9854 12.4815C63.0404 12.4299 63.0914 12.2633 63.1424 12.2117" fill="white"/>
<path d="M63.7311 17.2177C63.4225 17.2177 63.1151 17.1777 62.8166 17.0987C62.7908 17.0922 62.7665 17.0806 62.7452 17.0646C62.7238 17.0486 62.7058 17.0285 62.6922 17.0055C62.6785 16.9825 62.6694 16.957 62.6655 16.9304C62.6616 16.9039 62.6629 16.8768 62.6694 16.8507C62.6758 16.8247 62.6873 16.8002 62.7031 16.7786C62.7189 16.7571 62.7388 16.7388 62.7615 16.725C62.7843 16.7112 62.8096 16.7021 62.8358 16.6981C62.8621 16.6942 62.8889 16.6955 62.9147 16.702C63.3365 16.8121 63.7757 16.8365 64.2069 16.7739C64.6381 16.7113 65.0527 16.5628 65.4267 16.3371C65.9446 16.0024 66.3679 15.5378 66.6555 14.9886C66.943 14.4395 67.0849 13.8244 67.0673 13.2034C67.0947 12.7493 67.0196 12.2949 66.8475 11.8746C66.7651 11.6781 66.6424 11.5015 66.4875 11.3565C66.3325 11.2116 66.1489 11.1015 65.9487 11.0336C65.4738 10.8988 64.9675 11.0773 64.4023 11.2994C64.0148 11.4423 63.6933 11.7248 63.4995 12.0927C63.3939 12.2585 63.2799 12.4187 63.158 12.5727L63.1227 12.6124C63.0864 12.6467 63.0386 12.6658 62.9888 12.6659C62.9391 12.6659 62.8912 12.6469 62.8549 12.6127C62.8185 12.5784 62.7963 12.5315 62.7928 12.4814C62.7894 12.4312 62.8049 12.3817 62.8362 12.3426C62.8362 12.3426 62.8637 12.2911 62.8754 12.2633C62.9038 12.1936 62.9436 12.1292 62.9932 12.0729C63.0156 12.0534 63.0407 12.0373 63.0678 12.0253L63.162 11.8904C63.3979 11.4517 63.7826 11.1137 64.2453 10.9384C64.799 10.6519 65.4297 10.5545 66.0429 10.6608C66.298 10.7435 66.5327 10.8804 66.731 11.0624C66.9294 11.2444 67.0869 11.4672 67.1929 11.7159C67.3904 12.1922 67.4777 12.7077 67.4481 13.2232C67.4639 13.9107 67.3039 14.5907 66.9835 15.1974C66.663 15.8041 66.1931 16.3169 65.619 16.6861C65.0486 17.0321 64.3963 17.2157 63.7311 17.2177Z" fill="#231F20"/>
<path d="M54.896 26.46C55.6689 26.4808 56.4352 26.3112 57.1286 25.9656C57.822 25.62 58.4218 25.109 58.8759 24.4767C60.4891 22.291 60.0848 20.748 60.0848 20.748C60.0848 20.748 57.9889 22.9574 55.0412 22.8543L54.896 26.46Z" fill="#231F20"/>
<path d="M55.0884 26.6464C54.9667 26.6464 54.896 26.6464 54.8764 26.6464C54.8264 26.6414 54.7803 26.6172 54.7474 26.5789C54.7146 26.5405 54.6975 26.4909 54.6998 26.4402L54.8489 22.8464C54.8489 22.8203 54.8541 22.7946 54.8643 22.7706C54.8745 22.7467 54.8894 22.7252 54.9082 22.7073C54.927 22.6895 54.9492 22.6757 54.9734 22.6669C54.9976 22.6581 55.0234 22.6543 55.0491 22.656C57.8751 22.7432 59.92 20.633 59.9436 20.6131C59.9674 20.588 59.9974 20.5696 60.0304 20.5599C60.0635 20.5501 60.0985 20.5493 60.132 20.5576C60.1657 20.5672 60.1964 20.5853 60.2211 20.6103C60.2459 20.6353 60.2638 20.6664 60.2733 20.7004C60.2733 20.7639 60.6658 22.3585 59.033 24.5957C58.5793 25.2247 57.9863 25.7378 57.3014 26.0939C56.6164 26.45 55.8586 26.6392 55.0884 26.6464ZM55.2297 23.0487L55.1001 26.2498C55.807 26.234 56.5008 26.0546 57.1282 25.7251C57.7556 25.3957 58.2999 24.9252 58.719 24.3497C59.8023 22.886 59.9397 21.7198 59.9318 21.1566C58.637 22.3223 56.9785 22.9919 55.2454 23.0487H55.2297Z" fill="#231F20"/>
<path d="M55.6024 11.9936C55.6024 11.9936 53.7538 15.746 54.3739 16.2776C54.9941 16.8091 56.4659 16.2101 56.4659 16.2101" fill="white"/>
<path d="M55.1157 16.6941C54.7996 16.7129 54.487 16.6188 54.2326 16.4283C53.5457 15.8412 54.9627 12.8186 55.4101 11.9023C55.4344 11.8564 55.4753 11.8216 55.5243 11.8054C55.5733 11.7891 55.6266 11.7926 55.6731 11.8151C55.6963 11.8265 55.7171 11.8424 55.7342 11.862C55.7513 11.8815 55.7644 11.9043 55.7728 11.929C55.7812 11.9537 55.7847 11.9798 55.7831 12.0059C55.7814 12.0319 55.7748 12.0574 55.7634 12.0808C54.9038 13.8262 54.1934 15.869 54.4838 16.1229C54.9195 16.4957 55.9989 16.1784 56.3796 16.0237C56.4281 16.0053 56.4817 16.0065 56.5293 16.0272C56.5769 16.0479 56.6147 16.0865 56.6347 16.1348C56.6443 16.159 56.649 16.1849 56.6487 16.2109C56.6483 16.237 56.6429 16.2628 56.6327 16.2867C56.6225 16.3107 56.6077 16.3323 56.5892 16.3505C56.5707 16.3687 56.5488 16.383 56.5248 16.3926C56.0754 16.5731 55.5989 16.6751 55.1157 16.6941Z" fill="#231F20"/>
<path d="M58.4838 12.1745C58.791 12.1072 58.9637 11.6968 58.8695 11.2579C58.7754 10.819 58.4501 10.5177 58.1429 10.585C57.8357 10.6523 57.663 11.0627 57.7571 11.5016C57.8513 11.9405 58.1766 12.2417 58.4838 12.1745Z" fill="#231F20"/>
<path d="M53.987 11.9841C54.027 11.535 53.8046 11.1477 53.4903 11.1192C53.176 11.0906 52.8888 11.4315 52.8488 11.8806C52.8088 12.3297 53.0312 12.7169 53.3455 12.7455C53.6598 12.7741 53.947 12.4332 53.987 11.9841Z" fill="#231F20"/>
<path d="M55.3709 21.4223C54.9134 21.4386 54.4657 21.2864 54.111 20.9939C52.9688 19.9666 53.0787 17.9475 53.0826 17.8642C53.0851 17.8176 53.1038 17.7733 53.1354 17.7392C53.167 17.7051 53.2094 17.6833 53.2553 17.6778C58.4206 17.0669 58.4717 17.1145 58.5541 17.1899C58.5749 17.209 58.5916 17.2323 58.603 17.2582C58.6145 17.2842 58.6206 17.3122 58.6208 17.3406C58.6241 18.1444 58.4371 18.9374 58.0752 19.6532C57.856 20.0933 57.5407 20.4773 57.1531 20.7762C56.7656 21.0751 56.3159 21.2811 55.838 21.3787C55.6838 21.4068 55.5276 21.4214 55.3709 21.4223ZM53.4712 18.0546C53.4712 18.5346 53.5458 19.9547 54.3622 20.6925C54.56 20.8441 54.7886 20.9495 55.0317 21.001C55.2747 21.0524 55.5259 21.0487 55.7673 20.99C56.1868 20.903 56.5813 20.7211 56.9212 20.458C57.2611 20.1949 57.5375 19.8573 57.7298 19.4707C58.0323 18.8712 58.1998 18.2116 58.2205 17.539C57.5414 17.5866 55.1158 17.8603 53.4712 18.0546Z" fill="#231F20"/>
<path d="M57.9025 19.5659C56.9723 21.3192 55.049 21.5493 54.2405 20.8472C54.5074 20.1649 54.9391 19.4747 55.6417 19.2803C56.405 19.1013 57.2063 19.2026 57.9025 19.5659Z" fill="#231F20"/>
<path d="M55.3709 21.4223C54.9137 21.4368 54.4666 21.2848 54.111 20.9939C54.0807 20.9677 54.0595 20.9324 54.0503 20.8932C54.0412 20.854 54.0445 20.8129 54.06 20.7758C54.4211 19.8396 54.9392 19.2724 55.5907 19.0899C56.3986 18.9021 57.2462 19.0074 57.985 19.3874C58.0096 19.3974 58.0316 19.413 58.0493 19.4329C58.067 19.4529 58.0799 19.4767 58.087 19.5025C58.0977 19.5268 58.1033 19.5532 58.1033 19.5798C58.1033 19.6065 58.0977 19.6328 58.087 19.6572C57.8678 20.0972 57.5525 20.4812 57.1649 20.7801C56.7773 21.0791 56.3276 21.2851 55.8498 21.3827C55.6916 21.4102 55.5314 21.4235 55.3709 21.4223ZM54.476 20.7837C54.8651 21.0152 55.326 21.0902 55.7673 20.9939C56.1523 20.9152 56.5165 20.7555 56.8364 20.5252C57.1562 20.2949 57.4245 19.9992 57.6239 19.6572C57.0172 19.3851 56.3394 19.3197 55.6928 19.4707C55.21 19.6096 54.7861 20.0499 54.476 20.7837Z" fill="#231F20"/>
<path d="M47.572 29.1772C47.6191 29.5937 44.6675 44.4726 44.6675 44.4726L47.572 29.1772Z" fill="#231F20"/>
<path d="M44.6674 44.667H44.6125C44.5871 44.6628 44.5629 44.6534 44.5413 44.6393C44.5197 44.6253 44.5011 44.6069 44.4868 44.5854C44.4724 44.5638 44.4626 44.5395 44.4579 44.514C44.4532 44.4885 44.4537 44.4623 44.4594 44.4369C45.6369 38.5504 47.3639 29.6373 47.3639 29.193C47.3606 29.1674 47.3626 29.1413 47.3696 29.1165C47.3766 29.0916 47.3885 29.0685 47.4047 29.0484C47.4209 29.0284 47.4409 29.0119 47.4636 28.9999C47.4862 28.9879 47.5111 28.9808 47.5366 28.9788C47.5885 28.9744 47.6401 28.9905 47.6804 29.0238C47.7207 29.0572 47.7465 29.105 47.7525 29.1573C47.7956 29.5857 45.3347 42.0252 44.8401 44.5123C44.8324 44.5538 44.8112 44.5915 44.78 44.6195C44.7487 44.6475 44.7091 44.6642 44.6674 44.667Z" fill="#231F20"/>
<path d="M70.7693 10.4951L64.1731 9.8262C63.4548 9.75337 62.8141 10.2828 62.7421 11.0086L61.2639 25.8961C61.1918 26.622 61.7157 27.2695 62.4339 27.3423L69.0301 28.0112C69.7484 28.084 70.389 27.5547 70.4611 26.8288L71.9393 11.9413C72.0113 11.2154 71.4875 10.5679 70.7693 10.4951Z" fill="#231F20"/>
<path d="M69.1593 28.2252H69.0063L62.4123 27.5548C62.0157 27.5147 61.6511 27.3171 61.3987 27.0055C61.1462 26.6938 61.0265 26.2936 61.066 25.8928L62.5457 10.99C62.5864 10.5896 62.7822 10.2218 63.0903 9.9669C63.3984 9.71197 63.7939 9.59065 64.1903 9.62943L70.7843 10.2998C70.981 10.3196 71.1719 10.3785 71.3461 10.473C71.5203 10.5675 71.6743 10.6958 71.7994 10.8506C71.9244 11.0053 72.0181 11.1835 72.0749 11.3748C72.1317 11.5662 72.1506 11.767 72.1306 11.9658L70.6508 26.8567C70.6139 27.2309 70.441 27.578 70.1655 27.8307C69.8899 28.0835 69.5314 28.2241 69.1593 28.2252ZM64.0568 10.0261C63.8004 10.0247 63.5517 10.1145 63.3543 10.28C63.1296 10.4703 62.9885 10.7426 62.9618 11.0376L61.482 25.9245C61.4535 26.221 61.5424 26.5169 61.7293 26.7474C61.9161 26.9778 62.1857 27.1241 62.479 27.1542L69.073 27.8245C69.2184 27.8393 69.3652 27.825 69.5051 27.7823C69.645 27.7397 69.7752 27.6695 69.8882 27.5759C70.0013 27.4823 70.0949 27.3671 70.1638 27.2369C70.2327 27.1067 70.2755 26.964 70.2897 26.817L71.7695 11.9341C71.798 11.6371 71.7092 11.3408 71.5225 11.1097C71.3357 10.8786 71.0661 10.7315 70.7725 10.7004L64.1785 10.0301L64.0568 10.0261Z" fill="#231F20"/>
<path d="M86.7709 38.8598C86.7709 38.8598 89.4831 44.5996 90.0051 46.8526C91.6261 53.834 85.4246 63.0604 77.9122 58.4194C75.4473 56.9002 73.7949 54.3139 72.6998 51.6166C70.3644 45.8689 69.1948 39.5024 68.7748 33.3223C68.5825 30.5457 69.0927 25.8333 65.7054 24.6671C64.6143 24.2704 63.3504 25.4882 63.0953 24.9884C62.6675 24.1276 64.1786 22.1086 66.5611 23.2113C66.5611 23.2113 64.9047 21.4858 63.2013 21.9737C61.4978 22.4616 62.2279 20.7401 63.3073 20.3553C64.2846 20.0062 66.5611 20.3037 67.3579 21.9182C67.3579 21.9182 66.6082 19.3954 65.2855 19.1177C63.9627 18.84 63.5231 18.483 63.6016 18.0824C63.7351 17.3803 64.9558 17.5429 65.678 17.6857C66.4002 17.8285 68.3195 18.9035 68.818 20.3077C68.818 20.3077 68.1743 18.0864 66.5532 17.055C65.5406 16.4085 64.7124 16.4957 64.9244 16.1625C65.1363 15.8293 66.3138 14.9725 67.8053 16.0713C69.2968 17.1701 71.2711 20.6845 71.2711 20.6845C71.2711 20.6845 71.2711 18.2569 71.483 18.3045C72.6252 18.5941 73.2179 21.4184 73.3749 22.3307C73.7438 24.4925 74.4307 25.9999 75.4237 28.0149C77.2724 31.7793 79.4704 37.051 81.1268 40.8947" fill="white"/>
<path d="M81.9706 59.8712C80.4931 59.8417 79.0528 59.3982 77.8101 58.59C75.6042 57.2294 73.8262 54.9089 72.5192 51.692C70.3761 46.4282 69.0495 40.2521 68.5746 33.3382C68.5432 32.89 68.5314 32.3981 68.5157 31.8785C68.445 29.1653 68.3587 25.7936 65.6387 24.8535C65.1166 24.675 64.52 24.913 64.0373 25.1034C63.5545 25.2938 63.107 25.4723 62.9147 25.0796C62.7224 24.6869 62.8755 23.9729 63.3739 23.4533C63.6654 23.1574 64.0228 22.9363 64.4161 22.8087C64.8094 22.681 65.2273 22.6504 65.6347 22.7194C65.0264 22.3228 64.1354 21.9261 63.2483 22.1641C62.3613 22.4021 62.0708 22.0808 62.0159 21.8547C61.8432 21.3113 62.4712 20.4426 63.2366 20.1689C63.8269 20.0171 64.4428 19.9973 65.0415 20.1111C65.6401 20.2248 66.2069 20.4692 66.7023 20.8273C66.3687 20.1689 65.8702 19.443 65.2383 19.3121C64.3827 19.1296 63.2758 18.8043 63.4053 18.0427C63.5859 17.0788 65.1873 17.3882 65.7093 17.4874C66.4771 17.7166 67.1877 18.1087 67.7935 18.6377C67.4417 18.0728 66.9764 17.589 66.4276 17.2177C66.0595 16.9917 65.6636 16.8156 65.2501 16.6941C64.9479 16.5949 64.7477 16.5314 64.6849 16.3529C64.669 16.3022 64.6653 16.2484 64.6742 16.1959C64.683 16.1435 64.7042 16.0939 64.7359 16.0515C65.0303 15.682 65.4499 15.4361 65.9134 15.3613C66.2602 15.31 66.6138 15.3322 66.9516 15.4265C67.2895 15.5207 67.6042 15.6849 67.8759 15.9087C69.0142 16.7536 70.3918 18.9035 71.0159 19.9666C71.0512 18.3323 71.2082 18.2093 71.271 18.1578C71.3291 18.1198 71.3988 18.1043 71.4673 18.1141C72.7429 18.4394 73.3474 21.3985 73.5004 22.299C73.8655 24.437 74.5406 25.9166 75.5297 27.9316C77.0212 30.9661 78.7207 34.9368 80.2161 38.4354L81.2405 40.8154C81.2509 40.8393 81.2565 40.8651 81.257 40.8913C81.2575 40.9174 81.2529 40.9434 81.2434 40.9677C81.2339 40.9921 81.2198 41.0142 81.2018 41.033C81.1838 41.0518 81.1623 41.0668 81.1385 41.0772C81.0905 41.0973 81.0367 41.0978 80.9883 41.0786C80.94 41.0593 80.9009 41.0218 80.8794 40.974L79.8589 38.594C78.3635 35.0954 76.6679 31.1367 75.1803 28.1062C74.1755 26.0633 73.4887 24.56 73.1158 22.3664C72.845 20.8075 72.2719 18.9352 71.5065 18.5505C71.4249 19.2574 71.3895 19.9689 71.4006 20.6806C71.3993 20.7235 71.3843 20.7649 71.3578 20.7985C71.3312 20.832 71.2946 20.856 71.2534 20.8667C71.2123 20.8775 71.1688 20.8744 71.1295 20.858C71.0902 20.8416 71.0572 20.8127 71.0355 20.7758C71.0159 20.744 69.073 17.297 67.6208 16.23C67.3961 16.0417 67.1357 15.902 66.8556 15.8194C66.5754 15.7369 66.2815 15.7133 65.9919 15.75C65.6529 15.8079 65.3409 15.9732 65.1009 16.222L65.3718 16.3172C65.8152 16.4493 66.24 16.6387 66.6356 16.8805C68.2998 17.9396 68.9553 20.153 68.9906 20.2442C69.0068 20.2968 69.0015 20.3538 68.9762 20.4025C68.9508 20.4512 68.9073 20.4877 68.8552 20.504C68.8032 20.5204 68.7468 20.5151 68.6986 20.4894C68.6504 20.4638 68.6143 20.4198 68.5981 20.3672C68.1428 19.0384 66.2863 17.9872 65.6269 17.8801C64.5043 17.6619 63.8489 17.7452 63.7782 18.1181C63.7193 18.4196 64.2649 18.7012 65.309 18.9114C66.7337 19.2089 67.4991 21.7436 67.5305 21.8507C67.5406 21.8969 67.5341 21.9452 67.512 21.9869C67.49 22.0286 67.454 22.061 67.4104 22.0782C67.3668 22.0954 67.3186 22.0964 67.2744 22.0808C67.2303 22.0653 67.193 22.0344 67.1694 21.9935C66.4315 20.5021 64.2806 20.2006 63.3582 20.5298C62.742 20.752 62.2906 21.4461 62.377 21.7198C62.4241 21.8666 62.7145 21.8864 63.1306 21.7674C64.9282 21.2557 66.6121 22.9852 66.6866 23.0566C66.7153 23.0926 66.731 23.1373 66.731 23.1835C66.731 23.2297 66.7153 23.2745 66.6866 23.3105C66.6611 23.3485 66.623 23.3762 66.5792 23.3885C66.5353 23.4009 66.4886 23.3971 66.4472 23.3779C64.8419 22.6322 63.8842 23.4453 63.6251 23.7151C63.2562 24.1117 63.0913 24.5917 63.2326 24.8852C63.3072 24.9368 63.6565 24.798 63.8646 24.7147C64.3748 24.5124 65.0774 24.2387 65.7329 24.4648C68.7119 25.4921 68.8061 29.0185 68.8729 31.8507C68.8729 32.3664 68.9003 32.8543 68.9317 33.2946C69.4027 40.1648 70.7215 46.3013 72.8567 51.5412C74.1324 54.6789 75.8594 56.9359 77.9906 58.2528C80.6793 59.9109 83.4582 59.8752 85.8132 58.1497C88.9728 55.8411 90.7194 50.8986 89.7892 46.8963C89.2789 44.6908 86.5942 39.0026 86.5707 38.9629C86.5594 38.9395 86.5527 38.914 86.5511 38.888C86.5495 38.8619 86.553 38.8358 86.5614 38.8111C86.5698 38.7865 86.5829 38.7637 86.6 38.7441C86.617 38.7246 86.6378 38.7086 86.661 38.6972C86.6842 38.6857 86.7094 38.679 86.7351 38.6774C86.7609 38.6757 86.7867 38.6793 86.8112 38.6877C86.8356 38.6962 86.8581 38.7095 86.8775 38.7267C86.8968 38.744 86.9126 38.765 86.9239 38.7884C87.0338 39.0264 89.6518 44.5718 90.1738 46.8209C91.1512 51.0335 89.3888 56.0513 86.0447 58.4869C84.8665 59.3737 83.4396 59.8585 81.9706 59.8712Z" fill="#231F20"/>
<path d="M67.2677 13.4771C67.673 13.4771 68.0016 13.145 68.0016 12.7353C68.0016 12.3257 67.673 11.9936 67.2677 11.9936C66.8623 11.9936 66.5337 12.3257 66.5337 12.7353C66.5337 13.145 66.8623 13.4771 67.2677 13.4771Z" fill="white"/>
<path d="M67.2677 13.6794C67.0827 13.6802 66.9018 13.6255 66.7476 13.5222C66.5935 13.419 66.4731 13.2718 66.4018 13.0994C66.3305 12.9269 66.3115 12.737 66.3471 12.5536C66.3827 12.3702 66.4713 12.2016 66.6018 12.0692C66.7323 11.9368 66.8987 11.8465 67.08 11.8097C67.2614 11.773 67.4494 11.7914 67.6203 11.8628C67.7912 11.9341 67.9374 12.0551 68.0402 12.2104C68.143 12.3658 68.1979 12.5484 68.1979 12.7353C68.1969 12.9847 68.0987 13.2236 67.9245 13.4003C67.7504 13.5771 67.5144 13.6773 67.2677 13.6794ZM67.2677 12.1919C67.1602 12.1911 67.0549 12.2226 66.9653 12.2825C66.8756 12.3423 66.8056 12.4278 66.7641 12.528C66.7226 12.6282 66.7115 12.7386 66.7323 12.8451C66.7531 12.9517 66.8048 13.0496 66.8807 13.1264C66.9567 13.2031 67.0536 13.2554 67.159 13.2764C67.2645 13.2974 67.3737 13.2862 67.4728 13.2443C67.572 13.2023 67.6565 13.1316 67.7157 13.0409C67.775 12.9503 67.8062 12.8439 67.8054 12.7353C67.807 12.663 67.7942 12.591 67.7679 12.5237C67.7416 12.4564 67.7022 12.3951 67.6521 12.3433C67.602 12.2916 67.5422 12.2505 67.4762 12.2225C67.4102 12.1944 67.3393 12.18 67.2677 12.18V12.1919Z" fill="#231F20"/>
<path d="M84.4082 48.9748C84.3699 48.9749 84.3323 48.9637 84.3003 48.9426C84.2682 48.9214 84.2429 48.8913 84.2276 48.8558L80.6088 40.2442C80.5975 40.22 80.5912 40.1938 80.5902 40.1671C80.5892 40.1405 80.5936 40.1139 80.603 40.0889C80.6125 40.064 80.6268 40.0412 80.6451 40.022C80.6634 40.0028 80.6854 39.9876 80.7097 39.9771C80.7341 39.9667 80.7602 39.9614 80.7866 39.9614C80.813 39.9614 80.8392 39.9669 80.8635 39.9774C80.8877 39.9878 80.9097 40.0032 80.928 40.0224C80.9463 40.0417 80.9605 40.0645 80.9699 40.0895L84.5887 48.7011C84.6085 48.749 84.6089 48.8029 84.5898 48.8511C84.5707 48.8993 84.5337 48.938 84.4867 48.9589C84.4619 48.9698 84.4352 48.9752 84.4082 48.9748Z" fill="#231F20"/>
<path d="M35.4162 41.2477L33.4969 50.8748L26.8833 43.0169C26.8833 43.0169 25.7489 41.1049 25.0228 40.8273C24.1593 40.502 20.5915 40.2838 19.4022 39.3001C18.2129 38.3164 17.5653 38.1101 17.4397 38.8638C17.3141 39.6174 20.5797 41.5928 20.5797 41.5928C20.5797 41.5928 17.9814 42.3584 17.4397 42.1402C16.8981 41.9221 15.5714 39.0899 15.0298 39.0899C14.7511 39.0899 14.1663 39.6888 14.7118 40.9344C14.2448 39.7444 13.5775 38.4036 13.0123 38.4036C12.4471 38.4036 12.4746 39.4072 12.8278 40.744C12.8278 40.744 11.4031 38.3997 10.8653 39.8435C10.3551 41.1684 14.1074 45.853 14.9709 46.0712C15.8344 46.2894 21.5649 44.5401 21.5649 44.5401C21.5649 44.5401 28.52 64.5995 38.6151 67.2175C41.1271 67.868 44.6674 44.4726 44.6674 44.4726L35.4162 41.2477Z" fill="white"/>
<path d="M38.725 67.4277C38.672 67.429 38.6191 67.4223 38.568 67.4079C34.329 66.3091 30.145 62.1322 26.1376 54.9962C24.3189 51.7197 22.7534 48.3062 21.455 44.786C20.3639 45.1152 15.7638 46.4679 14.9356 46.2616C14.1977 46.0791 12.0664 43.5167 11.1323 41.692C10.6809 40.8114 10.5357 40.1807 10.6927 39.7721C10.7292 39.6208 10.8089 39.4837 10.922 39.3779C11.0351 39.2721 11.1765 39.2023 11.3285 39.1771C11.721 39.1454 12.1371 39.4984 12.4629 39.8713C12.349 39.1652 12.3922 38.6813 12.5845 38.4235C12.6375 38.3538 12.706 38.2978 12.7844 38.2599C12.8629 38.222 12.949 38.2033 13.0359 38.2053C13.4284 38.2053 13.8876 38.6773 14.3626 39.6016C14.3933 39.4772 14.4451 39.359 14.5156 39.2525C14.5699 39.1531 14.6472 39.0683 14.7408 39.0055C14.8344 38.9426 14.9416 38.9036 15.0534 38.8915C15.4459 38.8915 15.8619 39.5381 16.5292 40.5932C16.8746 41.1367 17.3456 41.8784 17.534 41.9538C17.8205 42.0728 19.104 41.7991 20.1127 41.5254C19.0922 40.8788 17.1689 39.5421 17.271 38.836C17.274 38.7099 17.3125 38.5874 17.382 38.4827C17.4515 38.378 17.5492 38.2955 17.6635 38.245C18.056 38.0942 18.6016 38.364 19.5475 39.1454C20.3089 39.7761 22.1772 40.0895 23.5431 40.3354C24.0735 40.4056 24.5982 40.5143 25.1131 40.6607C25.8785 40.9542 26.95 42.7313 27.0756 42.9336L33.4067 50.4702L35.2475 41.2438C35.2532 41.2159 35.2645 41.1896 35.2807 41.1664C35.2969 41.1432 35.3176 41.1236 35.3417 41.1089C35.3672 41.0981 35.3945 41.0925 35.4222 41.0925C35.4498 41.0925 35.4771 41.0981 35.5026 41.1089L44.7538 44.3338C44.7973 44.349 44.8341 44.3792 44.8578 44.4191C44.8815 44.459 44.8905 44.506 44.8834 44.552C44.7538 45.4127 41.6649 65.6665 39.1489 67.3444C39.0194 67.4155 38.8715 67.4446 38.725 67.4277ZM21.5689 44.3417C21.6098 44.3414 21.6498 44.3544 21.683 44.3786C21.7162 44.4029 21.7408 44.4372 21.7533 44.4766C21.824 44.6749 28.7909 64.4646 38.6662 67.0271C38.7095 67.0351 38.754 67.0336 38.7967 67.0226C38.8393 67.0117 38.8792 66.9916 38.9134 66.9636C40.7974 65.7062 43.3448 51.8903 44.4516 44.6035L35.5654 41.5095L33.6932 50.9145C33.6863 50.9513 33.6689 50.9852 33.643 51.012C33.6172 51.0388 33.5842 51.0573 33.548 51.0652C33.5127 51.0756 33.4752 51.0751 33.4403 51.0638C33.4053 51.0525 33.3745 51.0309 33.3517 51.0018L26.7381 43.1438C26.4123 42.6043 25.4978 41.22 24.9561 41.0137C24.4665 40.8774 23.9681 40.7754 23.4646 40.7083C21.9771 40.4584 20.1245 40.149 19.2806 39.4508C18.264 38.6099 17.9108 38.5663 17.7891 38.6139C17.6674 38.6615 17.6713 38.7805 17.6556 38.8915C17.6007 39.2684 19.1864 40.506 20.6975 41.4223C20.7304 41.4421 20.7568 41.4713 20.7734 41.5061C20.7901 41.541 20.7963 41.58 20.7913 41.6184C20.7863 41.6568 20.7703 41.6928 20.7453 41.7221C20.7202 41.7514 20.6873 41.7726 20.6504 41.7832C20.2069 41.9141 17.9579 42.5766 17.3848 42.3227C17.0944 42.2037 16.745 41.6682 16.2073 40.8074C15.858 40.2521 15.2692 39.3239 15.0573 39.2882C14.9691 39.3206 14.8952 39.384 14.8493 39.4667C14.7574 39.6513 14.7096 39.8551 14.7096 40.0617C14.7096 40.2683 14.7574 40.4721 14.8493 40.6567C14.8807 40.7281 14.9081 40.7995 14.9356 40.8709C14.9536 40.9188 14.9525 40.972 14.9326 41.0191C14.9126 41.0663 14.8754 41.1038 14.8287 41.1238C14.782 41.1438 14.7294 41.1447 14.682 41.1264C14.6346 41.1081 14.5961 41.072 14.5745 41.0256C14.5392 40.9463 14.5117 40.8709 14.4842 40.7995C13.8366 39.189 13.3067 38.6099 13.0516 38.6099C13.0247 38.608 12.9978 38.6128 12.9731 38.6238C12.9485 38.6349 12.9269 38.6519 12.9103 38.6734C12.8436 38.7606 12.6552 39.1692 13.0595 40.7003C13.0709 40.7466 13.0657 40.7955 13.0448 40.8384C13.024 40.8812 12.9889 40.9152 12.9456 40.9344C12.9024 40.9527 12.8541 40.9548 12.8094 40.9402C12.7648 40.9257 12.7268 40.8955 12.7023 40.855C12.3687 40.3076 11.7367 39.5381 11.3756 39.5817C11.2618 39.5817 11.1598 39.7087 11.0734 39.9229C10.9871 40.1371 10.9831 40.5139 11.4973 41.5095C12.4589 43.3858 14.5235 45.7459 15.0298 45.8729C15.6264 46.0236 19.2374 45.0438 21.5178 44.3497C21.5331 44.3446 21.5489 44.3419 21.5649 44.3417H21.5689Z" fill="#231F20"/>
<path d="M15.9599 42.9177C15.9284 42.9186 15.8971 42.9114 15.8689 42.8968C15.8408 42.8823 15.8168 42.8608 15.799 42.8344L14.5548 41.0494C14.5398 41.0284 14.5292 41.0046 14.5234 40.9794C14.5177 40.9542 14.517 40.928 14.5214 40.9025C14.5258 40.877 14.5352 40.8527 14.549 40.8309C14.5628 40.8091 14.5808 40.7904 14.6019 40.7757C14.6225 40.76 14.646 40.7488 14.6711 40.7427C14.6961 40.7366 14.7221 40.7357 14.7475 40.7402C14.7729 40.7447 14.7971 40.7543 14.8186 40.7686C14.8402 40.7829 14.8586 40.8015 14.8727 40.8233L16.1169 42.6043C16.132 42.6256 16.1427 42.6498 16.1485 42.6753C16.1543 42.7008 16.155 42.7273 16.1506 42.7531C16.1463 42.7789 16.1369 42.8036 16.123 42.8257C16.1091 42.8478 16.0911 42.867 16.0698 42.882C16.0379 42.9055 15.9994 42.918 15.9599 42.9177Z" fill="#231F20"/>
<path d="M12.8435 40.74C13.2784 41.4286 13.7528 42.0908 14.2644 42.7233L12.8435 40.74Z" fill="white"/>
<path d="M14.2644 42.9177C14.2371 42.9181 14.21 42.9127 14.185 42.9018C14.16 42.8908 14.1375 42.8746 14.1192 42.8542C13.5988 42.217 13.1178 41.548 12.6787 40.8511C12.6503 40.8073 12.6401 40.754 12.6504 40.7028C12.6607 40.6515 12.6906 40.6064 12.7336 40.5774C12.778 40.5488 12.8317 40.5391 12.8831 40.5502C12.9345 40.5613 12.9795 40.5925 13.0084 40.6369C13.4371 41.3124 13.9036 41.9627 14.4057 42.5845C14.4334 42.6119 14.4523 42.6472 14.4599 42.6856C14.4674 42.7241 14.4633 42.764 14.448 42.8C14.4327 42.8361 14.407 42.8666 14.3742 42.8876C14.3414 42.9086 14.3032 42.9191 14.2644 42.9177Z" fill="#231F20"/>
<path d="M12.8514 66.321H88.1486L100.23 90.2202H0.770264L12.8514 66.321Z" fill="white"/>
<path d="M100.23 90.4185H0.770244C0.736375 90.4187 0.70303 90.4101 0.673455 90.3934C0.64388 90.3767 0.619081 90.3526 0.601469 90.3233C0.584964 90.2937 0.576294 90.2602 0.576294 90.2261C0.576294 90.1921 0.584964 90.1586 0.601469 90.129L12.6865 66.2298C12.7022 66.1972 12.7268 66.1698 12.7574 66.1508C12.788 66.1318 12.8233 66.1221 12.8592 66.1227H88.1486C88.1845 66.1221 88.2198 66.1318 88.2504 66.1508C88.281 66.1698 88.3056 66.1972 88.3213 66.2298L100.406 90.129C100.423 90.1586 100.432 90.1921 100.432 90.2261C100.432 90.2602 100.423 90.2937 100.406 90.3233C100.388 90.3538 100.362 90.3787 100.331 90.3954C100.3 90.4122 100.265 90.4201 100.23 90.4185ZM1.09209 90.0219H99.9079L88.0269 66.5233H12.9731L1.09209 90.0219Z" fill="#D1D3D4"/>
<path d="M70.7255 79.768C76.5545 79.768 81.2798 78.3295 81.2798 76.555C81.2798 74.7805 76.5545 73.342 70.7255 73.342C64.8965 73.342 60.1711 74.7805 60.1711 76.555C60.1711 78.3295 64.8965 79.768 70.7255 79.768Z" fill="white"/>
<path d="M70.7254 79.9664C65.4424 79.9664 59.9749 78.6891 59.9749 76.555C59.9749 74.421 65.4424 73.1477 70.7254 73.1477C76.0085 73.1477 81.4799 74.421 81.4799 76.555C81.4799 78.6891 76.0124 79.9664 70.7254 79.9664ZM70.7254 73.5443C64.5279 73.5443 60.3674 75.0993 60.3674 76.555C60.3674 78.0108 64.5279 79.5697 70.7254 79.5697C76.923 79.5697 81.0874 78.0108 81.0874 76.555C81.0874 75.0993 76.923 73.5443 70.7254 73.5443Z" fill="#D1D3D4"/>
<path d="M19.8143 76.9993L19.9203 78.2171L47.0381 82.2234L46.7634 80.9461L19.8143 76.9993Z" fill="white"/>
<path d="M47.0381 82.4217H47.0067L19.8849 78.4233C19.8417 78.4164 19.802 78.3951 19.7721 78.3627C19.7422 78.3304 19.7239 78.2889 19.7201 78.2448L19.6102 77.0271C19.608 76.9973 19.6121 76.9674 19.6223 76.9393C19.6324 76.9113 19.6484 76.8858 19.6691 76.8644C19.6914 76.8446 19.7177 76.8298 19.7461 76.8209C19.7745 76.812 19.8044 76.8093 19.8339 76.8129L46.783 80.7557C46.8226 80.7619 46.8595 80.7799 46.8889 80.8075C46.9183 80.835 46.9388 80.8709 46.9478 80.9104L47.2186 82.1877C47.2261 82.2191 47.2256 82.2518 47.2174 82.283C47.2092 82.3141 47.1934 82.3427 47.1715 82.3662C47.1356 82.4012 47.0879 82.421 47.0381 82.4217ZM20.1047 78.0584L46.7947 82.0013L46.6103 81.1365L20.0302 77.2333L20.1047 78.0584Z" fill="#231F20"/>
<path d="M19.8143 77.0033C19.8143 77.0033 25.9844 71.6522 26.1925 71.7038C26.4005 71.7554 54.1267 75.1072 54.1267 75.1072L46.7634 80.9461L19.8143 77.0033Z" fill="white"/>
<path d="M46.7633 81.1445H46.7359L19.7868 77.2016C19.749 77.1966 19.7135 77.1804 19.6849 77.1549C19.6562 77.1295 19.6357 77.096 19.6259 77.0588C19.6144 77.023 19.6138 76.9845 19.6243 76.9484C19.6348 76.9123 19.6559 76.8803 19.6848 76.8565C25.9373 71.438 26.1139 71.4817 26.2356 71.5134C26.6516 71.5848 53.8755 74.8811 54.1502 74.9128C54.1892 74.9186 54.2258 74.9355 54.2556 74.9615C54.2855 74.9875 54.3075 75.0215 54.319 75.0596C54.3284 75.0972 54.3268 75.1368 54.3143 75.1734C54.3017 75.2101 54.2788 75.2422 54.2483 75.2659L46.885 81.1048C46.8498 81.1311 46.8071 81.145 46.7633 81.1445ZM20.2775 76.8684L46.7162 80.7359L53.6399 75.25C48.2549 74.5995 27.5701 72.0767 26.2238 71.9101C25.7724 72.1679 22.4833 74.9525 20.2775 76.8684Z" fill="#231F20"/>
<path d="M47.0382 82.2234L54.2366 76.325L54.1267 75.1072L46.7634 80.9461L47.0382 82.2234Z" fill="white"/>
<path d="M47.0382 82.4217C47.0161 82.4258 46.9935 82.4258 46.9715 82.4217C46.9398 82.4102 46.9117 82.3906 46.8897 82.3649C46.8677 82.3392 46.8526 82.3083 46.8459 82.275L46.5711 80.9977C46.5637 80.9613 46.5664 80.9235 46.5788 80.8885C46.5913 80.8535 46.6131 80.8227 46.6418 80.7994L54.009 74.9644C54.0364 74.9417 54.0695 74.927 54.1046 74.9221C54.1398 74.9172 54.1756 74.9222 54.2081 74.9366C54.2406 74.9509 54.2685 74.9741 54.2888 75.0035C54.3091 75.0329 54.3209 75.0674 54.323 75.1032L54.4329 76.317C54.4348 76.3496 54.4294 76.3822 54.4172 76.4124C54.4049 76.4426 54.3862 76.4697 54.3622 76.4916L47.1599 82.39C47.1237 82.4135 47.0811 82.4246 47.0382 82.4217ZM46.9793 81.0255L47.1599 81.8664L54.0325 76.2377L53.9658 75.488L46.9793 81.0255Z" fill="#231F20"/>
<path d="M19.8143 76.9993L14.6019 59.3556L43.1838 64.2822L46.7634 80.9461L19.8143 76.9993Z" fill="#FF3967"/>
<path d="M46.7634 81.1445H46.7359L19.7868 77.2016C19.7497 77.1964 19.7148 77.1806 19.6863 77.156C19.6578 77.1314 19.6368 77.099 19.6259 77.0628L14.4174 59.419C14.408 59.3865 14.4066 59.3521 14.4135 59.3189C14.4203 59.2856 14.4352 59.2547 14.4567 59.2286C14.4789 59.2034 14.5072 59.1843 14.5388 59.1732C14.5704 59.1621 14.6043 59.1593 14.6372 59.1652L43.2191 64.0878C43.2575 64.0949 43.293 64.1134 43.321 64.1409C43.3489 64.1685 43.3681 64.2038 43.3761 64.2425L46.9557 80.9025C46.9622 80.9316 46.9621 80.9618 46.9555 80.9908C46.9488 81.0199 46.9357 81.0471 46.9173 81.0703C46.8988 81.0936 46.8753 81.1123 46.8487 81.1252C46.8221 81.138 46.7929 81.1446 46.7634 81.1445ZM19.9674 76.8367L46.5122 80.72L43.0189 64.4567L14.8806 59.6094L19.9674 76.8367Z" fill="#231F20"/>
<path d="M62.7695 67.3881L62.5183 67.4317C61.7508 67.5443 61.0518 67.9399 60.5558 68.5424C60.2801 68.9691 60.1278 69.4651 60.116 69.9746C60.1042 70.4841 60.2334 70.9868 60.489 71.4261C61.6116 73.469 64.3473 74.0322 66.4472 74.2306C66.7427 74.278 67.0452 74.2549 67.3303 74.1631C67.4648 74.1293 67.5851 74.0534 67.6742 73.9461C67.7632 73.8388 67.8164 73.7058 67.826 73.5661C67.8356 73.4265 67.8011 73.2873 67.7276 73.1687C67.654 73.05 67.5452 72.9579 67.4167 72.9057C67.1953 72.7996 66.9577 72.7326 66.7141 72.7074C65.411 72.4892 64.0294 72.3107 62.8323 71.7197C62.1375 71.3627 61.1641 70.5297 61.6548 69.6649C61.8332 69.3842 62.09 69.1634 62.3927 69.0303C63.5937 68.4511 64.7477 68.8914 65.9252 69.2484C66.0107 69.2792 66.1014 69.2927 66.1921 69.2881C66.3045 69.2557 66.4015 69.1832 66.465 69.0839C66.5286 68.9847 66.5543 68.8656 66.5375 68.7486C66.4982 68.225 65.9801 67.8799 65.4973 67.6895C64.6279 67.3575 63.6893 67.2538 62.7695 67.3881Z" fill="white"/>
<path d="M66.8123 74.4567C66.6828 74.4567 66.5572 74.4567 66.4395 74.4567C63.2367 74.1552 61.2388 73.2032 60.3322 71.5491C60.0558 71.0775 59.9165 70.5367 59.9304 69.9887C59.9443 69.4407 60.1107 68.9078 60.4107 68.4511C60.9326 67.8118 61.6687 67.3884 62.4791 67.2611L62.7421 67.2175C63.7028 67.07 64.6849 67.178 65.5917 67.5309C66.0038 67.6895 66.7064 68.0624 66.7692 68.7566C66.791 68.9238 66.7504 69.0932 66.6554 69.2318C66.5603 69.3704 66.4176 69.4683 66.255 69.5063C66.1365 69.5174 66.017 69.5011 65.9057 69.4587L65.5956 69.3674C64.5437 69.0422 63.5467 68.7367 62.5184 69.2365C62.2508 69.3509 62.0228 69.5428 61.8629 69.7879C61.8065 69.88 61.7704 69.9833 61.7568 70.0907C61.7433 70.1981 61.7527 70.3072 61.7844 70.4107C62.0235 70.9284 62.4426 71.3392 62.9619 71.565C64.0232 72.0343 65.1499 72.3354 66.3021 72.4575L66.7888 72.5368C67.0517 72.5654 67.3079 72.6392 67.5463 72.755C67.6856 72.8244 67.8056 72.9279 67.8954 73.056C67.9852 73.1842 68.0419 73.3329 68.0605 73.4888C68.0607 73.682 68.0016 73.8706 67.8912 74.0283C67.7808 74.1861 67.6246 74.3053 67.4443 74.3694C67.2413 74.4402 67.0266 74.4698 66.8123 74.4567ZM62.801 67.5904L62.5576 67.634C61.8427 67.7432 61.1913 68.1111 60.7247 68.6693C60.4695 69.0647 60.3294 69.5247 60.3203 69.9967C60.3113 70.4687 60.4337 70.9338 60.6736 71.3389C61.5136 72.866 63.4211 73.7506 66.4748 74.0402C66.7372 74.0818 67.0056 74.0628 67.2598 73.9846C67.3622 73.9506 67.4521 73.8863 67.5179 73.8C67.5837 73.7137 67.6223 73.6094 67.6287 73.5007C67.6128 73.4147 67.5767 73.3337 67.5234 73.2647C67.4701 73.1957 67.4013 73.1406 67.3226 73.104C67.1206 73.009 66.9044 72.9487 66.6828 72.9255L66.204 72.8502C65.0103 72.7235 63.8435 72.409 62.746 71.918C62.2044 71.6403 61.5685 71.1247 61.3841 70.5257C61.3368 70.3702 61.3229 70.2062 61.3432 70.0448C61.3635 69.8834 61.4176 69.7282 61.5018 69.5896C61.6989 69.2729 61.9863 69.024 62.3261 68.8756C63.5036 68.3163 64.6065 68.6574 65.6859 68.9866L65.992 69.0818C66.0526 69.103 66.1163 69.1137 66.1804 69.1136C66.2903 69.1136 66.3649 68.9271 66.3531 68.7883C66.3178 68.2925 65.7016 67.995 65.4386 67.8998C64.5951 67.5735 63.6826 67.4724 62.7892 67.6062L62.801 67.5904Z" fill="#231F20"/>
<path d="M63.7546 65.2024C63.7546 65.2024 65.7171 75.1667 65.8938 75.7657C66.0704 76.3646 70.7294 78.82 74.4424 76.4122L77.6962 66.2258L63.7546 65.2024Z" fill="white"/>
<path d="M70.8039 77.6578C69.6893 77.6473 68.5857 77.4336 67.5462 77.0271C66.7298 76.7097 65.8035 76.198 65.7054 75.8371C65.5444 75.2381 63.6447 65.6665 63.5623 65.2619C63.5559 65.2318 63.5568 65.2005 63.565 65.1708C63.5732 65.1411 63.5885 65.1138 63.6094 65.0914C63.6293 65.0684 63.6541 65.0503 63.6821 65.0386C63.71 65.0269 63.7402 65.0219 63.7703 65.0239L77.7119 66.0473C77.7415 66.0495 77.7702 66.0585 77.7959 66.0735C77.8215 66.0885 77.8435 66.1091 77.8601 66.134C77.8767 66.1588 77.8876 66.1871 77.8918 66.2167C77.8961 66.2464 77.8936 66.2766 77.8846 66.3052L74.6308 76.4916C74.6151 76.5351 74.5862 76.5725 74.5484 76.5987C73.4289 77.3126 72.1275 77.6807 70.8039 77.6578ZM63.998 65.4166C64.3081 66.9835 65.9605 75.1826 66.0822 75.73C66.1371 75.8648 66.8672 76.4202 68.1624 76.8446C69.4577 77.269 71.9893 77.753 74.2775 76.2972L77.4175 66.4202L63.998 65.4166Z" fill="#231F20"/>
<path d="M77.7052 65.6145C77.7721 63.9254 74.6948 62.4296 70.8319 62.2734C66.969 62.1173 63.7834 63.3599 63.7165 65.049C63.6497 66.738 66.7269 68.2339 70.5898 68.39C74.4527 68.5462 77.6384 67.3035 77.7052 65.6145Z" fill="#231F20"/>
<path d="M71.3025 68.7566H70.6234C66.5964 68.59 63.4996 67.0311 63.5584 65.2064C63.5977 64.306 64.3984 63.5047 65.8192 62.9533C67.4416 62.3828 69.1601 62.1442 70.8746 62.2512C74.9017 62.4178 77.9985 63.9767 77.9396 65.8212C77.9043 66.7217 77.1036 67.519 75.6828 68.0743C74.2741 68.5618 72.791 68.7928 71.3025 68.7566ZM70.2035 62.6201C68.7636 62.5927 67.3305 62.8264 65.9723 63.3103C64.7242 63.7943 64.0098 64.5003 63.9627 65.2104C63.8999 66.7574 66.9575 68.1973 70.6352 68.348C72.2961 68.4522 73.9609 68.223 75.5336 67.6737C76.7818 67.1858 77.4961 66.4837 77.5432 65.7736C77.606 64.2227 74.5484 62.7867 70.8707 62.632L70.2035 62.6201Z" fill="#231F20"/>
<path d="M43.5018 21.3033C43.5018 21.3033 40.9701 21.109 39.4786 19.5421C40.3423 18.3871 40.8181 16.9834 40.8367 15.5358C40.8367 10.3157 34.3801 6.08323 26.4123 6.08323C18.4446 6.08323 11.984 10.3157 11.984 15.5358C11.984 20.7559 18.4446 24.9884 26.4123 24.9884C30.8436 24.9884 34.8118 23.6754 37.4573 21.6127C39.4757 21.8303 41.5154 21.7259 43.5018 21.3033Z" fill="white"/>
<path d="M26.4123 25.1748C18.3464 25.1748 11.7877 20.8472 11.7877 15.5239C11.7877 10.2006 18.3464 5.873 26.4123 5.873C34.4781 5.873 41.0329 10.1967 41.0329 15.5239C41.0165 16.9501 40.5626 18.3361 39.7337 19.4906C41.1703 20.8829 43.4899 21.0772 43.5135 21.0772C43.5605 21.0801 43.6048 21.1002 43.6381 21.1338C43.6713 21.1674 43.6912 21.2122 43.694 21.2597C43.6982 21.307 43.6854 21.3542 43.658 21.3928C43.6307 21.4313 43.5905 21.4587 43.5449 21.4699C41.5637 21.8906 39.5301 21.999 37.5161 21.7912C34.7333 23.9491 30.6905 25.1748 26.4123 25.1748ZM26.4123 6.26966C18.5623 6.26966 12.1802 10.4188 12.1802 15.5239C12.1802 20.629 18.5623 24.7781 26.4123 24.7781C30.6356 24.7781 34.6194 23.5643 37.3395 21.4461C37.3783 21.4152 37.4277 21.4009 37.4768 21.4065C39.1157 21.5698 40.768 21.5352 42.3988 21.3033C41.2496 21.0518 40.1907 20.4865 39.3373 19.6691C39.3072 19.6338 39.2906 19.5887 39.2906 19.5421C39.2906 19.4955 39.3072 19.4505 39.3373 19.4152C40.177 18.2938 40.6392 16.9301 40.6561 15.5239C40.6404 10.4188 34.2583 6.26966 26.4123 6.26966Z" fill="#D1D3D4"/>
</svg>
