<svg width="32" height="32" viewBox="0 0 32 32" fill="none" xmlns="http://www.w3.org/2000/svg">
<rect x="0.5" y="0.5" width="31" height="31" rx="15.5" stroke="#D1D3D4"/>
<path d="M17.3333 12.0002L20 14.6669M10.7844 21.8433L12.0666 21.5869C12.5374 21.4927 12.7728 21.4457 12.9923 21.3595C13.1872 21.2831 13.3724 21.184 13.5441 21.0643C13.7375 20.9294 13.9072 20.7596 14.2468 20.4201L21.2457 13.4211C21.5097 13.1571 21.6417 13.0251 21.6912 12.8729C21.7347 12.739 21.7347 12.5948 21.6912 12.4609C21.6417 12.3087 21.5097 12.1767 21.2457 11.9126L20.0876 10.7545C19.8235 10.4905 19.6915 10.3585 19.5393 10.309C19.4054 10.2655 19.2612 10.2655 19.1273 10.309C18.9751 10.3585 18.8431 10.4905 18.5791 10.7545L11.5801 17.7534C11.2406 18.093 11.0708 18.2627 10.9359 18.4561C10.8162 18.6278 10.7171 18.813 10.6407 19.0079C10.5545 19.2274 10.5075 19.4628 10.4133 19.9336L10.1569 21.2158C10.1044 21.4781 10.0782 21.6092 10.1169 21.7027C10.1507 21.7845 10.2157 21.8495 10.2975 21.8833C10.391 21.922 10.5221 21.8958 10.7844 21.8433Z" stroke="#131A29" stroke-width="2" stroke-linecap="round" stroke-linejoin="round"/>
</svg>
