<svg width="148" height="110" viewBox="0 0 148 110" fill="none" xmlns="http://www.w3.org/2000/svg">
<path d="M71.2509 96.6314C103.004 96.6314 128.745 94.7468 128.745 92.422C128.745 90.0973 103.004 88.2127 71.2509 88.2127C39.4977 88.2127 13.7566 90.0973 13.7566 92.422C13.7566 94.7468 39.4977 96.6314 71.2509 96.6314Z" fill="#D1D3D4"/>
<path d="M109.261 35.695C110.108 35.6809 110.949 35.8324 111.736 36.1407C112.524 36.4491 113.242 36.9082 113.85 37.4919C114.458 38.0756 114.945 38.7724 115.281 39.5425C115.617 40.3125 115.797 41.1407 115.81 41.9797V85.8367C115.785 87.2916 115.179 88.6772 114.124 89.6902C113.07 90.7032 111.654 91.261 110.186 91.2414H47.8373C46.3691 91.261 44.9528 90.7032 43.8987 89.6902C42.8446 88.6772 42.2386 87.2916 42.2133 85.8367V34.4667C42.2386 33.0118 42.8446 31.6261 43.8987 30.6132C44.9528 29.6002 46.3691 29.0424 47.8373 29.062H71.8873C75.702 29.062 78.7915 32.0357 78.7915 35.6987H109.261V35.695Z" fill="#231F20"/>
<path d="M110.175 91.4247H47.8373C46.3198 91.4453 44.8559 90.8685 43.7669 89.821C42.6779 88.7734 42.0527 87.3405 42.0283 85.8367V34.4667C42.0527 32.9629 42.6779 31.53 43.7669 30.4825C44.8559 29.4349 46.3198 28.8581 47.8373 28.8787H71.8873C75.7316 28.8787 78.8729 31.8414 78.9728 35.519H109.261C112.961 35.519 115.98 38.4194 115.98 41.9834V85.8367C115.956 87.3399 115.331 88.7722 114.243 89.8197C113.155 90.8671 111.692 91.4443 110.175 91.4247ZM47.8373 29.2417C46.4173 29.2211 45.047 29.7597 44.0273 30.7393C43.0075 31.7189 42.4217 33.0595 42.3983 34.4667V85.8367C42.4227 87.2433 43.0089 88.5829 44.0286 89.5617C45.0482 90.5405 46.4179 91.0786 47.8373 91.058H110.175C111.594 91.0786 112.964 90.5405 113.984 89.5617C115.003 88.5829 115.59 87.2433 115.614 85.8367V41.9797C115.614 38.6174 112.765 35.8784 109.261 35.8784H78.81C78.761 35.8784 78.7139 35.8591 78.6792 35.8247C78.6445 35.7903 78.625 35.7437 78.625 35.695C78.625 32.1384 75.6095 29.2417 71.9058 29.2417H47.8373Z" fill="#231F20"/>
<path d="M52.355 84.0473V15.7557H98.2979L109.035 26.4V82.863L52.355 84.0473Z" fill="#388CE0"/>
<path d="M103.348 29.931H57.0613C57.0372 29.931 57.0133 29.9262 56.9911 29.917C56.9689 29.9077 56.9487 29.8942 56.9318 29.8771C56.9149 29.86 56.9017 29.8398 56.8928 29.8175C56.8839 29.7953 56.8796 29.7716 56.88 29.7477C56.88 29.6997 56.899 29.6536 56.9329 29.6193C56.9668 29.585 57.0129 29.5653 57.0613 29.5643H103.348C103.397 29.5653 103.443 29.585 103.477 29.6193C103.511 29.6536 103.53 29.6997 103.53 29.7477C103.53 29.7716 103.526 29.7953 103.517 29.8175C103.508 29.8398 103.495 29.86 103.478 29.8771C103.461 29.8942 103.441 29.9077 103.419 29.917C103.396 29.9262 103.372 29.931 103.348 29.931Z" fill="white"/>
<path d="M103.348 37.257H57.0613C57.0123 37.257 56.9652 37.2377 56.9305 37.2034C56.8958 37.169 56.8763 37.1223 56.8763 37.0737C56.8763 37.0251 56.8958 36.9785 56.9305 36.9441C56.9652 36.9097 57.0123 36.8904 57.0613 36.8904H103.348C103.397 36.8904 103.444 36.9097 103.479 36.9441C103.514 36.9785 103.533 37.0251 103.533 37.0737C103.533 37.1223 103.514 37.169 103.479 37.2034C103.444 37.2377 103.397 37.257 103.348 37.257Z" fill="white"/>
<path d="M103.348 44.583H57.0613C57.0129 44.5821 56.9668 44.5623 56.9329 44.5281C56.899 44.4938 56.88 44.4477 56.88 44.3997C56.8796 44.3758 56.8839 44.352 56.8928 44.3298C56.9017 44.3076 56.9149 44.2874 56.9318 44.2703C56.9487 44.2532 56.9689 44.2396 56.9911 44.2304C57.0133 44.2211 57.0372 44.2164 57.0613 44.2164H103.348C103.372 44.2164 103.396 44.2211 103.419 44.2304C103.441 44.2396 103.461 44.2532 103.478 44.2703C103.495 44.2874 103.508 44.3076 103.517 44.3298C103.526 44.352 103.53 44.3758 103.53 44.3997C103.53 44.4477 103.511 44.4938 103.477 44.5281C103.443 44.5623 103.397 44.5821 103.348 44.583Z" fill="white"/>
<path d="M103.348 51.9054H57.0613C57.0123 51.9054 56.9652 51.8861 56.9305 51.8517C56.8958 51.8173 56.8763 51.7707 56.8763 51.722C56.8763 51.6734 56.8958 51.6268 56.9305 51.5924C56.9652 51.558 57.0123 51.5387 57.0613 51.5387H103.348C103.397 51.5387 103.444 51.558 103.479 51.5924C103.514 51.6268 103.533 51.6734 103.533 51.722C103.533 51.7707 103.514 51.8173 103.479 51.8517C103.444 51.8861 103.397 51.9054 103.348 51.9054Z" fill="white"/>
<path d="M63.2959 21.1273H57.1946C57.1456 21.1273 57.0985 21.108 57.0638 21.0737C57.0291 21.0393 57.0096 20.9926 57.0096 20.944C57.0106 20.8957 57.0304 20.8496 57.0649 20.8154C57.0994 20.7812 57.1459 20.7616 57.1946 20.7607H63.2959C63.3444 20.7616 63.3905 20.7814 63.4244 20.8157C63.4583 20.8499 63.4773 20.896 63.4772 20.944C63.4777 20.9679 63.4734 20.9917 63.4645 21.0139C63.4556 21.0361 63.4423 21.0564 63.4255 21.0734C63.4086 21.0905 63.3884 21.1041 63.3662 21.1133C63.3439 21.1226 63.3201 21.1274 63.2959 21.1273Z" fill="white"/>
<path d="M36.1564 48.554C35.3831 48.8474 34.1066 49.1224 33.7773 48.0554C33.7244 47.8658 33.708 47.668 33.7292 47.4724C33.7566 47.185 33.8086 46.9004 33.8846 46.6217C34.0905 45.8372 34.3641 45.0718 34.7023 44.3337C34.7837 44.1467 34.9428 43.923 35.1352 43.989C35.3276 44.055 35.3276 44.2604 35.3239 44.429C35.3239 44.913 35.2425 45.4007 35.2536 45.8957C36.2822 45.6354 36.9297 44.5574 37.9065 44.3264C38.184 44.2604 38.517 44.242 38.5466 44.594C38.5836 45.0304 37.7881 45.375 37.5217 45.6024C37.8187 45.3473 38.1613 45.1495 38.5318 45.0194C38.635 44.9734 38.7487 44.9557 38.8611 44.968C38.917 44.9748 38.9691 44.9997 39.0092 45.0388C39.0494 45.0779 39.0753 45.1291 39.0831 45.1844C39.076 45.277 39.0337 45.3635 38.9647 45.4264C38.8135 45.5971 38.6448 45.752 38.4615 45.8884C38.645 45.6756 38.8951 45.5297 39.1719 45.474C39.2403 45.4515 39.3138 45.4491 39.3835 45.4674C39.4531 45.4856 39.5159 45.5236 39.5641 45.5767C39.6751 45.7637 39.4568 45.969 39.2681 46.0754C39.419 45.943 39.603 45.8531 39.8009 45.815C39.8997 45.7985 40.0011 45.8201 40.0843 45.8753C40.1676 45.9305 40.2264 46.0152 40.2486 46.112C40.2439 46.1891 40.2226 46.2643 40.1863 46.3326C40.1499 46.4009 40.0992 46.4607 40.0377 46.508C39.0239 47.487 37.4588 48.0554 36.1564 48.554Z" fill="white"/>
<path d="M34.9169 49.0014C34.6771 49.0068 34.4392 48.9579 34.2213 48.8584C34.0716 48.7861 33.9389 48.6835 33.8318 48.5572C33.7247 48.4309 33.6456 48.2836 33.5997 48.125C33.5398 47.9129 33.521 47.6914 33.5442 47.4724C33.5743 47.1754 33.6275 46.8812 33.7033 46.5924C33.9138 45.7984 34.191 45.0232 34.5321 44.275C34.6875 43.9084 34.9428 43.747 35.1944 43.8314C35.3424 43.879 35.52 44.0294 35.5089 44.451C35.5089 44.6564 35.5089 44.8654 35.4756 45.0744C35.4423 45.2834 35.446 45.441 35.4386 45.6464C35.821 45.4688 36.1751 45.2365 36.4894 44.957C36.8797 44.5899 37.3491 44.3153 37.8621 44.154C37.9724 44.115 38.0899 44.0998 38.2066 44.1093C38.3234 44.1188 38.4367 44.1528 38.5392 44.209C38.596 44.2528 38.6426 44.3082 38.6758 44.3715C38.7091 44.4348 38.7281 44.5045 38.7316 44.5757C38.7374 44.6449 38.7299 44.7146 38.7094 44.781C38.7707 44.7719 38.8331 44.7719 38.8944 44.781C38.9908 44.796 39.0795 44.8423 39.1464 44.9127C39.2134 44.983 39.2549 45.0734 39.2644 45.1697C39.2665 45.2027 39.2665 45.2357 39.2644 45.2687C39.353 45.2581 39.4429 45.2717 39.5244 45.3078C39.6058 45.344 39.6758 45.4015 39.7269 45.474C39.7529 45.5208 39.7704 45.5717 39.7787 45.6244C39.9472 45.6073 40.1157 45.656 40.2486 45.76C40.299 45.8005 40.3406 45.8505 40.3711 45.9072C40.4016 45.9639 40.4204 46.0261 40.4262 46.09C40.4261 46.1942 40.4025 46.297 40.357 46.3909C40.3116 46.4848 40.2454 46.5675 40.1635 46.6327C39.1682 47.6044 37.6956 48.1654 36.3932 48.6604L36.2193 48.7264C35.8048 48.8929 35.3639 48.986 34.9169 49.0014ZM35.0686 44.1614C35.0242 44.1614 34.9354 44.2604 34.8725 44.4034C34.5394 45.1326 34.2683 45.8881 34.0622 46.662C33.9917 46.9331 33.941 47.2088 33.9105 47.487C33.8927 47.6594 33.9078 47.8335 33.9549 48.0004C33.9828 48.1143 34.0357 48.2207 34.1099 48.3119C34.1841 48.4032 34.2777 48.4771 34.3841 48.5284C34.891 48.774 35.6717 48.5284 36.0898 48.3817L36.2637 48.3157C37.5328 47.8317 38.9684 47.2854 39.9082 46.3687C39.9785 46.299 40.071 46.2 40.0636 46.1194C40.0615 46.1039 40.0562 46.089 40.0479 46.0757C40.0396 46.0625 40.0286 46.0511 40.0155 46.0424C39.9883 46.0203 39.957 46.0037 39.9234 45.9936C39.8897 45.9835 39.8544 45.9802 39.8194 45.9837C39.719 46.0011 39.624 46.0413 39.5419 46.101C39.4843 46.1465 39.4237 46.1881 39.3606 46.2257C39.3193 46.2484 39.271 46.255 39.2251 46.2441C39.1792 46.2333 39.1391 46.2058 39.1127 46.167C39.0872 46.1275 39.0776 46.08 39.0858 46.0338C39.0941 45.9876 39.1195 45.9462 39.1571 45.9177L39.3162 45.804C39.3582 45.7734 39.3903 45.7314 39.4087 45.683C39.3902 45.639 39.3162 45.6207 39.2089 45.6427C39.0942 45.6642 38.984 45.7052 38.8833 45.7637C38.7834 45.8554 38.6798 45.9434 38.5725 46.024C38.5365 46.0535 38.4906 46.0683 38.4439 46.0656C38.3973 46.0629 38.3535 46.0429 38.3212 46.0095C38.2889 45.9761 38.2705 45.9318 38.2698 45.8855C38.269 45.8393 38.286 45.7944 38.3172 45.76C38.4154 45.6471 38.5301 45.5495 38.6576 45.4704C38.7168 45.4154 38.7723 45.3567 38.8278 45.2944C38.8833 45.232 38.8981 45.1917 38.8981 45.1844C38.8981 45.177 38.8685 45.144 38.8278 45.1367C38.7465 45.1333 38.6655 45.1483 38.591 45.1807C38.4641 45.2262 38.3405 45.2801 38.221 45.342C38.1211 45.4154 38.0175 45.4814 37.9176 45.5437C37.8242 45.5998 37.734 45.661 37.6475 45.727C37.6091 45.7572 37.5606 45.7717 37.5117 45.7676C37.4629 45.7635 37.4175 45.7412 37.3848 45.705C37.3509 45.6708 37.3319 45.6247 37.3319 45.5767C37.3319 45.5287 37.3509 45.4826 37.3848 45.4484C37.5739 45.286 37.7812 45.1458 38.0027 45.0304C38.1951 44.891 38.3727 44.7334 38.3468 44.594C38.3468 44.5134 38.3135 44.4914 38.3061 44.4877C38.2987 44.484 38.1914 44.429 37.9361 44.4877C37.4777 44.6383 37.0592 44.8889 36.7114 45.221C36.305 45.5991 35.8201 45.8845 35.2906 46.057C35.2633 46.0636 35.2348 46.0641 35.2073 46.0584C35.1797 46.0527 35.1538 46.0409 35.1315 46.024C35.1097 46.0075 35.0917 45.9865 35.079 45.9625C35.0662 45.9384 35.0589 45.9119 35.0575 45.8847C35.0548 45.5983 35.0672 45.3119 35.0945 45.0267C35.0945 44.825 35.1241 44.6234 35.1278 44.4217C35.1315 44.22 35.0982 44.1687 35.0649 44.1614C35.0316 44.154 35.0723 44.1614 35.0686 44.1614Z" fill="#231F20"/>
<path d="M35.3016 45.9287C35.5359 46.2092 35.6665 46.5605 35.6719 46.9245C35.6772 47.2886 35.5571 47.6435 35.3312 47.9307H35.4348" fill="white"/>
<path d="M35.3313 48.114C35.2963 48.1147 35.2619 48.1053 35.2321 48.0869C35.2024 48.0686 35.1787 48.0421 35.1638 48.0107C35.149 47.9793 35.1436 47.9443 35.1484 47.9099C35.1531 47.8756 35.1678 47.8433 35.1907 47.817C35.3881 47.5627 35.493 47.2497 35.4883 46.9289C35.4836 46.6081 35.3696 46.2982 35.1648 46.0497C35.1307 46.0148 35.1116 45.9681 35.1116 45.9195C35.1116 45.8709 35.1307 45.8243 35.1648 45.7894C35.1829 45.7734 35.204 45.7612 35.2269 45.7535C35.2498 45.7458 35.2741 45.7427 35.2982 45.7444C35.3223 45.7461 35.3459 45.7526 35.3674 45.7635C35.389 45.7743 35.4082 45.7894 35.4238 45.8077C35.663 46.0913 35.8074 46.4415 35.8372 46.81C35.8671 47.1784 35.7808 47.5469 35.5903 47.8647C35.5941 47.8816 35.5941 47.8991 35.5903 47.916C35.5924 47.9644 35.5754 48.0118 35.5429 48.048C35.5105 48.0843 35.4651 48.1066 35.4164 48.1104H35.3017L35.3313 48.114Z" fill="#231F20"/>
<path d="M86.8286 37.7539L37.0995 33.026L33.6441 68.7185L83.3732 73.4463L86.8286 37.7539Z" fill="white"/>
<path d="M83.3795 73.6377L33.6293 68.9114C33.5789 68.9058 33.5327 68.8808 33.5008 68.8416C33.4689 68.8025 33.4539 68.7524 33.4591 68.7024L36.9112 33.0001C36.9159 32.9501 36.9403 32.904 36.9791 32.8717C37.0179 32.8394 37.068 32.8236 37.1184 32.8277L86.8501 37.5541C86.8751 37.5559 86.8995 37.5627 86.9218 37.5741C86.9441 37.5855 86.9638 37.6013 86.9797 37.6205C86.9956 37.6397 87.0074 37.662 87.0144 37.6858C87.0214 37.7097 87.0234 37.7347 87.0203 37.7594L83.5682 73.4544C83.5662 73.4795 83.5589 73.5038 83.5468 73.5259C83.5347 73.5481 83.5181 73.5674 83.4979 73.5827C83.466 73.6139 83.4242 73.6333 83.3795 73.6377ZM33.855 68.5667L83.2056 73.2564L86.6244 37.9354L37.2738 33.2347L33.855 68.5667Z" fill="#231F20"/>
<path d="M79.4871 70.235H79.4686L38.11 66.3044C38.0852 66.3021 38.0611 66.2949 38.0391 66.2833C38.017 66.2717 37.9976 66.256 37.9817 66.2369C37.9659 66.2178 37.9541 66.1958 37.9469 66.1721C37.9397 66.1484 37.9373 66.1236 37.9398 66.099L40.811 36.399C40.813 36.3739 40.8203 36.3496 40.8324 36.3275C40.8445 36.3054 40.8612 36.286 40.8813 36.2707C40.9 36.2547 40.9218 36.2425 40.9453 36.235C40.9688 36.2274 40.9936 36.2246 41.0182 36.2267L82.3842 40.1574C82.4091 40.1596 82.4332 40.1668 82.4552 40.1784C82.4772 40.19 82.4967 40.2058 82.5125 40.2249C82.5284 40.2439 82.5402 40.266 82.5474 40.2896C82.5546 40.3133 82.557 40.3381 82.5544 40.3627L79.6832 70.0627C79.6815 70.0878 79.6743 70.1123 79.6621 70.1344C79.65 70.1566 79.6332 70.1759 79.6129 70.191C79.5782 70.221 79.5332 70.2367 79.4871 70.235ZM38.332 65.945L79.3132 69.839L82.14 40.5277L41.1662 36.6337L38.332 65.945Z" fill="#D1D3D4"/>
<path d="M18.3298 90.3247L18.0153 92.6054C18.0153 92.6054 24.4237 93.2654 24.1795 92.7154C23.7072 91.9237 23.1908 91.1586 22.6329 90.4237" fill="white"/>
<path d="M22.8179 93.1334C21.4341 93.1334 19.4028 92.9537 18.0079 92.8071C17.9831 92.8053 17.9589 92.7981 17.9372 92.7861C17.9155 92.774 17.8967 92.7574 17.8821 92.7374C17.8662 92.7189 17.8547 92.6971 17.8483 92.6737C17.8419 92.6502 17.8408 92.6256 17.8451 92.6017L18.1596 90.3174C18.166 90.2693 18.1915 90.2257 18.2303 90.1961C18.2692 90.1666 18.3182 90.1535 18.3668 90.1597C18.4153 90.1661 18.4593 90.1913 18.4892 90.2298C18.519 90.2683 18.5322 90.3169 18.5259 90.3651L18.2373 92.4624C20.7348 92.7117 23.4173 92.8621 23.9723 92.7081C23.643 92.0957 22.4923 90.5704 22.4923 90.5521C22.4747 90.5331 22.4613 90.5107 22.453 90.4863C22.4447 90.4619 22.4417 90.436 22.4442 90.4104C22.4466 90.3847 22.4545 90.3599 22.4673 90.3375C22.4802 90.315 22.4976 90.2955 22.5185 90.2803C22.5394 90.265 22.5634 90.2542 22.5888 90.2487C22.6142 90.2432 22.6405 90.2431 22.6659 90.2483C22.6914 90.2535 22.7154 90.264 22.7365 90.2791C22.7576 90.2942 22.7752 90.3134 22.7883 90.3357C23.3558 91.0794 23.8784 91.8556 24.3534 92.6604C24.3733 92.7001 24.3814 92.7446 24.3769 92.7888C24.3723 92.8329 24.3552 92.8748 24.3275 92.9097C24.2017 93.0527 23.6208 93.1334 22.8179 93.1334Z" fill="#231F20"/>
<path d="M34.1362 48.851C34.1362 48.851 38.2913 51.5937 39.9045 50.7723C40.8591 50.2847 41.6213 49.588 42.4945 48.9903C43.3242 48.4509 44.1199 47.8619 44.8773 47.2267C44.964 47.1548 45.0411 47.0722 45.1067 46.981C45.1624 46.8835 45.2071 46.7802 45.2399 46.673C45.3813 46.2549 45.557 45.849 45.7653 45.4593C45.8373 45.3024 45.9596 45.1735 46.1131 45.0927C46.9678 44.759 46.4313 46.5153 46.2574 46.827C46.916 46.2147 47.5968 45.5987 48.3146 45.045C48.3492 45.0104 48.3909 44.9837 48.4369 44.9666C48.4829 44.9495 48.5321 44.9425 48.581 44.946C48.6318 44.9665 48.6733 45.0046 48.6978 45.0531C48.7223 45.1017 48.7282 45.1575 48.7142 45.21C48.6849 45.3141 48.6288 45.4089 48.5514 45.485L47.4044 46.8233C47.7316 46.4298 48.0891 46.062 48.4737 45.7233C48.6106 45.5987 48.9991 45.232 49.2137 45.3787C49.5578 45.6353 48.3294 47.014 48.1037 47.2413C48.4285 46.8002 48.8104 46.4032 49.2396 46.0607C49.3534 45.9485 49.5049 45.8819 49.6651 45.8737C49.7502 45.958 49.6651 46.101 49.5948 46.1927L48.7956 47.1057C49.1989 46.6657 49.6466 46.2 50.2349 46.09C50.2645 46.1853 50.1942 46.2807 50.1276 46.3577C48.951 47.718 47.7707 49.06 46.5312 50.3617C44.881 52.0923 43.0902 54.0907 40.7407 54.7617C37.9546 55.5683 35.4608 53.933 33.1705 52.5287" fill="white"/>
<path d="M39.2384 55.1357C37.0924 55.1357 35.1203 53.922 33.3406 52.8294L33.0705 52.6644C33.0288 52.6386 32.9992 52.5975 32.9881 52.55C32.977 52.5026 32.9853 52.4527 33.0113 52.4114C33.0373 52.37 33.0789 52.3406 33.1267 52.3296C33.1746 52.3186 33.2249 52.3269 33.2666 52.3527L33.5367 52.5177C35.7567 53.8927 38.0877 55.3154 40.6851 54.5637C42.8496 53.933 44.5812 52.1107 46.1056 50.5047L46.3942 50.2004C47.6152 48.9207 48.7918 47.5787 49.8019 46.4127C49.4742 46.6298 49.1801 46.8928 48.9287 47.1937C48.9115 47.2109 48.8911 47.2245 48.8685 47.2338C48.846 47.2431 48.8218 47.2479 48.7974 47.2479C48.773 47.2479 48.7488 47.2431 48.7262 47.2338C48.7037 47.2245 48.6832 47.2109 48.666 47.1937C48.6321 47.1594 48.6132 47.1134 48.6132 47.0654C48.6132 47.0174 48.6321 46.9713 48.666 46.937L49.3061 46.2037C49.1392 46.3392 48.9799 46.4836 48.8288 46.6364C48.6179 46.9077 48.3959 47.157 48.2516 47.3147C48.2172 47.3472 48.1715 47.3653 48.124 47.3653C48.0765 47.3653 48.0307 47.3472 47.9963 47.3147C47.9605 47.2847 47.9372 47.2425 47.9311 47.1964C47.9249 47.1503 47.9363 47.1036 47.963 47.0654C48.139 46.8282 48.3305 46.6028 48.5365 46.3907C48.7961 46.1229 48.9843 45.7953 49.0841 45.4374C48.9156 45.5241 48.762 45.6367 48.629 45.771C48.3517 46.0177 48.0886 46.2797 47.8409 46.5557L47.556 46.8894C47.5407 46.9079 47.5217 46.9233 47.5003 46.9345C47.4789 46.9457 47.4554 46.9525 47.4312 46.9546C47.4071 46.9566 47.3828 46.9539 47.3597 46.9464C47.3367 46.939 47.3154 46.9271 47.297 46.9114C47.2595 46.8806 47.2357 46.8364 47.2308 46.7883C47.226 46.7403 47.2405 46.6922 47.2711 46.6547C47.3673 46.541 47.4635 46.4237 47.5634 46.3137L48.4218 45.3164C48.4768 45.2615 48.5185 45.1951 48.5439 45.122C48.5504 45.1043 48.5504 45.0848 48.5439 45.067C48.5439 45.067 48.5217 45.067 48.4477 45.1367C47.7077 45.7124 46.9973 46.354 46.4016 46.9077C46.3695 46.9366 46.3282 46.9533 46.2849 46.9551C46.2415 46.9568 46.199 46.9434 46.1646 46.9172C46.1302 46.891 46.1062 46.8537 46.0968 46.8117C46.0874 46.7698 46.0931 46.7259 46.113 46.6877C46.2684 46.409 46.5385 45.397 46.3646 45.199C46.335 45.166 46.2277 45.199 46.1981 45.199C46.0846 45.2664 45.9972 45.3697 45.9502 45.4924C45.7466 45.8744 45.5734 46.2716 45.4322 46.6804C45.3994 46.8091 45.3483 46.9325 45.2805 47.047C45.2074 47.1534 45.1189 47.2485 45.0178 47.3294C44.3215 47.9202 43.5887 48.4676 42.8237 48.9684L42.6202 49.1077C42.3279 49.3094 42.043 49.5257 41.7655 49.7347C41.217 50.1742 40.6301 50.5644 40.0117 50.9007C38.3208 51.7624 34.2286 49.0857 34.0584 48.9684C34.038 48.9554 34.0203 48.9385 34.0066 48.9186C33.9929 48.8987 33.9833 48.8763 33.9785 48.8527C33.9736 48.8291 33.9736 48.8048 33.9785 48.7812C33.9833 48.7576 33.9929 48.7352 34.0066 48.7154C34.0338 48.6752 34.0758 48.6472 34.1236 48.6376C34.1714 48.628 34.2212 48.6375 34.2619 48.664C35.3941 49.3974 38.5983 51.2087 39.8452 50.5744C40.4446 50.2481 41.013 49.8689 41.5435 49.4414C41.821 49.2287 42.1096 49.0124 42.4093 48.807L42.6128 48.6677C43.3648 48.1746 44.0853 47.6358 44.7699 47.0544C44.8459 46.9955 44.9131 46.9264 44.9697 46.849C45.0148 46.7702 45.0508 46.6865 45.077 46.5997C45.2243 46.1668 45.4062 45.7463 45.6209 45.342C45.707 45.1386 45.8648 44.9731 46.0649 44.8764C46.1567 44.8239 46.2636 44.8037 46.3683 44.819C46.4731 44.8343 46.5696 44.8842 46.6421 44.9607C46.853 45.199 46.7975 45.7124 46.6865 46.1487C47.1601 45.7197 47.6781 45.2687 48.222 44.8507C48.2769 44.7975 48.3438 44.7581 48.4172 44.7358C48.4906 44.7134 48.5683 44.7089 48.6438 44.7224C48.7309 44.7488 48.8063 44.8039 48.8574 44.8786C48.9085 44.9533 48.9324 45.0431 48.925 45.133C48.9892 45.1028 49.0603 45.09 49.1312 45.0958C49.202 45.1016 49.27 45.1258 49.3283 45.166C49.3672 45.1941 49.3993 45.2304 49.4223 45.2722C49.4454 45.3141 49.4587 45.3604 49.4615 45.408C49.4669 45.4994 49.4517 45.5908 49.4171 45.6757C49.5054 45.6366 49.6018 45.619 49.6983 45.6244C49.7432 45.6278 49.7853 45.6474 49.8167 45.6794C49.8505 45.7117 49.8761 45.7514 49.8916 45.7954C49.907 45.8393 49.9118 45.8862 49.9055 45.9324C50.0072 45.892 50.1125 45.8613 50.22 45.8407C50.2654 45.8335 50.3118 45.8429 50.3506 45.8672C50.3895 45.8915 50.418 45.929 50.4309 45.9727C50.4456 46.0516 50.44 46.1328 50.4148 46.2091C50.3896 46.2853 50.3455 46.354 50.2866 46.409C49.2358 47.6264 47.9852 49.0564 46.6828 50.4204L46.3979 50.721C44.8402 52.3637 43.0679 54.2264 40.8109 54.8827C40.3018 55.0415 39.7722 55.1267 39.2384 55.1357Z" fill="#231F20"/>
<path d="M32.6673 59.411L36.7447 90.728L32.3676 90.6144L26.9249 68.4787L23.0473 90.6694L18.1337 90.3247L20.8939 57.9333L32.6673 59.411Z" fill="#231F20"/>
<path d="M25.53 47.5897C25.6521 44.9754 25.1193 39.6734 25.1193 39.6734C25.1193 39.6734 28.4789 39.8641 29.6111 38.2617C30.9949 39.3361 31.2798 42.3647 31.0282 43.2704C30.525 45.0561 28.1829 44.6637 28.1829 44.6637L28.4826 47.9344L25.53 47.5897Z" fill="white"/>
<path d="M28.49 48.1177H28.4678L25.5078 47.7694C25.4613 47.7639 25.4187 47.7412 25.3885 47.7058C25.3583 47.6704 25.3428 47.625 25.345 47.5787C25.4671 45.0121 24.9417 39.7431 24.9343 39.6917C24.9322 39.6651 24.9358 39.6383 24.9447 39.613C24.9536 39.5878 24.9677 39.5647 24.9861 39.5451C25.005 39.5265 25.0276 39.512 25.0524 39.5026C25.0772 39.4931 25.1038 39.4888 25.1304 39.4901C25.1637 39.4901 28.4012 39.6551 29.4594 38.1591C29.4735 38.138 29.4921 38.1203 29.5138 38.107C29.5355 38.0937 29.5598 38.0852 29.5852 38.0821C29.6351 38.0756 29.6855 38.0887 29.7258 38.1187C31.1762 39.2444 31.4722 42.3611 31.2058 43.3181C30.7655 44.8911 29.0265 44.9167 28.3864 44.8691L28.6676 47.9161C28.6696 47.9436 28.6657 47.9712 28.6562 47.9972C28.6466 48.0231 28.6316 48.0467 28.6121 48.0664C28.5792 48.0979 28.5357 48.1162 28.49 48.1177ZM25.7298 47.4284L28.2865 47.7254L28.0053 44.6821C28.0032 44.6542 28.0074 44.6263 28.0177 44.6002C28.0279 44.5742 28.0439 44.5508 28.0645 44.5317C28.0845 44.5118 28.1091 44.4971 28.1362 44.4888C28.1633 44.4805 28.192 44.4788 28.2199 44.4841C28.3087 44.4841 30.4066 44.8251 30.8543 43.2227C31.0689 42.4564 30.8543 39.6661 29.6444 38.5294C28.5344 39.8164 26.0776 39.8751 25.3302 39.8641C25.4227 40.8467 25.8075 45.1001 25.7261 47.4284H25.7298Z" fill="#231F20"/>
<path d="M28.1866 44.6637C27.6585 44.6009 27.158 44.3954 26.7399 44.0697C26.7399 44.0697 27.3763 45.6537 28.3642 45.903L28.1866 44.6637Z" fill="#231F20"/>
<path d="M28.3641 46.057H28.3234C27.2652 45.804 26.6103 44.2017 26.5807 44.1357C26.5661 44.0997 26.5648 44.0597 26.577 44.0229C26.5892 43.986 26.6141 43.9545 26.6473 43.934C26.6793 43.9121 26.7182 43.9023 26.7569 43.9063C26.7956 43.9104 26.8315 43.928 26.8582 43.956C27.2506 44.2552 27.7172 44.4439 28.2087 44.5024C28.2454 44.507 28.2795 44.5235 28.3056 44.5494C28.3317 44.5753 28.3484 44.6091 28.353 44.6454L28.5306 45.87C28.5345 45.8968 28.5318 45.9241 28.5228 45.9496C28.5138 45.9752 28.4987 45.9982 28.4788 46.0167C28.4468 46.0434 28.406 46.0577 28.3641 46.057ZM27.169 44.55C27.3938 44.9973 27.7348 45.377 28.1569 45.65L28.0385 44.825C27.7388 44.7675 27.447 44.6752 27.169 44.55Z" fill="#231F20"/>
<path d="M30.7101 46.244L38.3839 50.413L36.5339 55.7334C36.5339 55.7334 26.8917 50.6734 26.8251 49.3057C26.7585 47.938 30.7101 46.244 30.7101 46.244Z" fill="#FF3967"/>
<path d="M33.1594 62.304C33.1594 62.304 33.4739 55.4363 32.7894 51.304C32.4971 49.544 32.6118 48.3083 32.0235 47.355C30.0477 44.1577 22.3517 45.111 21.2343 47.3294C20.1169 49.5477 19.24 62.37 19.24 62.37L33.1594 62.304Z" fill="#FF3967"/>
<path d="M25.6706 41.5323C25.6285 41.3268 25.5298 41.1369 25.3855 40.9835C25.2412 40.8302 25.0568 40.7193 24.8529 40.6633C24.7615 40.6335 24.6647 40.6232 24.569 40.6334C24.4733 40.6435 24.3809 40.6737 24.2979 40.722C24.2017 40.804 24.1284 40.9091 24.0849 41.0272C24.0415 41.1454 24.0295 41.2726 24.05 41.3967C24.0818 41.7933 24.2627 42.1636 24.5569 42.4343C24.8534 42.7009 25.2407 42.8463 25.641 42.8413" fill="white"/>
<path d="M25.6151 43.0247C25.1709 43.0258 24.7429 42.8599 24.4174 42.5605C24.0919 42.261 23.8931 41.8504 23.8613 41.4114C23.8379 41.2548 23.8563 41.0948 23.9148 40.9475C23.9732 40.8002 24.0696 40.6706 24.1943 40.5717C24.2986 40.5071 24.4158 40.4657 24.5379 40.4505C24.6599 40.4353 24.7838 40.4466 24.901 40.4837C25.1378 40.5499 25.3518 40.6792 25.5195 40.8577C25.6872 41.0362 25.8021 41.2569 25.8519 41.4957C25.8568 41.5193 25.8569 41.5436 25.8523 41.5672C25.8476 41.5909 25.8384 41.6134 25.825 41.6335C25.8116 41.6536 25.7943 41.6708 25.7742 41.6843C25.754 41.6978 25.7314 41.7072 25.7076 41.712C25.6591 41.7207 25.6091 41.7102 25.5683 41.6828C25.5275 41.6553 25.4991 41.6132 25.4893 41.5654C25.4533 41.393 25.3705 41.2336 25.2499 41.1044C25.1293 40.9752 24.9754 40.881 24.8048 40.832C24.7395 40.809 24.6699 40.8004 24.6009 40.8067C24.5319 40.813 24.4651 40.8342 24.4052 40.8687C24.3378 40.9341 24.2869 41.0143 24.2567 41.1029C24.2265 41.1914 24.2178 41.2858 24.2313 41.3783C24.259 41.7277 24.4189 42.0538 24.679 42.2913C24.9401 42.5269 25.2805 42.6576 25.6336 42.658C25.6824 42.659 25.7289 42.6786 25.7634 42.7128C25.7978 42.7469 25.8176 42.793 25.8186 42.8413C25.8186 42.89 25.7991 42.9366 25.7644 42.971C25.7297 43.0054 25.6827 43.0247 25.6336 43.0247H25.6151Z" fill="#231F20"/>
<path d="M29.812 40.2515C29.8978 40.225 29.9274 40.0765 29.8781 39.9199C29.8288 39.7634 29.7193 39.6579 29.6334 39.6845C29.5476 39.711 29.518 39.8595 29.5673 40.0161C29.6166 40.1726 29.7262 40.2781 29.812 40.2515Z" fill="#231F20"/>
<path d="M32.3676 90.6144C32.3676 90.6144 32.2455 92.5064 32.4934 92.8144C32.7413 93.1224 38.887 93.5 38.5799 92.7667C38.2728 92.0334 36.3599 90.4824 36.3599 90.4824" fill="white"/>
<path d="M36.3339 93.3754C34.6097 93.3754 32.5414 93.1664 32.349 92.9244C32.0789 92.5907 32.1529 91.0654 32.1825 90.6034C32.1872 90.5548 32.2106 90.5098 32.2477 90.4777C32.2849 90.4456 32.3331 90.4289 32.3823 90.431C32.4067 90.4329 32.4304 90.4395 32.4521 90.4505C32.4739 90.4614 32.4932 90.4765 32.509 90.495C32.5248 90.5134 32.5368 90.5347 32.5443 90.5577C32.5518 90.5807 32.5546 90.6049 32.5525 90.629C32.497 91.5054 32.5155 92.5467 32.6376 92.697C33.5955 92.8852 34.5693 92.9822 35.5458 92.9867C37.3551 93.049 38.2135 92.917 38.3911 92.7997C38.1136 92.2204 36.7668 91.0397 36.2599 90.6254C36.2408 90.6101 36.2249 90.5912 36.2132 90.5698C36.2016 90.5483 36.1943 90.5248 36.1919 90.5006C36.1895 90.4764 36.192 90.4519 36.1992 90.4286C36.2064 90.4053 36.2183 90.3837 36.234 90.365C36.2651 90.3278 36.3097 90.3042 36.3582 90.2994C36.4067 90.2946 36.4552 90.309 36.493 90.3394C36.5744 90.4054 38.4281 91.9307 38.75 92.697C38.7814 92.775 38.7812 92.862 38.7495 92.9398C38.7178 93.0177 38.657 93.0804 38.5798 93.115C38.2616 93.302 37.3699 93.3754 36.3339 93.3754Z" fill="#231F20"/>
<path d="M30.4547 40.0474C30.4547 40.0474 31.8052 41.5727 31.4722 41.9027C31.1392 42.2327 30.3622 42.0677 30.3622 42.0677" fill="white"/>
<path d="M30.7914 42.2914C30.6338 42.2909 30.4765 42.2762 30.3215 42.2474C30.2977 42.2422 30.2751 42.2323 30.2551 42.2185C30.2351 42.2046 30.2181 42.1869 30.205 42.1664C30.1919 42.146 30.1831 42.1231 30.1789 42.0993C30.1748 42.0754 30.1755 42.051 30.1809 42.0274C30.1858 42.0039 30.1953 41.9816 30.2089 41.9618C30.2226 41.942 30.2401 41.9251 30.2604 41.9121C30.2808 41.8991 30.3036 41.8903 30.3274 41.8862C30.3512 41.882 30.3757 41.8827 30.3992 41.888C30.5768 41.9247 31.1392 41.9834 31.3427 41.7744C31.4056 41.6167 30.9172 40.8504 30.3178 40.1684C30.3001 40.1519 30.286 40.132 30.2764 40.11C30.2668 40.0879 30.2618 40.0641 30.2618 40.04C30.2618 40.016 30.2668 39.9922 30.2764 39.9701C30.286 39.9481 30.3001 39.9282 30.3178 39.9117C30.335 39.8945 30.3555 39.8809 30.378 39.8716C30.4006 39.8623 30.4248 39.8575 30.4492 39.8575C30.4736 39.8575 30.4978 39.8623 30.5203 39.8716C30.5429 39.8809 30.5633 39.8945 30.5805 39.9117C31.1281 40.5314 31.9865 41.624 31.5906 42.0164C31.3691 42.2053 31.0834 42.3036 30.7914 42.2914Z" fill="#231F20"/>
<path d="M36.5375 55.9167C36.5077 55.9169 36.4783 55.9093 36.4524 55.8947C36.3969 55.8691 31.0911 53.0604 29.1597 52.019C29.1379 52.0079 29.1186 51.9925 29.103 51.9738C29.0874 51.955 29.0758 51.9334 29.0689 51.9101C29.062 51.8868 29.0599 51.8623 29.0628 51.8382C29.0657 51.8141 29.0735 51.7908 29.0857 51.7697C29.097 51.7486 29.1124 51.7299 29.131 51.7148C29.1496 51.6997 29.1711 51.6883 29.1941 51.6815C29.2172 51.6747 29.2414 51.6725 29.2654 51.675C29.2893 51.6776 29.3125 51.6849 29.3336 51.6964C31.2687 52.7377 36.5708 55.5427 36.6263 55.572C36.6477 55.5836 36.6666 55.5992 36.682 55.6179C36.6973 55.6367 36.7087 55.6583 36.7156 55.6815C36.7225 55.7046 36.7247 55.7289 36.722 55.7529C36.7194 55.777 36.712 55.8002 36.7003 55.8214C36.6847 55.8506 36.6612 55.8749 36.6324 55.8918C36.6037 55.9086 36.5709 55.9172 36.5375 55.9167Z" fill="#231F20"/>
<path d="M26.9248 68.662C26.9023 68.6625 26.8799 68.6585 26.859 68.6503C26.838 68.6422 26.8189 68.6299 26.8027 68.6144C26.7694 68.5851 25.9924 67.8591 25.1895 65.1824C25.1767 65.1352 25.1825 65.085 25.2059 65.042C25.2294 64.999 25.2685 64.9666 25.3153 64.9514C25.3624 64.9388 25.4126 64.9447 25.4554 64.9679C25.4982 64.9912 25.5302 65.0299 25.5447 65.076C26.3106 67.6427 27.0247 68.3394 27.0506 68.343C27.068 68.3601 27.0817 68.3804 27.0911 68.4027C27.1005 68.4251 27.1054 68.449 27.1054 68.4732C27.1054 68.4974 27.1005 68.5214 27.0911 68.5437C27.0817 68.5661 27.068 68.5863 27.0506 68.6034C27.0346 68.6209 27.0152 68.6351 26.9936 68.6451C26.9721 68.6552 26.9487 68.661 26.9248 68.662Z" fill="white"/>
<path d="M70.522 58.5824C70.4945 58.5827 70.4673 58.5769 70.4423 58.5655C70.4174 58.5541 70.3953 58.5373 70.3777 58.5164C70.2297 58.3514 55.7849 41.9614 53.9682 40.678C53.2689 40.1794 48.9362 41.8697 39.8749 48.5577C39.834 48.5828 39.7851 48.5918 39.7378 48.5829C39.6905 48.574 39.6484 48.5479 39.6196 48.5097C39.5908 48.4715 39.5775 48.424 39.5823 48.3765C39.5871 48.3291 39.6096 48.2851 39.6455 48.2534C39.6788 48.2314 42.8053 45.925 46.1205 43.813C52.9248 39.4717 53.8905 40.1464 54.1902 40.37C56.0402 41.679 70.0669 57.6034 70.6626 58.267C70.6981 58.3027 70.718 58.3508 70.718 58.4009C70.718 58.451 70.6981 58.499 70.6626 58.5347C70.6235 58.5676 70.5733 58.5846 70.522 58.5824Z" fill="#D1D3D4"/>
<path d="M80.9967 55.8214C80.9633 55.8214 80.9306 55.813 80.9014 55.7969C80.8723 55.7809 80.8478 55.7578 80.8302 55.7297C77.8147 50.809 74.3293 45.6647 73.7151 45.573C73.0935 45.661 68.0023 49.7054 64.9424 52.2317C64.9027 52.2595 64.8539 52.2714 64.8058 52.265C64.7577 52.2586 64.7138 52.2345 64.6829 52.1973C64.652 52.1602 64.6364 52.1129 64.6392 52.0649C64.6421 52.0169 64.6631 51.9717 64.6982 51.9384C65.5159 51.2637 72.7198 45.3384 73.6744 45.1954C73.9889 45.144 75.3542 46.0717 81.1595 55.5354C81.1853 55.5787 81.1927 55.6304 81.1803 55.6791C81.1678 55.7279 81.1364 55.7698 81.0929 55.7957C81.0639 55.8132 81.0305 55.8221 80.9967 55.8214Z" fill="#D1D3D4"/>
<path d="M65.945 45.309C65.6317 45.309 65.3254 45.2169 65.0649 45.0443C64.8044 44.8717 64.6014 44.6264 64.4816 44.3394C64.3619 44.0524 64.3307 43.7367 64.3922 43.4322C64.4536 43.1276 64.6047 42.848 64.8266 42.6287C65.0484 42.4094 65.3309 42.2602 65.6384 42.2001C65.9458 42.1399 66.2643 42.1715 66.5536 42.2909C66.8429 42.4102 67.09 42.6119 67.2636 42.8705C67.4371 43.129 67.5294 43.4328 67.5286 43.7433C67.5277 44.1589 67.3604 44.5572 67.0635 44.8507C66.7666 45.1442 66.3644 45.309 65.945 45.309ZM65.945 42.5517C65.7072 42.5517 65.4747 42.6216 65.277 42.7525C65.0792 42.8835 64.9251 43.0696 64.8341 43.2873C64.7431 43.5051 64.7193 43.7447 64.7657 43.9758C64.8121 44.207 64.9266 44.4193 65.0947 44.586C65.2629 44.7526 65.4772 44.8661 65.7105 44.9121C65.9437 44.9581 66.1855 44.9345 66.4052 44.8443C66.625 44.7541 66.8128 44.6014 66.9449 44.4054C67.077 44.2094 67.1475 43.979 67.1475 43.7433C67.1475 43.4273 67.0209 43.1242 66.7953 42.9007C66.5698 42.6772 66.264 42.5517 65.945 42.5517Z" fill="#D1D3D4"/>
<path d="M28.416 42.493C28.4976 42.6943 28.6338 42.8693 28.8094 42.9987C28.985 43.1281 29.1933 43.2069 29.4113 43.2264C29.6269 43.2394 29.8426 43.2047 30.0429 43.1248C30.2433 43.0449 30.4231 42.9218 30.5694 42.7644" fill="white"/>
<path d="M29.5186 43.395H29.3928C29.1427 43.3746 28.9032 43.2865 28.7003 43.1404C28.4973 42.9943 28.3388 42.7957 28.2421 42.5663C28.2244 42.5206 28.2258 42.4698 28.2459 42.4251C28.266 42.3805 28.3032 42.3455 28.3494 42.328C28.3955 42.3105 28.4467 42.3119 28.4918 42.3318C28.5369 42.3517 28.5722 42.3886 28.5899 42.4343C28.6605 42.6004 28.7759 42.7439 28.9234 42.8493C29.0709 42.9547 29.2448 43.0179 29.4261 43.032C29.614 43.0422 29.8018 43.0114 29.9764 42.9417C30.1509 42.872 30.3079 42.7652 30.4362 42.6287C30.4534 42.6115 30.4738 42.5978 30.4964 42.5885C30.5189 42.5792 30.5431 42.5744 30.5675 42.5744C30.5919 42.5744 30.6161 42.5792 30.6387 42.5885C30.6612 42.5978 30.6817 42.6115 30.6989 42.6287C30.7161 42.6454 30.7298 42.6654 30.7391 42.6874C30.7485 42.7094 30.7533 42.7331 30.7533 42.757C30.7533 42.7809 30.7485 42.8046 30.7391 42.8266C30.7298 42.8486 30.7161 42.8686 30.6989 42.8853C30.5464 43.044 30.3634 43.1708 30.1607 43.2584C29.958 43.3459 29.7396 43.3924 29.5186 43.395Z" fill="#231F20"/>
<path d="M24.198 44.4657C23.4537 44.4659 22.7199 44.2926 22.0557 43.9597C21.7255 43.8144 21.4479 43.5726 21.2602 43.2667C21.1588 43.0807 21.1186 42.8678 21.1455 42.658C20.8473 42.701 20.5431 42.6497 20.276 42.5113C19.8889 42.2958 19.5571 41.9947 19.3066 41.6313C19.217 41.5297 19.1672 41.3996 19.166 41.2647C19.1809 41.1351 19.2427 41.0152 19.3399 40.9273L19.5878 40.6597C20.0441 40.2044 20.443 39.6959 20.7755 39.1453C20.9765 38.7484 21.1424 38.335 21.2713 37.9097C21.3786 37.5907 21.4896 37.2607 21.6413 36.9453C22.6403 34.7087 24.4866 34.3457 26.1664 34.2833C27.2246 34.2467 28.6343 34.5767 29.2744 35.6217C29.3162 35.5908 29.3623 35.5661 29.4113 35.5483C29.6122 35.4749 29.8342 35.4828 30.0292 35.5703C30.3054 35.7251 30.5264 35.9608 30.6619 36.245C31.2866 37.3629 31.567 38.6376 31.4685 39.9117C31.4671 39.936 31.4608 39.9597 31.4499 39.9815C31.439 40.0033 31.4237 40.0226 31.4051 40.0384C31.3864 40.0542 31.3647 40.066 31.3412 40.0732C31.3178 40.0804 31.2931 40.0829 31.2687 40.0803C31.2203 40.0766 31.1753 40.0541 31.1434 40.0177C31.1116 39.9814 31.0955 39.9341 31.0985 39.886C31.1895 38.6885 30.9259 37.4906 30.34 36.4393C30.2353 36.2261 30.0675 36.0496 29.859 35.9333C29.7546 35.8914 29.6378 35.8914 29.5334 35.9333C29.5027 35.9437 29.4744 35.96 29.4503 35.9814C29.4261 36.0029 29.4066 36.0289 29.3928 36.058C29.3786 36.0902 29.3554 36.1177 29.3259 36.1372C29.2963 36.1568 29.2618 36.1674 29.2263 36.168C29.1904 36.1672 29.1554 36.1565 29.1254 36.1371C29.0953 36.1177 29.0713 36.0903 29.0561 36.058C28.5751 34.991 27.2061 34.65 26.1701 34.694C23.9279 34.7747 22.7106 35.4823 21.9743 37.136C21.8426 37.4404 21.7265 37.7513 21.6265 38.0673C21.4849 38.5048 21.3054 38.9292 21.09 39.336C20.7442 39.9136 20.3266 40.4457 19.8468 40.92L19.6026 41.1877C19.5688 41.219 19.5412 41.2563 19.5212 41.2977C19.5393 41.3494 19.5698 41.3959 19.61 41.4333C19.8253 41.7523 20.1113 42.0182 20.4462 42.2107C20.5982 42.2936 20.7697 42.3353 20.9432 42.3314C21.1166 42.3276 21.286 42.2783 21.4341 42.1887C21.4731 42.1625 21.5207 42.152 21.5672 42.1594C21.6137 42.1668 21.6556 42.1914 21.6844 42.2284C21.7131 42.2653 21.7266 42.3117 21.7221 42.3582C21.7175 42.4046 21.6952 42.4476 21.6598 42.4783C21.579 42.5623 21.5283 42.6702 21.5156 42.7855C21.5029 42.9009 21.5289 43.0171 21.5895 43.1163C21.7481 43.3448 21.9687 43.5241 22.2259 43.6333C22.912 43.9781 23.678 44.1362 24.4459 44.0917C24.4703 44.0897 24.4949 44.0926 24.5181 44.1003C24.5414 44.1079 24.5628 44.1202 24.5811 44.1363C24.5995 44.1524 24.6143 44.172 24.6248 44.194C24.6352 44.2159 24.6411 44.2398 24.642 44.264C24.6435 44.2881 24.6402 44.3122 24.6323 44.3351C24.6243 44.3579 24.6119 44.3789 24.5958 44.397C24.5796 44.415 24.56 44.4297 24.5381 44.4403C24.5162 44.4508 24.4924 44.4569 24.4681 44.4583L24.198 44.4657Z" fill="#231F20"/>
<path d="M67.1069 48.0114H130.677C133.44 48.0114 134.909 49.9144 133.951 52.261L119.654 87.318C118.7 89.6647 115.68 91.5677 112.917 91.5677H49.3432C46.5793 91.5677 45.1141 89.6647 46.0724 87.318L60.3655 52.261C61.3238 49.9144 64.3393 48.0114 67.1069 48.0114Z" fill="white"/>
<path d="M112.917 91.7584H49.3432C47.8891 91.7584 46.694 91.2304 46.065 90.2917C45.51 89.4667 45.4323 88.3667 45.88 87.2667L60.1731 52.2097C61.1573 49.8007 64.2431 47.8427 67.0921 47.8427H130.677C132.134 47.8427 133.33 48.3707 133.955 49.291C134.528 50.1307 134.591 51.2197 134.129 52.3527L119.832 87.4061C118.851 89.7967 115.747 91.7584 112.917 91.7584ZM67.1069 48.202C64.417 48.202 61.4718 50.0354 60.5431 52.3344L46.25 87.3877C45.8393 88.3997 45.88 89.364 46.3869 90.0974C46.9419 90.9114 48.0186 91.3807 49.3469 91.3807H112.917C115.607 91.3807 118.548 89.5254 119.48 87.2484L133.774 52.1914C134.188 51.1794 134.144 50.2187 133.64 49.4854C133.085 48.6677 132.005 48.202 130.68 48.202H67.1069Z" fill="#231F20"/>
<path d="M109.035 26.5761H98.3053C98.2802 26.5765 98.2552 26.5721 98.2319 26.5629C98.2086 26.5537 98.1874 26.54 98.1694 26.5226C98.1515 26.5052 98.1373 26.4844 98.1276 26.4615C98.1179 26.4385 98.1129 26.4139 98.1129 26.3891V15.7667C98.1047 15.7383 98.1033 15.7085 98.1087 15.6795C98.1142 15.6504 98.1263 15.6231 98.1443 15.5995C98.1622 15.576 98.1854 15.5569 98.2121 15.5437C98.2387 15.5305 98.2681 15.5237 98.2979 15.5237C98.3277 15.5237 98.357 15.5305 98.3837 15.5437C98.4103 15.5569 98.4335 15.576 98.4515 15.5995C98.4694 15.6231 98.4816 15.6504 98.487 15.6795C98.4925 15.7085 98.4911 15.7383 98.4829 15.7667V26.1984H109.032C109.06 26.1903 109.09 26.1889 109.12 26.1943C109.149 26.1997 109.177 26.2117 109.2 26.2295C109.224 26.2473 109.243 26.2703 109.257 26.2967C109.27 26.3231 109.277 26.3522 109.277 26.3817C109.277 26.4112 109.27 26.4403 109.257 26.4668C109.243 26.4932 109.224 26.5162 109.2 26.5339C109.177 26.5517 109.149 26.5638 109.12 26.5692C109.09 26.5746 109.06 26.5732 109.032 26.5651L109.035 26.5761Z" fill="#231F20"/>
<path d="M71.8343 29.3789C71.284 29.3636 70.7486 29.2004 70.2861 28.907C69.8236 28.6136 69.4518 28.2013 69.2111 27.7148C68.3991 26.1803 66.1437 18.1667 65.7412 14.9749C65.617 14.2588 65.7826 13.5234 66.2028 12.9257C66.6229 12.328 67.2642 11.9155 67.9897 11.7763C69.565 11.3466 71.7232 11.7763 72.2992 13.0516C72.7711 14.1019 73.6039 16.0797 73.6039 16.0797L72.9446 16.3525C72.9446 16.3525 72.0702 14.3747 71.6261 13.3312C71.2583 12.4992 69.5442 12.0695 68.1562 12.4515C67.5983 12.5496 67.1027 12.8608 66.7776 13.317C66.4525 13.7733 66.3244 14.3374 66.4213 14.8862C66.8654 18.2963 69.1139 26.0234 69.8356 27.3874C70.0396 27.8229 70.3842 28.18 70.8159 28.4033C71.2475 28.6265 71.7422 28.7033 72.2229 28.6219C72.5752 28.5091 72.8743 28.2754 73.0655 27.9635C73.2567 27.6516 73.3271 27.2824 73.2639 26.9237C73.1736 24.3457 69.6344 14.9203 69.5997 14.8248C69.5832 14.7814 69.5757 14.7353 69.5776 14.689C69.5795 14.6427 69.5909 14.5972 69.6109 14.5553C69.6309 14.5134 69.6593 14.4758 69.6943 14.4448C69.7293 14.4138 69.7703 14.39 69.8148 14.3747C69.9032 14.3435 70.0006 14.3474 70.0861 14.3856C70.1716 14.4239 70.2386 14.4933 70.2728 14.5793C70.4186 14.9749 73.8815 24.2093 73.9786 26.8964C74.0523 27.4165 73.9339 27.9453 73.6449 28.387C73.3559 28.8287 72.9154 29.154 72.4033 29.3039C72.2175 29.352 72.0264 29.3772 71.8343 29.3789Z" fill="#231F20"/>
<path d="M123.325 59.598H101.55C101.323 59.6123 101.096 59.5689 100.891 59.472C100.686 59.3751 100.509 59.2279 100.377 59.0444C100.249 58.8222 100.178 58.5722 100.17 58.3165C100.163 58.0608 100.218 57.8071 100.333 57.5777L101.073 55.8067C101.312 55.2785 101.69 54.8239 102.168 54.491C102.646 54.158 103.206 53.9589 103.789 53.9147H125.567C125.793 53.9021 126.02 53.9463 126.225 54.043C126.43 54.1398 126.607 54.286 126.74 54.4684C126.868 54.6905 126.939 54.9405 126.946 55.1962C126.954 55.4519 126.898 55.7056 126.784 55.935L126.044 57.7097C125.804 58.238 125.425 58.6923 124.947 59.0247C124.468 59.3571 123.907 59.5552 123.325 59.598ZM103.796 54.2667C103.288 54.3075 102.801 54.4829 102.385 54.7745C101.969 55.0661 101.64 55.4631 101.432 55.924L100.692 57.6987C100.599 57.872 100.55 58.0653 100.55 58.2615C100.55 58.4578 100.599 58.6511 100.692 58.8243C100.793 58.9509 100.925 59.0507 101.074 59.1147C101.224 59.1786 101.388 59.2049 101.55 59.191H123.325C123.829 59.154 124.314 58.9839 124.73 58.6982C125.146 58.4126 125.477 58.0219 125.689 57.5667L126.429 55.7957C126.522 55.6218 126.571 55.4279 126.571 55.231C126.571 55.0341 126.522 54.8402 126.429 54.6664C126.331 54.5362 126.201 54.4327 126.051 54.3654C125.902 54.2981 125.738 54.2692 125.574 54.2813L103.796 54.2667Z" fill="#D1D3D4"/>
</svg>
