<svg width="40" height="40" viewBox="0 0 40 40" fill="none" xmlns="http://www.w3.org/2000/svg">
<rect x="0.5" y="0.5" width="39" height="39" rx="9.5" fill="white" stroke="#DEE2E6"/>
<path d="M18 17H25M18 21H25M15 17H15.01M15 21H15.01M29 28L25.6757 26.3378C25.4237 26.2118 25.2977 26.1488 25.1656 26.1044C25.0484 26.065 24.9277 26.0365 24.8052 26.0193C24.6672 26 24.5263 26 24.2446 26H15.8C14.1198 26 13.2798 26 12.638 25.673C12.0735 25.3854 11.6146 24.9265 11.327 24.362C11 23.7202 11 22.8802 11 21.2V16.8C11 15.1198 11 14.2798 11.327 13.638C11.6146 13.0735 12.0735 12.6146 12.638 12.327C13.2798 12 14.1198 12 15.8 12H24.2C25.8802 12 26.7202 12 27.362 12.327C27.9265 12.6146 28.3854 13.0735 28.673 13.638C29 14.2798 29 15.1198 29 16.8V28Z" stroke="#959EA2" stroke-width="2" stroke-linecap="round" stroke-linejoin="round"/>
</svg>
