<svg width="182" height="136" viewBox="0 0 182 136" fill="none" xmlns="http://www.w3.org/2000/svg">
<path d="M56.0952 106.339L50.3771 113.037C50.3771 113.037 39.3113 106.827 39.7178 105.603C40.1243 104.379 47.3148 106.226 47.3148 106.226L50.883 101.601" fill="white"/>
<path d="M50.3771 113.263C50.3372 113.264 50.2979 113.253 50.2642 113.231C46.8902 111.339 39.0854 106.795 39.5055 105.531C39.9255 104.266 45.3455 105.494 47.229 105.982L50.7068 101.466C50.7441 101.419 50.7978 101.389 50.8567 101.382C50.9156 101.374 50.9752 101.39 51.023 101.425C51.0702 101.461 51.101 101.515 51.1086 101.575C51.1162 101.634 51.1 101.694 51.0636 101.741L47.4955 106.366C47.4686 106.401 47.432 106.428 47.3902 106.442C47.3485 106.456 47.3034 106.458 47.2606 106.447C43.8866 105.58 40.1378 105.065 39.93 105.68C39.8307 106.38 45.2145 109.88 50.3184 112.757L55.9236 106.19C55.9639 106.152 56.0168 106.13 56.0722 106.128C56.1277 106.127 56.1818 106.146 56.2242 106.181C56.2666 106.217 56.2944 106.267 56.3023 106.322C56.3101 106.377 56.2975 106.433 56.2668 106.479L50.5442 113.177C50.525 113.204 50.4999 113.225 50.4709 113.24C50.4419 113.255 50.4097 113.263 50.3771 113.263Z" fill="#231F20"/>
<path d="M74.4961 42.7579C73.8965 42.1715 73.1407 41.7701 72.3191 41.6017C71.6145 41.4978 71.226 41.7959 70.6389 42.0533C70.404 42.1572 70.3769 42.505 70.1285 42.6089C69.8801 42.7128 69.3697 42.4553 69.0851 42.4463C68.3256 42.4037 67.5665 42.5378 66.8675 42.8379C66.1685 43.1381 65.5485 43.5961 65.0563 44.1762C64.4468 45.0292 63.9716 45.9706 63.6471 46.9675C61.9578 51.2312 59.3698 55.513 55.1648 57.3558C58.9633 60.0658 63.6064 61.7866 68.2631 61.5156C70.5383 61.3805 72.7564 60.75 74.7626 59.6683C76.3389 58.8147 79.2025 57.0487 79.487 55.0884C79.7535 53.2501 78.8818 50.4317 78.3036 48.6973C77.5843 46.4146 76.2701 44.3645 74.4961 42.7579Z" fill="white"/>
<path d="M67.3056 61.7596C63.1818 61.7596 58.8639 60.2781 55.0338 57.5319C55.0021 57.508 54.9771 57.4763 54.9613 57.4399C54.9455 57.4035 54.9393 57.3637 54.9434 57.3242C54.9473 57.2852 54.9615 57.2479 54.9845 57.2161C55.0075 57.1844 55.0385 57.1593 55.0744 57.1435C58.5703 55.6169 61.3074 52.2565 63.4393 46.8817L63.5341 46.6378C63.852 45.7044 64.3088 44.8243 64.8891 44.0271C65.4027 43.4202 66.0503 42.941 66.7809 42.6274C67.5115 42.3139 68.305 42.1746 69.0987 42.2205C69.2522 42.2329 69.4038 42.2632 69.5503 42.3108C69.7083 42.3671 69.875 42.3947 70.0427 42.3921C70.0923 42.3921 70.1375 42.2927 70.1872 42.2114C70.2568 42.0541 70.3779 41.9251 70.5305 41.8456C70.6434 41.7959 70.7473 41.7417 70.8466 41.692C71.2929 41.4192 71.8174 41.3032 72.3371 41.3623C73.2022 41.5453 73.9978 41.9697 74.6316 42.5863C76.4328 44.2218 77.7684 46.3055 78.5024 48.6251C79.1437 50.5402 79.9613 53.2908 79.6948 55.1246C79.4147 57.0306 76.9125 58.7379 74.8574 59.8671C72.8217 60.9585 70.5733 61.5949 68.2676 61.7325C67.9514 61.7505 67.6308 61.7596 67.3056 61.7596ZM55.6164 57.41C59.5866 60.1607 64.0581 61.5428 68.2631 61.2989C70.5028 61.1713 72.6874 60.5547 74.6632 59.4922C77.441 57.9881 79.076 56.4254 79.2702 55.0794C79.5231 53.345 78.7237 50.6576 78.1004 48.7922C77.391 46.5472 76.099 44.5305 74.3561 42.9476C73.7885 42.389 73.0745 42.0023 72.2965 41.832C71.8659 41.7842 71.432 41.8863 71.0679 42.1211C70.9641 42.1708 70.8557 42.225 70.7382 42.2747C70.6762 42.3231 70.628 42.387 70.5982 42.4598C70.52 42.6299 70.3816 42.765 70.2098 42.8392C69.9565 42.8854 69.6954 42.8604 69.4555 42.767C69.3359 42.7311 69.2135 42.7055 69.0896 42.6902C68.3643 42.6426 67.6378 42.7643 66.9676 43.0457C66.2974 43.3271 65.7018 43.7605 65.2279 44.3117C64.6798 45.0719 64.2503 45.9111 63.9542 46.8004L63.8548 47.0443C61.7501 52.3559 59.0536 55.7434 55.6164 57.41Z" fill="#231F20"/>
<path d="M66.6506 57.1525C67.4004 56.3621 64.6859 56.9764 64.4329 62.1615C64.2387 66.1181 65.517 72.5815 65.517 72.5815L57.0166 79.6907L62.2695 81.1902C62.2695 81.1902 71.8493 74.2255 71.8448 73.7152C71.8403 73.2048 66.6506 57.1525 66.6506 57.1525Z" fill="white"/>
<path d="M62.2695 81.398C62.2501 81.4023 62.2301 81.4023 62.2107 81.398L56.9579 79.8985C56.9219 79.8873 56.8896 79.8668 56.8642 79.839C56.8388 79.8112 56.8212 79.7772 56.8133 79.7404C56.807 79.7038 56.8103 79.6662 56.823 79.6314C56.8356 79.5965 56.8572 79.5656 56.8856 79.5416L65.2911 72.5137C65.1195 71.6104 64.0445 65.8019 64.2252 62.1615C64.4104 58.4082 65.8964 56.8499 66.5874 56.6873C66.6527 56.6632 66.7243 56.6617 66.7906 56.6829C66.8569 56.7042 66.9142 56.7471 66.9532 56.8047C66.9832 56.8712 66.9923 56.9452 66.9794 57.0169C66.9665 57.0887 66.9322 57.1548 66.881 57.2067C67.825 60.12 72.03 73.2183 72.0526 73.7152C72.0752 74.212 66.7997 78.1505 62.3914 81.3573C62.3561 81.3834 62.3134 81.3977 62.2695 81.398ZM57.4457 79.5913L62.2288 80.9463C65.7202 78.408 71.2305 74.2797 71.6325 73.67C71.4925 72.9067 68.4708 63.4623 66.4519 57.1977C65.9234 57.5906 64.7988 58.9366 64.6452 62.166C64.4555 66.0549 65.7157 72.4731 65.7292 72.5544C65.7356 72.5909 65.7323 72.6285 65.7196 72.6634C65.7069 72.6982 65.6853 72.7292 65.657 72.7531L57.4457 79.5913Z" fill="#231F20"/>
<path d="M88.8094 118.051C115.922 118.051 137.901 116.653 137.901 114.93C137.901 113.206 115.922 111.809 88.8094 111.809C61.6968 111.809 39.7178 113.206 39.7178 114.93C39.7178 116.653 61.6968 118.051 88.8094 118.051Z" fill="#D1D3D4"/>
<path d="M81.6144 52.8572C81.3027 52.6133 67.4862 53.4715 65.1014 58.083C62.7166 62.6945 71.2983 76.6013 71.2983 76.6013L88.7733 71.3665C88.7733 71.3665 90.0199 59.4335 81.6144 52.8572Z" fill="#FF3967"/>
<path d="M136.804 93.5117C139.062 103.9 131.564 111.456 131.564 111.456H78.7689C78.7689 111.456 71.2802 103.932 73.525 93.5117C75.7698 83.0918 91.682 77.4143 96.5194 73.1415C101.357 68.8688 99.6314 61.606 92.0253 56.0505C84.4192 50.495 74.1212 46.972 74.4103 34.9712C74.5819 27.2929 80.6343 22.2929 80.6343 22.2929H129.717C129.717 22.2929 135.769 27.2612 135.941 34.9712C136.212 46.972 125.914 50.495 118.303 56.0505C110.693 61.606 108.967 68.8688 113.809 73.1415C118.651 77.4143 134.559 83.1143 136.804 93.5117Z" fill="white"/>
<path d="M131.564 111.664H78.7688C78.7128 111.664 78.6592 111.641 78.6198 111.601C78.5475 111.524 71.0815 103.855 73.3263 93.4665C74.9523 85.9418 83.7417 80.7928 90.1599 77.0349C92.7705 75.5083 95.0198 74.1894 96.3838 72.9699C97.2608 72.2324 97.955 71.3017 98.4119 70.2508C98.8688 69.1999 99.0759 68.0574 99.0171 66.9131C98.8499 63.2997 96.2574 59.3747 91.9033 56.1995C90.4083 55.1065 88.7733 54.0722 87.1924 53.0695C80.6884 48.9548 73.9676 44.6956 74.1844 34.9486C74.3561 27.2703 80.4219 22.1664 80.4852 22.1168C80.5214 22.0849 80.5679 22.0672 80.6162 22.0671H129.717C129.765 22.068 129.811 22.0855 129.848 22.1168C129.907 22.1664 135.972 27.2522 136.149 34.9486C136.365 44.6956 129.64 48.9503 123.136 53.0695C121.56 54.0722 119.925 55.1065 118.425 56.1995C114.076 59.3612 111.483 63.2817 111.316 66.9131C111.256 68.0571 111.462 69.1995 111.919 70.2504C112.375 71.3013 113.068 72.2322 113.945 72.9699C115.3 74.1713 117.558 75.4902 120.169 77.0349C126.587 80.7928 135.381 85.9418 137.007 93.4665C139.265 103.855 131.785 111.533 131.709 111.601C131.69 111.621 131.668 111.637 131.643 111.648C131.618 111.659 131.591 111.664 131.564 111.664ZM78.8547 111.249H131.474C132.165 110.512 138.701 103.232 136.605 93.5524C135.015 86.2037 126.311 81.1135 119.961 77.3917C117.337 75.8561 115.065 74.5282 113.674 73.2951C112.747 72.5165 112.014 71.5329 111.532 70.4221C111.051 69.3113 110.835 68.1038 110.9 66.895C111.077 63.1371 113.728 59.1173 118.181 55.8653C119.694 54.7632 121.343 53.7244 122.919 52.7036C129.324 48.6386 135.945 44.4517 135.733 34.9396C135.575 27.8258 130.245 22.9885 129.64 22.4645H80.6929C80.0877 22.9885 74.758 27.8258 74.5954 34.9396C74.3832 44.4517 81.0091 48.6477 87.4137 52.7036C88.9991 53.7063 90.6386 54.7452 92.1472 55.8653C96.6006 59.1173 99.2565 63.1371 99.4281 66.895C99.4919 68.1005 99.275 69.3043 98.7946 70.4118C98.3142 71.5192 97.5832 72.5 96.6594 73.277C95.2637 74.5101 92.9963 75.838 90.3722 77.3737C84.0172 81.0954 75.3181 86.1857 73.7282 93.5343C71.637 103.232 78.1636 110.512 78.8547 111.249Z" fill="#231F20"/>
<path d="M89.5501 50.5085C91.1807 51.5428 92.8699 52.6088 94.4688 53.7786C98.247 56.4123 101.093 60.1757 102.599 64.5283C104.053 68.7017 103.647 73.1461 104.55 77.4595C104.562 77.6251 104.611 77.7859 104.695 77.9293C104.779 78.0726 104.895 78.1947 105.033 78.286C105.241 78.3714 105.47 78.3907 105.689 78.3414C105.908 78.2921 106.106 78.1766 106.257 78.0105C106.5 77.6946 106.644 77.3146 106.673 76.9175C107.242 73.4577 107.215 70.1922 107.432 66.6872C107.712 62.2067 110.76 57.5003 115.842 53.7967C117.445 52.6268 119.13 51.5609 120.765 50.5266C124.441 48.196 138.832 37.907 129.265 34.8267C127.219 34.1717 124.938 34.3479 122.757 34.5376L88.5565 37.4825C86.5737 37.6541 84.5502 37.8348 82.739 38.5213C80.9278 39.2078 79.338 40.4996 79.0173 42.1346C78.4301 45.215 86.8763 48.8283 89.5501 50.5085Z" fill="#388CE0"/>
<path d="M131.605 92.64C129.604 91.101 127.121 90.3216 124.599 90.4404C121.104 90.5668 117.703 91.7096 114.211 91.5424C110.051 91.3437 106.122 89.2841 101.985 89.7087C97.1291 90.1874 93.6061 93.8685 88.8862 94.9616C86.3794 95.5397 83.6514 95.3545 81.2079 96.1088C78.3262 97.0121 77.0661 99.4376 77.4003 101.831C77.5042 102.577 79.5412 108.43 80.6839 108.43H129.631C132.147 108.43 134.044 97.6806 133.791 96.1901C133.518 94.7802 132.741 93.5181 131.605 92.64Z" fill="#388CE0"/>
<path d="M130.611 18.4492H79.7174C78.6547 18.4492 77.7933 19.3097 77.7933 20.3711C77.7933 21.4325 78.6547 22.2929 79.7174 22.2929H130.611C131.674 22.2929 132.535 21.4325 132.535 20.3711C132.535 19.3097 131.674 18.4492 130.611 18.4492Z" fill="#231F20"/>
<path d="M130.616 22.4916H79.7083C79.1453 22.4916 78.6054 22.268 78.2073 21.8699C77.8092 21.4718 77.5855 20.9318 77.5855 20.3688C77.5855 19.8058 77.8092 19.2658 78.2073 18.8677C78.6054 18.4696 79.1453 18.246 79.7083 18.246H130.616C131.179 18.246 131.719 18.4696 132.117 18.8677C132.515 19.2658 132.739 19.8058 132.739 20.3688C132.739 20.9318 132.515 21.4718 132.117 21.8699C131.719 22.268 131.179 22.4916 130.616 22.4916ZM79.7083 18.648C79.4746 18.636 79.2409 18.6717 79.0215 18.7529C78.802 18.8341 78.6013 18.9591 78.4317 19.1202C78.262 19.2814 78.127 19.4754 78.0346 19.6905C77.9423 19.9055 77.8947 20.1371 77.8947 20.3711C77.8947 20.6051 77.9423 20.8366 78.0346 21.0517C78.127 21.2667 78.262 21.4607 78.4317 21.6219C78.6013 21.7831 78.802 21.9081 79.0215 21.9893C79.2409 22.0704 79.4746 22.1061 79.7083 22.0942H130.616C131.057 22.0715 131.474 21.8801 131.778 21.5595C132.083 21.2388 132.253 20.8134 132.253 20.3711C132.253 19.9287 132.083 19.5033 131.778 19.1827C131.474 18.862 131.057 18.6706 130.616 18.648H79.7083Z" fill="#231F20"/>
<path d="M131.596 111.456H78.7372C77.6746 111.456 76.8131 112.317 76.8131 113.378C76.8131 114.44 77.6746 115.3 78.7372 115.3H131.596C132.658 115.3 133.52 114.44 133.52 113.378C133.52 112.317 132.658 111.456 131.596 111.456Z" fill="#231F20"/>
<path d="M131.596 115.503H78.7508C78.1878 115.503 77.6478 115.28 77.2497 114.882C76.8516 114.483 76.628 113.944 76.628 113.381C76.628 112.818 76.8516 112.278 77.2497 111.879C77.6478 111.481 78.1878 111.258 78.7508 111.258H131.596C132.159 111.258 132.699 111.481 133.097 111.879C133.495 112.278 133.719 112.818 133.719 113.381C133.719 113.944 133.495 114.483 133.097 114.882C132.699 115.28 132.159 115.503 131.596 115.503ZM78.7508 111.655C78.2932 111.655 77.8543 111.837 77.5308 112.161C77.2072 112.484 77.0254 112.923 77.0254 113.381C77.0254 113.838 77.2072 114.277 77.5308 114.601C77.8543 114.924 78.2932 115.106 78.7508 115.106H131.596C132.053 115.106 132.492 114.924 132.816 114.601C133.139 114.277 133.321 113.838 133.321 113.381C133.321 112.923 133.139 112.484 132.816 112.161C132.492 111.837 132.053 111.655 131.596 111.655H78.7508Z" fill="#231F20"/>
<path d="M104.387 79.9933C102.924 79.9933 102.919 84.8352 104.387 84.8352C105.855 84.8352 105.855 79.9933 104.387 79.9933Z" fill="#388CE0"/>
<path d="M106.948 84.8262C106.357 84.8262 106.357 86.538 106.948 86.538C107.54 86.538 107.545 84.8262 106.948 84.8262Z" fill="#388CE0"/>
<path d="M103.33 46.0009C96.6078 45.9433 89.9273 44.932 83.4888 42.9973C83.4628 42.9896 83.4387 42.9768 83.4179 42.9595C83.3971 42.9422 83.3801 42.9209 83.3678 42.8968C83.3556 42.8727 83.3484 42.8463 83.3466 42.8193C83.3449 42.7924 83.3487 42.7653 83.3578 42.7398C83.3753 42.6878 83.4127 42.6449 83.4618 42.6203C83.5109 42.5958 83.5676 42.5917 83.6198 42.6089C83.8998 42.7037 111.948 51.8048 126.98 37.7399C127.02 37.7039 127.073 37.685 127.127 37.6874C127.181 37.6898 127.232 37.7132 127.269 37.7527C127.306 37.7921 127.327 37.8445 127.326 37.8986C127.325 37.9528 127.303 38.0044 127.264 38.0425C120.634 44.2439 111.524 46.0009 103.33 46.0009Z" fill="#231F20"/>
<path d="M97.0026 100.607C91.7254 100.608 86.4758 99.847 81.4156 98.349C81.3878 98.3422 81.3616 98.3296 81.3389 98.3122C81.3161 98.2947 81.2972 98.2727 81.2834 98.2476C81.2696 98.2225 81.2611 98.1948 81.2585 98.1662C81.2559 98.1376 81.2592 98.1088 81.2683 98.0816C81.2773 98.0544 81.2919 98.0294 81.3112 98.0081C81.3304 97.9868 81.3538 97.9697 81.38 97.9579C81.4061 97.9461 81.4344 97.9399 81.4631 97.9396C81.4918 97.9393 81.5202 97.9449 81.5466 97.9561C81.6957 98.0103 96.9394 103.001 110.715 97.9561L127.052 91.9715C127.078 91.9586 127.107 91.9513 127.136 91.9502C127.165 91.9491 127.195 91.9542 127.222 91.9651C127.249 91.976 127.273 91.9926 127.294 92.0136C127.314 92.0347 127.33 92.0598 127.339 92.0874C127.349 92.1149 127.353 92.1442 127.351 92.1734C127.349 92.2025 127.341 92.2309 127.327 92.2566C127.313 92.2824 127.294 92.3049 127.27 92.3227C127.247 92.3405 127.221 92.3532 127.192 92.3599L110.873 98.3355C106.417 99.8951 101.723 100.664 97.0026 100.607Z" fill="#231F20"/>
<path d="M117.395 93.0058H117.346C112.639 91.8451 104.424 89.8713 104.338 89.8442C104.288 89.8275 104.247 89.7929 104.222 89.7472C104.197 89.7015 104.19 89.6481 104.203 89.5975C104.215 89.5469 104.246 89.5029 104.29 89.4741C104.333 89.4453 104.386 89.434 104.437 89.4422C104.518 89.4648 112.734 91.434 117.445 92.6039C117.472 92.6097 117.497 92.6208 117.519 92.6365C117.541 92.6523 117.56 92.6724 117.574 92.6955C117.589 92.7187 117.598 92.7445 117.602 92.7714C117.607 92.7984 117.605 92.8259 117.599 92.8523C117.587 92.8968 117.56 92.9361 117.523 92.9639C117.487 92.9917 117.442 93.0064 117.395 93.0058Z" fill="#231F20"/>
<path d="M74.7716 53.6386L75.7472 56.6918C75.7472 56.6918 75.7969 58.214 73.6018 58.3901C71.4067 58.5663 70.6479 57.2655 70.6479 57.2655L69.0399 51.5067C69.0399 51.5067 71.6686 48.7696 70.151 45.635C70.7975 46.2614 71.6211 46.6736 72.5099 46.8159C73.3987 46.9581 74.3098 46.8233 75.1194 46.43C75.6363 47.9233 76.0617 49.4467 76.3931 50.9918C76.6686 52.6494 74.7716 53.6386 74.7716 53.6386Z" fill="white"/>
<path d="M73.1953 58.6295C71.208 58.6295 70.4853 57.4326 70.4537 57.3784C70.4519 57.3603 70.4519 57.3422 70.4537 57.3242L68.8412 51.5699C68.8316 51.5321 68.8314 51.4925 68.8409 51.4547C68.8504 51.4168 68.8691 51.3819 68.8954 51.3531C68.9225 51.326 71.3977 48.6838 69.9704 45.7389C69.9483 45.6907 69.9439 45.6362 69.9579 45.585C69.972 45.5338 70.0036 45.4892 70.0473 45.459C70.0909 45.4288 70.1438 45.415 70.1967 45.4199C70.2495 45.4249 70.2989 45.4482 70.3363 45.486C70.9489 46.0821 71.7312 46.4739 72.5756 46.6073C73.42 46.7408 74.285 46.6094 75.0517 46.2312C75.0799 46.2179 75.1108 46.211 75.142 46.211C75.1732 46.211 75.2041 46.2179 75.2323 46.2312C75.2628 46.2418 75.2903 46.2597 75.3123 46.2833C75.3344 46.3069 75.3503 46.3356 75.3588 46.3667C75.8842 47.8704 76.3126 49.4062 76.6415 50.9647C76.8899 52.4733 75.5485 53.4489 75.0652 53.747L75.9685 56.6286C75.9707 56.6481 75.9707 56.6678 75.9685 56.6873C75.9685 56.6873 75.9956 58.4262 73.6154 58.6159C73.4708 58.625 73.3308 58.6295 73.1953 58.6295ZM70.8557 57.1706C70.9641 57.3332 71.7003 58.3133 73.5657 58.1643C75.4311 58.0152 75.4988 56.9222 75.5033 56.728L74.5413 53.7108C74.5244 53.6601 74.526 53.6051 74.5458 53.5555C74.5657 53.5058 74.6025 53.4649 74.6497 53.4398C74.6497 53.4398 76.3976 52.5049 76.1537 51.0324C75.8488 49.579 75.4536 48.1459 74.9704 46.7416C74.2718 47.0427 73.5085 47.1625 72.7513 47.0898C71.9941 47.0172 71.2675 46.7545 70.6389 46.3261C71.3841 48.8915 69.6859 51.0821 69.2839 51.5654L70.8557 57.1706Z" fill="#231F20"/>
<path d="M69.9478 51.0279C69.7835 50.7738 69.5432 50.5778 69.2613 50.4679C68.9934 50.3795 68.7122 50.3382 68.4302 50.3459C68.2767 50.3303 68.1218 50.352 67.9785 50.4092C67.8812 50.4569 67.795 50.5246 67.7256 50.6079C67.5391 50.7848 67.4249 51.0246 67.4049 51.2809C67.4092 51.4885 67.465 51.6919 67.5675 51.8726C67.6615 52.0764 67.7831 52.2664 67.9288 52.4371C68.0769 52.6057 68.2569 52.7432 68.4585 52.8417C68.6601 52.9401 68.8793 52.9975 69.1033 53.0105C69.3272 53.0235 69.5516 52.9919 69.7632 52.9175C69.9749 52.8431 70.1697 52.7274 70.3362 52.5772" fill="white"/>
<path d="M69.1981 53.2411H69.0897C68.8317 53.2292 68.5788 53.1654 68.346 53.0537C68.1132 52.942 67.9053 52.7845 67.7347 52.5907C67.5766 52.4046 67.4444 52.198 67.3417 51.9764C67.2251 51.7628 67.1616 51.5242 67.1565 51.2809C67.1789 50.9699 67.3137 50.6776 67.5359 50.4588C67.6272 50.3545 67.7376 50.2687 67.8611 50.2059C68.0378 50.1371 68.2277 50.1093 68.4167 50.1246C68.7234 50.1164 69.0292 50.1623 69.32 50.2601C69.6485 50.3874 69.9272 50.617 70.1149 50.915C70.1313 50.94 70.1425 50.9681 70.1477 50.9975C70.1529 51.027 70.1522 51.0572 70.1454 51.0863C70.1387 51.1154 70.1261 51.1429 70.1084 51.167C70.0908 51.1911 70.0684 51.2114 70.0427 51.2267C69.9915 51.2573 69.9304 51.267 69.8723 51.2535C69.8141 51.24 69.7635 51.2045 69.731 51.1544C69.5943 50.9471 69.3949 50.7888 69.1619 50.7027C68.9167 50.6251 68.6603 50.5885 68.4031 50.5944C68.2841 50.581 68.1637 50.5949 68.0508 50.635C67.9808 50.6734 67.9181 50.7238 67.8656 50.784C67.7215 50.9253 67.6306 51.112 67.6082 51.3125C67.6146 51.4826 67.6626 51.6486 67.7482 51.7958C67.8329 51.9813 67.9423 52.1545 68.0734 52.3107C68.3357 52.6033 68.7021 52.7816 69.0942 52.8075C69.2878 52.8185 69.4817 52.7911 69.6647 52.7267C69.8476 52.6624 70.016 52.5624 70.1601 52.4326C70.1811 52.4115 70.2061 52.3947 70.2336 52.3832C70.2611 52.3717 70.2906 52.3658 70.3204 52.3658C70.3503 52.3658 70.3798 52.3717 70.4073 52.3832C70.4348 52.3947 70.4598 52.4115 70.4808 52.4326C70.5018 52.4532 70.5185 52.4778 70.5299 52.505C70.5413 52.5321 70.5472 52.5613 70.5472 52.5907C70.5472 52.6202 70.5413 52.6493 70.5299 52.6765C70.5185 52.7036 70.5018 52.7282 70.4808 52.7488C70.1284 53.0652 69.6716 53.2405 69.1981 53.2411Z" fill="#231F20"/>
<path d="M73.0417 48.7606C73.0417 48.7606 74.6722 49.9439 74.5232 50.3098C74.3741 50.6756 73.6199 50.7614 73.6199 50.7614" fill="white"/>
<path d="M73.6063 50.9783C73.5464 50.9812 73.4878 50.9603 73.4433 50.9201C73.3988 50.8799 73.3722 50.8236 73.3692 50.7637C73.3662 50.7038 73.3871 50.6452 73.4273 50.6007C73.4676 50.5562 73.5238 50.5296 73.5837 50.5266C73.8502 50.4995 74.2522 50.3775 74.3154 50.224C73.9178 49.7249 73.4437 49.292 72.9107 48.9412C72.8634 48.9061 72.8317 48.8538 72.8224 48.7955C72.8131 48.7373 72.827 48.6777 72.8611 48.6296C72.8781 48.605 72.9 48.5841 72.9253 48.5683C72.9507 48.5524 72.979 48.5418 73.0085 48.5371C73.0381 48.5325 73.0683 48.5339 73.0972 48.5412C73.1262 48.5486 73.1535 48.5617 73.1772 48.5799C74.3516 49.4335 74.8755 50.0433 74.7355 50.3866C74.5413 50.8382 73.7825 50.9512 73.6334 50.9647L73.6063 50.9783Z" fill="#231F20"/>
<path d="M72.0521 48.7815C72.1804 48.6998 72.1912 48.4869 72.076 48.3059C71.9608 48.1249 71.7634 48.0444 71.635 48.1261C71.5066 48.2078 71.4959 48.4207 71.6111 48.6017C71.7263 48.7827 71.9237 48.8632 72.0521 48.7815Z" fill="#231F20"/>
<path d="M73.7894 48.1456C73.9178 48.0639 73.9285 47.8509 73.8133 47.6699C73.6982 47.489 73.5007 47.4085 73.3724 47.4901C73.244 47.5718 73.2333 47.7848 73.3485 47.9658C73.4636 48.1468 73.6611 48.2273 73.7894 48.1456Z" fill="#231F20"/>
<path d="M75.0155 51.0866C75.0155 51.0866 72.8295 53.4037 71.6867 51.0866H75.0155Z" fill="white"/>
<path d="M73.0553 52.3513C72.9786 52.3581 72.9016 52.3581 72.8249 52.3513C72.5204 52.2938 72.2358 52.1588 71.9985 51.9595C71.7612 51.7602 71.5792 51.5031 71.4699 51.2131C71.4447 51.1591 71.4414 51.0973 71.4608 51.0408C71.4801 50.9844 71.5207 50.9377 71.5738 50.9105C71.6005 50.8974 71.6295 50.8897 71.6592 50.8878C71.6888 50.886 71.7186 50.89 71.7467 50.8996C71.7748 50.9093 71.8007 50.9244 71.823 50.9441C71.8453 50.9638 71.8634 50.9877 71.8764 51.0144C71.9546 51.2368 72.0874 51.4361 72.2626 51.5939C72.4378 51.7517 72.6498 51.8631 72.8791 51.9177C73.7825 52.0577 74.8303 50.9828 74.8394 50.9738C74.8604 50.9526 74.8853 50.9358 74.9128 50.9243C74.9404 50.9129 74.9699 50.907 74.9997 50.907C75.0295 50.907 75.059 50.9129 75.0865 50.9243C75.1141 50.9358 75.139 50.9526 75.16 50.9738C75.2017 51.0167 75.225 51.0742 75.225 51.1341C75.225 51.194 75.2017 51.2515 75.16 51.2944C75.1375 51.299 74.1302 52.3513 73.0553 52.3513Z" fill="#231F20"/>
<path d="M74.7716 53.6386C74.7716 53.6386 73.1772 54.0902 72.31 53.896C72.31 53.896 73.4618 55.5356 75.3272 55.4859L74.7716 53.6386Z" fill="#231F20"/>
<path d="M75.2459 55.7117C73.3308 55.7117 72.1745 54.0947 72.1248 54.0225C72.0988 53.9848 72.0848 53.9401 72.0848 53.8943C72.0847 53.8485 72.0986 53.8038 72.1246 53.766C72.1506 53.7283 72.1874 53.6994 72.2302 53.683C72.273 53.6667 72.3197 53.6638 72.3642 53.6747C73.1637 53.8734 74.6948 53.4308 74.7084 53.4263C74.7653 53.4093 74.8266 53.4155 74.879 53.4434C74.9314 53.4712 74.9707 53.5187 74.9884 53.5753L75.544 55.4181C75.5548 55.4514 75.5575 55.4867 75.552 55.5213C75.5465 55.5558 75.5329 55.5886 75.5123 55.6169C75.492 55.6449 75.4656 55.668 75.4351 55.6844C75.4046 55.7008 75.3708 55.7102 75.3362 55.7117H75.2459ZM72.852 54.176C73.4308 54.7738 74.1982 55.1535 75.0245 55.251L74.6226 53.896C74.0461 54.052 73.4534 54.1399 72.8565 54.158L72.852 54.176Z" fill="#231F20"/>
<path d="M88.7733 71.3846C88.7733 71.3846 88.7733 80.2011 87.748 83.9228C84.8302 94.4737 63.5251 111.33 63.5251 111.33L58.8052 106.642L71.7816 87.9517L56.0952 106.321L50.883 101.583L71.2983 76.6013L88.7733 71.3846Z" fill="#231F20"/>
<path d="M63.5251 111.556C63.4664 111.555 63.41 111.533 63.367 111.493L58.6471 106.822C58.6093 106.785 58.5859 106.736 58.581 106.683C58.576 106.63 58.5898 106.577 58.62 106.533L69.0309 91.5334L56.2668 106.484C56.2477 106.508 56.2238 106.527 56.1965 106.541C56.1693 106.555 56.1393 106.563 56.1087 106.565C56.079 106.567 56.0492 106.563 56.0212 106.553C55.9932 106.543 55.9676 106.527 55.9461 106.506L50.7339 101.768C50.6939 101.726 50.6715 101.67 50.6715 101.612C50.6715 101.554 50.6939 101.499 50.7339 101.457L71.1267 76.4748C71.1547 76.4404 71.1925 76.4152 71.2351 76.4026L88.71 71.1678C88.7438 71.1589 88.7791 71.1576 88.8134 71.1638C88.8477 71.1701 88.8803 71.1837 88.9088 71.2039C88.9363 71.2254 88.9587 71.2528 88.9744 71.284C88.99 71.3153 88.9984 71.3496 88.9991 71.3846C88.9991 71.7459 88.9991 80.2734 87.9648 83.9861C86.7453 88.3988 82.2828 94.3744 74.6993 101.746C69.0671 107.224 63.7193 111.465 63.6651 111.506C63.6252 111.538 63.576 111.555 63.5251 111.556ZM59.0988 106.642L63.5387 111.036C65.4808 109.474 84.7986 93.7556 87.5312 83.8686C88.4345 80.6031 88.5339 73.2725 88.5474 71.6736L71.4293 76.8317L51.1946 101.597L56.0771 106.036L71.6099 87.8433C71.6469 87.799 71.6997 87.771 71.7571 87.7651C71.8145 87.7592 71.8719 87.7759 71.9171 87.8117C71.9631 87.8459 71.9937 87.8969 72.0022 87.9536C72.0106 88.0104 71.9963 88.0681 71.9622 88.1143L59.0988 106.642Z" fill="#231F20"/>
<path d="M58.8052 106.642L55.4177 110.404C55.4177 110.404 49.8667 108.539 50.1106 109.591C50.3545 110.643 57.5812 116.515 57.947 116.637C58.3129 116.759 63.5251 111.312 63.5251 111.312" fill="white"/>
<path d="M57.9425 116.881H57.8793C57.4276 116.732 50.1603 110.815 49.8938 109.654C49.8727 109.579 49.8729 109.5 49.8945 109.425C49.916 109.35 49.958 109.282 50.0158 109.23C50.6345 108.67 54.0808 109.74 55.3499 110.133L58.6381 106.484C58.6792 106.443 58.7341 106.42 58.7917 106.419C58.8493 106.418 58.9051 106.439 58.9478 106.477C58.9905 106.516 59.0168 106.57 59.0213 106.627C59.0259 106.684 59.0084 106.741 58.9723 106.786L55.5848 110.544C55.5554 110.577 55.5171 110.6 55.4746 110.611C55.432 110.623 55.3871 110.621 55.3454 110.607C52.8884 109.781 50.5849 109.297 50.3184 109.541C50.5442 110.445 57.1566 115.865 57.9741 116.389C58.5026 116.091 61.0997 113.511 63.3625 111.149C63.3831 111.128 63.4077 111.112 63.4349 111.1C63.462 111.089 63.4911 111.083 63.5206 111.083C63.55 111.083 63.5792 111.089 63.6063 111.1C63.6335 111.112 63.6581 111.128 63.6787 111.149C63.6998 111.17 63.7166 111.195 63.7281 111.223C63.7396 111.25 63.7455 111.28 63.7455 111.31C63.7455 111.339 63.7396 111.369 63.7281 111.396C63.7166 111.424 63.6998 111.449 63.6787 111.47C58.9542 116.438 58.1729 116.881 57.9425 116.881Z" fill="#231F20"/>
<path d="M64.0716 108.408C64.0422 108.408 64.0132 108.402 63.9866 108.389C63.9599 108.377 63.9365 108.358 63.9181 108.335C63.9006 108.316 63.8873 108.293 63.8789 108.268C63.8706 108.243 63.8674 108.217 63.8695 108.191C63.8716 108.164 63.879 108.139 63.8912 108.116C63.9034 108.092 63.9203 108.072 63.9407 108.055C64.1168 107.906 81.4924 93.0736 84.9477 84.7042C88.3713 76.4161 86.5692 73.1099 86.5511 73.0783C86.5247 73.0322 86.5178 72.9775 86.5318 72.9262C86.5457 72.875 86.5795 72.8314 86.6256 72.805C86.6717 72.7787 86.7264 72.7717 86.7777 72.7857C86.8289 72.7997 86.8725 72.8334 86.8989 72.8796C86.9757 73.0151 88.832 76.3529 85.318 84.8578C81.8041 93.3627 64.3743 108.209 64.1981 108.344C64.1654 108.381 64.1202 108.403 64.0716 108.408Z" fill="white"/>
<path d="M73.0417 80.847C72.9915 80.8459 72.9434 80.8266 72.9062 80.7928C72.8874 80.7747 72.8724 80.7529 72.8621 80.7289C72.8519 80.7048 72.8466 80.6789 72.8466 80.6528C72.8466 80.6266 72.8519 80.6007 72.8621 80.5767C72.8724 80.5526 72.8874 80.5309 72.9062 80.5127L77.2784 75.7431C77.3061 75.7138 77.342 75.6934 77.3815 75.6846C77.4209 75.6757 77.462 75.6788 77.4997 75.6935C77.537 75.708 77.569 75.7335 77.5915 75.7665C77.6141 75.7996 77.6262 75.8386 77.6262 75.8786V79.4287C77.6262 79.4815 77.6052 79.532 77.5679 79.5693C77.5307 79.6065 77.4801 79.6275 77.4274 79.6275C77.3747 79.6275 77.3242 79.6065 77.2869 79.5693C77.2496 79.532 77.2287 79.4815 77.2287 79.4287V76.38L73.1998 80.7702C73.1805 80.7935 73.1564 80.8125 73.1291 80.8257C73.1018 80.839 73.072 80.8462 73.0417 80.847Z" fill="white"/>
<path d="M68.7193 83.2001L74.5322 76.6194H60.115L52.378 84.2887L68.7193 83.2001Z" fill="white"/>
<path d="M52.378 84.51C52.338 84.5101 52.2988 84.4986 52.2651 84.477C52.2315 84.4553 52.2048 84.4245 52.1883 84.388C52.1711 84.35 52.1658 84.3077 52.1731 84.2666C52.1803 84.2255 52.1998 84.1875 52.2289 84.1577L59.9705 76.4793C60.0097 76.4425 60.0612 76.4216 60.115 76.4206H74.5322C74.5723 76.4199 74.6118 76.4312 74.6455 76.4529C74.6793 76.4746 74.7059 76.5058 74.7219 76.5426C74.7368 76.5789 74.7417 76.6186 74.7361 76.6575C74.7306 76.6964 74.7147 76.7331 74.6903 76.7639L68.8683 83.3402C68.8322 83.38 68.782 83.4043 68.7283 83.4079L52.3915 84.51H52.378ZM60.2008 76.8316L52.9155 84.0583L68.6199 83.015L74.076 76.8316H60.2008Z" fill="#231F20"/>
<path d="M79.487 55.0884C79.487 55.0884 83.0371 69.3385 82.0525 69.7902C81.0678 70.2419 68.7644 74.1714 68.0824 74.4695C67.4004 74.7676 65.7428 75.969 65.4402 76.6194C65.1376 77.2698 64.862 79.8488 65.4402 79.6817C66.2856 79.4841 67.1182 79.2352 67.9334 78.9364C68.385 78.7016 69.04 77.3421 69.04 77.3421C69.04 77.3421 68.9587 78.6564 69.5774 78.3764C70.1962 78.0963 71.2983 76.6194 71.2983 76.6194C71.2983 76.6194 86.813 76.0909 88.3216 72.979C89.8302 69.867 89.0036 63.1462 86.5149 58.0107C84.0263 52.8753 79.7083 51.9448 79.487 55.0884Z" fill="white"/>
<path d="M65.3905 79.8985C65.3356 79.8977 65.2817 79.8847 65.2325 79.8605C65.1833 79.8363 65.14 79.8014 65.1059 79.7585C64.6859 79.2661 64.9975 77.0801 65.255 76.529C65.5847 75.8199 67.2739 74.6049 68.0011 74.2707C68.3082 74.1352 70.7879 73.3222 73.665 72.3782C77.2783 71.1903 81.4246 69.8399 81.9667 69.5869C82.4183 69.0494 80.9504 61.8092 79.2837 55.1336C79.2815 55.1111 79.2815 55.0884 79.2837 55.0658C79.3605 53.9864 79.9116 53.2592 80.7968 53.1011C82.4228 52.7894 84.9657 54.3387 86.7001 57.9113C89.2249 63.1145 90.0379 69.9121 88.5068 73.0602C86.9756 76.2084 72.8565 76.7549 71.4067 76.8091C71.1492 77.1478 70.2504 78.2905 69.6632 78.557C69.5853 78.5986 69.4977 78.6184 69.4095 78.6144C69.3213 78.6104 69.2358 78.5828 69.1619 78.5344C69.0158 78.4129 68.918 78.2431 68.8864 78.0557C68.685 78.469 68.3914 78.8306 68.0282 79.1126C67.4017 79.3608 66.7569 79.5602 66.0996 79.7088C65.8602 79.772 65.6479 79.8262 65.4989 79.8714C65.464 79.8849 65.4276 79.894 65.3905 79.8985ZM79.6948 55.0568C79.7851 55.4227 80.6207 58.8102 81.3388 62.2112C82.9016 69.605 82.4093 69.8353 82.1428 69.9573C81.5782 70.2193 77.4409 71.5743 73.7915 72.7667C71.0453 73.67 68.4528 74.5146 68.1682 74.6411C67.4681 74.9527 65.9099 76.1271 65.6254 76.6871C65.3408 77.2472 65.1737 79.2661 65.4221 79.4784C65.6078 79.4031 65.7997 79.3442 65.9957 79.3023C66.6223 79.157 67.2381 78.9684 67.8385 78.7377C68.1231 78.5886 68.6109 77.735 68.8503 77.2336C68.8716 77.1916 68.9066 77.1581 68.9495 77.1386C68.9924 77.1191 69.0407 77.1147 69.0864 77.1263C69.1321 77.1378 69.1726 77.1646 69.201 77.2022C69.2295 77.2397 69.2444 77.2859 69.2432 77.333C69.2034 77.6266 69.2571 77.9253 69.3968 78.1867C69.4193 78.1867 69.46 78.1867 69.4961 78.1867C69.9478 77.9744 70.8511 76.8904 71.1357 76.4884C71.1539 76.4635 71.1777 76.4432 71.2051 76.4291C71.2326 76.415 71.2629 76.4074 71.2938 76.4071C71.3299 76.4071 75.2097 76.2716 79.2205 75.7567C85.851 74.9076 87.7299 73.7242 88.1364 72.8841C89.6134 69.8353 88.8004 63.2004 86.3298 58.092C84.7038 54.7497 82.3054 53.2366 80.8781 53.5121C80.1826 53.6476 79.767 54.1986 79.7083 55.0749L79.6948 55.0568Z" fill="#231F20"/>
<path d="M68.7193 83.2002C68.1682 82.4097 60.9867 70.5535 60.9867 70.5535L44.0673 72.2156L52.378 84.2977L68.7193 83.2002Z" fill="white"/>
<path d="M52.378 84.51C52.3442 84.5097 52.3111 84.5013 52.2812 84.4856C52.2514 84.4699 52.2257 84.4473 52.2063 84.4197L43.9002 72.315C43.8828 72.284 43.8736 72.249 43.8736 72.2134C43.8736 72.1778 43.8828 72.1428 43.9002 72.1117C43.9153 72.0789 43.9386 72.0504 43.9679 72.029C43.9971 72.0077 44.0314 71.9942 44.0673 71.9898L60.9822 70.3322C61.021 70.3272 61.0603 70.3335 61.0956 70.3504C61.1308 70.3672 61.1604 70.3938 61.181 70.427C61.2532 70.549 68.367 82.2968 68.9045 83.0737C68.9231 83.1051 68.933 83.141 68.933 83.1776C68.933 83.2141 68.9231 83.25 68.9045 83.2815C68.8887 83.3144 68.8645 83.3426 68.8344 83.3632C68.8043 83.3838 68.7692 83.3961 68.7328 83.3989L52.3915 84.51H52.378ZM44.4377 72.3782L52.4773 84.0764L68.3534 83.0195C67.152 81.1225 61.5784 71.9537 60.8738 70.7613L44.4377 72.3782Z" fill="#231F20"/>
<path d="M58.2587 78.0828C58.0025 77.5344 57.6127 77.0591 57.125 76.7007C56.8236 76.4543 56.4589 76.2978 56.0726 76.249C55.88 76.2305 55.6858 76.2623 55.5092 76.3415C55.3326 76.4207 55.1797 76.5445 55.0654 76.7007C54.9124 76.9655 54.8535 77.2743 54.8983 77.5769C54.9284 77.9343 55.0356 78.2809 55.2126 78.5928C55.3896 78.9047 55.6322 79.1745 55.9236 79.3836C56.9579 80.0791 59.0175 79.6952 58.2587 78.0828Z" fill="white"/>
<path d="M57.0889 79.9165C56.6356 79.9218 56.1909 79.7929 55.8106 79.5462C55.4938 79.3239 55.2296 79.0347 55.0369 78.6991C54.8441 78.3635 54.7274 77.9897 54.695 77.604C54.6419 77.2554 54.7122 76.8991 54.8938 76.5968C55.029 76.4105 55.2107 76.2629 55.4206 76.1686C55.6306 76.0743 55.8616 76.0366 56.0907 76.0593C56.5146 76.1046 56.9171 76.2691 57.2515 76.5335C57.7635 76.9136 58.1733 77.4149 58.4439 77.9924C58.8504 78.8596 58.4981 79.3474 58.2496 79.5507C57.9167 79.8032 57.5065 79.9325 57.0889 79.9165ZM55.9823 76.4658C55.8386 76.4617 55.6961 76.4919 55.5665 76.554C55.4368 76.6161 55.3239 76.7081 55.237 76.8226C55.1101 77.0474 55.0624 77.3082 55.1015 77.5633C55.1298 77.889 55.2284 78.2047 55.3906 78.4886C55.5528 78.7724 55.7747 79.0177 56.041 79.2074C56.3281 79.3971 56.6634 79.5008 57.0075 79.5064C57.3515 79.512 57.69 79.4193 57.9832 79.239C58.2632 78.9996 58.2903 78.6383 58.0735 78.1686C57.8301 77.6529 57.4622 77.2059 57.003 76.8678C56.7333 76.647 56.4055 76.509 56.0591 76.4703L55.9823 76.4658Z" fill="#231F20"/>
<path d="M56.1133 77.4188C56.3082 77.6909 56.4891 77.9728 56.6552 78.2634L57.0166 77.4188" fill="white"/>
<path d="M56.6733 78.4712C56.6374 78.471 56.6022 78.4613 56.5712 78.443C56.5403 78.4248 56.5147 78.3987 56.4972 78.3673C56.303 78.0421 56.0455 77.6582 56.0003 77.5769C55.9773 77.5566 55.9588 77.5316 55.9464 77.5036C55.9339 77.4755 55.9276 77.445 55.9281 77.4143C55.9281 77.3604 55.9495 77.3087 55.9876 77.2706C56.0257 77.2325 56.0774 77.2111 56.1313 77.2111C56.2488 77.2111 56.2804 77.2111 56.6417 77.8118L56.845 77.3601C56.866 77.3092 56.9063 77.2688 56.9571 77.2476C57.0079 77.2264 57.065 77.2263 57.116 77.2472C57.166 77.269 57.2055 77.3097 57.2258 77.3605C57.2461 77.4112 57.2455 77.4678 57.2244 77.5182L56.863 78.3673C56.8474 78.402 56.8228 78.432 56.7919 78.4542C56.761 78.4764 56.7248 78.49 56.6869 78.4938L56.6733 78.4712Z" fill="#231F20"/>
</svg>
