<svg width="187" height="140" viewBox="0 0 187 140" fill="none" xmlns="http://www.w3.org/2000/svg">
<path d="M62.098 111.239C62.098 111.239 63.8792 96.7353 64.903 93.5667C65.9268 90.398 65.637 60.0413 65.6697 59.7333C65.7024 59.4253 49.223 67.6247 47.7831 70.0653C46.3432 72.506 50.0926 88.424 49.0407 90.7247C47.9888 93.0253 44.5621 103.105 44.5621 103.105L62.098 111.239Z" fill="white"/>
<path d="M62.098 111.473C62.064 111.472 62.0306 111.464 61.9998 111.449L44.4592 103.315C44.4061 103.293 44.3635 103.251 44.3401 103.198C44.3167 103.145 44.3142 103.085 44.333 103.031C44.4733 102.615 47.7832 92.9087 48.8257 90.6267C49.2932 89.614 48.7135 85.4233 48.1525 81.3727C47.4746 76.4307 46.75 71.3207 47.5775 69.9487C48.4049 68.5767 53.1454 65.8373 57.0163 63.742C58.2879 63.056 65.2864 59.3693 65.7352 59.5047C65.7868 59.5222 65.831 59.5567 65.8607 59.6024C65.8904 59.6481 65.9038 59.7024 65.8988 59.7567C65.8988 59.8267 65.8988 60.648 65.8988 61.7773C65.9222 68.9873 65.9923 90.9207 65.1134 93.6413C64.1129 96.7493 62.3458 111.123 62.3084 111.267C62.2988 111.323 62.2704 111.374 62.2278 111.411C62.1853 111.449 62.1312 111.47 62.0746 111.473H62.098ZM44.8473 102.979L61.9063 110.913C62.1775 108.719 63.7296 96.446 64.6739 93.52C65.2396 91.7653 65.4967 81.0927 65.436 61.7867C65.436 60.8533 65.436 60.3307 65.436 60.046C63.2668 60.9047 49.2651 68.012 47.9842 70.1913C47.2596 71.4233 47.9842 76.678 48.6247 81.312C49.2418 85.806 49.7747 89.712 49.2558 90.8273C48.2974 92.904 45.3475 101.556 44.8473 102.979Z" fill="#231F20"/>
<path d="M61.8362 123.975L64.6552 105.215L45.483 95.7413L35.7964 123.027L61.8362 123.975Z" fill="#388CE0"/>
<path d="M61.8362 124.208L35.8011 123.275C35.7644 123.274 35.7282 123.266 35.6956 123.248C35.6631 123.231 35.6351 123.207 35.6141 123.177C35.5938 123.146 35.5808 123.111 35.5759 123.075C35.5711 123.039 35.5745 123.001 35.5861 122.967L45.2633 95.6667C45.2755 95.6361 45.2938 95.6083 45.3171 95.585C45.3404 95.5617 45.3682 95.5434 45.3988 95.5312C45.4295 95.519 45.4622 95.5131 45.4952 95.5139C45.5282 95.5148 45.5606 95.5223 45.5906 95.536L64.7581 105.009C64.8034 105.03 64.8406 105.065 64.8643 105.109C64.8879 105.153 64.8966 105.203 64.889 105.252L62.084 124.012C62.0738 124.069 62.043 124.121 61.9973 124.157C61.9517 124.193 61.8944 124.211 61.8362 124.208ZM36.1237 122.808L61.6352 123.741L64.3981 105.355L45.6186 96.068L36.1237 122.808Z" fill="#231F20"/>
<path d="M123.64 23.478H65.0339C63.3814 23.478 62.0419 24.8152 62.0419 26.4647V103.917C62.0419 105.567 63.3814 106.904 65.0339 106.904H123.64C125.292 106.904 126.632 105.567 126.632 103.917V26.4647C126.632 24.8152 125.292 23.478 123.64 23.478Z" fill="white"/>
<path d="M123.64 107.142H65.0292C64.1749 107.14 63.3563 106.799 62.7527 106.196C62.149 105.592 61.8094 104.775 61.8082 103.922V26.4553C61.8094 25.6025 62.149 24.7849 62.7527 24.1814C63.3563 23.578 64.1749 23.2378 65.0292 23.2353H123.64C124.495 23.2366 125.315 23.5762 125.919 24.1798C126.524 24.7834 126.864 25.6017 126.865 26.4553V103.922C126.864 104.776 126.524 105.594 125.919 106.198C125.315 106.801 124.495 107.141 123.64 107.142ZM65.0292 23.7113C64.2985 23.7126 63.5981 24.0032 63.0819 24.5194C62.5656 25.0356 62.2757 25.7352 62.2757 26.4647V103.931C62.2757 104.661 62.5656 105.36 63.0819 105.877C63.5981 106.393 64.2985 106.683 65.0292 106.685H123.64C124.371 106.683 125.072 106.393 125.589 105.877C126.106 105.361 126.397 104.661 126.398 103.931V26.4647C126.397 25.7348 126.106 25.0352 125.589 24.5191C125.072 24.003 124.371 23.7126 123.64 23.7113H65.0292Z" fill="#231F20"/>
<path d="M122.672 28.5927H65.9969V101.799H122.672V28.5927Z" fill="white"/>
<path d="M122.672 102.032H65.9969C65.9349 102.032 65.8755 102.007 65.8317 101.964C65.7878 101.92 65.7632 101.861 65.7632 101.799V28.5926C65.7632 28.5308 65.7878 28.4714 65.8317 28.4277C65.8755 28.3839 65.9349 28.3593 65.9969 28.3593H122.672C122.734 28.3593 122.793 28.3839 122.837 28.4277C122.881 28.4714 122.906 28.5308 122.906 28.5926V101.799C122.906 101.861 122.881 101.92 122.837 101.964C122.793 102.007 122.734 102.032 122.672 102.032ZM66.2307 101.565H122.438V28.826H66.2307V101.565Z" fill="#231F20"/>
<path d="M109.147 20.5333H100.98C100.68 18.9897 99.8518 17.5983 98.6367 16.5978C97.4216 15.5974 95.8956 15.0502 94.3204 15.0502C92.7453 15.0502 91.2193 15.5974 90.0041 16.5978C88.789 17.5983 87.9606 18.9897 87.6609 20.5333H79.5264C79.0077 20.5333 78.5102 20.7387 78.1429 21.1044C77.7757 21.4701 77.5688 21.9662 77.5676 22.484V29.2833C77.5688 29.8011 77.7757 30.2973 78.1429 30.6629C78.5102 31.0286 79.0077 31.234 79.5264 31.234H109.147C109.665 31.234 110.163 31.0285 110.529 30.6627C110.895 30.2968 111.101 29.8007 111.101 29.2833V22.4793C111.1 21.9628 110.894 21.4678 110.527 21.103C110.161 20.7382 109.665 20.5333 109.147 20.5333ZM94.3368 21.42C93.9926 21.4209 93.6559 21.3199 93.3693 21.1297C93.0827 20.9395 92.8591 20.6687 92.7267 20.3516C92.5944 20.0344 92.5593 19.6852 92.6259 19.3482C92.6924 19.0111 92.8577 18.7014 93.1007 18.4581C93.3438 18.2149 93.6536 18.0491 93.9911 17.9817C94.3286 17.9143 94.6785 17.9484 94.9966 18.0797C95.3146 18.211 95.5865 18.4335 95.7778 18.719C95.9691 19.0046 96.0712 19.3404 96.0712 19.684C96.07 20.1432 95.887 20.5834 95.5621 20.9085C95.2373 21.2337 94.7968 21.4175 94.3368 21.42Z" fill="#FF3967"/>
<path d="M87.8339 52.0147H74.1455C74.0884 52.0147 74.0337 51.9921 73.9934 51.9518C73.9531 51.9115 73.9304 51.8569 73.9304 51.8V37.198C73.9304 37.1411 73.9531 37.0865 73.9934 37.0462C74.0337 37.006 74.0884 36.9833 74.1455 36.9833H87.8339C87.8905 36.9845 87.9445 37.0075 87.9846 37.0475C88.0247 37.0875 88.0477 37.1414 88.0489 37.198V51.8C88.0477 51.8566 88.0247 51.9105 87.9846 51.9505C87.9445 51.9905 87.8905 52.0135 87.8339 52.0147ZM74.3605 51.5807H87.6188V37.4127H74.3605V51.5807Z" fill="#D1D3D4"/>
<path d="M91.041 40.768C90.9691 40.889 90.8862 41.003 90.7932 41.1087L81.9481 49.9333C81.9033 50.0037 81.8415 50.0616 81.7684 50.1018C81.6953 50.1419 81.6131 50.163 81.5297 50.163C81.4462 50.163 81.3641 50.1419 81.2909 50.1018C81.2178 50.0616 81.156 50.0037 81.1112 49.9333L76.1371 44.8C76.0697 44.756 76.0149 44.6955 75.9779 44.6242C75.9409 44.5529 75.9229 44.4733 75.9258 44.3931C75.9286 44.3129 75.9521 44.2347 75.994 44.1662C76.036 44.0977 76.0949 44.0411 76.1651 44.002L77.4133 42.882C77.4568 42.8231 77.5135 42.7753 77.5788 42.7423C77.6442 42.7094 77.7164 42.6922 77.7897 42.6922C77.8629 42.6922 77.9351 42.7094 78.0005 42.7423C78.0659 42.7753 78.1225 42.8231 78.166 42.882C79.1415 43.8807 80.1217 44.8778 81.1066 45.8733C81.1519 45.9437 81.2141 46.0015 81.2876 46.0416C81.3612 46.0816 81.4436 46.1026 81.5273 46.1026C81.6111 46.1026 81.6935 46.0816 81.767 46.0416C81.8405 46.0015 81.9028 45.9437 81.9481 45.8733L88.825 39.0647C88.8703 38.9973 88.9316 38.9421 89.0033 38.9039C89.075 38.8657 89.1551 38.8458 89.2364 38.8458C89.3177 38.8458 89.3978 38.8657 89.4695 38.9039C89.5412 38.9421 89.6025 38.9973 89.6478 39.0647C90.0358 39.4567 90.4239 39.844 90.8072 40.236C90.8934 40.3399 90.973 40.449 91.0456 40.5627L91.041 40.768Z" fill="#388CE0"/>
<path d="M115.557 42.42H95.8983C95.8461 42.4123 95.7984 42.3862 95.7639 42.3464C95.7295 42.3065 95.7105 42.2556 95.7105 42.203C95.7105 42.1503 95.7295 42.0995 95.7639 42.0596C95.7984 42.0198 95.8461 41.9937 95.8983 41.986H115.557C115.609 41.9937 115.656 42.0198 115.691 42.0596C115.725 42.0995 115.744 42.1503 115.744 42.203C115.744 42.2556 115.725 42.3065 115.691 42.3464C115.656 42.3862 115.609 42.4123 115.557 42.42Z" fill="#D1D3D4"/>
<path d="M110.33 47.0073H95.8983C95.8412 47.0073 95.7865 46.9847 95.7462 46.9445C95.7059 46.9042 95.6832 46.8496 95.6832 46.7927C95.6832 46.7357 95.7059 46.6811 95.7462 46.6409C95.7865 46.6006 95.8412 46.578 95.8983 46.578H110.33C110.387 46.578 110.442 46.6006 110.482 46.6409C110.522 46.6811 110.545 46.7357 110.545 46.7927C110.545 46.8496 110.522 46.9042 110.482 46.9445C110.442 46.9847 110.387 47.0073 110.33 47.0073Z" fill="#D1D3D4"/>
<path d="M87.8339 71.9506H74.1455C74.117 71.9513 74.0888 71.9462 74.0624 71.9356C74.036 71.925 74.0121 71.9093 73.992 71.8892C73.9719 71.8691 73.9561 71.8452 73.9455 71.8189C73.9349 71.7925 73.9298 71.7643 73.9304 71.736V57.1386C73.9304 57.0817 73.9531 57.0271 73.9934 56.9869C74.0337 56.9466 74.0884 56.924 74.1455 56.924H87.8339C87.8905 56.9252 87.9445 56.9482 87.9846 56.9882C88.0247 57.0282 88.0477 57.0821 88.0489 57.1386V71.736C88.0489 71.7929 88.0263 71.8475 87.9859 71.8878C87.9456 71.928 87.8909 71.9506 87.8339 71.9506ZM74.3605 71.5213H87.6188V57.3533H74.3605V71.5213Z" fill="#D1D3D4"/>
<path d="M91.041 60.7087C90.9691 60.8296 90.8862 60.9437 90.7932 61.0493L81.9481 69.8647C81.9033 69.935 81.8415 69.993 81.7684 70.0331C81.6953 70.0732 81.6131 70.0943 81.5297 70.0943C81.4462 70.0943 81.3641 70.0732 81.2909 70.0331C81.2178 69.993 81.156 69.935 81.1112 69.8647L76.1371 64.7313C76.0697 64.6874 76.0149 64.6268 75.9779 64.5556C75.9409 64.4843 75.9229 64.4047 75.9258 64.3244C75.9286 64.2442 75.9521 64.1661 75.994 64.0975C76.036 64.029 76.0949 63.9725 76.1651 63.9333L77.4133 62.8133C77.4568 62.7545 77.5135 62.7066 77.5788 62.6737C77.6442 62.6407 77.7164 62.6235 77.7897 62.6235C77.8629 62.6235 77.9351 62.6407 78.0005 62.6737C78.0659 62.7066 78.1225 62.7545 78.166 62.8133C79.1415 63.812 80.1217 64.8091 81.1066 65.8047C81.1519 65.875 81.2141 65.9328 81.2876 65.9729C81.3612 66.0129 81.4436 66.0339 81.5273 66.0339C81.6111 66.0339 81.6935 66.0129 81.767 65.9729C81.8405 65.9328 81.9028 65.875 81.9481 65.8047L88.825 59.0053C88.8703 58.938 88.9316 58.8828 89.0033 58.8446C89.075 58.8064 89.1551 58.7864 89.2364 58.7864C89.3177 58.7864 89.3978 58.8064 89.4695 58.8446C89.5412 58.8828 89.6025 58.938 89.6478 59.0053C90.0358 59.3927 90.4239 59.78 90.8072 60.1767C90.8934 60.2805 90.973 60.3896 91.0456 60.5033L91.041 60.7087Z" fill="#388CE0"/>
<path d="M115.557 62.3607H95.8983C95.8461 62.353 95.7984 62.3269 95.7639 62.287C95.7295 62.2472 95.7105 62.1963 95.7105 62.1437C95.7105 62.091 95.7295 62.0401 95.7639 62.0003C95.7984 61.9605 95.8461 61.9343 95.8983 61.9267H115.557C115.609 61.9343 115.656 61.9605 115.691 62.0003C115.725 62.0401 115.744 62.091 115.744 62.1437C115.744 62.1963 115.725 62.2472 115.691 62.287C115.656 62.3269 115.609 62.353 115.557 62.3607Z" fill="#D1D3D4"/>
<path d="M110.33 66.948H95.8983C95.8412 66.948 95.7865 66.9254 95.7462 66.8851C95.7059 66.8449 95.6832 66.7902 95.6832 66.7333C95.6832 66.6764 95.7059 66.6218 95.7462 66.5815C95.7865 66.5413 95.8412 66.5186 95.8983 66.5186H110.33C110.387 66.5186 110.442 66.5413 110.482 66.5815C110.522 66.6218 110.545 66.6764 110.545 66.7333C110.545 66.7902 110.522 66.8449 110.482 66.8851C110.442 66.9254 110.387 66.948 110.33 66.948Z" fill="#D1D3D4"/>
<path d="M87.8339 91.8073H74.1455C74.0884 91.8073 74.0337 91.7847 73.9934 91.7445C73.9531 91.7042 73.9304 91.6496 73.9304 91.5927V77C73.9304 76.9431 73.9531 76.8885 73.9934 76.8482C74.0337 76.808 74.0884 76.7853 74.1455 76.7853H87.8339C87.8905 76.7865 87.9445 76.8095 87.9846 76.8495C88.0247 76.8895 88.0477 76.9434 88.0489 77V91.602C88.0454 91.6569 88.0214 91.7085 87.9815 91.7466C87.9417 91.7846 87.889 91.8063 87.8339 91.8073ZM74.3605 91.378H87.6188V77.2053H74.3605V91.378Z" fill="#D1D3D4"/>
<path d="M91.041 80.5607C90.9691 80.6816 90.8862 80.7957 90.7932 80.9013L81.9481 89.7167C81.6442 90.02 81.4104 90.0247 81.1112 89.7167C79.4501 88.0087 77.792 86.2976 76.1371 84.5833C76.0697 84.5394 76.0149 84.4788 75.9779 84.4076C75.9409 84.3363 75.9229 84.2567 75.9258 84.1764C75.9286 84.0962 75.9521 84.0181 75.994 83.9495C76.036 83.881 76.0949 83.8245 76.1651 83.7853L77.4133 82.6653C77.4568 82.6065 77.5135 82.5586 77.5788 82.5257C77.6442 82.4927 77.7164 82.4755 77.7897 82.4755C77.8629 82.4755 77.9351 82.4927 78.0005 82.5257C78.0659 82.5586 78.1225 82.6065 78.166 82.6653L81.1066 85.6613C81.1519 85.7317 81.2141 85.7895 81.2876 85.8296C81.3612 85.8696 81.4436 85.8906 81.5273 85.8906C81.6111 85.8906 81.6935 85.8696 81.767 85.8296C81.8405 85.7895 81.9028 85.7317 81.9481 85.6613L88.825 78.8667C88.8703 78.7993 88.9316 78.7441 89.0033 78.7059C89.075 78.6677 89.1551 78.6478 89.2364 78.6478C89.3177 78.6478 89.3978 78.6677 89.4695 78.7059C89.5412 78.7441 89.6025 78.7993 89.6478 78.8667C90.0358 79.2587 90.4239 79.646 90.8072 80.038C90.8934 80.1419 90.973 80.251 91.0456 80.3647L91.041 80.5607Z" fill="#388CE0"/>
<path d="M115.557 82.2127H95.8983C95.8416 82.2115 95.7876 82.1885 95.7475 82.1485C95.7075 82.1085 95.6844 82.0546 95.6832 81.998C95.6832 81.9411 95.7059 81.8865 95.7462 81.8462C95.7865 81.8059 95.8412 81.7833 95.8983 81.7833H115.557C115.614 81.7833 115.668 81.8059 115.709 81.8462C115.749 81.8865 115.772 81.9411 115.772 81.998C115.771 82.0546 115.747 82.1085 115.707 82.1485C115.667 82.1885 115.613 82.2115 115.557 82.2127Z" fill="#D1D3D4"/>
<path d="M110.33 86.8H95.8983C95.8412 86.8 95.7865 86.7774 95.7462 86.7371C95.7059 86.6969 95.6832 86.6423 95.6832 86.5853C95.6844 86.5288 95.7075 86.4749 95.7475 86.4349C95.7876 86.3949 95.8416 86.3719 95.8983 86.3707H110.33C110.387 86.3719 110.441 86.3949 110.481 86.4349C110.521 86.4749 110.544 86.5288 110.545 86.5853C110.545 86.6423 110.522 86.6969 110.482 86.7371C110.442 86.7774 110.387 86.8 110.33 86.8Z" fill="#D1D3D4"/>
<path d="M53.0799 74.1487C56.5254 70.4153 60.63 67.3027 64.9217 64.5633C65.9829 63.882 67.1283 63.2007 68.3905 63.1633C69.6528 63.126 71.0272 64.022 71.0646 65.282C71.0927 66.2713 70.3447 67.0927 69.6621 67.7927L60.4851 77C61.5959 79.1009 62.0644 81.4811 61.8325 83.8454C61.6007 86.2097 60.6786 88.454 59.1808 90.3" fill="white"/>
<path d="M59.1808 90.5333C59.1264 90.5349 59.0732 90.5167 59.0312 90.482C58.9841 90.4414 58.9549 90.3839 58.9496 90.322C58.9444 90.2601 58.9636 90.1986 59.0032 90.1507C60.4646 88.3374 61.3638 86.1377 61.5905 83.8214C61.8172 81.5052 61.3616 79.1734 60.2794 77.112C60.2559 77.0677 60.2472 77.017 60.2548 76.9674C60.2624 76.9178 60.2858 76.8719 60.3215 76.8367L69.4798 67.6527C70.1764 66.9527 70.859 66.1967 70.8309 65.3193C70.7982 64.176 69.5126 63.4013 68.3952 63.4527C67.2779 63.504 66.1372 64.106 65.0479 64.806C60.0597 67.9887 56.3104 71.022 53.2529 74.354C53.2108 74.3998 53.1521 74.427 53.0899 74.4296C53.0276 74.4323 52.9669 74.4101 52.921 74.368C52.8751 74.3259 52.8479 74.2674 52.8452 74.2052C52.8426 74.1431 52.8648 74.0825 52.907 74.0367C55.9925 70.6767 59.7699 67.62 64.7955 64.4093C65.9455 63.6767 67.0862 63.0093 68.3859 63.0093C69.6855 63.0093 71.2563 63.9427 71.2984 65.3427C71.3311 66.4067 70.5831 67.2513 69.8118 68.0213L60.775 77.028C61.8784 79.1562 62.3335 81.5602 62.0843 83.9435C61.8351 86.3268 60.8924 88.5852 59.3725 90.44C59.3498 90.4691 59.3207 90.4926 59.2875 90.5088C59.2542 90.5249 59.2178 90.5333 59.1808 90.5333Z" fill="#231F20"/>
<path d="M133.298 101.766L121.98 109.858L100.821 83.748C100.854 82.348 99.886 76.202 101.976 77.2147C104.065 78.2273 111.859 87.094 113.144 87.3833C114.43 87.6727 117.408 86.2167 116.959 83.3467C116.51 80.4767 115.968 75.6467 113.154 75.446C108.885 75.1427 104.916 77.9707 103.229 77.3127C101.541 76.6547 100.148 74.4193 102.901 72.7673C106.052 70.9007 112.836 69.6873 118.273 70.2753C123.71 70.8633 127.833 81.7833 128.217 89.782C129.647 94.8687 132.41 99.5027 133.298 101.766Z" fill="white"/>
<path d="M121.98 110.091C121.945 110.091 121.91 110.084 121.879 110.068C121.847 110.053 121.819 110.03 121.798 110.003L100.643 83.8973C100.607 83.8544 100.587 83.7997 100.587 83.7433C100.587 83.4633 100.559 82.9733 100.517 82.4086C100.335 79.8886 100.241 77.5833 101.101 76.9953C101.248 76.9063 101.416 76.8592 101.588 76.8592C101.759 76.8592 101.927 76.9063 102.074 76.9953C103.187 77.5226 105.739 80.0893 108.212 82.572C110.288 84.658 112.639 87.0193 113.196 87.15C113.752 87.2806 114.921 86.9633 115.753 86.1886C116.14 85.8425 116.432 85.4041 116.603 84.9144C116.774 84.4247 116.818 83.8998 116.73 83.3886L116.641 82.8193C116.22 80.052 115.585 75.866 113.14 75.6886C110.854 75.5253 108.619 76.2906 106.828 76.9066C105.244 77.448 103.995 77.8773 103.144 77.5553C102.622 77.3738 102.158 77.0554 101.801 76.6334C101.444 76.2114 101.207 75.7013 101.116 75.1566C101.055 74.48 101.293 73.4813 102.78 72.59C106.052 70.6253 113.018 69.496 118.296 70.0653C124.023 70.6906 128.062 81.9513 128.45 89.768C129.427 93.2306 131.036 96.516 132.214 98.9146C132.761 100.025 133.233 100.987 133.513 101.715C133.531 101.762 133.533 101.814 133.519 101.863C133.505 101.912 133.475 101.955 133.434 101.985L122.116 110.082C122.072 110.098 122.025 110.102 121.98 110.091ZM101.059 83.6686L122.017 109.541L133.008 101.682C132.728 101.001 132.288 100.109 131.788 99.092C130.601 96.67 128.983 93.352 127.987 89.8426C127.985 89.8256 127.985 89.8084 127.987 89.7913C127.627 82.3246 123.658 71.092 118.254 70.504C113.055 69.9393 106.225 71.0406 103.028 72.9586C102.013 73.57 101.518 74.3026 101.588 75.0866C101.67 75.5451 101.873 75.9732 102.177 76.3263C102.482 76.6793 102.875 76.9442 103.317 77.0933C104.005 77.35 105.244 76.93 106.679 76.4353C108.516 75.81 110.793 75.0353 113.177 75.194C115.982 75.3993 116.665 79.8046 117.109 82.7213L117.198 83.2906C117.298 83.8797 117.247 84.4844 117.051 85.0489C116.855 85.6134 116.52 86.1194 116.076 86.52C115.215 87.3226 113.934 87.7846 113.098 87.5933C112.438 87.444 110.685 85.7266 107.885 82.894C105.547 80.5606 102.915 77.9006 101.882 77.406C101.555 77.252 101.415 77.35 101.368 77.3826C100.657 77.8493 100.872 80.7986 100.989 82.3713C101.022 82.922 101.055 83.3653 101.059 83.6686Z" fill="#231F20"/>
<path d="M93.7664 78.876L94.248 82.6887L90.2134 81.9373L88.0629 81.536L90.0451 80.612L93.7664 78.876Z" fill="white"/>
<path d="M94.248 82.922H94.2059L88.0209 81.7693C87.9722 81.7605 87.9276 81.7362 87.8939 81.7001C87.8602 81.6639 87.8392 81.6178 87.8339 81.5687C87.8271 81.5196 87.8361 81.4696 87.8596 81.426C87.8831 81.3823 87.92 81.3473 87.9648 81.326L93.6636 78.6707C93.6968 78.6535 93.7337 78.6445 93.7711 78.6445C93.8086 78.6445 93.8454 78.6535 93.8787 78.6707C93.9106 78.6892 93.9377 78.7148 93.958 78.7456C93.9783 78.7764 93.9911 78.8114 93.9955 78.848L94.463 82.6607C94.4656 82.6933 94.4615 82.7261 94.451 82.7571C94.4405 82.7881 94.4238 82.8167 94.402 82.8411C94.3802 82.8655 94.3536 82.8853 94.3239 82.8992C94.2942 82.9131 94.262 82.9208 94.2293 82.922H94.248ZM88.825 81.438L93.9675 82.3993L93.5654 79.2213L88.825 81.438Z" fill="#231F20"/>
<path d="M123.887 78.9366L94.2433 82.67C93.9329 82.0872 93.7243 81.456 93.6262 80.8033C93.5587 80.1486 93.6046 79.4872 93.7617 78.848L123.401 75.1147L123.887 78.9366Z" fill="#FF3967"/>
<path d="M94.248 82.922C94.2072 82.9217 94.1672 82.9109 94.1319 82.8904C94.0966 82.8699 94.0673 82.8406 94.0469 82.8053C93.7194 82.1994 93.501 81.5407 93.4018 80.8593C93.3297 80.1768 93.3756 79.487 93.5374 78.82C93.5485 78.7746 93.5733 78.7338 93.6084 78.7029C93.6435 78.672 93.6872 78.6526 93.7337 78.6473L123.378 74.8907C123.44 74.8852 123.501 74.9034 123.55 74.9416C123.598 74.9797 123.63 75.0349 123.64 75.096L124.107 78.9087C124.112 78.9391 124.111 78.9703 124.103 79.0001C124.095 79.0299 124.08 79.0576 124.06 79.0813C124.042 79.105 124.018 79.1246 123.992 79.139C123.965 79.1535 123.936 79.1624 123.906 79.1653L94.2667 82.922H94.248ZM93.9581 79.0907C93.8364 79.653 93.8049 80.2311 93.8646 80.8033C93.9485 81.3721 94.1237 81.9236 94.3835 82.4367L123.63 78.7313L123.205 75.3853L93.9581 79.0907Z" fill="#231F20"/>
<path d="M128.635 78.3397L123.895 78.94L123.41 75.1298L128.15 74.5296C128.431 74.4941 128.714 74.5712 128.937 74.7441C129.161 74.9169 129.306 75.1713 129.342 75.4512L129.558 77.1503C129.593 77.4302 129.516 77.7128 129.343 77.9359C129.17 78.1589 128.915 78.3042 128.635 78.3397Z" fill="white"/>
<path d="M123.887 79.17C123.83 79.1694 123.775 79.1484 123.732 79.1107C123.689 79.073 123.662 79.0212 123.654 78.9647L123.186 75.152C123.182 75.1216 123.184 75.0907 123.192 75.061C123.2 75.0314 123.214 75.0036 123.233 74.9793C123.272 74.9317 123.327 74.9001 123.387 74.8907L128.128 74.2933C128.47 74.251 128.815 74.3456 129.087 74.5563C129.359 74.767 129.537 75.0768 129.582 75.418L129.797 77.1167C129.839 77.4581 129.744 77.8024 129.533 78.0743C129.322 78.3463 129.012 78.5238 128.67 78.568L123.93 79.1653L123.887 79.17ZM123.663 75.3247L124.088 78.6753L128.6 78.106C128.819 78.0758 129.017 77.961 129.151 77.7864C129.286 77.6118 129.346 77.3914 129.32 77.1727L129.105 75.474C129.091 75.3654 129.056 75.2606 129.001 75.1656C128.947 75.0707 128.874 74.9874 128.787 74.9206C128.7 74.8538 128.601 74.8049 128.495 74.7765C128.389 74.7481 128.278 74.7409 128.17 74.7553L123.663 75.3247Z" fill="#231F20"/>
<path d="M124.964 74.9267L124.421 74.9954L124.905 78.8055L125.448 78.7368L124.964 74.9267Z" fill="#231F20"/>
<path d="M126.042 74.7921L125.499 74.8608L125.983 78.6709L126.526 78.6022L126.042 74.7921Z" fill="#231F20"/>
<path d="M90.0451 80.612L90.2134 81.9373L88.0629 81.536L90.0451 80.612Z" fill="#93E280"/>
<path d="M90.2275 82.1707H90.1807L88.0349 81.7693C87.9862 81.7605 87.9417 81.7362 87.908 81.7001C87.8743 81.6639 87.8532 81.6178 87.8479 81.5687C87.8411 81.5196 87.8501 81.4696 87.8736 81.426C87.8972 81.3824 87.934 81.3473 87.9788 81.326L89.9563 80.3927C89.9896 80.3755 90.0264 80.3665 90.0639 80.3665C90.1013 80.3665 90.1382 80.3755 90.1714 80.3927C90.2033 80.4112 90.2305 80.4368 90.2507 80.4676C90.271 80.4984 90.2839 80.5334 90.2883 80.57L90.4566 81.8907C90.4612 81.9235 90.4588 81.957 90.4495 81.9889C90.4401 82.0208 90.4241 82.0503 90.4024 82.0755C90.3807 82.1006 90.3539 82.1209 90.3237 82.1349C90.2936 82.1489 90.2608 82.1563 90.2275 82.1567V82.1707ZM88.825 81.438L89.9423 81.648L89.8582 80.9573L88.825 81.438Z" fill="#231F20"/>
<path d="M101.887 85.064C101.887 85.064 98.9604 81.438 98.1049 80.0987C96.7024 77.9147 100.148 75.9827 101.377 76.8973C102.261 77.546 106.814 81.564 107.731 82.4273" fill="white"/>
<path d="M101.887 85.2973C101.852 85.2975 101.817 85.2896 101.785 85.2742C101.754 85.2589 101.726 85.2364 101.705 85.2087C101.588 85.064 98.764 81.5593 97.9085 80.22C97.6148 79.7725 97.4999 79.2314 97.5865 78.7035C97.673 78.1756 97.9547 77.6993 98.376 77.3687C99.2408 76.5613 100.713 76.104 101.555 76.7107C102.396 77.3173 107.001 81.3773 107.927 82.2593C107.949 82.2805 107.967 82.3058 107.98 82.3339C107.993 82.362 108 82.3923 108 82.4231C108.001 82.4538 107.996 82.4845 107.985 82.5132C107.974 82.542 107.958 82.5683 107.936 82.5907C107.915 82.613 107.89 82.631 107.862 82.6436C107.833 82.6562 107.803 82.6631 107.772 82.664C107.741 82.6648 107.711 82.6596 107.682 82.6487C107.653 82.6377 107.627 82.6211 107.604 82.6C106.669 81.7227 102.144 77.7233 101.274 77.0887C100.713 76.678 99.4839 76.972 98.6939 77.7093C98.3621 77.9736 98.1403 78.3512 98.0712 78.7693C98.0021 79.1873 98.0907 79.616 98.3199 79.9727C99.1614 81.2887 102.06 84.882 102.088 84.9193C102.108 84.9427 102.123 84.9699 102.132 84.9991C102.141 85.0283 102.144 85.0591 102.141 85.0896C102.138 85.12 102.129 85.1496 102.114 85.1765C102.099 85.2033 102.079 85.227 102.055 85.246C102.032 85.2654 102.005 85.28 101.976 85.2888C101.947 85.2976 101.917 85.3005 101.887 85.2973Z" fill="#231F20"/>
<path d="M131.237 92.974L115.225 105.103L122.672 124.955L151.203 123.559L131.237 92.974Z" fill="#388CE0"/>
<path d="M122.672 125.188C122.625 125.188 122.578 125.174 122.539 125.148C122.5 125.121 122.469 125.083 122.452 125.039L115.005 105.187C114.987 105.14 114.984 105.089 114.998 105.041C115.011 104.993 115.04 104.951 115.08 104.921L131.092 92.7873C131.117 92.7676 131.147 92.7537 131.178 92.7465C131.21 92.7392 131.242 92.7388 131.274 92.7453C131.305 92.7508 131.335 92.7627 131.362 92.7804C131.389 92.7981 131.411 92.8211 131.428 92.848L151.391 123.433C151.414 123.467 151.428 123.507 151.431 123.548C151.434 123.589 151.426 123.631 151.407 123.667C151.388 123.704 151.36 123.735 151.325 123.757C151.29 123.779 151.25 123.792 151.208 123.793L122.691 125.193L122.672 125.188ZM115.505 105.187L122.831 124.717L150.783 123.349L131.176 93.3333L115.505 105.187Z" fill="#231F20"/>
</svg>
