<svg width="24" height="25" viewBox="0 0 24 25" fill="none" xmlns="http://www.w3.org/2000/svg">
<path d="M9 3.5V5.9C9 6.46005 9 6.74008 9.10899 6.95399C9.20487 7.14215 9.35785 7.29513 9.54601 7.39101C9.75992 7.5 10.0399 7.5 10.6 7.5H12.4C12.9601 7.5 13.2401 7.5 13.454 7.39101C13.6422 7.29513 13.7951 7.14215 13.891 6.95399C14 6.74008 14 6.46005 14 5.9V4M19 9.6225V18.3C19 19.4201 19 19.9802 18.782 20.408C18.5903 20.7843 18.2843 21.0903 17.908 21.282C17.4802 21.5 16.9201 21.5 15.8 21.5H8.2C7.07989 21.5 6.51984 21.5 6.09202 21.282C5.71569 21.0903 5.40973 20.7843 5.21799 20.408C5 19.9802 5 19.4201 5 18.3V6.7C5 5.57989 5 5.01984 5.21799 4.59202C5.40973 4.21569 5.71569 3.90973 6.09202 3.71799C6.51984 3.5 7.07989 3.5 8.2 3.5H13.462C14.0268 3.5 14.3092 3.5 14.5699 3.57183C14.8009 3.63546 15.0186 3.74008 15.2126 3.8807C15.4315 4.03943 15.608 4.25994 15.9608 4.70098L18.2988 7.62348C18.5587 7.94834 18.6886 8.11078 18.781 8.29166C18.863 8.45213 18.9229 8.62295 18.9592 8.79948C19 8.99845 19 9.20646 19 9.6225ZM14 16C14 17.3807 12.8807 18.5 11.5 18.5C10.1193 18.5 9 17.3807 9 16C9 14.6193 10.1193 13.5 11.5 13.5C12.8807 13.5 14 14.6193 14 16Z" stroke="white" stroke-width="2" stroke-linecap="round" stroke-linejoin="round"/>
</svg>
